%TF.GenerationSoftware,KiCad,Pcbnew,8.0.2-1*%
%TF.CreationDate,2024-12-19T12:14:32-05:00*%
%TF.ProjectId,Frame PCB v3,4672616d-6520-4504-9342-2076332e6b69,rev?*%
%TF.SameCoordinates,Original*%
%TF.FileFunction,Legend,Top*%
%TF.FilePolarity,Positive*%
%FSLAX46Y46*%
G04 Gerber Fmt 4.6, Leading zero omitted, Abs format (unit mm)*
G04 Created by KiCad (PCBNEW 8.0.2-1) date 2024-12-19 12:14:32*
%MOMM*%
%LPD*%
G01*
G04 APERTURE LIST*
%ADD10C,0.100000*%
%ADD11C,0.150000*%
%ADD12C,0.120000*%
G04 APERTURE END LIST*
D10*
X163006741Y-74641419D02*
X162959122Y-74617609D01*
X162959122Y-74617609D02*
X162887693Y-74617609D01*
X162887693Y-74617609D02*
X162816265Y-74641419D01*
X162816265Y-74641419D02*
X162768646Y-74689038D01*
X162768646Y-74689038D02*
X162744836Y-74736657D01*
X162744836Y-74736657D02*
X162721027Y-74831895D01*
X162721027Y-74831895D02*
X162721027Y-74903323D01*
X162721027Y-74903323D02*
X162744836Y-74998561D01*
X162744836Y-74998561D02*
X162768646Y-75046180D01*
X162768646Y-75046180D02*
X162816265Y-75093800D01*
X162816265Y-75093800D02*
X162887693Y-75117609D01*
X162887693Y-75117609D02*
X162935312Y-75117609D01*
X162935312Y-75117609D02*
X163006741Y-75093800D01*
X163006741Y-75093800D02*
X163030550Y-75069990D01*
X163030550Y-75069990D02*
X163030550Y-74903323D01*
X163030550Y-74903323D02*
X162935312Y-74903323D01*
X163244836Y-75117609D02*
X163244836Y-74617609D01*
X163244836Y-74617609D02*
X163530550Y-75117609D01*
X163530550Y-75117609D02*
X163530550Y-74617609D01*
X163768646Y-75117609D02*
X163768646Y-74617609D01*
X163768646Y-74617609D02*
X163887694Y-74617609D01*
X163887694Y-74617609D02*
X163959122Y-74641419D01*
X163959122Y-74641419D02*
X164006741Y-74689038D01*
X164006741Y-74689038D02*
X164030551Y-74736657D01*
X164030551Y-74736657D02*
X164054360Y-74831895D01*
X164054360Y-74831895D02*
X164054360Y-74903323D01*
X164054360Y-74903323D02*
X164030551Y-74998561D01*
X164030551Y-74998561D02*
X164006741Y-75046180D01*
X164006741Y-75046180D02*
X163959122Y-75093800D01*
X163959122Y-75093800D02*
X163887694Y-75117609D01*
X163887694Y-75117609D02*
X163768646Y-75117609D01*
X151322741Y-86579419D02*
X151275122Y-86555609D01*
X151275122Y-86555609D02*
X151203693Y-86555609D01*
X151203693Y-86555609D02*
X151132265Y-86579419D01*
X151132265Y-86579419D02*
X151084646Y-86627038D01*
X151084646Y-86627038D02*
X151060836Y-86674657D01*
X151060836Y-86674657D02*
X151037027Y-86769895D01*
X151037027Y-86769895D02*
X151037027Y-86841323D01*
X151037027Y-86841323D02*
X151060836Y-86936561D01*
X151060836Y-86936561D02*
X151084646Y-86984180D01*
X151084646Y-86984180D02*
X151132265Y-87031800D01*
X151132265Y-87031800D02*
X151203693Y-87055609D01*
X151203693Y-87055609D02*
X151251312Y-87055609D01*
X151251312Y-87055609D02*
X151322741Y-87031800D01*
X151322741Y-87031800D02*
X151346550Y-87007990D01*
X151346550Y-87007990D02*
X151346550Y-86841323D01*
X151346550Y-86841323D02*
X151251312Y-86841323D01*
X151560836Y-87055609D02*
X151560836Y-86555609D01*
X151560836Y-86555609D02*
X151846550Y-87055609D01*
X151846550Y-87055609D02*
X151846550Y-86555609D01*
X152084646Y-87055609D02*
X152084646Y-86555609D01*
X152084646Y-86555609D02*
X152203694Y-86555609D01*
X152203694Y-86555609D02*
X152275122Y-86579419D01*
X152275122Y-86579419D02*
X152322741Y-86627038D01*
X152322741Y-86627038D02*
X152346551Y-86674657D01*
X152346551Y-86674657D02*
X152370360Y-86769895D01*
X152370360Y-86769895D02*
X152370360Y-86841323D01*
X152370360Y-86841323D02*
X152346551Y-86936561D01*
X152346551Y-86936561D02*
X152322741Y-86984180D01*
X152322741Y-86984180D02*
X152275122Y-87031800D01*
X152275122Y-87031800D02*
X152203694Y-87055609D01*
X152203694Y-87055609D02*
X152084646Y-87055609D01*
X141893027Y-75347800D02*
X141964455Y-75371609D01*
X141964455Y-75371609D02*
X142083503Y-75371609D01*
X142083503Y-75371609D02*
X142131122Y-75347800D01*
X142131122Y-75347800D02*
X142154931Y-75323990D01*
X142154931Y-75323990D02*
X142178741Y-75276371D01*
X142178741Y-75276371D02*
X142178741Y-75228752D01*
X142178741Y-75228752D02*
X142154931Y-75181133D01*
X142154931Y-75181133D02*
X142131122Y-75157323D01*
X142131122Y-75157323D02*
X142083503Y-75133514D01*
X142083503Y-75133514D02*
X141988265Y-75109704D01*
X141988265Y-75109704D02*
X141940646Y-75085895D01*
X141940646Y-75085895D02*
X141916836Y-75062085D01*
X141916836Y-75062085D02*
X141893027Y-75014466D01*
X141893027Y-75014466D02*
X141893027Y-74966847D01*
X141893027Y-74966847D02*
X141916836Y-74919228D01*
X141916836Y-74919228D02*
X141940646Y-74895419D01*
X141940646Y-74895419D02*
X141988265Y-74871609D01*
X141988265Y-74871609D02*
X142107312Y-74871609D01*
X142107312Y-74871609D02*
X142178741Y-74895419D01*
X142345407Y-75038276D02*
X142440645Y-75371609D01*
X142440645Y-75371609D02*
X142535883Y-75133514D01*
X142535883Y-75133514D02*
X142631121Y-75371609D01*
X142631121Y-75371609D02*
X142726359Y-75038276D01*
X142916836Y-75371609D02*
X142916836Y-75038276D01*
X142916836Y-74871609D02*
X142893027Y-74895419D01*
X142893027Y-74895419D02*
X142916836Y-74919228D01*
X142916836Y-74919228D02*
X142940646Y-74895419D01*
X142940646Y-74895419D02*
X142916836Y-74871609D01*
X142916836Y-74871609D02*
X142916836Y-74919228D01*
X143083503Y-75038276D02*
X143273979Y-75038276D01*
X143154931Y-74871609D02*
X143154931Y-75300180D01*
X143154931Y-75300180D02*
X143178741Y-75347800D01*
X143178741Y-75347800D02*
X143226360Y-75371609D01*
X143226360Y-75371609D02*
X143273979Y-75371609D01*
X143654931Y-75347800D02*
X143607312Y-75371609D01*
X143607312Y-75371609D02*
X143512074Y-75371609D01*
X143512074Y-75371609D02*
X143464455Y-75347800D01*
X143464455Y-75347800D02*
X143440645Y-75323990D01*
X143440645Y-75323990D02*
X143416836Y-75276371D01*
X143416836Y-75276371D02*
X143416836Y-75133514D01*
X143416836Y-75133514D02*
X143440645Y-75085895D01*
X143440645Y-75085895D02*
X143464455Y-75062085D01*
X143464455Y-75062085D02*
X143512074Y-75038276D01*
X143512074Y-75038276D02*
X143607312Y-75038276D01*
X143607312Y-75038276D02*
X143654931Y-75062085D01*
X143869216Y-75371609D02*
X143869216Y-74871609D01*
X144083502Y-75371609D02*
X144083502Y-75109704D01*
X144083502Y-75109704D02*
X144059692Y-75062085D01*
X144059692Y-75062085D02*
X144012073Y-75038276D01*
X144012073Y-75038276D02*
X143940645Y-75038276D01*
X143940645Y-75038276D02*
X143893026Y-75062085D01*
X143893026Y-75062085D02*
X143869216Y-75085895D01*
X185350836Y-85023609D02*
X185350836Y-84523609D01*
X185350836Y-84523609D02*
X185541312Y-84523609D01*
X185541312Y-84523609D02*
X185588931Y-84547419D01*
X185588931Y-84547419D02*
X185612741Y-84571228D01*
X185612741Y-84571228D02*
X185636550Y-84618847D01*
X185636550Y-84618847D02*
X185636550Y-84690276D01*
X185636550Y-84690276D02*
X185612741Y-84737895D01*
X185612741Y-84737895D02*
X185588931Y-84761704D01*
X185588931Y-84761704D02*
X185541312Y-84785514D01*
X185541312Y-84785514D02*
X185350836Y-84785514D01*
X185803217Y-84523609D02*
X185922265Y-85023609D01*
X185922265Y-85023609D02*
X186017503Y-84666466D01*
X186017503Y-84666466D02*
X186112741Y-85023609D01*
X186112741Y-85023609D02*
X186231789Y-84523609D01*
X186707979Y-85023609D02*
X186541313Y-84785514D01*
X186422265Y-85023609D02*
X186422265Y-84523609D01*
X186422265Y-84523609D02*
X186612741Y-84523609D01*
X186612741Y-84523609D02*
X186660360Y-84547419D01*
X186660360Y-84547419D02*
X186684170Y-84571228D01*
X186684170Y-84571228D02*
X186707979Y-84618847D01*
X186707979Y-84618847D02*
X186707979Y-84690276D01*
X186707979Y-84690276D02*
X186684170Y-84737895D01*
X186684170Y-84737895D02*
X186660360Y-84761704D01*
X186660360Y-84761704D02*
X186612741Y-84785514D01*
X186612741Y-84785514D02*
X186422265Y-84785514D01*
X137852836Y-86547609D02*
X137852836Y-86047609D01*
X137852836Y-86047609D02*
X138043312Y-86047609D01*
X138043312Y-86047609D02*
X138090931Y-86071419D01*
X138090931Y-86071419D02*
X138114741Y-86095228D01*
X138114741Y-86095228D02*
X138138550Y-86142847D01*
X138138550Y-86142847D02*
X138138550Y-86214276D01*
X138138550Y-86214276D02*
X138114741Y-86261895D01*
X138114741Y-86261895D02*
X138090931Y-86285704D01*
X138090931Y-86285704D02*
X138043312Y-86309514D01*
X138043312Y-86309514D02*
X137852836Y-86309514D01*
X138424265Y-86547609D02*
X138376646Y-86523800D01*
X138376646Y-86523800D02*
X138352836Y-86499990D01*
X138352836Y-86499990D02*
X138329027Y-86452371D01*
X138329027Y-86452371D02*
X138329027Y-86309514D01*
X138329027Y-86309514D02*
X138352836Y-86261895D01*
X138352836Y-86261895D02*
X138376646Y-86238085D01*
X138376646Y-86238085D02*
X138424265Y-86214276D01*
X138424265Y-86214276D02*
X138495693Y-86214276D01*
X138495693Y-86214276D02*
X138543312Y-86238085D01*
X138543312Y-86238085D02*
X138567122Y-86261895D01*
X138567122Y-86261895D02*
X138590931Y-86309514D01*
X138590931Y-86309514D02*
X138590931Y-86452371D01*
X138590931Y-86452371D02*
X138567122Y-86499990D01*
X138567122Y-86499990D02*
X138543312Y-86523800D01*
X138543312Y-86523800D02*
X138495693Y-86547609D01*
X138495693Y-86547609D02*
X138424265Y-86547609D01*
X138757598Y-86214276D02*
X138852836Y-86547609D01*
X138852836Y-86547609D02*
X138948074Y-86309514D01*
X138948074Y-86309514D02*
X139043312Y-86547609D01*
X139043312Y-86547609D02*
X139138550Y-86214276D01*
X139519503Y-86523800D02*
X139471884Y-86547609D01*
X139471884Y-86547609D02*
X139376646Y-86547609D01*
X139376646Y-86547609D02*
X139329027Y-86523800D01*
X139329027Y-86523800D02*
X139305218Y-86476180D01*
X139305218Y-86476180D02*
X139305218Y-86285704D01*
X139305218Y-86285704D02*
X139329027Y-86238085D01*
X139329027Y-86238085D02*
X139376646Y-86214276D01*
X139376646Y-86214276D02*
X139471884Y-86214276D01*
X139471884Y-86214276D02*
X139519503Y-86238085D01*
X139519503Y-86238085D02*
X139543313Y-86285704D01*
X139543313Y-86285704D02*
X139543313Y-86333323D01*
X139543313Y-86333323D02*
X139305218Y-86380942D01*
X139757598Y-86547609D02*
X139757598Y-86214276D01*
X139757598Y-86309514D02*
X139781408Y-86261895D01*
X139781408Y-86261895D02*
X139805217Y-86238085D01*
X139805217Y-86238085D02*
X139852836Y-86214276D01*
X139852836Y-86214276D02*
X139900455Y-86214276D01*
X140424265Y-86523800D02*
X140495693Y-86547609D01*
X140495693Y-86547609D02*
X140614741Y-86547609D01*
X140614741Y-86547609D02*
X140662360Y-86523800D01*
X140662360Y-86523800D02*
X140686169Y-86499990D01*
X140686169Y-86499990D02*
X140709979Y-86452371D01*
X140709979Y-86452371D02*
X140709979Y-86404752D01*
X140709979Y-86404752D02*
X140686169Y-86357133D01*
X140686169Y-86357133D02*
X140662360Y-86333323D01*
X140662360Y-86333323D02*
X140614741Y-86309514D01*
X140614741Y-86309514D02*
X140519503Y-86285704D01*
X140519503Y-86285704D02*
X140471884Y-86261895D01*
X140471884Y-86261895D02*
X140448074Y-86238085D01*
X140448074Y-86238085D02*
X140424265Y-86190466D01*
X140424265Y-86190466D02*
X140424265Y-86142847D01*
X140424265Y-86142847D02*
X140448074Y-86095228D01*
X140448074Y-86095228D02*
X140471884Y-86071419D01*
X140471884Y-86071419D02*
X140519503Y-86047609D01*
X140519503Y-86047609D02*
X140638550Y-86047609D01*
X140638550Y-86047609D02*
X140709979Y-86071419D01*
X140876645Y-86214276D02*
X140971883Y-86547609D01*
X140971883Y-86547609D02*
X141067121Y-86309514D01*
X141067121Y-86309514D02*
X141162359Y-86547609D01*
X141162359Y-86547609D02*
X141257597Y-86214276D01*
X141448074Y-86547609D02*
X141448074Y-86214276D01*
X141448074Y-86047609D02*
X141424265Y-86071419D01*
X141424265Y-86071419D02*
X141448074Y-86095228D01*
X141448074Y-86095228D02*
X141471884Y-86071419D01*
X141471884Y-86071419D02*
X141448074Y-86047609D01*
X141448074Y-86047609D02*
X141448074Y-86095228D01*
X141614741Y-86214276D02*
X141805217Y-86214276D01*
X141686169Y-86047609D02*
X141686169Y-86476180D01*
X141686169Y-86476180D02*
X141709979Y-86523800D01*
X141709979Y-86523800D02*
X141757598Y-86547609D01*
X141757598Y-86547609D02*
X141805217Y-86547609D01*
X142186169Y-86523800D02*
X142138550Y-86547609D01*
X142138550Y-86547609D02*
X142043312Y-86547609D01*
X142043312Y-86547609D02*
X141995693Y-86523800D01*
X141995693Y-86523800D02*
X141971883Y-86499990D01*
X141971883Y-86499990D02*
X141948074Y-86452371D01*
X141948074Y-86452371D02*
X141948074Y-86309514D01*
X141948074Y-86309514D02*
X141971883Y-86261895D01*
X141971883Y-86261895D02*
X141995693Y-86238085D01*
X141995693Y-86238085D02*
X142043312Y-86214276D01*
X142043312Y-86214276D02*
X142138550Y-86214276D01*
X142138550Y-86214276D02*
X142186169Y-86238085D01*
X142400454Y-86547609D02*
X142400454Y-86047609D01*
X142614740Y-86547609D02*
X142614740Y-86285704D01*
X142614740Y-86285704D02*
X142590930Y-86238085D01*
X142590930Y-86238085D02*
X142543311Y-86214276D01*
X142543311Y-86214276D02*
X142471883Y-86214276D01*
X142471883Y-86214276D02*
X142424264Y-86238085D01*
X142424264Y-86238085D02*
X142400454Y-86261895D01*
X129955027Y-75347800D02*
X130026455Y-75371609D01*
X130026455Y-75371609D02*
X130145503Y-75371609D01*
X130145503Y-75371609D02*
X130193122Y-75347800D01*
X130193122Y-75347800D02*
X130216931Y-75323990D01*
X130216931Y-75323990D02*
X130240741Y-75276371D01*
X130240741Y-75276371D02*
X130240741Y-75228752D01*
X130240741Y-75228752D02*
X130216931Y-75181133D01*
X130216931Y-75181133D02*
X130193122Y-75157323D01*
X130193122Y-75157323D02*
X130145503Y-75133514D01*
X130145503Y-75133514D02*
X130050265Y-75109704D01*
X130050265Y-75109704D02*
X130002646Y-75085895D01*
X130002646Y-75085895D02*
X129978836Y-75062085D01*
X129978836Y-75062085D02*
X129955027Y-75014466D01*
X129955027Y-75014466D02*
X129955027Y-74966847D01*
X129955027Y-74966847D02*
X129978836Y-74919228D01*
X129978836Y-74919228D02*
X130002646Y-74895419D01*
X130002646Y-74895419D02*
X130050265Y-74871609D01*
X130050265Y-74871609D02*
X130169312Y-74871609D01*
X130169312Y-74871609D02*
X130240741Y-74895419D01*
X130407407Y-75038276D02*
X130502645Y-75371609D01*
X130502645Y-75371609D02*
X130597883Y-75133514D01*
X130597883Y-75133514D02*
X130693121Y-75371609D01*
X130693121Y-75371609D02*
X130788359Y-75038276D01*
X130978836Y-75371609D02*
X130978836Y-75038276D01*
X130978836Y-74871609D02*
X130955027Y-74895419D01*
X130955027Y-74895419D02*
X130978836Y-74919228D01*
X130978836Y-74919228D02*
X131002646Y-74895419D01*
X131002646Y-74895419D02*
X130978836Y-74871609D01*
X130978836Y-74871609D02*
X130978836Y-74919228D01*
X131145503Y-75038276D02*
X131335979Y-75038276D01*
X131216931Y-74871609D02*
X131216931Y-75300180D01*
X131216931Y-75300180D02*
X131240741Y-75347800D01*
X131240741Y-75347800D02*
X131288360Y-75371609D01*
X131288360Y-75371609D02*
X131335979Y-75371609D01*
X131716931Y-75347800D02*
X131669312Y-75371609D01*
X131669312Y-75371609D02*
X131574074Y-75371609D01*
X131574074Y-75371609D02*
X131526455Y-75347800D01*
X131526455Y-75347800D02*
X131502645Y-75323990D01*
X131502645Y-75323990D02*
X131478836Y-75276371D01*
X131478836Y-75276371D02*
X131478836Y-75133514D01*
X131478836Y-75133514D02*
X131502645Y-75085895D01*
X131502645Y-75085895D02*
X131526455Y-75062085D01*
X131526455Y-75062085D02*
X131574074Y-75038276D01*
X131574074Y-75038276D02*
X131669312Y-75038276D01*
X131669312Y-75038276D02*
X131716931Y-75062085D01*
X131931216Y-75371609D02*
X131931216Y-74871609D01*
X132145502Y-75371609D02*
X132145502Y-75109704D01*
X132145502Y-75109704D02*
X132121692Y-75062085D01*
X132121692Y-75062085D02*
X132074073Y-75038276D01*
X132074073Y-75038276D02*
X132002645Y-75038276D01*
X132002645Y-75038276D02*
X131955026Y-75062085D01*
X131955026Y-75062085D02*
X131931216Y-75085895D01*
X185612741Y-82007419D02*
X185565122Y-81983609D01*
X185565122Y-81983609D02*
X185493693Y-81983609D01*
X185493693Y-81983609D02*
X185422265Y-82007419D01*
X185422265Y-82007419D02*
X185374646Y-82055038D01*
X185374646Y-82055038D02*
X185350836Y-82102657D01*
X185350836Y-82102657D02*
X185327027Y-82197895D01*
X185327027Y-82197895D02*
X185327027Y-82269323D01*
X185327027Y-82269323D02*
X185350836Y-82364561D01*
X185350836Y-82364561D02*
X185374646Y-82412180D01*
X185374646Y-82412180D02*
X185422265Y-82459800D01*
X185422265Y-82459800D02*
X185493693Y-82483609D01*
X185493693Y-82483609D02*
X185541312Y-82483609D01*
X185541312Y-82483609D02*
X185612741Y-82459800D01*
X185612741Y-82459800D02*
X185636550Y-82435990D01*
X185636550Y-82435990D02*
X185636550Y-82269323D01*
X185636550Y-82269323D02*
X185541312Y-82269323D01*
X185850836Y-82483609D02*
X185850836Y-81983609D01*
X185850836Y-81983609D02*
X186136550Y-82483609D01*
X186136550Y-82483609D02*
X186136550Y-81983609D01*
X186374646Y-82483609D02*
X186374646Y-81983609D01*
X186374646Y-81983609D02*
X186493694Y-81983609D01*
X186493694Y-81983609D02*
X186565122Y-82007419D01*
X186565122Y-82007419D02*
X186612741Y-82055038D01*
X186612741Y-82055038D02*
X186636551Y-82102657D01*
X186636551Y-82102657D02*
X186660360Y-82197895D01*
X186660360Y-82197895D02*
X186660360Y-82269323D01*
X186660360Y-82269323D02*
X186636551Y-82364561D01*
X186636551Y-82364561D02*
X186612741Y-82412180D01*
X186612741Y-82412180D02*
X186565122Y-82459800D01*
X186565122Y-82459800D02*
X186493694Y-82483609D01*
X186493694Y-82483609D02*
X186374646Y-82483609D01*
X133026836Y-75371609D02*
X133026836Y-74871609D01*
X133026836Y-74871609D02*
X133217312Y-74871609D01*
X133217312Y-74871609D02*
X133264931Y-74895419D01*
X133264931Y-74895419D02*
X133288741Y-74919228D01*
X133288741Y-74919228D02*
X133312550Y-74966847D01*
X133312550Y-74966847D02*
X133312550Y-75038276D01*
X133312550Y-75038276D02*
X133288741Y-75085895D01*
X133288741Y-75085895D02*
X133264931Y-75109704D01*
X133264931Y-75109704D02*
X133217312Y-75133514D01*
X133217312Y-75133514D02*
X133026836Y-75133514D01*
X133479217Y-74871609D02*
X133598265Y-75371609D01*
X133598265Y-75371609D02*
X133693503Y-75014466D01*
X133693503Y-75014466D02*
X133788741Y-75371609D01*
X133788741Y-75371609D02*
X133907789Y-74871609D01*
X134383979Y-75371609D02*
X134217313Y-75133514D01*
X134098265Y-75371609D02*
X134098265Y-74871609D01*
X134098265Y-74871609D02*
X134288741Y-74871609D01*
X134288741Y-74871609D02*
X134336360Y-74895419D01*
X134336360Y-74895419D02*
X134360170Y-74919228D01*
X134360170Y-74919228D02*
X134383979Y-74966847D01*
X134383979Y-74966847D02*
X134383979Y-75038276D01*
X134383979Y-75038276D02*
X134360170Y-75085895D01*
X134360170Y-75085895D02*
X134336360Y-75109704D01*
X134336360Y-75109704D02*
X134288741Y-75133514D01*
X134288741Y-75133514D02*
X134098265Y-75133514D01*
X131431408Y-86047609D02*
X131598074Y-86547609D01*
X131598074Y-86547609D02*
X131764741Y-86047609D01*
X131931407Y-86547609D02*
X131931407Y-86047609D01*
X132169502Y-86547609D02*
X132169502Y-86047609D01*
X132169502Y-86047609D02*
X132455216Y-86547609D01*
X132455216Y-86547609D02*
X132455216Y-86047609D01*
X185279408Y-79189609D02*
X185446074Y-79689609D01*
X185446074Y-79689609D02*
X185612741Y-79189609D01*
X186446073Y-79689609D02*
X186279407Y-79451514D01*
X186160359Y-79689609D02*
X186160359Y-79189609D01*
X186160359Y-79189609D02*
X186350835Y-79189609D01*
X186350835Y-79189609D02*
X186398454Y-79213419D01*
X186398454Y-79213419D02*
X186422264Y-79237228D01*
X186422264Y-79237228D02*
X186446073Y-79284847D01*
X186446073Y-79284847D02*
X186446073Y-79356276D01*
X186446073Y-79356276D02*
X186422264Y-79403895D01*
X186422264Y-79403895D02*
X186398454Y-79427704D01*
X186398454Y-79427704D02*
X186350835Y-79451514D01*
X186350835Y-79451514D02*
X186160359Y-79451514D01*
X186612740Y-79189609D02*
X186946073Y-79689609D01*
X186946073Y-79189609D02*
X186612740Y-79689609D01*
X148020741Y-74895419D02*
X147973122Y-74871609D01*
X147973122Y-74871609D02*
X147901693Y-74871609D01*
X147901693Y-74871609D02*
X147830265Y-74895419D01*
X147830265Y-74895419D02*
X147782646Y-74943038D01*
X147782646Y-74943038D02*
X147758836Y-74990657D01*
X147758836Y-74990657D02*
X147735027Y-75085895D01*
X147735027Y-75085895D02*
X147735027Y-75157323D01*
X147735027Y-75157323D02*
X147758836Y-75252561D01*
X147758836Y-75252561D02*
X147782646Y-75300180D01*
X147782646Y-75300180D02*
X147830265Y-75347800D01*
X147830265Y-75347800D02*
X147901693Y-75371609D01*
X147901693Y-75371609D02*
X147949312Y-75371609D01*
X147949312Y-75371609D02*
X148020741Y-75347800D01*
X148020741Y-75347800D02*
X148044550Y-75323990D01*
X148044550Y-75323990D02*
X148044550Y-75157323D01*
X148044550Y-75157323D02*
X147949312Y-75157323D01*
X148258836Y-75371609D02*
X148258836Y-74871609D01*
X148258836Y-74871609D02*
X148544550Y-75371609D01*
X148544550Y-75371609D02*
X148544550Y-74871609D01*
X148782646Y-75371609D02*
X148782646Y-74871609D01*
X148782646Y-74871609D02*
X148901694Y-74871609D01*
X148901694Y-74871609D02*
X148973122Y-74895419D01*
X148973122Y-74895419D02*
X149020741Y-74943038D01*
X149020741Y-74943038D02*
X149044551Y-74990657D01*
X149044551Y-74990657D02*
X149068360Y-75085895D01*
X149068360Y-75085895D02*
X149068360Y-75157323D01*
X149068360Y-75157323D02*
X149044551Y-75252561D01*
X149044551Y-75252561D02*
X149020741Y-75300180D01*
X149020741Y-75300180D02*
X148973122Y-75347800D01*
X148973122Y-75347800D02*
X148901694Y-75371609D01*
X148901694Y-75371609D02*
X148782646Y-75371609D01*
X153854836Y-86865133D02*
X154235789Y-86865133D01*
X154045312Y-87055609D02*
X154045312Y-86674657D01*
X154711979Y-86555609D02*
X154473884Y-86555609D01*
X154473884Y-86555609D02*
X154450075Y-86793704D01*
X154450075Y-86793704D02*
X154473884Y-86769895D01*
X154473884Y-86769895D02*
X154521503Y-86746085D01*
X154521503Y-86746085D02*
X154640551Y-86746085D01*
X154640551Y-86746085D02*
X154688170Y-86769895D01*
X154688170Y-86769895D02*
X154711979Y-86793704D01*
X154711979Y-86793704D02*
X154735789Y-86841323D01*
X154735789Y-86841323D02*
X154735789Y-86960371D01*
X154735789Y-86960371D02*
X154711979Y-87007990D01*
X154711979Y-87007990D02*
X154688170Y-87031800D01*
X154688170Y-87031800D02*
X154640551Y-87055609D01*
X154640551Y-87055609D02*
X154521503Y-87055609D01*
X154521503Y-87055609D02*
X154473884Y-87031800D01*
X154473884Y-87031800D02*
X154450075Y-87007990D01*
X154878646Y-86555609D02*
X155045312Y-87055609D01*
X155045312Y-87055609D02*
X155211979Y-86555609D01*
X136082741Y-74895419D02*
X136035122Y-74871609D01*
X136035122Y-74871609D02*
X135963693Y-74871609D01*
X135963693Y-74871609D02*
X135892265Y-74895419D01*
X135892265Y-74895419D02*
X135844646Y-74943038D01*
X135844646Y-74943038D02*
X135820836Y-74990657D01*
X135820836Y-74990657D02*
X135797027Y-75085895D01*
X135797027Y-75085895D02*
X135797027Y-75157323D01*
X135797027Y-75157323D02*
X135820836Y-75252561D01*
X135820836Y-75252561D02*
X135844646Y-75300180D01*
X135844646Y-75300180D02*
X135892265Y-75347800D01*
X135892265Y-75347800D02*
X135963693Y-75371609D01*
X135963693Y-75371609D02*
X136011312Y-75371609D01*
X136011312Y-75371609D02*
X136082741Y-75347800D01*
X136082741Y-75347800D02*
X136106550Y-75323990D01*
X136106550Y-75323990D02*
X136106550Y-75157323D01*
X136106550Y-75157323D02*
X136011312Y-75157323D01*
X136320836Y-75371609D02*
X136320836Y-74871609D01*
X136320836Y-74871609D02*
X136606550Y-75371609D01*
X136606550Y-75371609D02*
X136606550Y-74871609D01*
X136844646Y-75371609D02*
X136844646Y-74871609D01*
X136844646Y-74871609D02*
X136963694Y-74871609D01*
X136963694Y-74871609D02*
X137035122Y-74895419D01*
X137035122Y-74895419D02*
X137082741Y-74943038D01*
X137082741Y-74943038D02*
X137106551Y-74990657D01*
X137106551Y-74990657D02*
X137130360Y-75085895D01*
X137130360Y-75085895D02*
X137130360Y-75157323D01*
X137130360Y-75157323D02*
X137106551Y-75252561D01*
X137106551Y-75252561D02*
X137082741Y-75300180D01*
X137082741Y-75300180D02*
X137035122Y-75347800D01*
X137035122Y-75347800D02*
X136963694Y-75371609D01*
X136963694Y-75371609D02*
X136844646Y-75371609D01*
X128462741Y-86071419D02*
X128415122Y-86047609D01*
X128415122Y-86047609D02*
X128343693Y-86047609D01*
X128343693Y-86047609D02*
X128272265Y-86071419D01*
X128272265Y-86071419D02*
X128224646Y-86119038D01*
X128224646Y-86119038D02*
X128200836Y-86166657D01*
X128200836Y-86166657D02*
X128177027Y-86261895D01*
X128177027Y-86261895D02*
X128177027Y-86333323D01*
X128177027Y-86333323D02*
X128200836Y-86428561D01*
X128200836Y-86428561D02*
X128224646Y-86476180D01*
X128224646Y-86476180D02*
X128272265Y-86523800D01*
X128272265Y-86523800D02*
X128343693Y-86547609D01*
X128343693Y-86547609D02*
X128391312Y-86547609D01*
X128391312Y-86547609D02*
X128462741Y-86523800D01*
X128462741Y-86523800D02*
X128486550Y-86499990D01*
X128486550Y-86499990D02*
X128486550Y-86333323D01*
X128486550Y-86333323D02*
X128391312Y-86333323D01*
X128700836Y-86547609D02*
X128700836Y-86047609D01*
X128700836Y-86047609D02*
X128986550Y-86547609D01*
X128986550Y-86547609D02*
X128986550Y-86047609D01*
X129224646Y-86547609D02*
X129224646Y-86047609D01*
X129224646Y-86047609D02*
X129343694Y-86047609D01*
X129343694Y-86047609D02*
X129415122Y-86071419D01*
X129415122Y-86071419D02*
X129462741Y-86119038D01*
X129462741Y-86119038D02*
X129486551Y-86166657D01*
X129486551Y-86166657D02*
X129510360Y-86261895D01*
X129510360Y-86261895D02*
X129510360Y-86333323D01*
X129510360Y-86333323D02*
X129486551Y-86428561D01*
X129486551Y-86428561D02*
X129462741Y-86476180D01*
X129462741Y-86476180D02*
X129415122Y-86523800D01*
X129415122Y-86523800D02*
X129343694Y-86547609D01*
X129343694Y-86547609D02*
X129224646Y-86547609D01*
X148449408Y-93159609D02*
X148616074Y-93659609D01*
X148616074Y-93659609D02*
X148782741Y-93159609D01*
X149020836Y-93659609D02*
X148973217Y-93635800D01*
X148973217Y-93635800D02*
X148949407Y-93611990D01*
X148949407Y-93611990D02*
X148925598Y-93564371D01*
X148925598Y-93564371D02*
X148925598Y-93421514D01*
X148925598Y-93421514D02*
X148949407Y-93373895D01*
X148949407Y-93373895D02*
X148973217Y-93350085D01*
X148973217Y-93350085D02*
X149020836Y-93326276D01*
X149020836Y-93326276D02*
X149092264Y-93326276D01*
X149092264Y-93326276D02*
X149139883Y-93350085D01*
X149139883Y-93350085D02*
X149163693Y-93373895D01*
X149163693Y-93373895D02*
X149187502Y-93421514D01*
X149187502Y-93421514D02*
X149187502Y-93564371D01*
X149187502Y-93564371D02*
X149163693Y-93611990D01*
X149163693Y-93611990D02*
X149139883Y-93635800D01*
X149139883Y-93635800D02*
X149092264Y-93659609D01*
X149092264Y-93659609D02*
X149020836Y-93659609D01*
X149473217Y-93659609D02*
X149425598Y-93635800D01*
X149425598Y-93635800D02*
X149401788Y-93588180D01*
X149401788Y-93588180D02*
X149401788Y-93159609D01*
X149592265Y-93326276D02*
X149782741Y-93326276D01*
X149663693Y-93159609D02*
X149663693Y-93588180D01*
X149663693Y-93588180D02*
X149687503Y-93635800D01*
X149687503Y-93635800D02*
X149735122Y-93659609D01*
X149735122Y-93659609D02*
X149782741Y-93659609D01*
X150163693Y-93659609D02*
X150163693Y-93397704D01*
X150163693Y-93397704D02*
X150139883Y-93350085D01*
X150139883Y-93350085D02*
X150092264Y-93326276D01*
X150092264Y-93326276D02*
X149997026Y-93326276D01*
X149997026Y-93326276D02*
X149949407Y-93350085D01*
X150163693Y-93635800D02*
X150116074Y-93659609D01*
X150116074Y-93659609D02*
X149997026Y-93659609D01*
X149997026Y-93659609D02*
X149949407Y-93635800D01*
X149949407Y-93635800D02*
X149925598Y-93588180D01*
X149925598Y-93588180D02*
X149925598Y-93540561D01*
X149925598Y-93540561D02*
X149949407Y-93492942D01*
X149949407Y-93492942D02*
X149997026Y-93469133D01*
X149997026Y-93469133D02*
X150116074Y-93469133D01*
X150116074Y-93469133D02*
X150163693Y-93445323D01*
X150616074Y-93326276D02*
X150616074Y-93731038D01*
X150616074Y-93731038D02*
X150592264Y-93778657D01*
X150592264Y-93778657D02*
X150568455Y-93802466D01*
X150568455Y-93802466D02*
X150520836Y-93826276D01*
X150520836Y-93826276D02*
X150449407Y-93826276D01*
X150449407Y-93826276D02*
X150401788Y-93802466D01*
X150616074Y-93635800D02*
X150568455Y-93659609D01*
X150568455Y-93659609D02*
X150473217Y-93659609D01*
X150473217Y-93659609D02*
X150425598Y-93635800D01*
X150425598Y-93635800D02*
X150401788Y-93611990D01*
X150401788Y-93611990D02*
X150377979Y-93564371D01*
X150377979Y-93564371D02*
X150377979Y-93421514D01*
X150377979Y-93421514D02*
X150401788Y-93373895D01*
X150401788Y-93373895D02*
X150425598Y-93350085D01*
X150425598Y-93350085D02*
X150473217Y-93326276D01*
X150473217Y-93326276D02*
X150568455Y-93326276D01*
X150568455Y-93326276D02*
X150616074Y-93350085D01*
X151044645Y-93635800D02*
X150997026Y-93659609D01*
X150997026Y-93659609D02*
X150901788Y-93659609D01*
X150901788Y-93659609D02*
X150854169Y-93635800D01*
X150854169Y-93635800D02*
X150830360Y-93588180D01*
X150830360Y-93588180D02*
X150830360Y-93397704D01*
X150830360Y-93397704D02*
X150854169Y-93350085D01*
X150854169Y-93350085D02*
X150901788Y-93326276D01*
X150901788Y-93326276D02*
X150997026Y-93326276D01*
X150997026Y-93326276D02*
X151044645Y-93350085D01*
X151044645Y-93350085D02*
X151068455Y-93397704D01*
X151068455Y-93397704D02*
X151068455Y-93445323D01*
X151068455Y-93445323D02*
X150830360Y-93492942D01*
X151949406Y-93659609D02*
X151782740Y-93421514D01*
X151663692Y-93659609D02*
X151663692Y-93159609D01*
X151663692Y-93159609D02*
X151854168Y-93159609D01*
X151854168Y-93159609D02*
X151901787Y-93183419D01*
X151901787Y-93183419D02*
X151925597Y-93207228D01*
X151925597Y-93207228D02*
X151949406Y-93254847D01*
X151949406Y-93254847D02*
X151949406Y-93326276D01*
X151949406Y-93326276D02*
X151925597Y-93373895D01*
X151925597Y-93373895D02*
X151901787Y-93397704D01*
X151901787Y-93397704D02*
X151854168Y-93421514D01*
X151854168Y-93421514D02*
X151663692Y-93421514D01*
X152354168Y-93635800D02*
X152306549Y-93659609D01*
X152306549Y-93659609D02*
X152211311Y-93659609D01*
X152211311Y-93659609D02*
X152163692Y-93635800D01*
X152163692Y-93635800D02*
X152139883Y-93588180D01*
X152139883Y-93588180D02*
X152139883Y-93397704D01*
X152139883Y-93397704D02*
X152163692Y-93350085D01*
X152163692Y-93350085D02*
X152211311Y-93326276D01*
X152211311Y-93326276D02*
X152306549Y-93326276D01*
X152306549Y-93326276D02*
X152354168Y-93350085D01*
X152354168Y-93350085D02*
X152377978Y-93397704D01*
X152377978Y-93397704D02*
X152377978Y-93445323D01*
X152377978Y-93445323D02*
X152139883Y-93492942D01*
X152806549Y-93326276D02*
X152806549Y-93731038D01*
X152806549Y-93731038D02*
X152782739Y-93778657D01*
X152782739Y-93778657D02*
X152758930Y-93802466D01*
X152758930Y-93802466D02*
X152711311Y-93826276D01*
X152711311Y-93826276D02*
X152639882Y-93826276D01*
X152639882Y-93826276D02*
X152592263Y-93802466D01*
X152806549Y-93635800D02*
X152758930Y-93659609D01*
X152758930Y-93659609D02*
X152663692Y-93659609D01*
X152663692Y-93659609D02*
X152616073Y-93635800D01*
X152616073Y-93635800D02*
X152592263Y-93611990D01*
X152592263Y-93611990D02*
X152568454Y-93564371D01*
X152568454Y-93564371D02*
X152568454Y-93421514D01*
X152568454Y-93421514D02*
X152592263Y-93373895D01*
X152592263Y-93373895D02*
X152616073Y-93350085D01*
X152616073Y-93350085D02*
X152663692Y-93326276D01*
X152663692Y-93326276D02*
X152758930Y-93326276D01*
X152758930Y-93326276D02*
X152806549Y-93350085D01*
X153258930Y-93326276D02*
X153258930Y-93659609D01*
X153044644Y-93326276D02*
X153044644Y-93588180D01*
X153044644Y-93588180D02*
X153068454Y-93635800D01*
X153068454Y-93635800D02*
X153116073Y-93659609D01*
X153116073Y-93659609D02*
X153187501Y-93659609D01*
X153187501Y-93659609D02*
X153235120Y-93635800D01*
X153235120Y-93635800D02*
X153258930Y-93611990D01*
X153568454Y-93659609D02*
X153520835Y-93635800D01*
X153520835Y-93635800D02*
X153497025Y-93588180D01*
X153497025Y-93588180D02*
X153497025Y-93159609D01*
X153973216Y-93659609D02*
X153973216Y-93397704D01*
X153973216Y-93397704D02*
X153949406Y-93350085D01*
X153949406Y-93350085D02*
X153901787Y-93326276D01*
X153901787Y-93326276D02*
X153806549Y-93326276D01*
X153806549Y-93326276D02*
X153758930Y-93350085D01*
X153973216Y-93635800D02*
X153925597Y-93659609D01*
X153925597Y-93659609D02*
X153806549Y-93659609D01*
X153806549Y-93659609D02*
X153758930Y-93635800D01*
X153758930Y-93635800D02*
X153735121Y-93588180D01*
X153735121Y-93588180D02*
X153735121Y-93540561D01*
X153735121Y-93540561D02*
X153758930Y-93492942D01*
X153758930Y-93492942D02*
X153806549Y-93469133D01*
X153806549Y-93469133D02*
X153925597Y-93469133D01*
X153925597Y-93469133D02*
X153973216Y-93445323D01*
X154139883Y-93326276D02*
X154330359Y-93326276D01*
X154211311Y-93159609D02*
X154211311Y-93588180D01*
X154211311Y-93588180D02*
X154235121Y-93635800D01*
X154235121Y-93635800D02*
X154282740Y-93659609D01*
X154282740Y-93659609D02*
X154330359Y-93659609D01*
X154568454Y-93659609D02*
X154520835Y-93635800D01*
X154520835Y-93635800D02*
X154497025Y-93611990D01*
X154497025Y-93611990D02*
X154473216Y-93564371D01*
X154473216Y-93564371D02*
X154473216Y-93421514D01*
X154473216Y-93421514D02*
X154497025Y-93373895D01*
X154497025Y-93373895D02*
X154520835Y-93350085D01*
X154520835Y-93350085D02*
X154568454Y-93326276D01*
X154568454Y-93326276D02*
X154639882Y-93326276D01*
X154639882Y-93326276D02*
X154687501Y-93350085D01*
X154687501Y-93350085D02*
X154711311Y-93373895D01*
X154711311Y-93373895D02*
X154735120Y-93421514D01*
X154735120Y-93421514D02*
X154735120Y-93564371D01*
X154735120Y-93564371D02*
X154711311Y-93611990D01*
X154711311Y-93611990D02*
X154687501Y-93635800D01*
X154687501Y-93635800D02*
X154639882Y-93659609D01*
X154639882Y-93659609D02*
X154568454Y-93659609D01*
X154949406Y-93659609D02*
X154949406Y-93326276D01*
X154949406Y-93421514D02*
X154973216Y-93373895D01*
X154973216Y-93373895D02*
X154997025Y-93350085D01*
X154997025Y-93350085D02*
X155044644Y-93326276D01*
X155044644Y-93326276D02*
X155092263Y-93326276D01*
X147941408Y-86555609D02*
X148108074Y-87055609D01*
X148108074Y-87055609D02*
X148274741Y-86555609D01*
X148441407Y-87055609D02*
X148441407Y-86555609D01*
X148679502Y-87055609D02*
X148679502Y-86555609D01*
X148679502Y-86555609D02*
X148965216Y-87055609D01*
X148965216Y-87055609D02*
X148965216Y-86555609D01*
X121355524Y-70265027D02*
X121355524Y-70836455D01*
X120355524Y-70550741D02*
X121355524Y-70550741D01*
X120355524Y-71741217D02*
X120831715Y-71407884D01*
X120355524Y-71169789D02*
X121355524Y-71169789D01*
X121355524Y-71169789D02*
X121355524Y-71550741D01*
X121355524Y-71550741D02*
X121307905Y-71645979D01*
X121307905Y-71645979D02*
X121260286Y-71693598D01*
X121260286Y-71693598D02*
X121165048Y-71741217D01*
X121165048Y-71741217D02*
X121022191Y-71741217D01*
X121022191Y-71741217D02*
X120926953Y-71693598D01*
X120926953Y-71693598D02*
X120879334Y-71645979D01*
X120879334Y-71645979D02*
X120831715Y-71550741D01*
X120831715Y-71550741D02*
X120831715Y-71169789D01*
X121355524Y-72026932D02*
X121355524Y-72598360D01*
X120355524Y-72312646D02*
X121355524Y-72312646D01*
X120355524Y-73693599D02*
X121355524Y-73693599D01*
X121355524Y-73693599D02*
X121355524Y-74074551D01*
X121355524Y-74074551D02*
X121307905Y-74169789D01*
X121307905Y-74169789D02*
X121260286Y-74217408D01*
X121260286Y-74217408D02*
X121165048Y-74265027D01*
X121165048Y-74265027D02*
X121022191Y-74265027D01*
X121022191Y-74265027D02*
X120926953Y-74217408D01*
X120926953Y-74217408D02*
X120879334Y-74169789D01*
X120879334Y-74169789D02*
X120831715Y-74074551D01*
X120831715Y-74074551D02*
X120831715Y-73693599D01*
X120355524Y-75122170D02*
X120879334Y-75122170D01*
X120879334Y-75122170D02*
X120974572Y-75074551D01*
X120974572Y-75074551D02*
X121022191Y-74979313D01*
X121022191Y-74979313D02*
X121022191Y-74788837D01*
X121022191Y-74788837D02*
X120974572Y-74693599D01*
X120403144Y-75122170D02*
X120355524Y-75026932D01*
X120355524Y-75026932D02*
X120355524Y-74788837D01*
X120355524Y-74788837D02*
X120403144Y-74693599D01*
X120403144Y-74693599D02*
X120498382Y-74645980D01*
X120498382Y-74645980D02*
X120593620Y-74645980D01*
X120593620Y-74645980D02*
X120688858Y-74693599D01*
X120688858Y-74693599D02*
X120736477Y-74788837D01*
X120736477Y-74788837D02*
X120736477Y-75026932D01*
X120736477Y-75026932D02*
X120784096Y-75122170D01*
X121022191Y-75503123D02*
X120355524Y-75741218D01*
X121022191Y-75979313D02*
X120355524Y-75741218D01*
X120355524Y-75741218D02*
X120117429Y-75645980D01*
X120117429Y-75645980D02*
X120069810Y-75598361D01*
X120069810Y-75598361D02*
X120022191Y-75503123D01*
X120355524Y-76503123D02*
X120403144Y-76407885D01*
X120403144Y-76407885D02*
X120498382Y-76360266D01*
X120498382Y-76360266D02*
X121355524Y-76360266D01*
X120355524Y-77026933D02*
X120403144Y-76931695D01*
X120403144Y-76931695D02*
X120450763Y-76884076D01*
X120450763Y-76884076D02*
X120546001Y-76836457D01*
X120546001Y-76836457D02*
X120831715Y-76836457D01*
X120831715Y-76836457D02*
X120926953Y-76884076D01*
X120926953Y-76884076D02*
X120974572Y-76931695D01*
X120974572Y-76931695D02*
X121022191Y-77026933D01*
X121022191Y-77026933D02*
X121022191Y-77169790D01*
X121022191Y-77169790D02*
X120974572Y-77265028D01*
X120974572Y-77265028D02*
X120926953Y-77312647D01*
X120926953Y-77312647D02*
X120831715Y-77360266D01*
X120831715Y-77360266D02*
X120546001Y-77360266D01*
X120546001Y-77360266D02*
X120450763Y-77312647D01*
X120450763Y-77312647D02*
X120403144Y-77265028D01*
X120403144Y-77265028D02*
X120355524Y-77169790D01*
X120355524Y-77169790D02*
X120355524Y-77026933D01*
X120355524Y-78217409D02*
X120879334Y-78217409D01*
X120879334Y-78217409D02*
X120974572Y-78169790D01*
X120974572Y-78169790D02*
X121022191Y-78074552D01*
X121022191Y-78074552D02*
X121022191Y-77884076D01*
X121022191Y-77884076D02*
X120974572Y-77788838D01*
X120403144Y-78217409D02*
X120355524Y-78122171D01*
X120355524Y-78122171D02*
X120355524Y-77884076D01*
X120355524Y-77884076D02*
X120403144Y-77788838D01*
X120403144Y-77788838D02*
X120498382Y-77741219D01*
X120498382Y-77741219D02*
X120593620Y-77741219D01*
X120593620Y-77741219D02*
X120688858Y-77788838D01*
X120688858Y-77788838D02*
X120736477Y-77884076D01*
X120736477Y-77884076D02*
X120736477Y-78122171D01*
X120736477Y-78122171D02*
X120784096Y-78217409D01*
X120355524Y-79122171D02*
X121355524Y-79122171D01*
X120403144Y-79122171D02*
X120355524Y-79026933D01*
X120355524Y-79026933D02*
X120355524Y-78836457D01*
X120355524Y-78836457D02*
X120403144Y-78741219D01*
X120403144Y-78741219D02*
X120450763Y-78693600D01*
X120450763Y-78693600D02*
X120546001Y-78645981D01*
X120546001Y-78645981D02*
X120831715Y-78645981D01*
X120831715Y-78645981D02*
X120926953Y-78693600D01*
X120926953Y-78693600D02*
X120974572Y-78741219D01*
X120974572Y-78741219D02*
X121022191Y-78836457D01*
X121022191Y-78836457D02*
X121022191Y-79026933D01*
X121022191Y-79026933D02*
X120974572Y-79122171D01*
X119269390Y-70741217D02*
X119269390Y-70407884D01*
X118745580Y-70407884D02*
X119745580Y-70407884D01*
X119745580Y-70407884D02*
X119745580Y-70884074D01*
X118745580Y-71265027D02*
X119412247Y-71265027D01*
X119221771Y-71265027D02*
X119317009Y-71312646D01*
X119317009Y-71312646D02*
X119364628Y-71360265D01*
X119364628Y-71360265D02*
X119412247Y-71455503D01*
X119412247Y-71455503D02*
X119412247Y-71550741D01*
X118745580Y-72312646D02*
X119269390Y-72312646D01*
X119269390Y-72312646D02*
X119364628Y-72265027D01*
X119364628Y-72265027D02*
X119412247Y-72169789D01*
X119412247Y-72169789D02*
X119412247Y-71979313D01*
X119412247Y-71979313D02*
X119364628Y-71884075D01*
X118793200Y-72312646D02*
X118745580Y-72217408D01*
X118745580Y-72217408D02*
X118745580Y-71979313D01*
X118745580Y-71979313D02*
X118793200Y-71884075D01*
X118793200Y-71884075D02*
X118888438Y-71836456D01*
X118888438Y-71836456D02*
X118983676Y-71836456D01*
X118983676Y-71836456D02*
X119078914Y-71884075D01*
X119078914Y-71884075D02*
X119126533Y-71979313D01*
X119126533Y-71979313D02*
X119126533Y-72217408D01*
X119126533Y-72217408D02*
X119174152Y-72312646D01*
X118745580Y-72788837D02*
X119412247Y-72788837D01*
X119317009Y-72788837D02*
X119364628Y-72836456D01*
X119364628Y-72836456D02*
X119412247Y-72931694D01*
X119412247Y-72931694D02*
X119412247Y-73074551D01*
X119412247Y-73074551D02*
X119364628Y-73169789D01*
X119364628Y-73169789D02*
X119269390Y-73217408D01*
X119269390Y-73217408D02*
X118745580Y-73217408D01*
X119269390Y-73217408D02*
X119364628Y-73265027D01*
X119364628Y-73265027D02*
X119412247Y-73360265D01*
X119412247Y-73360265D02*
X119412247Y-73503122D01*
X119412247Y-73503122D02*
X119364628Y-73598361D01*
X119364628Y-73598361D02*
X119269390Y-73645980D01*
X119269390Y-73645980D02*
X118745580Y-73645980D01*
X118793200Y-74503122D02*
X118745580Y-74407884D01*
X118745580Y-74407884D02*
X118745580Y-74217408D01*
X118745580Y-74217408D02*
X118793200Y-74122170D01*
X118793200Y-74122170D02*
X118888438Y-74074551D01*
X118888438Y-74074551D02*
X119269390Y-74074551D01*
X119269390Y-74074551D02*
X119364628Y-74122170D01*
X119364628Y-74122170D02*
X119412247Y-74217408D01*
X119412247Y-74217408D02*
X119412247Y-74407884D01*
X119412247Y-74407884D02*
X119364628Y-74503122D01*
X119364628Y-74503122D02*
X119269390Y-74550741D01*
X119269390Y-74550741D02*
X119174152Y-74550741D01*
X119174152Y-74550741D02*
X119078914Y-74074551D01*
X119269390Y-76074551D02*
X119221771Y-76217408D01*
X119221771Y-76217408D02*
X119174152Y-76265027D01*
X119174152Y-76265027D02*
X119078914Y-76312646D01*
X119078914Y-76312646D02*
X118936057Y-76312646D01*
X118936057Y-76312646D02*
X118840819Y-76265027D01*
X118840819Y-76265027D02*
X118793200Y-76217408D01*
X118793200Y-76217408D02*
X118745580Y-76122170D01*
X118745580Y-76122170D02*
X118745580Y-75741218D01*
X118745580Y-75741218D02*
X119745580Y-75741218D01*
X119745580Y-75741218D02*
X119745580Y-76074551D01*
X119745580Y-76074551D02*
X119697961Y-76169789D01*
X119697961Y-76169789D02*
X119650342Y-76217408D01*
X119650342Y-76217408D02*
X119555104Y-76265027D01*
X119555104Y-76265027D02*
X119459866Y-76265027D01*
X119459866Y-76265027D02*
X119364628Y-76217408D01*
X119364628Y-76217408D02*
X119317009Y-76169789D01*
X119317009Y-76169789D02*
X119269390Y-76074551D01*
X119269390Y-76074551D02*
X119269390Y-75741218D01*
X118745580Y-76884075D02*
X118793200Y-76788837D01*
X118793200Y-76788837D02*
X118840819Y-76741218D01*
X118840819Y-76741218D02*
X118936057Y-76693599D01*
X118936057Y-76693599D02*
X119221771Y-76693599D01*
X119221771Y-76693599D02*
X119317009Y-76741218D01*
X119317009Y-76741218D02*
X119364628Y-76788837D01*
X119364628Y-76788837D02*
X119412247Y-76884075D01*
X119412247Y-76884075D02*
X119412247Y-77026932D01*
X119412247Y-77026932D02*
X119364628Y-77122170D01*
X119364628Y-77122170D02*
X119317009Y-77169789D01*
X119317009Y-77169789D02*
X119221771Y-77217408D01*
X119221771Y-77217408D02*
X118936057Y-77217408D01*
X118936057Y-77217408D02*
X118840819Y-77169789D01*
X118840819Y-77169789D02*
X118793200Y-77122170D01*
X118793200Y-77122170D02*
X118745580Y-77026932D01*
X118745580Y-77026932D02*
X118745580Y-76884075D01*
X118745580Y-78074551D02*
X119269390Y-78074551D01*
X119269390Y-78074551D02*
X119364628Y-78026932D01*
X119364628Y-78026932D02*
X119412247Y-77931694D01*
X119412247Y-77931694D02*
X119412247Y-77741218D01*
X119412247Y-77741218D02*
X119364628Y-77645980D01*
X118793200Y-78074551D02*
X118745580Y-77979313D01*
X118745580Y-77979313D02*
X118745580Y-77741218D01*
X118745580Y-77741218D02*
X118793200Y-77645980D01*
X118793200Y-77645980D02*
X118888438Y-77598361D01*
X118888438Y-77598361D02*
X118983676Y-77598361D01*
X118983676Y-77598361D02*
X119078914Y-77645980D01*
X119078914Y-77645980D02*
X119126533Y-77741218D01*
X119126533Y-77741218D02*
X119126533Y-77979313D01*
X119126533Y-77979313D02*
X119174152Y-78074551D01*
X118745580Y-78550742D02*
X119412247Y-78550742D01*
X119221771Y-78550742D02*
X119317009Y-78598361D01*
X119317009Y-78598361D02*
X119364628Y-78645980D01*
X119364628Y-78645980D02*
X119412247Y-78741218D01*
X119412247Y-78741218D02*
X119412247Y-78836456D01*
X118745580Y-79598361D02*
X119745580Y-79598361D01*
X118793200Y-79598361D02*
X118745580Y-79503123D01*
X118745580Y-79503123D02*
X118745580Y-79312647D01*
X118745580Y-79312647D02*
X118793200Y-79217409D01*
X118793200Y-79217409D02*
X118840819Y-79169790D01*
X118840819Y-79169790D02*
X118936057Y-79122171D01*
X118936057Y-79122171D02*
X119221771Y-79122171D01*
X119221771Y-79122171D02*
X119317009Y-79169790D01*
X119317009Y-79169790D02*
X119364628Y-79217409D01*
X119364628Y-79217409D02*
X119412247Y-79312647D01*
X119412247Y-79312647D02*
X119412247Y-79503123D01*
X119412247Y-79503123D02*
X119364628Y-79598361D01*
X119412247Y-80741219D02*
X118745580Y-80979314D01*
X118745580Y-80979314D02*
X119412247Y-81217409D01*
X119745580Y-81503124D02*
X119745580Y-82122171D01*
X119745580Y-82122171D02*
X119364628Y-81788838D01*
X119364628Y-81788838D02*
X119364628Y-81931695D01*
X119364628Y-81931695D02*
X119317009Y-82026933D01*
X119317009Y-82026933D02*
X119269390Y-82074552D01*
X119269390Y-82074552D02*
X119174152Y-82122171D01*
X119174152Y-82122171D02*
X118936057Y-82122171D01*
X118936057Y-82122171D02*
X118840819Y-82074552D01*
X118840819Y-82074552D02*
X118793200Y-82026933D01*
X118793200Y-82026933D02*
X118745580Y-81931695D01*
X118745580Y-81931695D02*
X118745580Y-81645981D01*
X118745580Y-81645981D02*
X118793200Y-81550743D01*
X118793200Y-81550743D02*
X118840819Y-81503124D01*
X118840819Y-82550743D02*
X118793200Y-82598362D01*
X118793200Y-82598362D02*
X118745580Y-82550743D01*
X118745580Y-82550743D02*
X118793200Y-82503124D01*
X118793200Y-82503124D02*
X118840819Y-82550743D01*
X118840819Y-82550743D02*
X118745580Y-82550743D01*
X119745580Y-83217409D02*
X119745580Y-83312647D01*
X119745580Y-83312647D02*
X119697961Y-83407885D01*
X119697961Y-83407885D02*
X119650342Y-83455504D01*
X119650342Y-83455504D02*
X119555104Y-83503123D01*
X119555104Y-83503123D02*
X119364628Y-83550742D01*
X119364628Y-83550742D02*
X119126533Y-83550742D01*
X119126533Y-83550742D02*
X118936057Y-83503123D01*
X118936057Y-83503123D02*
X118840819Y-83455504D01*
X118840819Y-83455504D02*
X118793200Y-83407885D01*
X118793200Y-83407885D02*
X118745580Y-83312647D01*
X118745580Y-83312647D02*
X118745580Y-83217409D01*
X118745580Y-83217409D02*
X118793200Y-83122171D01*
X118793200Y-83122171D02*
X118840819Y-83074552D01*
X118840819Y-83074552D02*
X118936057Y-83026933D01*
X118936057Y-83026933D02*
X119126533Y-82979314D01*
X119126533Y-82979314D02*
X119364628Y-82979314D01*
X119364628Y-82979314D02*
X119555104Y-83026933D01*
X119555104Y-83026933D02*
X119650342Y-83074552D01*
X119650342Y-83074552D02*
X119697961Y-83122171D01*
X119697961Y-83122171D02*
X119745580Y-83217409D01*
X159927027Y-75093800D02*
X159998455Y-75117609D01*
X159998455Y-75117609D02*
X160117503Y-75117609D01*
X160117503Y-75117609D02*
X160165122Y-75093800D01*
X160165122Y-75093800D02*
X160188931Y-75069990D01*
X160188931Y-75069990D02*
X160212741Y-75022371D01*
X160212741Y-75022371D02*
X160212741Y-74974752D01*
X160212741Y-74974752D02*
X160188931Y-74927133D01*
X160188931Y-74927133D02*
X160165122Y-74903323D01*
X160165122Y-74903323D02*
X160117503Y-74879514D01*
X160117503Y-74879514D02*
X160022265Y-74855704D01*
X160022265Y-74855704D02*
X159974646Y-74831895D01*
X159974646Y-74831895D02*
X159950836Y-74808085D01*
X159950836Y-74808085D02*
X159927027Y-74760466D01*
X159927027Y-74760466D02*
X159927027Y-74712847D01*
X159927027Y-74712847D02*
X159950836Y-74665228D01*
X159950836Y-74665228D02*
X159974646Y-74641419D01*
X159974646Y-74641419D02*
X160022265Y-74617609D01*
X160022265Y-74617609D02*
X160141312Y-74617609D01*
X160141312Y-74617609D02*
X160212741Y-74641419D01*
X160712740Y-75069990D02*
X160688931Y-75093800D01*
X160688931Y-75093800D02*
X160617502Y-75117609D01*
X160617502Y-75117609D02*
X160569883Y-75117609D01*
X160569883Y-75117609D02*
X160498455Y-75093800D01*
X160498455Y-75093800D02*
X160450836Y-75046180D01*
X160450836Y-75046180D02*
X160427026Y-74998561D01*
X160427026Y-74998561D02*
X160403217Y-74903323D01*
X160403217Y-74903323D02*
X160403217Y-74831895D01*
X160403217Y-74831895D02*
X160427026Y-74736657D01*
X160427026Y-74736657D02*
X160450836Y-74689038D01*
X160450836Y-74689038D02*
X160498455Y-74641419D01*
X160498455Y-74641419D02*
X160569883Y-74617609D01*
X160569883Y-74617609D02*
X160617502Y-74617609D01*
X160617502Y-74617609D02*
X160688931Y-74641419D01*
X160688931Y-74641419D02*
X160712740Y-74665228D01*
X161165121Y-75117609D02*
X160927026Y-75117609D01*
X160927026Y-75117609D02*
X160927026Y-74617609D01*
X185279408Y-76903609D02*
X185446074Y-77403609D01*
X185446074Y-77403609D02*
X185612741Y-76903609D01*
X186088931Y-76903609D02*
X186374645Y-76903609D01*
X186231788Y-77403609D02*
X186231788Y-76903609D01*
X186493692Y-76903609D02*
X186827025Y-77403609D01*
X186827025Y-76903609D02*
X186493692Y-77403609D01*
X144964836Y-75371609D02*
X144964836Y-74871609D01*
X144964836Y-74871609D02*
X145155312Y-74871609D01*
X145155312Y-74871609D02*
X145202931Y-74895419D01*
X145202931Y-74895419D02*
X145226741Y-74919228D01*
X145226741Y-74919228D02*
X145250550Y-74966847D01*
X145250550Y-74966847D02*
X145250550Y-75038276D01*
X145250550Y-75038276D02*
X145226741Y-75085895D01*
X145226741Y-75085895D02*
X145202931Y-75109704D01*
X145202931Y-75109704D02*
X145155312Y-75133514D01*
X145155312Y-75133514D02*
X144964836Y-75133514D01*
X145417217Y-74871609D02*
X145536265Y-75371609D01*
X145536265Y-75371609D02*
X145631503Y-75014466D01*
X145631503Y-75014466D02*
X145726741Y-75371609D01*
X145726741Y-75371609D02*
X145845789Y-74871609D01*
X146321979Y-75371609D02*
X146155313Y-75133514D01*
X146036265Y-75371609D02*
X146036265Y-74871609D01*
X146036265Y-74871609D02*
X146226741Y-74871609D01*
X146226741Y-74871609D02*
X146274360Y-74895419D01*
X146274360Y-74895419D02*
X146298170Y-74919228D01*
X146298170Y-74919228D02*
X146321979Y-74966847D01*
X146321979Y-74966847D02*
X146321979Y-75038276D01*
X146321979Y-75038276D02*
X146298170Y-75085895D01*
X146298170Y-75085895D02*
X146274360Y-75109704D01*
X146274360Y-75109704D02*
X146226741Y-75133514D01*
X146226741Y-75133514D02*
X146036265Y-75133514D01*
X181040741Y-79467419D02*
X180993122Y-79443609D01*
X180993122Y-79443609D02*
X180921693Y-79443609D01*
X180921693Y-79443609D02*
X180850265Y-79467419D01*
X180850265Y-79467419D02*
X180802646Y-79515038D01*
X180802646Y-79515038D02*
X180778836Y-79562657D01*
X180778836Y-79562657D02*
X180755027Y-79657895D01*
X180755027Y-79657895D02*
X180755027Y-79729323D01*
X180755027Y-79729323D02*
X180778836Y-79824561D01*
X180778836Y-79824561D02*
X180802646Y-79872180D01*
X180802646Y-79872180D02*
X180850265Y-79919800D01*
X180850265Y-79919800D02*
X180921693Y-79943609D01*
X180921693Y-79943609D02*
X180969312Y-79943609D01*
X180969312Y-79943609D02*
X181040741Y-79919800D01*
X181040741Y-79919800D02*
X181064550Y-79895990D01*
X181064550Y-79895990D02*
X181064550Y-79729323D01*
X181064550Y-79729323D02*
X180969312Y-79729323D01*
X181278836Y-79943609D02*
X181278836Y-79443609D01*
X181278836Y-79443609D02*
X181564550Y-79943609D01*
X181564550Y-79943609D02*
X181564550Y-79443609D01*
X181802646Y-79943609D02*
X181802646Y-79443609D01*
X181802646Y-79443609D02*
X181921694Y-79443609D01*
X181921694Y-79443609D02*
X181993122Y-79467419D01*
X181993122Y-79467419D02*
X182040741Y-79515038D01*
X182040741Y-79515038D02*
X182064551Y-79562657D01*
X182064551Y-79562657D02*
X182088360Y-79657895D01*
X182088360Y-79657895D02*
X182088360Y-79729323D01*
X182088360Y-79729323D02*
X182064551Y-79824561D01*
X182064551Y-79824561D02*
X182040741Y-79872180D01*
X182040741Y-79872180D02*
X181993122Y-79919800D01*
X181993122Y-79919800D02*
X181921694Y-79943609D01*
X181921694Y-79943609D02*
X181802646Y-79943609D01*
X154569217Y-74617609D02*
X154878741Y-74617609D01*
X154878741Y-74617609D02*
X154712074Y-74808085D01*
X154712074Y-74808085D02*
X154783503Y-74808085D01*
X154783503Y-74808085D02*
X154831122Y-74831895D01*
X154831122Y-74831895D02*
X154854931Y-74855704D01*
X154854931Y-74855704D02*
X154878741Y-74903323D01*
X154878741Y-74903323D02*
X154878741Y-75022371D01*
X154878741Y-75022371D02*
X154854931Y-75069990D01*
X154854931Y-75069990D02*
X154831122Y-75093800D01*
X154831122Y-75093800D02*
X154783503Y-75117609D01*
X154783503Y-75117609D02*
X154640646Y-75117609D01*
X154640646Y-75117609D02*
X154593027Y-75093800D01*
X154593027Y-75093800D02*
X154569217Y-75069990D01*
X155093026Y-75069990D02*
X155116836Y-75093800D01*
X155116836Y-75093800D02*
X155093026Y-75117609D01*
X155093026Y-75117609D02*
X155069217Y-75093800D01*
X155069217Y-75093800D02*
X155093026Y-75069990D01*
X155093026Y-75069990D02*
X155093026Y-75117609D01*
X155283502Y-74617609D02*
X155593026Y-74617609D01*
X155593026Y-74617609D02*
X155426359Y-74808085D01*
X155426359Y-74808085D02*
X155497788Y-74808085D01*
X155497788Y-74808085D02*
X155545407Y-74831895D01*
X155545407Y-74831895D02*
X155569216Y-74855704D01*
X155569216Y-74855704D02*
X155593026Y-74903323D01*
X155593026Y-74903323D02*
X155593026Y-75022371D01*
X155593026Y-75022371D02*
X155569216Y-75069990D01*
X155569216Y-75069990D02*
X155545407Y-75093800D01*
X155545407Y-75093800D02*
X155497788Y-75117609D01*
X155497788Y-75117609D02*
X155354931Y-75117609D01*
X155354931Y-75117609D02*
X155307312Y-75093800D01*
X155307312Y-75093800D02*
X155283502Y-75069990D01*
X155735883Y-74617609D02*
X155902549Y-75117609D01*
X155902549Y-75117609D02*
X156069216Y-74617609D01*
X156235882Y-74927133D02*
X156616835Y-74927133D01*
X156426358Y-75117609D02*
X156426358Y-74736657D01*
X157387027Y-75093800D02*
X157458455Y-75117609D01*
X157458455Y-75117609D02*
X157577503Y-75117609D01*
X157577503Y-75117609D02*
X157625122Y-75093800D01*
X157625122Y-75093800D02*
X157648931Y-75069990D01*
X157648931Y-75069990D02*
X157672741Y-75022371D01*
X157672741Y-75022371D02*
X157672741Y-74974752D01*
X157672741Y-74974752D02*
X157648931Y-74927133D01*
X157648931Y-74927133D02*
X157625122Y-74903323D01*
X157625122Y-74903323D02*
X157577503Y-74879514D01*
X157577503Y-74879514D02*
X157482265Y-74855704D01*
X157482265Y-74855704D02*
X157434646Y-74831895D01*
X157434646Y-74831895D02*
X157410836Y-74808085D01*
X157410836Y-74808085D02*
X157387027Y-74760466D01*
X157387027Y-74760466D02*
X157387027Y-74712847D01*
X157387027Y-74712847D02*
X157410836Y-74665228D01*
X157410836Y-74665228D02*
X157434646Y-74641419D01*
X157434646Y-74641419D02*
X157482265Y-74617609D01*
X157482265Y-74617609D02*
X157601312Y-74617609D01*
X157601312Y-74617609D02*
X157672741Y-74641419D01*
X157887026Y-75117609D02*
X157887026Y-74617609D01*
X157887026Y-74617609D02*
X158006074Y-74617609D01*
X158006074Y-74617609D02*
X158077502Y-74641419D01*
X158077502Y-74641419D02*
X158125121Y-74689038D01*
X158125121Y-74689038D02*
X158148931Y-74736657D01*
X158148931Y-74736657D02*
X158172740Y-74831895D01*
X158172740Y-74831895D02*
X158172740Y-74903323D01*
X158172740Y-74903323D02*
X158148931Y-74998561D01*
X158148931Y-74998561D02*
X158125121Y-75046180D01*
X158125121Y-75046180D02*
X158077502Y-75093800D01*
X158077502Y-75093800D02*
X158006074Y-75117609D01*
X158006074Y-75117609D02*
X157887026Y-75117609D01*
X158363217Y-74974752D02*
X158601312Y-74974752D01*
X158315598Y-75117609D02*
X158482264Y-74617609D01*
X158482264Y-74617609D02*
X158648931Y-75117609D01*
D11*
X133310666Y-82760819D02*
X133310666Y-83475104D01*
X133310666Y-83475104D02*
X133263047Y-83617961D01*
X133263047Y-83617961D02*
X133167809Y-83713200D01*
X133167809Y-83713200D02*
X133024952Y-83760819D01*
X133024952Y-83760819D02*
X132929714Y-83760819D01*
X134310666Y-83760819D02*
X133739238Y-83760819D01*
X134024952Y-83760819D02*
X134024952Y-82760819D01*
X134024952Y-82760819D02*
X133929714Y-82903676D01*
X133929714Y-82903676D02*
X133834476Y-82998914D01*
X133834476Y-82998914D02*
X133739238Y-83046533D01*
X191008095Y-87694819D02*
X191008095Y-86694819D01*
X191008095Y-87171009D02*
X191579523Y-87171009D01*
X191579523Y-87694819D02*
X191579523Y-86694819D01*
X191960476Y-86694819D02*
X192579523Y-86694819D01*
X192579523Y-86694819D02*
X192246190Y-87075771D01*
X192246190Y-87075771D02*
X192389047Y-87075771D01*
X192389047Y-87075771D02*
X192484285Y-87123390D01*
X192484285Y-87123390D02*
X192531904Y-87171009D01*
X192531904Y-87171009D02*
X192579523Y-87266247D01*
X192579523Y-87266247D02*
X192579523Y-87504342D01*
X192579523Y-87504342D02*
X192531904Y-87599580D01*
X192531904Y-87599580D02*
X192484285Y-87647200D01*
X192484285Y-87647200D02*
X192389047Y-87694819D01*
X192389047Y-87694819D02*
X192103333Y-87694819D01*
X192103333Y-87694819D02*
X192008095Y-87647200D01*
X192008095Y-87647200D02*
X191960476Y-87599580D01*
D10*
X151884571Y-63973419D02*
X152455999Y-63973419D01*
X152170285Y-64973419D02*
X152170285Y-63973419D01*
X153170285Y-64925800D02*
X153075047Y-64973419D01*
X153075047Y-64973419D02*
X152884571Y-64973419D01*
X152884571Y-64973419D02*
X152789333Y-64925800D01*
X152789333Y-64925800D02*
X152741714Y-64830561D01*
X152741714Y-64830561D02*
X152741714Y-64449609D01*
X152741714Y-64449609D02*
X152789333Y-64354371D01*
X152789333Y-64354371D02*
X152884571Y-64306752D01*
X152884571Y-64306752D02*
X153075047Y-64306752D01*
X153075047Y-64306752D02*
X153170285Y-64354371D01*
X153170285Y-64354371D02*
X153217904Y-64449609D01*
X153217904Y-64449609D02*
X153217904Y-64544847D01*
X153217904Y-64544847D02*
X152741714Y-64640085D01*
X154027428Y-64925800D02*
X153932190Y-64973419D01*
X153932190Y-64973419D02*
X153741714Y-64973419D01*
X153741714Y-64973419D02*
X153646476Y-64925800D01*
X153646476Y-64925800D02*
X153598857Y-64830561D01*
X153598857Y-64830561D02*
X153598857Y-64449609D01*
X153598857Y-64449609D02*
X153646476Y-64354371D01*
X153646476Y-64354371D02*
X153741714Y-64306752D01*
X153741714Y-64306752D02*
X153932190Y-64306752D01*
X153932190Y-64306752D02*
X154027428Y-64354371D01*
X154027428Y-64354371D02*
X154075047Y-64449609D01*
X154075047Y-64449609D02*
X154075047Y-64544847D01*
X154075047Y-64544847D02*
X153598857Y-64640085D01*
X154503619Y-64306752D02*
X154503619Y-64973419D01*
X154503619Y-64401990D02*
X154551238Y-64354371D01*
X154551238Y-64354371D02*
X154646476Y-64306752D01*
X154646476Y-64306752D02*
X154789333Y-64306752D01*
X154789333Y-64306752D02*
X154884571Y-64354371D01*
X154884571Y-64354371D02*
X154932190Y-64449609D01*
X154932190Y-64449609D02*
X154932190Y-64973419D01*
X155360762Y-64925800D02*
X155456000Y-64973419D01*
X155456000Y-64973419D02*
X155646476Y-64973419D01*
X155646476Y-64973419D02*
X155741714Y-64925800D01*
X155741714Y-64925800D02*
X155789333Y-64830561D01*
X155789333Y-64830561D02*
X155789333Y-64782942D01*
X155789333Y-64782942D02*
X155741714Y-64687704D01*
X155741714Y-64687704D02*
X155646476Y-64640085D01*
X155646476Y-64640085D02*
X155503619Y-64640085D01*
X155503619Y-64640085D02*
X155408381Y-64592466D01*
X155408381Y-64592466D02*
X155360762Y-64497228D01*
X155360762Y-64497228D02*
X155360762Y-64449609D01*
X155360762Y-64449609D02*
X155408381Y-64354371D01*
X155408381Y-64354371D02*
X155503619Y-64306752D01*
X155503619Y-64306752D02*
X155646476Y-64306752D01*
X155646476Y-64306752D02*
X155741714Y-64354371D01*
X156122667Y-64306752D02*
X156360762Y-64973419D01*
X156598857Y-64306752D02*
X156360762Y-64973419D01*
X156360762Y-64973419D02*
X156265524Y-65211514D01*
X156265524Y-65211514D02*
X156217905Y-65259133D01*
X156217905Y-65259133D02*
X156122667Y-65306752D01*
X157408381Y-64306752D02*
X157408381Y-64973419D01*
X157170286Y-63925800D02*
X156932191Y-64640085D01*
X156932191Y-64640085D02*
X157551238Y-64640085D01*
X157932191Y-64878180D02*
X157979810Y-64925800D01*
X157979810Y-64925800D02*
X157932191Y-64973419D01*
X157932191Y-64973419D02*
X157884572Y-64925800D01*
X157884572Y-64925800D02*
X157932191Y-64878180D01*
X157932191Y-64878180D02*
X157932191Y-64973419D01*
X158932190Y-64973419D02*
X158360762Y-64973419D01*
X158646476Y-64973419D02*
X158646476Y-63973419D01*
X158646476Y-63973419D02*
X158551238Y-64116276D01*
X158551238Y-64116276D02*
X158456000Y-64211514D01*
X158456000Y-64211514D02*
X158360762Y-64259133D01*
X177688419Y-70704972D02*
X177688419Y-70133544D01*
X178688419Y-70419258D02*
X177688419Y-70419258D01*
X177688419Y-69895448D02*
X178688419Y-69228782D01*
X177688419Y-69228782D02*
X178688419Y-69895448D01*
X177688419Y-68943067D02*
X177688419Y-68276401D01*
X177688419Y-68276401D02*
X178688419Y-68704972D01*
X148160800Y-61719734D02*
X148208419Y-61576877D01*
X148208419Y-61576877D02*
X148208419Y-61338782D01*
X148208419Y-61338782D02*
X148160800Y-61243544D01*
X148160800Y-61243544D02*
X148113180Y-61195925D01*
X148113180Y-61195925D02*
X148017942Y-61148306D01*
X148017942Y-61148306D02*
X147922704Y-61148306D01*
X147922704Y-61148306D02*
X147827466Y-61195925D01*
X147827466Y-61195925D02*
X147779847Y-61243544D01*
X147779847Y-61243544D02*
X147732228Y-61338782D01*
X147732228Y-61338782D02*
X147684609Y-61529258D01*
X147684609Y-61529258D02*
X147636990Y-61624496D01*
X147636990Y-61624496D02*
X147589371Y-61672115D01*
X147589371Y-61672115D02*
X147494133Y-61719734D01*
X147494133Y-61719734D02*
X147398895Y-61719734D01*
X147398895Y-61719734D02*
X147303657Y-61672115D01*
X147303657Y-61672115D02*
X147256038Y-61624496D01*
X147256038Y-61624496D02*
X147208419Y-61529258D01*
X147208419Y-61529258D02*
X147208419Y-61291163D01*
X147208419Y-61291163D02*
X147256038Y-61148306D01*
X148208419Y-60719734D02*
X147208419Y-60719734D01*
X147208419Y-60719734D02*
X147208419Y-60481639D01*
X147208419Y-60481639D02*
X147256038Y-60338782D01*
X147256038Y-60338782D02*
X147351276Y-60243544D01*
X147351276Y-60243544D02*
X147446514Y-60195925D01*
X147446514Y-60195925D02*
X147636990Y-60148306D01*
X147636990Y-60148306D02*
X147779847Y-60148306D01*
X147779847Y-60148306D02*
X147970323Y-60195925D01*
X147970323Y-60195925D02*
X148065561Y-60243544D01*
X148065561Y-60243544D02*
X148160800Y-60338782D01*
X148160800Y-60338782D02*
X148208419Y-60481639D01*
X148208419Y-60481639D02*
X148208419Y-60719734D01*
X147922704Y-59767353D02*
X147922704Y-59291163D01*
X148208419Y-59862591D02*
X147208419Y-59529258D01*
X147208419Y-59529258D02*
X148208419Y-59195925D01*
X126888419Y-61814972D02*
X127888419Y-61481639D01*
X127888419Y-61481639D02*
X126888419Y-61148306D01*
X127888419Y-60814972D02*
X127221752Y-60814972D01*
X126888419Y-60814972D02*
X126936038Y-60862591D01*
X126936038Y-60862591D02*
X126983657Y-60814972D01*
X126983657Y-60814972D02*
X126936038Y-60767353D01*
X126936038Y-60767353D02*
X126888419Y-60814972D01*
X126888419Y-60814972D02*
X126983657Y-60814972D01*
X127221752Y-60338782D02*
X127888419Y-60338782D01*
X127316990Y-60338782D02*
X127269371Y-60291163D01*
X127269371Y-60291163D02*
X127221752Y-60195925D01*
X127221752Y-60195925D02*
X127221752Y-60053068D01*
X127221752Y-60053068D02*
X127269371Y-59957830D01*
X127269371Y-59957830D02*
X127364609Y-59910211D01*
X127364609Y-59910211D02*
X127888419Y-59910211D01*
X178688419Y-61672115D02*
X177688419Y-61672115D01*
X177688419Y-61672115D02*
X177688419Y-61291163D01*
X177688419Y-61291163D02*
X177736038Y-61195925D01*
X177736038Y-61195925D02*
X177783657Y-61148306D01*
X177783657Y-61148306D02*
X177878895Y-61100687D01*
X177878895Y-61100687D02*
X178021752Y-61100687D01*
X178021752Y-61100687D02*
X178116990Y-61148306D01*
X178116990Y-61148306D02*
X178164609Y-61195925D01*
X178164609Y-61195925D02*
X178212228Y-61291163D01*
X178212228Y-61291163D02*
X178212228Y-61672115D01*
X177688419Y-60767353D02*
X178688419Y-60529258D01*
X178688419Y-60529258D02*
X177974133Y-60338782D01*
X177974133Y-60338782D02*
X178688419Y-60148306D01*
X178688419Y-60148306D02*
X177688419Y-59910211D01*
X178688419Y-59529258D02*
X177688419Y-59529258D01*
X177688419Y-59529258D02*
X178402704Y-59195925D01*
X178402704Y-59195925D02*
X177688419Y-58862592D01*
X177688419Y-58862592D02*
X178688419Y-58862592D01*
X138048419Y-70562115D02*
X137048419Y-70562115D01*
X137048419Y-70562115D02*
X137048419Y-70181163D01*
X137048419Y-70181163D02*
X137096038Y-70085925D01*
X137096038Y-70085925D02*
X137143657Y-70038306D01*
X137143657Y-70038306D02*
X137238895Y-69990687D01*
X137238895Y-69990687D02*
X137381752Y-69990687D01*
X137381752Y-69990687D02*
X137476990Y-70038306D01*
X137476990Y-70038306D02*
X137524609Y-70085925D01*
X137524609Y-70085925D02*
X137572228Y-70181163D01*
X137572228Y-70181163D02*
X137572228Y-70562115D01*
X137048419Y-69657353D02*
X138048419Y-69419258D01*
X138048419Y-69419258D02*
X137334133Y-69228782D01*
X137334133Y-69228782D02*
X138048419Y-69038306D01*
X138048419Y-69038306D02*
X137048419Y-68800211D01*
X138048419Y-68419258D02*
X137048419Y-68419258D01*
X137048419Y-68419258D02*
X137762704Y-68085925D01*
X137762704Y-68085925D02*
X137048419Y-67752592D01*
X137048419Y-67752592D02*
X138048419Y-67752592D01*
X168242704Y-61719734D02*
X168242704Y-61243544D01*
X168528419Y-61814972D02*
X167528419Y-61481639D01*
X167528419Y-61481639D02*
X168528419Y-61148306D01*
X168528419Y-60291163D02*
X168528419Y-60862591D01*
X168528419Y-60576877D02*
X167528419Y-60576877D01*
X167528419Y-60576877D02*
X167671276Y-60672115D01*
X167671276Y-60672115D02*
X167766514Y-60767353D01*
X167766514Y-60767353D02*
X167814133Y-60862591D01*
X167528419Y-59434020D02*
X167528419Y-59624496D01*
X167528419Y-59624496D02*
X167576038Y-59719734D01*
X167576038Y-59719734D02*
X167623657Y-59767353D01*
X167623657Y-59767353D02*
X167766514Y-59862591D01*
X167766514Y-59862591D02*
X167956990Y-59910210D01*
X167956990Y-59910210D02*
X168337942Y-59910210D01*
X168337942Y-59910210D02*
X168433180Y-59862591D01*
X168433180Y-59862591D02*
X168480800Y-59814972D01*
X168480800Y-59814972D02*
X168528419Y-59719734D01*
X168528419Y-59719734D02*
X168528419Y-59529258D01*
X168528419Y-59529258D02*
X168480800Y-59434020D01*
X168480800Y-59434020D02*
X168433180Y-59386401D01*
X168433180Y-59386401D02*
X168337942Y-59338782D01*
X168337942Y-59338782D02*
X168099847Y-59338782D01*
X168099847Y-59338782D02*
X168004609Y-59386401D01*
X168004609Y-59386401D02*
X167956990Y-59434020D01*
X167956990Y-59434020D02*
X167909371Y-59529258D01*
X167909371Y-59529258D02*
X167909371Y-59719734D01*
X167909371Y-59719734D02*
X167956990Y-59814972D01*
X167956990Y-59814972D02*
X168004609Y-59862591D01*
X168004609Y-59862591D02*
X168099847Y-59910210D01*
X138048419Y-61672115D02*
X137048419Y-61672115D01*
X137048419Y-61672115D02*
X137048419Y-61291163D01*
X137048419Y-61291163D02*
X137096038Y-61195925D01*
X137096038Y-61195925D02*
X137143657Y-61148306D01*
X137143657Y-61148306D02*
X137238895Y-61100687D01*
X137238895Y-61100687D02*
X137381752Y-61100687D01*
X137381752Y-61100687D02*
X137476990Y-61148306D01*
X137476990Y-61148306D02*
X137524609Y-61195925D01*
X137524609Y-61195925D02*
X137572228Y-61291163D01*
X137572228Y-61291163D02*
X137572228Y-61672115D01*
X137048419Y-60767353D02*
X138048419Y-60529258D01*
X138048419Y-60529258D02*
X137334133Y-60338782D01*
X137334133Y-60338782D02*
X138048419Y-60148306D01*
X138048419Y-60148306D02*
X137048419Y-59910211D01*
X138048419Y-59529258D02*
X137048419Y-59529258D01*
X137048419Y-59529258D02*
X137762704Y-59195925D01*
X137762704Y-59195925D02*
X137048419Y-58862592D01*
X137048419Y-58862592D02*
X138048419Y-58862592D01*
X158082704Y-61719734D02*
X158082704Y-61243544D01*
X158368419Y-61814972D02*
X157368419Y-61481639D01*
X157368419Y-61481639D02*
X158368419Y-61148306D01*
X157368419Y-60624496D02*
X157368419Y-60529258D01*
X157368419Y-60529258D02*
X157416038Y-60434020D01*
X157416038Y-60434020D02*
X157463657Y-60386401D01*
X157463657Y-60386401D02*
X157558895Y-60338782D01*
X157558895Y-60338782D02*
X157749371Y-60291163D01*
X157749371Y-60291163D02*
X157987466Y-60291163D01*
X157987466Y-60291163D02*
X158177942Y-60338782D01*
X158177942Y-60338782D02*
X158273180Y-60386401D01*
X158273180Y-60386401D02*
X158320800Y-60434020D01*
X158320800Y-60434020D02*
X158368419Y-60529258D01*
X158368419Y-60529258D02*
X158368419Y-60624496D01*
X158368419Y-60624496D02*
X158320800Y-60719734D01*
X158320800Y-60719734D02*
X158273180Y-60767353D01*
X158273180Y-60767353D02*
X158177942Y-60814972D01*
X158177942Y-60814972D02*
X157987466Y-60862591D01*
X157987466Y-60862591D02*
X157749371Y-60862591D01*
X157749371Y-60862591D02*
X157558895Y-60814972D01*
X157558895Y-60814972D02*
X157463657Y-60767353D01*
X157463657Y-60767353D02*
X157416038Y-60719734D01*
X157416038Y-60719734D02*
X157368419Y-60624496D01*
X142128419Y-61814972D02*
X142128419Y-61243544D01*
X143128419Y-61529258D02*
X142128419Y-61529258D01*
X142128419Y-61005448D02*
X143128419Y-60338782D01*
X142128419Y-60338782D02*
X143128419Y-61005448D01*
X142128419Y-59481639D02*
X142128419Y-59957829D01*
X142128419Y-59957829D02*
X142604609Y-60005448D01*
X142604609Y-60005448D02*
X142556990Y-59957829D01*
X142556990Y-59957829D02*
X142509371Y-59862591D01*
X142509371Y-59862591D02*
X142509371Y-59624496D01*
X142509371Y-59624496D02*
X142556990Y-59529258D01*
X142556990Y-59529258D02*
X142604609Y-59481639D01*
X142604609Y-59481639D02*
X142699847Y-59434020D01*
X142699847Y-59434020D02*
X142937942Y-59434020D01*
X142937942Y-59434020D02*
X143033180Y-59481639D01*
X143033180Y-59481639D02*
X143080800Y-59529258D01*
X143080800Y-59529258D02*
X143128419Y-59624496D01*
X143128419Y-59624496D02*
X143128419Y-59862591D01*
X143128419Y-59862591D02*
X143080800Y-59957829D01*
X143080800Y-59957829D02*
X143033180Y-60005448D01*
X149748419Y-70704972D02*
X149748419Y-70133544D01*
X150748419Y-70419258D02*
X149748419Y-70419258D01*
X149748419Y-69895448D02*
X150748419Y-69228782D01*
X149748419Y-69228782D02*
X150748419Y-69895448D01*
X149843657Y-68895448D02*
X149796038Y-68847829D01*
X149796038Y-68847829D02*
X149748419Y-68752591D01*
X149748419Y-68752591D02*
X149748419Y-68514496D01*
X149748419Y-68514496D02*
X149796038Y-68419258D01*
X149796038Y-68419258D02*
X149843657Y-68371639D01*
X149843657Y-68371639D02*
X149938895Y-68324020D01*
X149938895Y-68324020D02*
X150034133Y-68324020D01*
X150034133Y-68324020D02*
X150176990Y-68371639D01*
X150176990Y-68371639D02*
X150748419Y-68943067D01*
X150748419Y-68943067D02*
X150748419Y-68324020D01*
X155542704Y-61719734D02*
X155542704Y-61243544D01*
X155828419Y-61814972D02*
X154828419Y-61481639D01*
X154828419Y-61481639D02*
X155828419Y-61148306D01*
X155828419Y-60291163D02*
X155828419Y-60862591D01*
X155828419Y-60576877D02*
X154828419Y-60576877D01*
X154828419Y-60576877D02*
X154971276Y-60672115D01*
X154971276Y-60672115D02*
X155066514Y-60767353D01*
X155066514Y-60767353D02*
X155114133Y-60862591D01*
X165940800Y-70609734D02*
X165988419Y-70466877D01*
X165988419Y-70466877D02*
X165988419Y-70228782D01*
X165988419Y-70228782D02*
X165940800Y-70133544D01*
X165940800Y-70133544D02*
X165893180Y-70085925D01*
X165893180Y-70085925D02*
X165797942Y-70038306D01*
X165797942Y-70038306D02*
X165702704Y-70038306D01*
X165702704Y-70038306D02*
X165607466Y-70085925D01*
X165607466Y-70085925D02*
X165559847Y-70133544D01*
X165559847Y-70133544D02*
X165512228Y-70228782D01*
X165512228Y-70228782D02*
X165464609Y-70419258D01*
X165464609Y-70419258D02*
X165416990Y-70514496D01*
X165416990Y-70514496D02*
X165369371Y-70562115D01*
X165369371Y-70562115D02*
X165274133Y-70609734D01*
X165274133Y-70609734D02*
X165178895Y-70609734D01*
X165178895Y-70609734D02*
X165083657Y-70562115D01*
X165083657Y-70562115D02*
X165036038Y-70514496D01*
X165036038Y-70514496D02*
X164988419Y-70419258D01*
X164988419Y-70419258D02*
X164988419Y-70181163D01*
X164988419Y-70181163D02*
X165036038Y-70038306D01*
X165893180Y-69038306D02*
X165940800Y-69085925D01*
X165940800Y-69085925D02*
X165988419Y-69228782D01*
X165988419Y-69228782D02*
X165988419Y-69324020D01*
X165988419Y-69324020D02*
X165940800Y-69466877D01*
X165940800Y-69466877D02*
X165845561Y-69562115D01*
X165845561Y-69562115D02*
X165750323Y-69609734D01*
X165750323Y-69609734D02*
X165559847Y-69657353D01*
X165559847Y-69657353D02*
X165416990Y-69657353D01*
X165416990Y-69657353D02*
X165226514Y-69609734D01*
X165226514Y-69609734D02*
X165131276Y-69562115D01*
X165131276Y-69562115D02*
X165036038Y-69466877D01*
X165036038Y-69466877D02*
X164988419Y-69324020D01*
X164988419Y-69324020D02*
X164988419Y-69228782D01*
X164988419Y-69228782D02*
X165036038Y-69085925D01*
X165036038Y-69085925D02*
X165083657Y-69038306D01*
X165988419Y-68133544D02*
X165988419Y-68609734D01*
X165988419Y-68609734D02*
X164988419Y-68609734D01*
X165083657Y-67847829D02*
X165036038Y-67800210D01*
X165036038Y-67800210D02*
X164988419Y-67704972D01*
X164988419Y-67704972D02*
X164988419Y-67466877D01*
X164988419Y-67466877D02*
X165036038Y-67371639D01*
X165036038Y-67371639D02*
X165083657Y-67324020D01*
X165083657Y-67324020D02*
X165178895Y-67276401D01*
X165178895Y-67276401D02*
X165274133Y-67276401D01*
X165274133Y-67276401D02*
X165416990Y-67324020D01*
X165416990Y-67324020D02*
X165988419Y-67895448D01*
X165988419Y-67895448D02*
X165988419Y-67276401D01*
X171068419Y-70562115D02*
X170068419Y-70562115D01*
X170068419Y-70562115D02*
X170782704Y-70228782D01*
X170782704Y-70228782D02*
X170068419Y-69895449D01*
X170068419Y-69895449D02*
X171068419Y-69895449D01*
X170068419Y-69228782D02*
X170068419Y-69038306D01*
X170068419Y-69038306D02*
X170116038Y-68943068D01*
X170116038Y-68943068D02*
X170211276Y-68847830D01*
X170211276Y-68847830D02*
X170401752Y-68800211D01*
X170401752Y-68800211D02*
X170735085Y-68800211D01*
X170735085Y-68800211D02*
X170925561Y-68847830D01*
X170925561Y-68847830D02*
X171020800Y-68943068D01*
X171020800Y-68943068D02*
X171068419Y-69038306D01*
X171068419Y-69038306D02*
X171068419Y-69228782D01*
X171068419Y-69228782D02*
X171020800Y-69324020D01*
X171020800Y-69324020D02*
X170925561Y-69419258D01*
X170925561Y-69419258D02*
X170735085Y-69466877D01*
X170735085Y-69466877D02*
X170401752Y-69466877D01*
X170401752Y-69466877D02*
X170211276Y-69419258D01*
X170211276Y-69419258D02*
X170116038Y-69324020D01*
X170116038Y-69324020D02*
X170068419Y-69228782D01*
X171020800Y-68419258D02*
X171068419Y-68276401D01*
X171068419Y-68276401D02*
X171068419Y-68038306D01*
X171068419Y-68038306D02*
X171020800Y-67943068D01*
X171020800Y-67943068D02*
X170973180Y-67895449D01*
X170973180Y-67895449D02*
X170877942Y-67847830D01*
X170877942Y-67847830D02*
X170782704Y-67847830D01*
X170782704Y-67847830D02*
X170687466Y-67895449D01*
X170687466Y-67895449D02*
X170639847Y-67943068D01*
X170639847Y-67943068D02*
X170592228Y-68038306D01*
X170592228Y-68038306D02*
X170544609Y-68228782D01*
X170544609Y-68228782D02*
X170496990Y-68324020D01*
X170496990Y-68324020D02*
X170449371Y-68371639D01*
X170449371Y-68371639D02*
X170354133Y-68419258D01*
X170354133Y-68419258D02*
X170258895Y-68419258D01*
X170258895Y-68419258D02*
X170163657Y-68371639D01*
X170163657Y-68371639D02*
X170116038Y-68324020D01*
X170116038Y-68324020D02*
X170068419Y-68228782D01*
X170068419Y-68228782D02*
X170068419Y-67990687D01*
X170068419Y-67990687D02*
X170116038Y-67847830D01*
X171068419Y-67419258D02*
X170068419Y-67419258D01*
X171068419Y-66419259D02*
X171068419Y-66990687D01*
X171068419Y-66704973D02*
X170068419Y-66704973D01*
X170068419Y-66704973D02*
X170211276Y-66800211D01*
X170211276Y-66800211D02*
X170306514Y-66895449D01*
X170306514Y-66895449D02*
X170354133Y-66990687D01*
X145620800Y-61719734D02*
X145668419Y-61576877D01*
X145668419Y-61576877D02*
X145668419Y-61338782D01*
X145668419Y-61338782D02*
X145620800Y-61243544D01*
X145620800Y-61243544D02*
X145573180Y-61195925D01*
X145573180Y-61195925D02*
X145477942Y-61148306D01*
X145477942Y-61148306D02*
X145382704Y-61148306D01*
X145382704Y-61148306D02*
X145287466Y-61195925D01*
X145287466Y-61195925D02*
X145239847Y-61243544D01*
X145239847Y-61243544D02*
X145192228Y-61338782D01*
X145192228Y-61338782D02*
X145144609Y-61529258D01*
X145144609Y-61529258D02*
X145096990Y-61624496D01*
X145096990Y-61624496D02*
X145049371Y-61672115D01*
X145049371Y-61672115D02*
X144954133Y-61719734D01*
X144954133Y-61719734D02*
X144858895Y-61719734D01*
X144858895Y-61719734D02*
X144763657Y-61672115D01*
X144763657Y-61672115D02*
X144716038Y-61624496D01*
X144716038Y-61624496D02*
X144668419Y-61529258D01*
X144668419Y-61529258D02*
X144668419Y-61291163D01*
X144668419Y-61291163D02*
X144716038Y-61148306D01*
X145573180Y-60148306D02*
X145620800Y-60195925D01*
X145620800Y-60195925D02*
X145668419Y-60338782D01*
X145668419Y-60338782D02*
X145668419Y-60434020D01*
X145668419Y-60434020D02*
X145620800Y-60576877D01*
X145620800Y-60576877D02*
X145525561Y-60672115D01*
X145525561Y-60672115D02*
X145430323Y-60719734D01*
X145430323Y-60719734D02*
X145239847Y-60767353D01*
X145239847Y-60767353D02*
X145096990Y-60767353D01*
X145096990Y-60767353D02*
X144906514Y-60719734D01*
X144906514Y-60719734D02*
X144811276Y-60672115D01*
X144811276Y-60672115D02*
X144716038Y-60576877D01*
X144716038Y-60576877D02*
X144668419Y-60434020D01*
X144668419Y-60434020D02*
X144668419Y-60338782D01*
X144668419Y-60338782D02*
X144716038Y-60195925D01*
X144716038Y-60195925D02*
X144763657Y-60148306D01*
X145668419Y-59243544D02*
X145668419Y-59719734D01*
X145668419Y-59719734D02*
X144668419Y-59719734D01*
X183768419Y-61100687D02*
X183292228Y-61434020D01*
X183768419Y-61672115D02*
X182768419Y-61672115D01*
X182768419Y-61672115D02*
X182768419Y-61291163D01*
X182768419Y-61291163D02*
X182816038Y-61195925D01*
X182816038Y-61195925D02*
X182863657Y-61148306D01*
X182863657Y-61148306D02*
X182958895Y-61100687D01*
X182958895Y-61100687D02*
X183101752Y-61100687D01*
X183101752Y-61100687D02*
X183196990Y-61148306D01*
X183196990Y-61148306D02*
X183244609Y-61195925D01*
X183244609Y-61195925D02*
X183292228Y-61291163D01*
X183292228Y-61291163D02*
X183292228Y-61672115D01*
X182768419Y-60767353D02*
X183768419Y-60100687D01*
X182768419Y-60100687D02*
X183768419Y-60767353D01*
X183196990Y-59576877D02*
X183149371Y-59672115D01*
X183149371Y-59672115D02*
X183101752Y-59719734D01*
X183101752Y-59719734D02*
X183006514Y-59767353D01*
X183006514Y-59767353D02*
X182958895Y-59767353D01*
X182958895Y-59767353D02*
X182863657Y-59719734D01*
X182863657Y-59719734D02*
X182816038Y-59672115D01*
X182816038Y-59672115D02*
X182768419Y-59576877D01*
X182768419Y-59576877D02*
X182768419Y-59386401D01*
X182768419Y-59386401D02*
X182816038Y-59291163D01*
X182816038Y-59291163D02*
X182863657Y-59243544D01*
X182863657Y-59243544D02*
X182958895Y-59195925D01*
X182958895Y-59195925D02*
X183006514Y-59195925D01*
X183006514Y-59195925D02*
X183101752Y-59243544D01*
X183101752Y-59243544D02*
X183149371Y-59291163D01*
X183149371Y-59291163D02*
X183196990Y-59386401D01*
X183196990Y-59386401D02*
X183196990Y-59576877D01*
X183196990Y-59576877D02*
X183244609Y-59672115D01*
X183244609Y-59672115D02*
X183292228Y-59719734D01*
X183292228Y-59719734D02*
X183387466Y-59767353D01*
X183387466Y-59767353D02*
X183577942Y-59767353D01*
X183577942Y-59767353D02*
X183673180Y-59719734D01*
X183673180Y-59719734D02*
X183720800Y-59672115D01*
X183720800Y-59672115D02*
X183768419Y-59576877D01*
X183768419Y-59576877D02*
X183768419Y-59386401D01*
X183768419Y-59386401D02*
X183720800Y-59291163D01*
X183720800Y-59291163D02*
X183673180Y-59243544D01*
X183673180Y-59243544D02*
X183577942Y-59195925D01*
X183577942Y-59195925D02*
X183387466Y-59195925D01*
X183387466Y-59195925D02*
X183292228Y-59243544D01*
X183292228Y-59243544D02*
X183244609Y-59291163D01*
X183244609Y-59291163D02*
X183196990Y-59386401D01*
X126936038Y-70038306D02*
X126888419Y-70133544D01*
X126888419Y-70133544D02*
X126888419Y-70276401D01*
X126888419Y-70276401D02*
X126936038Y-70419258D01*
X126936038Y-70419258D02*
X127031276Y-70514496D01*
X127031276Y-70514496D02*
X127126514Y-70562115D01*
X127126514Y-70562115D02*
X127316990Y-70609734D01*
X127316990Y-70609734D02*
X127459847Y-70609734D01*
X127459847Y-70609734D02*
X127650323Y-70562115D01*
X127650323Y-70562115D02*
X127745561Y-70514496D01*
X127745561Y-70514496D02*
X127840800Y-70419258D01*
X127840800Y-70419258D02*
X127888419Y-70276401D01*
X127888419Y-70276401D02*
X127888419Y-70181163D01*
X127888419Y-70181163D02*
X127840800Y-70038306D01*
X127840800Y-70038306D02*
X127793180Y-69990687D01*
X127793180Y-69990687D02*
X127459847Y-69990687D01*
X127459847Y-69990687D02*
X127459847Y-70181163D01*
X127888419Y-69562115D02*
X126888419Y-69562115D01*
X126888419Y-69562115D02*
X127888419Y-68990687D01*
X127888419Y-68990687D02*
X126888419Y-68990687D01*
X127888419Y-68514496D02*
X126888419Y-68514496D01*
X126888419Y-68514496D02*
X126888419Y-68276401D01*
X126888419Y-68276401D02*
X126936038Y-68133544D01*
X126936038Y-68133544D02*
X127031276Y-68038306D01*
X127031276Y-68038306D02*
X127126514Y-67990687D01*
X127126514Y-67990687D02*
X127316990Y-67943068D01*
X127316990Y-67943068D02*
X127459847Y-67943068D01*
X127459847Y-67943068D02*
X127650323Y-67990687D01*
X127650323Y-67990687D02*
X127745561Y-68038306D01*
X127745561Y-68038306D02*
X127840800Y-68133544D01*
X127840800Y-68133544D02*
X127888419Y-68276401D01*
X127888419Y-68276401D02*
X127888419Y-68514496D01*
X185356038Y-70038306D02*
X185308419Y-70133544D01*
X185308419Y-70133544D02*
X185308419Y-70276401D01*
X185308419Y-70276401D02*
X185356038Y-70419258D01*
X185356038Y-70419258D02*
X185451276Y-70514496D01*
X185451276Y-70514496D02*
X185546514Y-70562115D01*
X185546514Y-70562115D02*
X185736990Y-70609734D01*
X185736990Y-70609734D02*
X185879847Y-70609734D01*
X185879847Y-70609734D02*
X186070323Y-70562115D01*
X186070323Y-70562115D02*
X186165561Y-70514496D01*
X186165561Y-70514496D02*
X186260800Y-70419258D01*
X186260800Y-70419258D02*
X186308419Y-70276401D01*
X186308419Y-70276401D02*
X186308419Y-70181163D01*
X186308419Y-70181163D02*
X186260800Y-70038306D01*
X186260800Y-70038306D02*
X186213180Y-69990687D01*
X186213180Y-69990687D02*
X185879847Y-69990687D01*
X185879847Y-69990687D02*
X185879847Y-70181163D01*
X186308419Y-69562115D02*
X185308419Y-69562115D01*
X185308419Y-69562115D02*
X185308419Y-69181163D01*
X185308419Y-69181163D02*
X185356038Y-69085925D01*
X185356038Y-69085925D02*
X185403657Y-69038306D01*
X185403657Y-69038306D02*
X185498895Y-68990687D01*
X185498895Y-68990687D02*
X185641752Y-68990687D01*
X185641752Y-68990687D02*
X185736990Y-69038306D01*
X185736990Y-69038306D02*
X185784609Y-69085925D01*
X185784609Y-69085925D02*
X185832228Y-69181163D01*
X185832228Y-69181163D02*
X185832228Y-69562115D01*
X186308419Y-68562115D02*
X185308419Y-68562115D01*
X185308419Y-67895449D02*
X185308419Y-67704973D01*
X185308419Y-67704973D02*
X185356038Y-67609735D01*
X185356038Y-67609735D02*
X185451276Y-67514497D01*
X185451276Y-67514497D02*
X185641752Y-67466878D01*
X185641752Y-67466878D02*
X185975085Y-67466878D01*
X185975085Y-67466878D02*
X186165561Y-67514497D01*
X186165561Y-67514497D02*
X186260800Y-67609735D01*
X186260800Y-67609735D02*
X186308419Y-67704973D01*
X186308419Y-67704973D02*
X186308419Y-67895449D01*
X186308419Y-67895449D02*
X186260800Y-67990687D01*
X186260800Y-67990687D02*
X186165561Y-68085925D01*
X186165561Y-68085925D02*
X185975085Y-68133544D01*
X185975085Y-68133544D02*
X185641752Y-68133544D01*
X185641752Y-68133544D02*
X185451276Y-68085925D01*
X185451276Y-68085925D02*
X185356038Y-67990687D01*
X185356038Y-67990687D02*
X185308419Y-67895449D01*
X150462704Y-61719734D02*
X150462704Y-61243544D01*
X150748419Y-61814972D02*
X149748419Y-61481639D01*
X149748419Y-61481639D02*
X150748419Y-61148306D01*
X149748419Y-60910210D02*
X149748419Y-60291163D01*
X149748419Y-60291163D02*
X150129371Y-60624496D01*
X150129371Y-60624496D02*
X150129371Y-60481639D01*
X150129371Y-60481639D02*
X150176990Y-60386401D01*
X150176990Y-60386401D02*
X150224609Y-60338782D01*
X150224609Y-60338782D02*
X150319847Y-60291163D01*
X150319847Y-60291163D02*
X150557942Y-60291163D01*
X150557942Y-60291163D02*
X150653180Y-60338782D01*
X150653180Y-60338782D02*
X150700800Y-60386401D01*
X150700800Y-60386401D02*
X150748419Y-60481639D01*
X150748419Y-60481639D02*
X150748419Y-60767353D01*
X150748419Y-60767353D02*
X150700800Y-60862591D01*
X150700800Y-60862591D02*
X150653180Y-60910210D01*
X180276038Y-70038306D02*
X180228419Y-70133544D01*
X180228419Y-70133544D02*
X180228419Y-70276401D01*
X180228419Y-70276401D02*
X180276038Y-70419258D01*
X180276038Y-70419258D02*
X180371276Y-70514496D01*
X180371276Y-70514496D02*
X180466514Y-70562115D01*
X180466514Y-70562115D02*
X180656990Y-70609734D01*
X180656990Y-70609734D02*
X180799847Y-70609734D01*
X180799847Y-70609734D02*
X180990323Y-70562115D01*
X180990323Y-70562115D02*
X181085561Y-70514496D01*
X181085561Y-70514496D02*
X181180800Y-70419258D01*
X181180800Y-70419258D02*
X181228419Y-70276401D01*
X181228419Y-70276401D02*
X181228419Y-70181163D01*
X181228419Y-70181163D02*
X181180800Y-70038306D01*
X181180800Y-70038306D02*
X181133180Y-69990687D01*
X181133180Y-69990687D02*
X180799847Y-69990687D01*
X180799847Y-69990687D02*
X180799847Y-70181163D01*
X181228419Y-69562115D02*
X180228419Y-69562115D01*
X180228419Y-69562115D02*
X180228419Y-69181163D01*
X180228419Y-69181163D02*
X180276038Y-69085925D01*
X180276038Y-69085925D02*
X180323657Y-69038306D01*
X180323657Y-69038306D02*
X180418895Y-68990687D01*
X180418895Y-68990687D02*
X180561752Y-68990687D01*
X180561752Y-68990687D02*
X180656990Y-69038306D01*
X180656990Y-69038306D02*
X180704609Y-69085925D01*
X180704609Y-69085925D02*
X180752228Y-69181163D01*
X180752228Y-69181163D02*
X180752228Y-69562115D01*
X181228419Y-68562115D02*
X180228419Y-68562115D01*
X180228419Y-67895449D02*
X180228419Y-67704973D01*
X180228419Y-67704973D02*
X180276038Y-67609735D01*
X180276038Y-67609735D02*
X180371276Y-67514497D01*
X180371276Y-67514497D02*
X180561752Y-67466878D01*
X180561752Y-67466878D02*
X180895085Y-67466878D01*
X180895085Y-67466878D02*
X181085561Y-67514497D01*
X181085561Y-67514497D02*
X181180800Y-67609735D01*
X181180800Y-67609735D02*
X181228419Y-67704973D01*
X181228419Y-67704973D02*
X181228419Y-67895449D01*
X181228419Y-67895449D02*
X181180800Y-67990687D01*
X181180800Y-67990687D02*
X181085561Y-68085925D01*
X181085561Y-68085925D02*
X180895085Y-68133544D01*
X180895085Y-68133544D02*
X180561752Y-68133544D01*
X180561752Y-68133544D02*
X180371276Y-68085925D01*
X180371276Y-68085925D02*
X180276038Y-67990687D01*
X180276038Y-67990687D02*
X180228419Y-67895449D01*
X140588419Y-70562115D02*
X139588419Y-70562115D01*
X139588419Y-70562115D02*
X139588419Y-70181163D01*
X139588419Y-70181163D02*
X139636038Y-70085925D01*
X139636038Y-70085925D02*
X139683657Y-70038306D01*
X139683657Y-70038306D02*
X139778895Y-69990687D01*
X139778895Y-69990687D02*
X139921752Y-69990687D01*
X139921752Y-69990687D02*
X140016990Y-70038306D01*
X140016990Y-70038306D02*
X140064609Y-70085925D01*
X140064609Y-70085925D02*
X140112228Y-70181163D01*
X140112228Y-70181163D02*
X140112228Y-70562115D01*
X139588419Y-69657353D02*
X140588419Y-69419258D01*
X140588419Y-69419258D02*
X139874133Y-69228782D01*
X139874133Y-69228782D02*
X140588419Y-69038306D01*
X140588419Y-69038306D02*
X139588419Y-68800211D01*
X140588419Y-68419258D02*
X139588419Y-68419258D01*
X139588419Y-68419258D02*
X140302704Y-68085925D01*
X140302704Y-68085925D02*
X139588419Y-67752592D01*
X139588419Y-67752592D02*
X140588419Y-67752592D01*
X160908419Y-70562115D02*
X159908419Y-70562115D01*
X159908419Y-70562115D02*
X160622704Y-70228782D01*
X160622704Y-70228782D02*
X159908419Y-69895449D01*
X159908419Y-69895449D02*
X160908419Y-69895449D01*
X160908419Y-69419258D02*
X159908419Y-69419258D01*
X160860800Y-68990687D02*
X160908419Y-68847830D01*
X160908419Y-68847830D02*
X160908419Y-68609735D01*
X160908419Y-68609735D02*
X160860800Y-68514497D01*
X160860800Y-68514497D02*
X160813180Y-68466878D01*
X160813180Y-68466878D02*
X160717942Y-68419259D01*
X160717942Y-68419259D02*
X160622704Y-68419259D01*
X160622704Y-68419259D02*
X160527466Y-68466878D01*
X160527466Y-68466878D02*
X160479847Y-68514497D01*
X160479847Y-68514497D02*
X160432228Y-68609735D01*
X160432228Y-68609735D02*
X160384609Y-68800211D01*
X160384609Y-68800211D02*
X160336990Y-68895449D01*
X160336990Y-68895449D02*
X160289371Y-68943068D01*
X160289371Y-68943068D02*
X160194133Y-68990687D01*
X160194133Y-68990687D02*
X160098895Y-68990687D01*
X160098895Y-68990687D02*
X160003657Y-68943068D01*
X160003657Y-68943068D02*
X159956038Y-68895449D01*
X159956038Y-68895449D02*
X159908419Y-68800211D01*
X159908419Y-68800211D02*
X159908419Y-68562116D01*
X159908419Y-68562116D02*
X159956038Y-68419259D01*
X159908419Y-67800211D02*
X159908419Y-67609735D01*
X159908419Y-67609735D02*
X159956038Y-67514497D01*
X159956038Y-67514497D02*
X160051276Y-67419259D01*
X160051276Y-67419259D02*
X160241752Y-67371640D01*
X160241752Y-67371640D02*
X160575085Y-67371640D01*
X160575085Y-67371640D02*
X160765561Y-67419259D01*
X160765561Y-67419259D02*
X160860800Y-67514497D01*
X160860800Y-67514497D02*
X160908419Y-67609735D01*
X160908419Y-67609735D02*
X160908419Y-67800211D01*
X160908419Y-67800211D02*
X160860800Y-67895449D01*
X160860800Y-67895449D02*
X160765561Y-67990687D01*
X160765561Y-67990687D02*
X160575085Y-68038306D01*
X160575085Y-68038306D02*
X160241752Y-68038306D01*
X160241752Y-68038306D02*
X160051276Y-67990687D01*
X160051276Y-67990687D02*
X159956038Y-67895449D01*
X159956038Y-67895449D02*
X159908419Y-67800211D01*
X148208419Y-69990687D02*
X147732228Y-70324020D01*
X148208419Y-70562115D02*
X147208419Y-70562115D01*
X147208419Y-70562115D02*
X147208419Y-70181163D01*
X147208419Y-70181163D02*
X147256038Y-70085925D01*
X147256038Y-70085925D02*
X147303657Y-70038306D01*
X147303657Y-70038306D02*
X147398895Y-69990687D01*
X147398895Y-69990687D02*
X147541752Y-69990687D01*
X147541752Y-69990687D02*
X147636990Y-70038306D01*
X147636990Y-70038306D02*
X147684609Y-70085925D01*
X147684609Y-70085925D02*
X147732228Y-70181163D01*
X147732228Y-70181163D02*
X147732228Y-70562115D01*
X147208419Y-69657353D02*
X148208419Y-68990687D01*
X147208419Y-68990687D02*
X148208419Y-69657353D01*
X147303657Y-68657353D02*
X147256038Y-68609734D01*
X147256038Y-68609734D02*
X147208419Y-68514496D01*
X147208419Y-68514496D02*
X147208419Y-68276401D01*
X147208419Y-68276401D02*
X147256038Y-68181163D01*
X147256038Y-68181163D02*
X147303657Y-68133544D01*
X147303657Y-68133544D02*
X147398895Y-68085925D01*
X147398895Y-68085925D02*
X147494133Y-68085925D01*
X147494133Y-68085925D02*
X147636990Y-68133544D01*
X147636990Y-68133544D02*
X148208419Y-68704972D01*
X148208419Y-68704972D02*
X148208419Y-68085925D01*
X165702704Y-61719734D02*
X165702704Y-61243544D01*
X165988419Y-61814972D02*
X164988419Y-61481639D01*
X164988419Y-61481639D02*
X165988419Y-61148306D01*
X165988419Y-60291163D02*
X165988419Y-60862591D01*
X165988419Y-60576877D02*
X164988419Y-60576877D01*
X164988419Y-60576877D02*
X165131276Y-60672115D01*
X165131276Y-60672115D02*
X165226514Y-60767353D01*
X165226514Y-60767353D02*
X165274133Y-60862591D01*
X164988419Y-59957829D02*
X164988419Y-59291163D01*
X164988419Y-59291163D02*
X165988419Y-59719734D01*
X171068419Y-61672115D02*
X170068419Y-61672115D01*
X170068419Y-61672115D02*
X170782704Y-61338782D01*
X170782704Y-61338782D02*
X170068419Y-61005449D01*
X170068419Y-61005449D02*
X171068419Y-61005449D01*
X171068419Y-60529258D02*
X170068419Y-60529258D01*
X171020800Y-60100687D02*
X171068419Y-59957830D01*
X171068419Y-59957830D02*
X171068419Y-59719735D01*
X171068419Y-59719735D02*
X171020800Y-59624497D01*
X171020800Y-59624497D02*
X170973180Y-59576878D01*
X170973180Y-59576878D02*
X170877942Y-59529259D01*
X170877942Y-59529259D02*
X170782704Y-59529259D01*
X170782704Y-59529259D02*
X170687466Y-59576878D01*
X170687466Y-59576878D02*
X170639847Y-59624497D01*
X170639847Y-59624497D02*
X170592228Y-59719735D01*
X170592228Y-59719735D02*
X170544609Y-59910211D01*
X170544609Y-59910211D02*
X170496990Y-60005449D01*
X170496990Y-60005449D02*
X170449371Y-60053068D01*
X170449371Y-60053068D02*
X170354133Y-60100687D01*
X170354133Y-60100687D02*
X170258895Y-60100687D01*
X170258895Y-60100687D02*
X170163657Y-60053068D01*
X170163657Y-60053068D02*
X170116038Y-60005449D01*
X170116038Y-60005449D02*
X170068419Y-59910211D01*
X170068419Y-59910211D02*
X170068419Y-59672116D01*
X170068419Y-59672116D02*
X170116038Y-59529259D01*
X170068419Y-58910211D02*
X170068419Y-58719735D01*
X170068419Y-58719735D02*
X170116038Y-58624497D01*
X170116038Y-58624497D02*
X170211276Y-58529259D01*
X170211276Y-58529259D02*
X170401752Y-58481640D01*
X170401752Y-58481640D02*
X170735085Y-58481640D01*
X170735085Y-58481640D02*
X170925561Y-58529259D01*
X170925561Y-58529259D02*
X171020800Y-58624497D01*
X171020800Y-58624497D02*
X171068419Y-58719735D01*
X171068419Y-58719735D02*
X171068419Y-58910211D01*
X171068419Y-58910211D02*
X171020800Y-59005449D01*
X171020800Y-59005449D02*
X170925561Y-59100687D01*
X170925561Y-59100687D02*
X170735085Y-59148306D01*
X170735085Y-59148306D02*
X170401752Y-59148306D01*
X170401752Y-59148306D02*
X170211276Y-59100687D01*
X170211276Y-59100687D02*
X170116038Y-59005449D01*
X170116038Y-59005449D02*
X170068419Y-58910211D01*
X160860800Y-61719734D02*
X160908419Y-61576877D01*
X160908419Y-61576877D02*
X160908419Y-61338782D01*
X160908419Y-61338782D02*
X160860800Y-61243544D01*
X160860800Y-61243544D02*
X160813180Y-61195925D01*
X160813180Y-61195925D02*
X160717942Y-61148306D01*
X160717942Y-61148306D02*
X160622704Y-61148306D01*
X160622704Y-61148306D02*
X160527466Y-61195925D01*
X160527466Y-61195925D02*
X160479847Y-61243544D01*
X160479847Y-61243544D02*
X160432228Y-61338782D01*
X160432228Y-61338782D02*
X160384609Y-61529258D01*
X160384609Y-61529258D02*
X160336990Y-61624496D01*
X160336990Y-61624496D02*
X160289371Y-61672115D01*
X160289371Y-61672115D02*
X160194133Y-61719734D01*
X160194133Y-61719734D02*
X160098895Y-61719734D01*
X160098895Y-61719734D02*
X160003657Y-61672115D01*
X160003657Y-61672115D02*
X159956038Y-61624496D01*
X159956038Y-61624496D02*
X159908419Y-61529258D01*
X159908419Y-61529258D02*
X159908419Y-61291163D01*
X159908419Y-61291163D02*
X159956038Y-61148306D01*
X160813180Y-60148306D02*
X160860800Y-60195925D01*
X160860800Y-60195925D02*
X160908419Y-60338782D01*
X160908419Y-60338782D02*
X160908419Y-60434020D01*
X160908419Y-60434020D02*
X160860800Y-60576877D01*
X160860800Y-60576877D02*
X160765561Y-60672115D01*
X160765561Y-60672115D02*
X160670323Y-60719734D01*
X160670323Y-60719734D02*
X160479847Y-60767353D01*
X160479847Y-60767353D02*
X160336990Y-60767353D01*
X160336990Y-60767353D02*
X160146514Y-60719734D01*
X160146514Y-60719734D02*
X160051276Y-60672115D01*
X160051276Y-60672115D02*
X159956038Y-60576877D01*
X159956038Y-60576877D02*
X159908419Y-60434020D01*
X159908419Y-60434020D02*
X159908419Y-60338782D01*
X159908419Y-60338782D02*
X159956038Y-60195925D01*
X159956038Y-60195925D02*
X160003657Y-60148306D01*
X160908419Y-59719734D02*
X159908419Y-59719734D01*
X160908419Y-59148306D02*
X160336990Y-59576877D01*
X159908419Y-59148306D02*
X160479847Y-59719734D01*
X145668419Y-70562115D02*
X144668419Y-70562115D01*
X144668419Y-70562115D02*
X144668419Y-70181163D01*
X144668419Y-70181163D02*
X144716038Y-70085925D01*
X144716038Y-70085925D02*
X144763657Y-70038306D01*
X144763657Y-70038306D02*
X144858895Y-69990687D01*
X144858895Y-69990687D02*
X145001752Y-69990687D01*
X145001752Y-69990687D02*
X145096990Y-70038306D01*
X145096990Y-70038306D02*
X145144609Y-70085925D01*
X145144609Y-70085925D02*
X145192228Y-70181163D01*
X145192228Y-70181163D02*
X145192228Y-70562115D01*
X144668419Y-69657353D02*
X145668419Y-69419258D01*
X145668419Y-69419258D02*
X144954133Y-69228782D01*
X144954133Y-69228782D02*
X145668419Y-69038306D01*
X145668419Y-69038306D02*
X144668419Y-68800211D01*
X145668419Y-68419258D02*
X144668419Y-68419258D01*
X144668419Y-68419258D02*
X145382704Y-68085925D01*
X145382704Y-68085925D02*
X144668419Y-67752592D01*
X144668419Y-67752592D02*
X145668419Y-67752592D01*
X176148419Y-61672115D02*
X175148419Y-61672115D01*
X175148419Y-61672115D02*
X175148419Y-61291163D01*
X175148419Y-61291163D02*
X175196038Y-61195925D01*
X175196038Y-61195925D02*
X175243657Y-61148306D01*
X175243657Y-61148306D02*
X175338895Y-61100687D01*
X175338895Y-61100687D02*
X175481752Y-61100687D01*
X175481752Y-61100687D02*
X175576990Y-61148306D01*
X175576990Y-61148306D02*
X175624609Y-61195925D01*
X175624609Y-61195925D02*
X175672228Y-61291163D01*
X175672228Y-61291163D02*
X175672228Y-61672115D01*
X175148419Y-60767353D02*
X176148419Y-60529258D01*
X176148419Y-60529258D02*
X175434133Y-60338782D01*
X175434133Y-60338782D02*
X176148419Y-60148306D01*
X176148419Y-60148306D02*
X175148419Y-59910211D01*
X176148419Y-59529258D02*
X175148419Y-59529258D01*
X175148419Y-59529258D02*
X175862704Y-59195925D01*
X175862704Y-59195925D02*
X175148419Y-58862592D01*
X175148419Y-58862592D02*
X176148419Y-58862592D01*
X180228419Y-61814972D02*
X180228419Y-61243544D01*
X181228419Y-61529258D02*
X180228419Y-61529258D01*
X180228419Y-61005448D02*
X181228419Y-60338782D01*
X180228419Y-60338782D02*
X181228419Y-61005448D01*
X180656990Y-59814972D02*
X180609371Y-59910210D01*
X180609371Y-59910210D02*
X180561752Y-59957829D01*
X180561752Y-59957829D02*
X180466514Y-60005448D01*
X180466514Y-60005448D02*
X180418895Y-60005448D01*
X180418895Y-60005448D02*
X180323657Y-59957829D01*
X180323657Y-59957829D02*
X180276038Y-59910210D01*
X180276038Y-59910210D02*
X180228419Y-59814972D01*
X180228419Y-59814972D02*
X180228419Y-59624496D01*
X180228419Y-59624496D02*
X180276038Y-59529258D01*
X180276038Y-59529258D02*
X180323657Y-59481639D01*
X180323657Y-59481639D02*
X180418895Y-59434020D01*
X180418895Y-59434020D02*
X180466514Y-59434020D01*
X180466514Y-59434020D02*
X180561752Y-59481639D01*
X180561752Y-59481639D02*
X180609371Y-59529258D01*
X180609371Y-59529258D02*
X180656990Y-59624496D01*
X180656990Y-59624496D02*
X180656990Y-59814972D01*
X180656990Y-59814972D02*
X180704609Y-59910210D01*
X180704609Y-59910210D02*
X180752228Y-59957829D01*
X180752228Y-59957829D02*
X180847466Y-60005448D01*
X180847466Y-60005448D02*
X181037942Y-60005448D01*
X181037942Y-60005448D02*
X181133180Y-59957829D01*
X181133180Y-59957829D02*
X181180800Y-59910210D01*
X181180800Y-59910210D02*
X181228419Y-59814972D01*
X181228419Y-59814972D02*
X181228419Y-59624496D01*
X181228419Y-59624496D02*
X181180800Y-59529258D01*
X181180800Y-59529258D02*
X181133180Y-59481639D01*
X181133180Y-59481639D02*
X181037942Y-59434020D01*
X181037942Y-59434020D02*
X180847466Y-59434020D01*
X180847466Y-59434020D02*
X180752228Y-59481639D01*
X180752228Y-59481639D02*
X180704609Y-59529258D01*
X180704609Y-59529258D02*
X180656990Y-59624496D01*
X131968419Y-61767353D02*
X131968419Y-61148306D01*
X131968419Y-61148306D02*
X132349371Y-61481639D01*
X132349371Y-61481639D02*
X132349371Y-61338782D01*
X132349371Y-61338782D02*
X132396990Y-61243544D01*
X132396990Y-61243544D02*
X132444609Y-61195925D01*
X132444609Y-61195925D02*
X132539847Y-61148306D01*
X132539847Y-61148306D02*
X132777942Y-61148306D01*
X132777942Y-61148306D02*
X132873180Y-61195925D01*
X132873180Y-61195925D02*
X132920800Y-61243544D01*
X132920800Y-61243544D02*
X132968419Y-61338782D01*
X132968419Y-61338782D02*
X132968419Y-61624496D01*
X132968419Y-61624496D02*
X132920800Y-61719734D01*
X132920800Y-61719734D02*
X132873180Y-61767353D01*
X132873180Y-60719734D02*
X132920800Y-60672115D01*
X132920800Y-60672115D02*
X132968419Y-60719734D01*
X132968419Y-60719734D02*
X132920800Y-60767353D01*
X132920800Y-60767353D02*
X132873180Y-60719734D01*
X132873180Y-60719734D02*
X132968419Y-60719734D01*
X131968419Y-60338782D02*
X131968419Y-59719735D01*
X131968419Y-59719735D02*
X132349371Y-60053068D01*
X132349371Y-60053068D02*
X132349371Y-59910211D01*
X132349371Y-59910211D02*
X132396990Y-59814973D01*
X132396990Y-59814973D02*
X132444609Y-59767354D01*
X132444609Y-59767354D02*
X132539847Y-59719735D01*
X132539847Y-59719735D02*
X132777942Y-59719735D01*
X132777942Y-59719735D02*
X132873180Y-59767354D01*
X132873180Y-59767354D02*
X132920800Y-59814973D01*
X132920800Y-59814973D02*
X132968419Y-59910211D01*
X132968419Y-59910211D02*
X132968419Y-60195925D01*
X132968419Y-60195925D02*
X132920800Y-60291163D01*
X132920800Y-60291163D02*
X132873180Y-60338782D01*
X131968419Y-59434020D02*
X132968419Y-59100687D01*
X132968419Y-59100687D02*
X131968419Y-58767354D01*
X127049884Y-64658419D02*
X127049884Y-65467942D01*
X127049884Y-65467942D02*
X127097503Y-65563180D01*
X127097503Y-65563180D02*
X127145122Y-65610800D01*
X127145122Y-65610800D02*
X127240360Y-65658419D01*
X127240360Y-65658419D02*
X127430836Y-65658419D01*
X127430836Y-65658419D02*
X127526074Y-65610800D01*
X127526074Y-65610800D02*
X127573693Y-65563180D01*
X127573693Y-65563180D02*
X127621312Y-65467942D01*
X127621312Y-65467942D02*
X127621312Y-64658419D01*
X128049884Y-65610800D02*
X128192741Y-65658419D01*
X128192741Y-65658419D02*
X128430836Y-65658419D01*
X128430836Y-65658419D02*
X128526074Y-65610800D01*
X128526074Y-65610800D02*
X128573693Y-65563180D01*
X128573693Y-65563180D02*
X128621312Y-65467942D01*
X128621312Y-65467942D02*
X128621312Y-65372704D01*
X128621312Y-65372704D02*
X128573693Y-65277466D01*
X128573693Y-65277466D02*
X128526074Y-65229847D01*
X128526074Y-65229847D02*
X128430836Y-65182228D01*
X128430836Y-65182228D02*
X128240360Y-65134609D01*
X128240360Y-65134609D02*
X128145122Y-65086990D01*
X128145122Y-65086990D02*
X128097503Y-65039371D01*
X128097503Y-65039371D02*
X128049884Y-64944133D01*
X128049884Y-64944133D02*
X128049884Y-64848895D01*
X128049884Y-64848895D02*
X128097503Y-64753657D01*
X128097503Y-64753657D02*
X128145122Y-64706038D01*
X128145122Y-64706038D02*
X128240360Y-64658419D01*
X128240360Y-64658419D02*
X128478455Y-64658419D01*
X128478455Y-64658419D02*
X128621312Y-64706038D01*
X129383217Y-65134609D02*
X129526074Y-65182228D01*
X129526074Y-65182228D02*
X129573693Y-65229847D01*
X129573693Y-65229847D02*
X129621312Y-65325085D01*
X129621312Y-65325085D02*
X129621312Y-65467942D01*
X129621312Y-65467942D02*
X129573693Y-65563180D01*
X129573693Y-65563180D02*
X129526074Y-65610800D01*
X129526074Y-65610800D02*
X129430836Y-65658419D01*
X129430836Y-65658419D02*
X129049884Y-65658419D01*
X129049884Y-65658419D02*
X129049884Y-64658419D01*
X129049884Y-64658419D02*
X129383217Y-64658419D01*
X129383217Y-64658419D02*
X129478455Y-64706038D01*
X129478455Y-64706038D02*
X129526074Y-64753657D01*
X129526074Y-64753657D02*
X129573693Y-64848895D01*
X129573693Y-64848895D02*
X129573693Y-64944133D01*
X129573693Y-64944133D02*
X129526074Y-65039371D01*
X129526074Y-65039371D02*
X129478455Y-65086990D01*
X129478455Y-65086990D02*
X129383217Y-65134609D01*
X129383217Y-65134609D02*
X129049884Y-65134609D01*
X131383217Y-65563180D02*
X131335598Y-65610800D01*
X131335598Y-65610800D02*
X131192741Y-65658419D01*
X131192741Y-65658419D02*
X131097503Y-65658419D01*
X131097503Y-65658419D02*
X130954646Y-65610800D01*
X130954646Y-65610800D02*
X130859408Y-65515561D01*
X130859408Y-65515561D02*
X130811789Y-65420323D01*
X130811789Y-65420323D02*
X130764170Y-65229847D01*
X130764170Y-65229847D02*
X130764170Y-65086990D01*
X130764170Y-65086990D02*
X130811789Y-64896514D01*
X130811789Y-64896514D02*
X130859408Y-64801276D01*
X130859408Y-64801276D02*
X130954646Y-64706038D01*
X130954646Y-64706038D02*
X131097503Y-64658419D01*
X131097503Y-64658419D02*
X131192741Y-64658419D01*
X131192741Y-64658419D02*
X131335598Y-64706038D01*
X131335598Y-64706038D02*
X131383217Y-64753657D01*
X153288419Y-70562115D02*
X152288419Y-70562115D01*
X152288419Y-70562115D02*
X152288419Y-70181163D01*
X152288419Y-70181163D02*
X152336038Y-70085925D01*
X152336038Y-70085925D02*
X152383657Y-70038306D01*
X152383657Y-70038306D02*
X152478895Y-69990687D01*
X152478895Y-69990687D02*
X152621752Y-69990687D01*
X152621752Y-69990687D02*
X152716990Y-70038306D01*
X152716990Y-70038306D02*
X152764609Y-70085925D01*
X152764609Y-70085925D02*
X152812228Y-70181163D01*
X152812228Y-70181163D02*
X152812228Y-70562115D01*
X152288419Y-69657353D02*
X153288419Y-69419258D01*
X153288419Y-69419258D02*
X152574133Y-69228782D01*
X152574133Y-69228782D02*
X153288419Y-69038306D01*
X153288419Y-69038306D02*
X152288419Y-68800211D01*
X153288419Y-68419258D02*
X152288419Y-68419258D01*
X152288419Y-68419258D02*
X153002704Y-68085925D01*
X153002704Y-68085925D02*
X152288419Y-67752592D01*
X152288419Y-67752592D02*
X153288419Y-67752592D01*
X168480800Y-70609734D02*
X168528419Y-70466877D01*
X168528419Y-70466877D02*
X168528419Y-70228782D01*
X168528419Y-70228782D02*
X168480800Y-70133544D01*
X168480800Y-70133544D02*
X168433180Y-70085925D01*
X168433180Y-70085925D02*
X168337942Y-70038306D01*
X168337942Y-70038306D02*
X168242704Y-70038306D01*
X168242704Y-70038306D02*
X168147466Y-70085925D01*
X168147466Y-70085925D02*
X168099847Y-70133544D01*
X168099847Y-70133544D02*
X168052228Y-70228782D01*
X168052228Y-70228782D02*
X168004609Y-70419258D01*
X168004609Y-70419258D02*
X167956990Y-70514496D01*
X167956990Y-70514496D02*
X167909371Y-70562115D01*
X167909371Y-70562115D02*
X167814133Y-70609734D01*
X167814133Y-70609734D02*
X167718895Y-70609734D01*
X167718895Y-70609734D02*
X167623657Y-70562115D01*
X167623657Y-70562115D02*
X167576038Y-70514496D01*
X167576038Y-70514496D02*
X167528419Y-70419258D01*
X167528419Y-70419258D02*
X167528419Y-70181163D01*
X167528419Y-70181163D02*
X167576038Y-70038306D01*
X168528419Y-69609734D02*
X167528419Y-69609734D01*
X167528419Y-69609734D02*
X167528419Y-69371639D01*
X167528419Y-69371639D02*
X167576038Y-69228782D01*
X167576038Y-69228782D02*
X167671276Y-69133544D01*
X167671276Y-69133544D02*
X167766514Y-69085925D01*
X167766514Y-69085925D02*
X167956990Y-69038306D01*
X167956990Y-69038306D02*
X168099847Y-69038306D01*
X168099847Y-69038306D02*
X168290323Y-69085925D01*
X168290323Y-69085925D02*
X168385561Y-69133544D01*
X168385561Y-69133544D02*
X168480800Y-69228782D01*
X168480800Y-69228782D02*
X168528419Y-69371639D01*
X168528419Y-69371639D02*
X168528419Y-69609734D01*
X168242704Y-68657353D02*
X168242704Y-68181163D01*
X168528419Y-68752591D02*
X167528419Y-68419258D01*
X167528419Y-68419258D02*
X168528419Y-68085925D01*
X167623657Y-67800210D02*
X167576038Y-67752591D01*
X167576038Y-67752591D02*
X167528419Y-67657353D01*
X167528419Y-67657353D02*
X167528419Y-67419258D01*
X167528419Y-67419258D02*
X167576038Y-67324020D01*
X167576038Y-67324020D02*
X167623657Y-67276401D01*
X167623657Y-67276401D02*
X167718895Y-67228782D01*
X167718895Y-67228782D02*
X167814133Y-67228782D01*
X167814133Y-67228782D02*
X167956990Y-67276401D01*
X167956990Y-67276401D02*
X168528419Y-67847829D01*
X168528419Y-67847829D02*
X168528419Y-67228782D01*
X173513180Y-61100687D02*
X173560800Y-61148306D01*
X173560800Y-61148306D02*
X173608419Y-61291163D01*
X173608419Y-61291163D02*
X173608419Y-61386401D01*
X173608419Y-61386401D02*
X173560800Y-61529258D01*
X173560800Y-61529258D02*
X173465561Y-61624496D01*
X173465561Y-61624496D02*
X173370323Y-61672115D01*
X173370323Y-61672115D02*
X173179847Y-61719734D01*
X173179847Y-61719734D02*
X173036990Y-61719734D01*
X173036990Y-61719734D02*
X172846514Y-61672115D01*
X172846514Y-61672115D02*
X172751276Y-61624496D01*
X172751276Y-61624496D02*
X172656038Y-61529258D01*
X172656038Y-61529258D02*
X172608419Y-61386401D01*
X172608419Y-61386401D02*
X172608419Y-61291163D01*
X172608419Y-61291163D02*
X172656038Y-61148306D01*
X172656038Y-61148306D02*
X172703657Y-61100687D01*
X173560800Y-60719734D02*
X173608419Y-60576877D01*
X173608419Y-60576877D02*
X173608419Y-60338782D01*
X173608419Y-60338782D02*
X173560800Y-60243544D01*
X173560800Y-60243544D02*
X173513180Y-60195925D01*
X173513180Y-60195925D02*
X173417942Y-60148306D01*
X173417942Y-60148306D02*
X173322704Y-60148306D01*
X173322704Y-60148306D02*
X173227466Y-60195925D01*
X173227466Y-60195925D02*
X173179847Y-60243544D01*
X173179847Y-60243544D02*
X173132228Y-60338782D01*
X173132228Y-60338782D02*
X173084609Y-60529258D01*
X173084609Y-60529258D02*
X173036990Y-60624496D01*
X173036990Y-60624496D02*
X172989371Y-60672115D01*
X172989371Y-60672115D02*
X172894133Y-60719734D01*
X172894133Y-60719734D02*
X172798895Y-60719734D01*
X172798895Y-60719734D02*
X172703657Y-60672115D01*
X172703657Y-60672115D02*
X172656038Y-60624496D01*
X172656038Y-60624496D02*
X172608419Y-60529258D01*
X172608419Y-60529258D02*
X172608419Y-60291163D01*
X172608419Y-60291163D02*
X172656038Y-60148306D01*
X173608419Y-59195925D02*
X173608419Y-59767353D01*
X173608419Y-59481639D02*
X172608419Y-59481639D01*
X172608419Y-59481639D02*
X172751276Y-59576877D01*
X172751276Y-59576877D02*
X172846514Y-59672115D01*
X172846514Y-59672115D02*
X172894133Y-59767353D01*
X177849884Y-65658419D02*
X177849884Y-64658419D01*
X177849884Y-64658419D02*
X178183217Y-65372704D01*
X178183217Y-65372704D02*
X178516550Y-64658419D01*
X178516550Y-64658419D02*
X178516550Y-65658419D01*
X178992741Y-65658419D02*
X178992741Y-64658419D01*
X180040359Y-65563180D02*
X179992740Y-65610800D01*
X179992740Y-65610800D02*
X179849883Y-65658419D01*
X179849883Y-65658419D02*
X179754645Y-65658419D01*
X179754645Y-65658419D02*
X179611788Y-65610800D01*
X179611788Y-65610800D02*
X179516550Y-65515561D01*
X179516550Y-65515561D02*
X179468931Y-65420323D01*
X179468931Y-65420323D02*
X179421312Y-65229847D01*
X179421312Y-65229847D02*
X179421312Y-65086990D01*
X179421312Y-65086990D02*
X179468931Y-64896514D01*
X179468931Y-64896514D02*
X179516550Y-64801276D01*
X179516550Y-64801276D02*
X179611788Y-64706038D01*
X179611788Y-64706038D02*
X179754645Y-64658419D01*
X179754645Y-64658419D02*
X179849883Y-64658419D01*
X179849883Y-64658419D02*
X179992740Y-64706038D01*
X179992740Y-64706038D02*
X180040359Y-64753657D01*
X181040359Y-65658419D02*
X180707026Y-65182228D01*
X180468931Y-65658419D02*
X180468931Y-64658419D01*
X180468931Y-64658419D02*
X180849883Y-64658419D01*
X180849883Y-64658419D02*
X180945121Y-64706038D01*
X180945121Y-64706038D02*
X180992740Y-64753657D01*
X180992740Y-64753657D02*
X181040359Y-64848895D01*
X181040359Y-64848895D02*
X181040359Y-64991752D01*
X181040359Y-64991752D02*
X180992740Y-65086990D01*
X180992740Y-65086990D02*
X180945121Y-65134609D01*
X180945121Y-65134609D02*
X180849883Y-65182228D01*
X180849883Y-65182228D02*
X180468931Y-65182228D01*
X181659407Y-64658419D02*
X181849883Y-64658419D01*
X181849883Y-64658419D02*
X181945121Y-64706038D01*
X181945121Y-64706038D02*
X182040359Y-64801276D01*
X182040359Y-64801276D02*
X182087978Y-64991752D01*
X182087978Y-64991752D02*
X182087978Y-65325085D01*
X182087978Y-65325085D02*
X182040359Y-65515561D01*
X182040359Y-65515561D02*
X181945121Y-65610800D01*
X181945121Y-65610800D02*
X181849883Y-65658419D01*
X181849883Y-65658419D02*
X181659407Y-65658419D01*
X181659407Y-65658419D02*
X181564169Y-65610800D01*
X181564169Y-65610800D02*
X181468931Y-65515561D01*
X181468931Y-65515561D02*
X181421312Y-65325085D01*
X181421312Y-65325085D02*
X181421312Y-64991752D01*
X181421312Y-64991752D02*
X181468931Y-64801276D01*
X181468931Y-64801276D02*
X181564169Y-64706038D01*
X181564169Y-64706038D02*
X181659407Y-64658419D01*
X183230836Y-65610800D02*
X183373693Y-65658419D01*
X183373693Y-65658419D02*
X183611788Y-65658419D01*
X183611788Y-65658419D02*
X183707026Y-65610800D01*
X183707026Y-65610800D02*
X183754645Y-65563180D01*
X183754645Y-65563180D02*
X183802264Y-65467942D01*
X183802264Y-65467942D02*
X183802264Y-65372704D01*
X183802264Y-65372704D02*
X183754645Y-65277466D01*
X183754645Y-65277466D02*
X183707026Y-65229847D01*
X183707026Y-65229847D02*
X183611788Y-65182228D01*
X183611788Y-65182228D02*
X183421312Y-65134609D01*
X183421312Y-65134609D02*
X183326074Y-65086990D01*
X183326074Y-65086990D02*
X183278455Y-65039371D01*
X183278455Y-65039371D02*
X183230836Y-64944133D01*
X183230836Y-64944133D02*
X183230836Y-64848895D01*
X183230836Y-64848895D02*
X183278455Y-64753657D01*
X183278455Y-64753657D02*
X183326074Y-64706038D01*
X183326074Y-64706038D02*
X183421312Y-64658419D01*
X183421312Y-64658419D02*
X183659407Y-64658419D01*
X183659407Y-64658419D02*
X183802264Y-64706038D01*
X184230836Y-65658419D02*
X184230836Y-64658419D01*
X184230836Y-64658419D02*
X184468931Y-64658419D01*
X184468931Y-64658419D02*
X184611788Y-64706038D01*
X184611788Y-64706038D02*
X184707026Y-64801276D01*
X184707026Y-64801276D02*
X184754645Y-64896514D01*
X184754645Y-64896514D02*
X184802264Y-65086990D01*
X184802264Y-65086990D02*
X184802264Y-65229847D01*
X184802264Y-65229847D02*
X184754645Y-65420323D01*
X184754645Y-65420323D02*
X184707026Y-65515561D01*
X184707026Y-65515561D02*
X184611788Y-65610800D01*
X184611788Y-65610800D02*
X184468931Y-65658419D01*
X184468931Y-65658419D02*
X184230836Y-65658419D01*
X130428419Y-69990687D02*
X129952228Y-70324020D01*
X130428419Y-70562115D02*
X129428419Y-70562115D01*
X129428419Y-70562115D02*
X129428419Y-70181163D01*
X129428419Y-70181163D02*
X129476038Y-70085925D01*
X129476038Y-70085925D02*
X129523657Y-70038306D01*
X129523657Y-70038306D02*
X129618895Y-69990687D01*
X129618895Y-69990687D02*
X129761752Y-69990687D01*
X129761752Y-69990687D02*
X129856990Y-70038306D01*
X129856990Y-70038306D02*
X129904609Y-70085925D01*
X129904609Y-70085925D02*
X129952228Y-70181163D01*
X129952228Y-70181163D02*
X129952228Y-70562115D01*
X129428419Y-69657353D02*
X130428419Y-68990687D01*
X129428419Y-68990687D02*
X130428419Y-69657353D01*
X130428419Y-68085925D02*
X130428419Y-68657353D01*
X130428419Y-68371639D02*
X129428419Y-68371639D01*
X129428419Y-68371639D02*
X129571276Y-68466877D01*
X129571276Y-68466877D02*
X129666514Y-68562115D01*
X129666514Y-68562115D02*
X129714133Y-68657353D01*
X173560800Y-70609734D02*
X173608419Y-70466877D01*
X173608419Y-70466877D02*
X173608419Y-70228782D01*
X173608419Y-70228782D02*
X173560800Y-70133544D01*
X173560800Y-70133544D02*
X173513180Y-70085925D01*
X173513180Y-70085925D02*
X173417942Y-70038306D01*
X173417942Y-70038306D02*
X173322704Y-70038306D01*
X173322704Y-70038306D02*
X173227466Y-70085925D01*
X173227466Y-70085925D02*
X173179847Y-70133544D01*
X173179847Y-70133544D02*
X173132228Y-70228782D01*
X173132228Y-70228782D02*
X173084609Y-70419258D01*
X173084609Y-70419258D02*
X173036990Y-70514496D01*
X173036990Y-70514496D02*
X172989371Y-70562115D01*
X172989371Y-70562115D02*
X172894133Y-70609734D01*
X172894133Y-70609734D02*
X172798895Y-70609734D01*
X172798895Y-70609734D02*
X172703657Y-70562115D01*
X172703657Y-70562115D02*
X172656038Y-70514496D01*
X172656038Y-70514496D02*
X172608419Y-70419258D01*
X172608419Y-70419258D02*
X172608419Y-70181163D01*
X172608419Y-70181163D02*
X172656038Y-70038306D01*
X173513180Y-69038306D02*
X173560800Y-69085925D01*
X173560800Y-69085925D02*
X173608419Y-69228782D01*
X173608419Y-69228782D02*
X173608419Y-69324020D01*
X173608419Y-69324020D02*
X173560800Y-69466877D01*
X173560800Y-69466877D02*
X173465561Y-69562115D01*
X173465561Y-69562115D02*
X173370323Y-69609734D01*
X173370323Y-69609734D02*
X173179847Y-69657353D01*
X173179847Y-69657353D02*
X173036990Y-69657353D01*
X173036990Y-69657353D02*
X172846514Y-69609734D01*
X172846514Y-69609734D02*
X172751276Y-69562115D01*
X172751276Y-69562115D02*
X172656038Y-69466877D01*
X172656038Y-69466877D02*
X172608419Y-69324020D01*
X172608419Y-69324020D02*
X172608419Y-69228782D01*
X172608419Y-69228782D02*
X172656038Y-69085925D01*
X172656038Y-69085925D02*
X172703657Y-69038306D01*
X173608419Y-68609734D02*
X172608419Y-68609734D01*
X173608419Y-68038306D02*
X173036990Y-68466877D01*
X172608419Y-68038306D02*
X173179847Y-68609734D01*
X173608419Y-67085925D02*
X173608419Y-67657353D01*
X173608419Y-67371639D02*
X172608419Y-67371639D01*
X172608419Y-67371639D02*
X172751276Y-67466877D01*
X172751276Y-67466877D02*
X172846514Y-67562115D01*
X172846514Y-67562115D02*
X172894133Y-67657353D01*
X176148419Y-69990687D02*
X175672228Y-70324020D01*
X176148419Y-70562115D02*
X175148419Y-70562115D01*
X175148419Y-70562115D02*
X175148419Y-70181163D01*
X175148419Y-70181163D02*
X175196038Y-70085925D01*
X175196038Y-70085925D02*
X175243657Y-70038306D01*
X175243657Y-70038306D02*
X175338895Y-69990687D01*
X175338895Y-69990687D02*
X175481752Y-69990687D01*
X175481752Y-69990687D02*
X175576990Y-70038306D01*
X175576990Y-70038306D02*
X175624609Y-70085925D01*
X175624609Y-70085925D02*
X175672228Y-70181163D01*
X175672228Y-70181163D02*
X175672228Y-70562115D01*
X175148419Y-69657353D02*
X176148419Y-68990687D01*
X175148419Y-68990687D02*
X176148419Y-69657353D01*
X175148419Y-68704972D02*
X175148419Y-68038306D01*
X175148419Y-68038306D02*
X176148419Y-68466877D01*
X162496038Y-61148306D02*
X162448419Y-61243544D01*
X162448419Y-61243544D02*
X162448419Y-61386401D01*
X162448419Y-61386401D02*
X162496038Y-61529258D01*
X162496038Y-61529258D02*
X162591276Y-61624496D01*
X162591276Y-61624496D02*
X162686514Y-61672115D01*
X162686514Y-61672115D02*
X162876990Y-61719734D01*
X162876990Y-61719734D02*
X163019847Y-61719734D01*
X163019847Y-61719734D02*
X163210323Y-61672115D01*
X163210323Y-61672115D02*
X163305561Y-61624496D01*
X163305561Y-61624496D02*
X163400800Y-61529258D01*
X163400800Y-61529258D02*
X163448419Y-61386401D01*
X163448419Y-61386401D02*
X163448419Y-61291163D01*
X163448419Y-61291163D02*
X163400800Y-61148306D01*
X163400800Y-61148306D02*
X163353180Y-61100687D01*
X163353180Y-61100687D02*
X163019847Y-61100687D01*
X163019847Y-61100687D02*
X163019847Y-61291163D01*
X163448419Y-60672115D02*
X162448419Y-60672115D01*
X162448419Y-60672115D02*
X163448419Y-60100687D01*
X163448419Y-60100687D02*
X162448419Y-60100687D01*
X163448419Y-59624496D02*
X162448419Y-59624496D01*
X162448419Y-59624496D02*
X162448419Y-59386401D01*
X162448419Y-59386401D02*
X162496038Y-59243544D01*
X162496038Y-59243544D02*
X162591276Y-59148306D01*
X162591276Y-59148306D02*
X162686514Y-59100687D01*
X162686514Y-59100687D02*
X162876990Y-59053068D01*
X162876990Y-59053068D02*
X163019847Y-59053068D01*
X163019847Y-59053068D02*
X163210323Y-59100687D01*
X163210323Y-59100687D02*
X163305561Y-59148306D01*
X163305561Y-59148306D02*
X163400800Y-59243544D01*
X163400800Y-59243544D02*
X163448419Y-59386401D01*
X163448419Y-59386401D02*
X163448419Y-59624496D01*
X158368419Y-70562115D02*
X157368419Y-70562115D01*
X157368419Y-70562115D02*
X158082704Y-70228782D01*
X158082704Y-70228782D02*
X157368419Y-69895449D01*
X157368419Y-69895449D02*
X158368419Y-69895449D01*
X157368419Y-69228782D02*
X157368419Y-69038306D01*
X157368419Y-69038306D02*
X157416038Y-68943068D01*
X157416038Y-68943068D02*
X157511276Y-68847830D01*
X157511276Y-68847830D02*
X157701752Y-68800211D01*
X157701752Y-68800211D02*
X158035085Y-68800211D01*
X158035085Y-68800211D02*
X158225561Y-68847830D01*
X158225561Y-68847830D02*
X158320800Y-68943068D01*
X158320800Y-68943068D02*
X158368419Y-69038306D01*
X158368419Y-69038306D02*
X158368419Y-69228782D01*
X158368419Y-69228782D02*
X158320800Y-69324020D01*
X158320800Y-69324020D02*
X158225561Y-69419258D01*
X158225561Y-69419258D02*
X158035085Y-69466877D01*
X158035085Y-69466877D02*
X157701752Y-69466877D01*
X157701752Y-69466877D02*
X157511276Y-69419258D01*
X157511276Y-69419258D02*
X157416038Y-69324020D01*
X157416038Y-69324020D02*
X157368419Y-69228782D01*
X158320800Y-68419258D02*
X158368419Y-68276401D01*
X158368419Y-68276401D02*
X158368419Y-68038306D01*
X158368419Y-68038306D02*
X158320800Y-67943068D01*
X158320800Y-67943068D02*
X158273180Y-67895449D01*
X158273180Y-67895449D02*
X158177942Y-67847830D01*
X158177942Y-67847830D02*
X158082704Y-67847830D01*
X158082704Y-67847830D02*
X157987466Y-67895449D01*
X157987466Y-67895449D02*
X157939847Y-67943068D01*
X157939847Y-67943068D02*
X157892228Y-68038306D01*
X157892228Y-68038306D02*
X157844609Y-68228782D01*
X157844609Y-68228782D02*
X157796990Y-68324020D01*
X157796990Y-68324020D02*
X157749371Y-68371639D01*
X157749371Y-68371639D02*
X157654133Y-68419258D01*
X157654133Y-68419258D02*
X157558895Y-68419258D01*
X157558895Y-68419258D02*
X157463657Y-68371639D01*
X157463657Y-68371639D02*
X157416038Y-68324020D01*
X157416038Y-68324020D02*
X157368419Y-68228782D01*
X157368419Y-68228782D02*
X157368419Y-67990687D01*
X157368419Y-67990687D02*
X157416038Y-67847830D01*
X158368419Y-67419258D02*
X157368419Y-67419258D01*
X140588419Y-61100687D02*
X140112228Y-61434020D01*
X140588419Y-61672115D02*
X139588419Y-61672115D01*
X139588419Y-61672115D02*
X139588419Y-61291163D01*
X139588419Y-61291163D02*
X139636038Y-61195925D01*
X139636038Y-61195925D02*
X139683657Y-61148306D01*
X139683657Y-61148306D02*
X139778895Y-61100687D01*
X139778895Y-61100687D02*
X139921752Y-61100687D01*
X139921752Y-61100687D02*
X140016990Y-61148306D01*
X140016990Y-61148306D02*
X140064609Y-61195925D01*
X140064609Y-61195925D02*
X140112228Y-61291163D01*
X140112228Y-61291163D02*
X140112228Y-61672115D01*
X139588419Y-60767353D02*
X140588419Y-60100687D01*
X139588419Y-60100687D02*
X140588419Y-60767353D01*
X139588419Y-59243544D02*
X139588419Y-59719734D01*
X139588419Y-59719734D02*
X140064609Y-59767353D01*
X140064609Y-59767353D02*
X140016990Y-59719734D01*
X140016990Y-59719734D02*
X139969371Y-59624496D01*
X139969371Y-59624496D02*
X139969371Y-59386401D01*
X139969371Y-59386401D02*
X140016990Y-59291163D01*
X140016990Y-59291163D02*
X140064609Y-59243544D01*
X140064609Y-59243544D02*
X140159847Y-59195925D01*
X140159847Y-59195925D02*
X140397942Y-59195925D01*
X140397942Y-59195925D02*
X140493180Y-59243544D01*
X140493180Y-59243544D02*
X140540800Y-59291163D01*
X140540800Y-59291163D02*
X140588419Y-59386401D01*
X140588419Y-59386401D02*
X140588419Y-59624496D01*
X140588419Y-59624496D02*
X140540800Y-59719734D01*
X140540800Y-59719734D02*
X140493180Y-59767353D01*
X131968419Y-70704972D02*
X131968419Y-70133544D01*
X132968419Y-70419258D02*
X131968419Y-70419258D01*
X131968419Y-69895448D02*
X132968419Y-69228782D01*
X131968419Y-69228782D02*
X132968419Y-69895448D01*
X132968419Y-68324020D02*
X132968419Y-68895448D01*
X132968419Y-68609734D02*
X131968419Y-68609734D01*
X131968419Y-68609734D02*
X132111276Y-68704972D01*
X132111276Y-68704972D02*
X132206514Y-68800210D01*
X132206514Y-68800210D02*
X132254133Y-68895448D01*
X143128419Y-70562115D02*
X142128419Y-70562115D01*
X142128419Y-70562115D02*
X142128419Y-70181163D01*
X142128419Y-70181163D02*
X142176038Y-70085925D01*
X142176038Y-70085925D02*
X142223657Y-70038306D01*
X142223657Y-70038306D02*
X142318895Y-69990687D01*
X142318895Y-69990687D02*
X142461752Y-69990687D01*
X142461752Y-69990687D02*
X142556990Y-70038306D01*
X142556990Y-70038306D02*
X142604609Y-70085925D01*
X142604609Y-70085925D02*
X142652228Y-70181163D01*
X142652228Y-70181163D02*
X142652228Y-70562115D01*
X142128419Y-69657353D02*
X143128419Y-69419258D01*
X143128419Y-69419258D02*
X142414133Y-69228782D01*
X142414133Y-69228782D02*
X143128419Y-69038306D01*
X143128419Y-69038306D02*
X142128419Y-68800211D01*
X143128419Y-68419258D02*
X142128419Y-68419258D01*
X142128419Y-68419258D02*
X142842704Y-68085925D01*
X142842704Y-68085925D02*
X142128419Y-67752592D01*
X142128419Y-67752592D02*
X143128419Y-67752592D01*
X135508419Y-70562115D02*
X134508419Y-70562115D01*
X134508419Y-70562115D02*
X134508419Y-70181163D01*
X134508419Y-70181163D02*
X134556038Y-70085925D01*
X134556038Y-70085925D02*
X134603657Y-70038306D01*
X134603657Y-70038306D02*
X134698895Y-69990687D01*
X134698895Y-69990687D02*
X134841752Y-69990687D01*
X134841752Y-69990687D02*
X134936990Y-70038306D01*
X134936990Y-70038306D02*
X134984609Y-70085925D01*
X134984609Y-70085925D02*
X135032228Y-70181163D01*
X135032228Y-70181163D02*
X135032228Y-70562115D01*
X134508419Y-69657353D02*
X135508419Y-69419258D01*
X135508419Y-69419258D02*
X134794133Y-69228782D01*
X134794133Y-69228782D02*
X135508419Y-69038306D01*
X135508419Y-69038306D02*
X134508419Y-68800211D01*
X135508419Y-68419258D02*
X134508419Y-68419258D01*
X134508419Y-68419258D02*
X135222704Y-68085925D01*
X135222704Y-68085925D02*
X134508419Y-67752592D01*
X134508419Y-67752592D02*
X135508419Y-67752592D01*
X182816038Y-70038306D02*
X182768419Y-70133544D01*
X182768419Y-70133544D02*
X182768419Y-70276401D01*
X182768419Y-70276401D02*
X182816038Y-70419258D01*
X182816038Y-70419258D02*
X182911276Y-70514496D01*
X182911276Y-70514496D02*
X183006514Y-70562115D01*
X183006514Y-70562115D02*
X183196990Y-70609734D01*
X183196990Y-70609734D02*
X183339847Y-70609734D01*
X183339847Y-70609734D02*
X183530323Y-70562115D01*
X183530323Y-70562115D02*
X183625561Y-70514496D01*
X183625561Y-70514496D02*
X183720800Y-70419258D01*
X183720800Y-70419258D02*
X183768419Y-70276401D01*
X183768419Y-70276401D02*
X183768419Y-70181163D01*
X183768419Y-70181163D02*
X183720800Y-70038306D01*
X183720800Y-70038306D02*
X183673180Y-69990687D01*
X183673180Y-69990687D02*
X183339847Y-69990687D01*
X183339847Y-69990687D02*
X183339847Y-70181163D01*
X183768419Y-69562115D02*
X182768419Y-69562115D01*
X182768419Y-69562115D02*
X182768419Y-69181163D01*
X182768419Y-69181163D02*
X182816038Y-69085925D01*
X182816038Y-69085925D02*
X182863657Y-69038306D01*
X182863657Y-69038306D02*
X182958895Y-68990687D01*
X182958895Y-68990687D02*
X183101752Y-68990687D01*
X183101752Y-68990687D02*
X183196990Y-69038306D01*
X183196990Y-69038306D02*
X183244609Y-69085925D01*
X183244609Y-69085925D02*
X183292228Y-69181163D01*
X183292228Y-69181163D02*
X183292228Y-69562115D01*
X183768419Y-68562115D02*
X182768419Y-68562115D01*
X182768419Y-67895449D02*
X182768419Y-67704973D01*
X182768419Y-67704973D02*
X182816038Y-67609735D01*
X182816038Y-67609735D02*
X182911276Y-67514497D01*
X182911276Y-67514497D02*
X183101752Y-67466878D01*
X183101752Y-67466878D02*
X183435085Y-67466878D01*
X183435085Y-67466878D02*
X183625561Y-67514497D01*
X183625561Y-67514497D02*
X183720800Y-67609735D01*
X183720800Y-67609735D02*
X183768419Y-67704973D01*
X183768419Y-67704973D02*
X183768419Y-67895449D01*
X183768419Y-67895449D02*
X183720800Y-67990687D01*
X183720800Y-67990687D02*
X183625561Y-68085925D01*
X183625561Y-68085925D02*
X183435085Y-68133544D01*
X183435085Y-68133544D02*
X183101752Y-68133544D01*
X183101752Y-68133544D02*
X182911276Y-68085925D01*
X182911276Y-68085925D02*
X182816038Y-67990687D01*
X182816038Y-67990687D02*
X182768419Y-67895449D01*
X155733180Y-69990687D02*
X155780800Y-70038306D01*
X155780800Y-70038306D02*
X155828419Y-70181163D01*
X155828419Y-70181163D02*
X155828419Y-70276401D01*
X155828419Y-70276401D02*
X155780800Y-70419258D01*
X155780800Y-70419258D02*
X155685561Y-70514496D01*
X155685561Y-70514496D02*
X155590323Y-70562115D01*
X155590323Y-70562115D02*
X155399847Y-70609734D01*
X155399847Y-70609734D02*
X155256990Y-70609734D01*
X155256990Y-70609734D02*
X155066514Y-70562115D01*
X155066514Y-70562115D02*
X154971276Y-70514496D01*
X154971276Y-70514496D02*
X154876038Y-70419258D01*
X154876038Y-70419258D02*
X154828419Y-70276401D01*
X154828419Y-70276401D02*
X154828419Y-70181163D01*
X154828419Y-70181163D02*
X154876038Y-70038306D01*
X154876038Y-70038306D02*
X154923657Y-69990687D01*
X155780800Y-69609734D02*
X155828419Y-69466877D01*
X155828419Y-69466877D02*
X155828419Y-69228782D01*
X155828419Y-69228782D02*
X155780800Y-69133544D01*
X155780800Y-69133544D02*
X155733180Y-69085925D01*
X155733180Y-69085925D02*
X155637942Y-69038306D01*
X155637942Y-69038306D02*
X155542704Y-69038306D01*
X155542704Y-69038306D02*
X155447466Y-69085925D01*
X155447466Y-69085925D02*
X155399847Y-69133544D01*
X155399847Y-69133544D02*
X155352228Y-69228782D01*
X155352228Y-69228782D02*
X155304609Y-69419258D01*
X155304609Y-69419258D02*
X155256990Y-69514496D01*
X155256990Y-69514496D02*
X155209371Y-69562115D01*
X155209371Y-69562115D02*
X155114133Y-69609734D01*
X155114133Y-69609734D02*
X155018895Y-69609734D01*
X155018895Y-69609734D02*
X154923657Y-69562115D01*
X154923657Y-69562115D02*
X154876038Y-69514496D01*
X154876038Y-69514496D02*
X154828419Y-69419258D01*
X154828419Y-69419258D02*
X154828419Y-69181163D01*
X154828419Y-69181163D02*
X154876038Y-69038306D01*
X162448419Y-70657353D02*
X162448419Y-70038306D01*
X162448419Y-70038306D02*
X162829371Y-70371639D01*
X162829371Y-70371639D02*
X162829371Y-70228782D01*
X162829371Y-70228782D02*
X162876990Y-70133544D01*
X162876990Y-70133544D02*
X162924609Y-70085925D01*
X162924609Y-70085925D02*
X163019847Y-70038306D01*
X163019847Y-70038306D02*
X163257942Y-70038306D01*
X163257942Y-70038306D02*
X163353180Y-70085925D01*
X163353180Y-70085925D02*
X163400800Y-70133544D01*
X163400800Y-70133544D02*
X163448419Y-70228782D01*
X163448419Y-70228782D02*
X163448419Y-70514496D01*
X163448419Y-70514496D02*
X163400800Y-70609734D01*
X163400800Y-70609734D02*
X163353180Y-70657353D01*
X163353180Y-69609734D02*
X163400800Y-69562115D01*
X163400800Y-69562115D02*
X163448419Y-69609734D01*
X163448419Y-69609734D02*
X163400800Y-69657353D01*
X163400800Y-69657353D02*
X163353180Y-69609734D01*
X163353180Y-69609734D02*
X163448419Y-69609734D01*
X162448419Y-69228782D02*
X162448419Y-68609735D01*
X162448419Y-68609735D02*
X162829371Y-68943068D01*
X162829371Y-68943068D02*
X162829371Y-68800211D01*
X162829371Y-68800211D02*
X162876990Y-68704973D01*
X162876990Y-68704973D02*
X162924609Y-68657354D01*
X162924609Y-68657354D02*
X163019847Y-68609735D01*
X163019847Y-68609735D02*
X163257942Y-68609735D01*
X163257942Y-68609735D02*
X163353180Y-68657354D01*
X163353180Y-68657354D02*
X163400800Y-68704973D01*
X163400800Y-68704973D02*
X163448419Y-68800211D01*
X163448419Y-68800211D02*
X163448419Y-69085925D01*
X163448419Y-69085925D02*
X163400800Y-69181163D01*
X163400800Y-69181163D02*
X163353180Y-69228782D01*
X162448419Y-68324020D02*
X163448419Y-67990687D01*
X163448419Y-67990687D02*
X162448419Y-67657354D01*
X186308419Y-61672115D02*
X185308419Y-61672115D01*
X185308419Y-61672115D02*
X185308419Y-61291163D01*
X185308419Y-61291163D02*
X185356038Y-61195925D01*
X185356038Y-61195925D02*
X185403657Y-61148306D01*
X185403657Y-61148306D02*
X185498895Y-61100687D01*
X185498895Y-61100687D02*
X185641752Y-61100687D01*
X185641752Y-61100687D02*
X185736990Y-61148306D01*
X185736990Y-61148306D02*
X185784609Y-61195925D01*
X185784609Y-61195925D02*
X185832228Y-61291163D01*
X185832228Y-61291163D02*
X185832228Y-61672115D01*
X185308419Y-60767353D02*
X186308419Y-60529258D01*
X186308419Y-60529258D02*
X185594133Y-60338782D01*
X185594133Y-60338782D02*
X186308419Y-60148306D01*
X186308419Y-60148306D02*
X185308419Y-59910211D01*
X186308419Y-59529258D02*
X185308419Y-59529258D01*
X185308419Y-59529258D02*
X186022704Y-59195925D01*
X186022704Y-59195925D02*
X185308419Y-58862592D01*
X185308419Y-58862592D02*
X186308419Y-58862592D01*
X153002704Y-61719734D02*
X153002704Y-61243544D01*
X153288419Y-61814972D02*
X152288419Y-61481639D01*
X152288419Y-61481639D02*
X153288419Y-61148306D01*
X152383657Y-60862591D02*
X152336038Y-60814972D01*
X152336038Y-60814972D02*
X152288419Y-60719734D01*
X152288419Y-60719734D02*
X152288419Y-60481639D01*
X152288419Y-60481639D02*
X152336038Y-60386401D01*
X152336038Y-60386401D02*
X152383657Y-60338782D01*
X152383657Y-60338782D02*
X152478895Y-60291163D01*
X152478895Y-60291163D02*
X152574133Y-60291163D01*
X152574133Y-60291163D02*
X152716990Y-60338782D01*
X152716990Y-60338782D02*
X153288419Y-60910210D01*
X153288419Y-60910210D02*
X153288419Y-60291163D01*
X129476038Y-61148306D02*
X129428419Y-61243544D01*
X129428419Y-61243544D02*
X129428419Y-61386401D01*
X129428419Y-61386401D02*
X129476038Y-61529258D01*
X129476038Y-61529258D02*
X129571276Y-61624496D01*
X129571276Y-61624496D02*
X129666514Y-61672115D01*
X129666514Y-61672115D02*
X129856990Y-61719734D01*
X129856990Y-61719734D02*
X129999847Y-61719734D01*
X129999847Y-61719734D02*
X130190323Y-61672115D01*
X130190323Y-61672115D02*
X130285561Y-61624496D01*
X130285561Y-61624496D02*
X130380800Y-61529258D01*
X130380800Y-61529258D02*
X130428419Y-61386401D01*
X130428419Y-61386401D02*
X130428419Y-61291163D01*
X130428419Y-61291163D02*
X130380800Y-61148306D01*
X130380800Y-61148306D02*
X130333180Y-61100687D01*
X130333180Y-61100687D02*
X129999847Y-61100687D01*
X129999847Y-61100687D02*
X129999847Y-61291163D01*
X130428419Y-60672115D02*
X129428419Y-60672115D01*
X129428419Y-60672115D02*
X130428419Y-60100687D01*
X130428419Y-60100687D02*
X129428419Y-60100687D01*
X130428419Y-59624496D02*
X129428419Y-59624496D01*
X129428419Y-59624496D02*
X129428419Y-59386401D01*
X129428419Y-59386401D02*
X129476038Y-59243544D01*
X129476038Y-59243544D02*
X129571276Y-59148306D01*
X129571276Y-59148306D02*
X129666514Y-59100687D01*
X129666514Y-59100687D02*
X129856990Y-59053068D01*
X129856990Y-59053068D02*
X129999847Y-59053068D01*
X129999847Y-59053068D02*
X130190323Y-59100687D01*
X130190323Y-59100687D02*
X130285561Y-59148306D01*
X130285561Y-59148306D02*
X130380800Y-59243544D01*
X130380800Y-59243544D02*
X130428419Y-59386401D01*
X130428419Y-59386401D02*
X130428419Y-59624496D01*
X135508419Y-61672115D02*
X134508419Y-61672115D01*
X134508419Y-61672115D02*
X134508419Y-61291163D01*
X134508419Y-61291163D02*
X134556038Y-61195925D01*
X134556038Y-61195925D02*
X134603657Y-61148306D01*
X134603657Y-61148306D02*
X134698895Y-61100687D01*
X134698895Y-61100687D02*
X134841752Y-61100687D01*
X134841752Y-61100687D02*
X134936990Y-61148306D01*
X134936990Y-61148306D02*
X134984609Y-61195925D01*
X134984609Y-61195925D02*
X135032228Y-61291163D01*
X135032228Y-61291163D02*
X135032228Y-61672115D01*
X134508419Y-60767353D02*
X135508419Y-60529258D01*
X135508419Y-60529258D02*
X134794133Y-60338782D01*
X134794133Y-60338782D02*
X135508419Y-60148306D01*
X135508419Y-60148306D02*
X134508419Y-59910211D01*
X135508419Y-59529258D02*
X134508419Y-59529258D01*
X134508419Y-59529258D02*
X135222704Y-59195925D01*
X135222704Y-59195925D02*
X134508419Y-58862592D01*
X134508419Y-58862592D02*
X135508419Y-58862592D01*
D11*
X120142095Y-87694819D02*
X120142095Y-86694819D01*
X120142095Y-87171009D02*
X120713523Y-87171009D01*
X120713523Y-87694819D02*
X120713523Y-86694819D01*
X121618285Y-87028152D02*
X121618285Y-87694819D01*
X121380190Y-86647200D02*
X121142095Y-87361485D01*
X121142095Y-87361485D02*
X121761142Y-87361485D01*
X191008095Y-54166819D02*
X191008095Y-53166819D01*
X191008095Y-53643009D02*
X191579523Y-53643009D01*
X191579523Y-54166819D02*
X191579523Y-53166819D01*
X192579523Y-54166819D02*
X192008095Y-54166819D01*
X192293809Y-54166819D02*
X192293809Y-53166819D01*
X192293809Y-53166819D02*
X192198571Y-53309676D01*
X192198571Y-53309676D02*
X192103333Y-53404914D01*
X192103333Y-53404914D02*
X192008095Y-53452533D01*
X154341809Y-83459200D02*
X154484666Y-83506819D01*
X154484666Y-83506819D02*
X154722761Y-83506819D01*
X154722761Y-83506819D02*
X154817999Y-83459200D01*
X154817999Y-83459200D02*
X154865618Y-83411580D01*
X154865618Y-83411580D02*
X154913237Y-83316342D01*
X154913237Y-83316342D02*
X154913237Y-83221104D01*
X154913237Y-83221104D02*
X154865618Y-83125866D01*
X154865618Y-83125866D02*
X154817999Y-83078247D01*
X154817999Y-83078247D02*
X154722761Y-83030628D01*
X154722761Y-83030628D02*
X154532285Y-82983009D01*
X154532285Y-82983009D02*
X154437047Y-82935390D01*
X154437047Y-82935390D02*
X154389428Y-82887771D01*
X154389428Y-82887771D02*
X154341809Y-82792533D01*
X154341809Y-82792533D02*
X154341809Y-82697295D01*
X154341809Y-82697295D02*
X154389428Y-82602057D01*
X154389428Y-82602057D02*
X154437047Y-82554438D01*
X154437047Y-82554438D02*
X154532285Y-82506819D01*
X154532285Y-82506819D02*
X154770380Y-82506819D01*
X154770380Y-82506819D02*
X154913237Y-82554438D01*
X155722761Y-83459200D02*
X155627523Y-83506819D01*
X155627523Y-83506819D02*
X155437047Y-83506819D01*
X155437047Y-83506819D02*
X155341809Y-83459200D01*
X155341809Y-83459200D02*
X155294190Y-83363961D01*
X155294190Y-83363961D02*
X155294190Y-82983009D01*
X155294190Y-82983009D02*
X155341809Y-82887771D01*
X155341809Y-82887771D02*
X155437047Y-82840152D01*
X155437047Y-82840152D02*
X155627523Y-82840152D01*
X155627523Y-82840152D02*
X155722761Y-82887771D01*
X155722761Y-82887771D02*
X155770380Y-82983009D01*
X155770380Y-82983009D02*
X155770380Y-83078247D01*
X155770380Y-83078247D02*
X155294190Y-83173485D01*
X156198952Y-82840152D02*
X156198952Y-83506819D01*
X156198952Y-82935390D02*
X156246571Y-82887771D01*
X156246571Y-82887771D02*
X156341809Y-82840152D01*
X156341809Y-82840152D02*
X156484666Y-82840152D01*
X156484666Y-82840152D02*
X156579904Y-82887771D01*
X156579904Y-82887771D02*
X156627523Y-82983009D01*
X156627523Y-82983009D02*
X156627523Y-83506819D01*
X157056095Y-83459200D02*
X157151333Y-83506819D01*
X157151333Y-83506819D02*
X157341809Y-83506819D01*
X157341809Y-83506819D02*
X157437047Y-83459200D01*
X157437047Y-83459200D02*
X157484666Y-83363961D01*
X157484666Y-83363961D02*
X157484666Y-83316342D01*
X157484666Y-83316342D02*
X157437047Y-83221104D01*
X157437047Y-83221104D02*
X157341809Y-83173485D01*
X157341809Y-83173485D02*
X157198952Y-83173485D01*
X157198952Y-83173485D02*
X157103714Y-83125866D01*
X157103714Y-83125866D02*
X157056095Y-83030628D01*
X157056095Y-83030628D02*
X157056095Y-82983009D01*
X157056095Y-82983009D02*
X157103714Y-82887771D01*
X157103714Y-82887771D02*
X157198952Y-82840152D01*
X157198952Y-82840152D02*
X157341809Y-82840152D01*
X157341809Y-82840152D02*
X157437047Y-82887771D01*
X158056095Y-83506819D02*
X157960857Y-83459200D01*
X157960857Y-83459200D02*
X157913238Y-83411580D01*
X157913238Y-83411580D02*
X157865619Y-83316342D01*
X157865619Y-83316342D02*
X157865619Y-83030628D01*
X157865619Y-83030628D02*
X157913238Y-82935390D01*
X157913238Y-82935390D02*
X157960857Y-82887771D01*
X157960857Y-82887771D02*
X158056095Y-82840152D01*
X158056095Y-82840152D02*
X158198952Y-82840152D01*
X158198952Y-82840152D02*
X158294190Y-82887771D01*
X158294190Y-82887771D02*
X158341809Y-82935390D01*
X158341809Y-82935390D02*
X158389428Y-83030628D01*
X158389428Y-83030628D02*
X158389428Y-83316342D01*
X158389428Y-83316342D02*
X158341809Y-83411580D01*
X158341809Y-83411580D02*
X158294190Y-83459200D01*
X158294190Y-83459200D02*
X158198952Y-83506819D01*
X158198952Y-83506819D02*
X158056095Y-83506819D01*
X158818000Y-83506819D02*
X158818000Y-82840152D01*
X158818000Y-83030628D02*
X158865619Y-82935390D01*
X158865619Y-82935390D02*
X158913238Y-82887771D01*
X158913238Y-82887771D02*
X159008476Y-82840152D01*
X159008476Y-82840152D02*
X159103714Y-82840152D01*
X159770381Y-82983009D02*
X159913238Y-83030628D01*
X159913238Y-83030628D02*
X159960857Y-83078247D01*
X159960857Y-83078247D02*
X160008476Y-83173485D01*
X160008476Y-83173485D02*
X160008476Y-83316342D01*
X160008476Y-83316342D02*
X159960857Y-83411580D01*
X159960857Y-83411580D02*
X159913238Y-83459200D01*
X159913238Y-83459200D02*
X159818000Y-83506819D01*
X159818000Y-83506819D02*
X159437048Y-83506819D01*
X159437048Y-83506819D02*
X159437048Y-82506819D01*
X159437048Y-82506819D02*
X159770381Y-82506819D01*
X159770381Y-82506819D02*
X159865619Y-82554438D01*
X159865619Y-82554438D02*
X159913238Y-82602057D01*
X159913238Y-82602057D02*
X159960857Y-82697295D01*
X159960857Y-82697295D02*
X159960857Y-82792533D01*
X159960857Y-82792533D02*
X159913238Y-82887771D01*
X159913238Y-82887771D02*
X159865619Y-82935390D01*
X159865619Y-82935390D02*
X159770381Y-82983009D01*
X159770381Y-82983009D02*
X159437048Y-82983009D01*
X160579905Y-83506819D02*
X160484667Y-83459200D01*
X160484667Y-83459200D02*
X160437048Y-83411580D01*
X160437048Y-83411580D02*
X160389429Y-83316342D01*
X160389429Y-83316342D02*
X160389429Y-83030628D01*
X160389429Y-83030628D02*
X160437048Y-82935390D01*
X160437048Y-82935390D02*
X160484667Y-82887771D01*
X160484667Y-82887771D02*
X160579905Y-82840152D01*
X160579905Y-82840152D02*
X160722762Y-82840152D01*
X160722762Y-82840152D02*
X160818000Y-82887771D01*
X160818000Y-82887771D02*
X160865619Y-82935390D01*
X160865619Y-82935390D02*
X160913238Y-83030628D01*
X160913238Y-83030628D02*
X160913238Y-83316342D01*
X160913238Y-83316342D02*
X160865619Y-83411580D01*
X160865619Y-83411580D02*
X160818000Y-83459200D01*
X160818000Y-83459200D02*
X160722762Y-83506819D01*
X160722762Y-83506819D02*
X160579905Y-83506819D01*
X161770381Y-83506819D02*
X161770381Y-82983009D01*
X161770381Y-82983009D02*
X161722762Y-82887771D01*
X161722762Y-82887771D02*
X161627524Y-82840152D01*
X161627524Y-82840152D02*
X161437048Y-82840152D01*
X161437048Y-82840152D02*
X161341810Y-82887771D01*
X161770381Y-83459200D02*
X161675143Y-83506819D01*
X161675143Y-83506819D02*
X161437048Y-83506819D01*
X161437048Y-83506819D02*
X161341810Y-83459200D01*
X161341810Y-83459200D02*
X161294191Y-83363961D01*
X161294191Y-83363961D02*
X161294191Y-83268723D01*
X161294191Y-83268723D02*
X161341810Y-83173485D01*
X161341810Y-83173485D02*
X161437048Y-83125866D01*
X161437048Y-83125866D02*
X161675143Y-83125866D01*
X161675143Y-83125866D02*
X161770381Y-83078247D01*
X162246572Y-83506819D02*
X162246572Y-82840152D01*
X162246572Y-83030628D02*
X162294191Y-82935390D01*
X162294191Y-82935390D02*
X162341810Y-82887771D01*
X162341810Y-82887771D02*
X162437048Y-82840152D01*
X162437048Y-82840152D02*
X162532286Y-82840152D01*
X163294191Y-83506819D02*
X163294191Y-82506819D01*
X163294191Y-83459200D02*
X163198953Y-83506819D01*
X163198953Y-83506819D02*
X163008477Y-83506819D01*
X163008477Y-83506819D02*
X162913239Y-83459200D01*
X162913239Y-83459200D02*
X162865620Y-83411580D01*
X162865620Y-83411580D02*
X162818001Y-83316342D01*
X162818001Y-83316342D02*
X162818001Y-83030628D01*
X162818001Y-83030628D02*
X162865620Y-82935390D01*
X162865620Y-82935390D02*
X162913239Y-82887771D01*
X162913239Y-82887771D02*
X163008477Y-82840152D01*
X163008477Y-82840152D02*
X163198953Y-82840152D01*
X163198953Y-82840152D02*
X163294191Y-82887771D01*
X164294191Y-83506819D02*
X163722763Y-83506819D01*
X164008477Y-83506819D02*
X164008477Y-82506819D01*
X164008477Y-82506819D02*
X163913239Y-82649676D01*
X163913239Y-82649676D02*
X163818001Y-82744914D01*
X163818001Y-82744914D02*
X163722763Y-82792533D01*
X193758819Y-87070095D02*
X194758819Y-86736762D01*
X194758819Y-86736762D02*
X193758819Y-86403429D01*
X194711200Y-85689143D02*
X194758819Y-85784381D01*
X194758819Y-85784381D02*
X194758819Y-85974857D01*
X194758819Y-85974857D02*
X194711200Y-86070095D01*
X194711200Y-86070095D02*
X194615961Y-86117714D01*
X194615961Y-86117714D02*
X194235009Y-86117714D01*
X194235009Y-86117714D02*
X194139771Y-86070095D01*
X194139771Y-86070095D02*
X194092152Y-85974857D01*
X194092152Y-85974857D02*
X194092152Y-85784381D01*
X194092152Y-85784381D02*
X194139771Y-85689143D01*
X194139771Y-85689143D02*
X194235009Y-85641524D01*
X194235009Y-85641524D02*
X194330247Y-85641524D01*
X194330247Y-85641524D02*
X194425485Y-86117714D01*
X194758819Y-85212952D02*
X193758819Y-85212952D01*
X194758819Y-84784381D02*
X194235009Y-84784381D01*
X194235009Y-84784381D02*
X194139771Y-84832000D01*
X194139771Y-84832000D02*
X194092152Y-84927238D01*
X194092152Y-84927238D02*
X194092152Y-85070095D01*
X194092152Y-85070095D02*
X194139771Y-85165333D01*
X194139771Y-85165333D02*
X194187390Y-85212952D01*
X194758819Y-84308190D02*
X194092152Y-84308190D01*
X193758819Y-84308190D02*
X193806438Y-84355809D01*
X193806438Y-84355809D02*
X193854057Y-84308190D01*
X193854057Y-84308190D02*
X193806438Y-84260571D01*
X193806438Y-84260571D02*
X193758819Y-84308190D01*
X193758819Y-84308190D02*
X193854057Y-84308190D01*
X194711200Y-83403429D02*
X194758819Y-83498667D01*
X194758819Y-83498667D02*
X194758819Y-83689143D01*
X194758819Y-83689143D02*
X194711200Y-83784381D01*
X194711200Y-83784381D02*
X194663580Y-83832000D01*
X194663580Y-83832000D02*
X194568342Y-83879619D01*
X194568342Y-83879619D02*
X194282628Y-83879619D01*
X194282628Y-83879619D02*
X194187390Y-83832000D01*
X194187390Y-83832000D02*
X194139771Y-83784381D01*
X194139771Y-83784381D02*
X194092152Y-83689143D01*
X194092152Y-83689143D02*
X194092152Y-83498667D01*
X194092152Y-83498667D02*
X194139771Y-83403429D01*
X194758819Y-82832000D02*
X194711200Y-82927238D01*
X194711200Y-82927238D02*
X194615961Y-82974857D01*
X194615961Y-82974857D02*
X193758819Y-82974857D01*
X194711200Y-82070095D02*
X194758819Y-82165333D01*
X194758819Y-82165333D02*
X194758819Y-82355809D01*
X194758819Y-82355809D02*
X194711200Y-82451047D01*
X194711200Y-82451047D02*
X194615961Y-82498666D01*
X194615961Y-82498666D02*
X194235009Y-82498666D01*
X194235009Y-82498666D02*
X194139771Y-82451047D01*
X194139771Y-82451047D02*
X194092152Y-82355809D01*
X194092152Y-82355809D02*
X194092152Y-82165333D01*
X194092152Y-82165333D02*
X194139771Y-82070095D01*
X194139771Y-82070095D02*
X194235009Y-82022476D01*
X194235009Y-82022476D02*
X194330247Y-82022476D01*
X194330247Y-82022476D02*
X194425485Y-82498666D01*
X194758819Y-81593904D02*
X193758819Y-81593904D01*
X193758819Y-81593904D02*
X193758819Y-81212952D01*
X193758819Y-81212952D02*
X193806438Y-81117714D01*
X193806438Y-81117714D02*
X193854057Y-81070095D01*
X193854057Y-81070095D02*
X193949295Y-81022476D01*
X193949295Y-81022476D02*
X194092152Y-81022476D01*
X194092152Y-81022476D02*
X194187390Y-81070095D01*
X194187390Y-81070095D02*
X194235009Y-81117714D01*
X194235009Y-81117714D02*
X194282628Y-81212952D01*
X194282628Y-81212952D02*
X194282628Y-81593904D01*
X194758819Y-80451047D02*
X194711200Y-80546285D01*
X194711200Y-80546285D02*
X194663580Y-80593904D01*
X194663580Y-80593904D02*
X194568342Y-80641523D01*
X194568342Y-80641523D02*
X194282628Y-80641523D01*
X194282628Y-80641523D02*
X194187390Y-80593904D01*
X194187390Y-80593904D02*
X194139771Y-80546285D01*
X194139771Y-80546285D02*
X194092152Y-80451047D01*
X194092152Y-80451047D02*
X194092152Y-80308190D01*
X194092152Y-80308190D02*
X194139771Y-80212952D01*
X194139771Y-80212952D02*
X194187390Y-80165333D01*
X194187390Y-80165333D02*
X194282628Y-80117714D01*
X194282628Y-80117714D02*
X194568342Y-80117714D01*
X194568342Y-80117714D02*
X194663580Y-80165333D01*
X194663580Y-80165333D02*
X194711200Y-80212952D01*
X194711200Y-80212952D02*
X194758819Y-80308190D01*
X194758819Y-80308190D02*
X194758819Y-80451047D01*
X194092152Y-79784380D02*
X194758819Y-79593904D01*
X194758819Y-79593904D02*
X194282628Y-79403428D01*
X194282628Y-79403428D02*
X194758819Y-79212952D01*
X194758819Y-79212952D02*
X194092152Y-79022476D01*
X194711200Y-78260571D02*
X194758819Y-78355809D01*
X194758819Y-78355809D02*
X194758819Y-78546285D01*
X194758819Y-78546285D02*
X194711200Y-78641523D01*
X194711200Y-78641523D02*
X194615961Y-78689142D01*
X194615961Y-78689142D02*
X194235009Y-78689142D01*
X194235009Y-78689142D02*
X194139771Y-78641523D01*
X194139771Y-78641523D02*
X194092152Y-78546285D01*
X194092152Y-78546285D02*
X194092152Y-78355809D01*
X194092152Y-78355809D02*
X194139771Y-78260571D01*
X194139771Y-78260571D02*
X194235009Y-78212952D01*
X194235009Y-78212952D02*
X194330247Y-78212952D01*
X194330247Y-78212952D02*
X194425485Y-78689142D01*
X194758819Y-77784380D02*
X194092152Y-77784380D01*
X194282628Y-77784380D02*
X194187390Y-77736761D01*
X194187390Y-77736761D02*
X194139771Y-77689142D01*
X194139771Y-77689142D02*
X194092152Y-77593904D01*
X194092152Y-77593904D02*
X194092152Y-77498666D01*
X193758819Y-76974856D02*
X193758819Y-76784380D01*
X193758819Y-76784380D02*
X193806438Y-76689142D01*
X193806438Y-76689142D02*
X193901676Y-76593904D01*
X193901676Y-76593904D02*
X194092152Y-76546285D01*
X194092152Y-76546285D02*
X194425485Y-76546285D01*
X194425485Y-76546285D02*
X194615961Y-76593904D01*
X194615961Y-76593904D02*
X194711200Y-76689142D01*
X194711200Y-76689142D02*
X194758819Y-76784380D01*
X194758819Y-76784380D02*
X194758819Y-76974856D01*
X194758819Y-76974856D02*
X194711200Y-77070094D01*
X194711200Y-77070094D02*
X194615961Y-77165332D01*
X194615961Y-77165332D02*
X194425485Y-77212951D01*
X194425485Y-77212951D02*
X194092152Y-77212951D01*
X194092152Y-77212951D02*
X193901676Y-77165332D01*
X193901676Y-77165332D02*
X193806438Y-77070094D01*
X193806438Y-77070094D02*
X193758819Y-76974856D01*
X194092152Y-76117713D02*
X194758819Y-76117713D01*
X194187390Y-76117713D02*
X194139771Y-76070094D01*
X194139771Y-76070094D02*
X194092152Y-75974856D01*
X194092152Y-75974856D02*
X194092152Y-75831999D01*
X194092152Y-75831999D02*
X194139771Y-75736761D01*
X194139771Y-75736761D02*
X194235009Y-75689142D01*
X194235009Y-75689142D02*
X194758819Y-75689142D01*
X194758819Y-74689142D02*
X194758819Y-75260570D01*
X194758819Y-74974856D02*
X193758819Y-74974856D01*
X193758819Y-74974856D02*
X193901676Y-75070094D01*
X193901676Y-75070094D02*
X193996914Y-75165332D01*
X193996914Y-75165332D02*
X194044533Y-75260570D01*
X120142095Y-54166819D02*
X120142095Y-53166819D01*
X120142095Y-53643009D02*
X120713523Y-53643009D01*
X120713523Y-54166819D02*
X120713523Y-53166819D01*
X121142095Y-53262057D02*
X121189714Y-53214438D01*
X121189714Y-53214438D02*
X121284952Y-53166819D01*
X121284952Y-53166819D02*
X121523047Y-53166819D01*
X121523047Y-53166819D02*
X121618285Y-53214438D01*
X121618285Y-53214438D02*
X121665904Y-53262057D01*
X121665904Y-53262057D02*
X121713523Y-53357295D01*
X121713523Y-53357295D02*
X121713523Y-53452533D01*
X121713523Y-53452533D02*
X121665904Y-53595390D01*
X121665904Y-53595390D02*
X121094476Y-54166819D01*
X121094476Y-54166819D02*
X121713523Y-54166819D01*
X176919047Y-74519009D02*
X177061904Y-74566628D01*
X177061904Y-74566628D02*
X177109523Y-74614247D01*
X177109523Y-74614247D02*
X177157142Y-74709485D01*
X177157142Y-74709485D02*
X177157142Y-74852342D01*
X177157142Y-74852342D02*
X177109523Y-74947580D01*
X177109523Y-74947580D02*
X177061904Y-74995200D01*
X177061904Y-74995200D02*
X176966666Y-75042819D01*
X176966666Y-75042819D02*
X176585714Y-75042819D01*
X176585714Y-75042819D02*
X176585714Y-74042819D01*
X176585714Y-74042819D02*
X176919047Y-74042819D01*
X176919047Y-74042819D02*
X177014285Y-74090438D01*
X177014285Y-74090438D02*
X177061904Y-74138057D01*
X177061904Y-74138057D02*
X177109523Y-74233295D01*
X177109523Y-74233295D02*
X177109523Y-74328533D01*
X177109523Y-74328533D02*
X177061904Y-74423771D01*
X177061904Y-74423771D02*
X177014285Y-74471390D01*
X177014285Y-74471390D02*
X176919047Y-74519009D01*
X176919047Y-74519009D02*
X176585714Y-74519009D01*
X177490476Y-74042819D02*
X178157142Y-74042819D01*
X178157142Y-74042819D02*
X177490476Y-75042819D01*
X177490476Y-75042819D02*
X178157142Y-75042819D01*
X179061904Y-75042819D02*
X178490476Y-75042819D01*
X178776190Y-75042819D02*
X178776190Y-74042819D01*
X178776190Y-74042819D02*
X178680952Y-74185676D01*
X178680952Y-74185676D02*
X178585714Y-74280914D01*
X178585714Y-74280914D02*
X178490476Y-74328533D01*
X173609048Y-79321866D02*
X174370953Y-79321866D01*
X173990000Y-79702819D02*
X173990000Y-78940914D01*
X145502666Y-82760819D02*
X145502666Y-83475104D01*
X145502666Y-83475104D02*
X145455047Y-83617961D01*
X145455047Y-83617961D02*
X145359809Y-83713200D01*
X145359809Y-83713200D02*
X145216952Y-83760819D01*
X145216952Y-83760819D02*
X145121714Y-83760819D01*
X145931238Y-82856057D02*
X145978857Y-82808438D01*
X145978857Y-82808438D02*
X146074095Y-82760819D01*
X146074095Y-82760819D02*
X146312190Y-82760819D01*
X146312190Y-82760819D02*
X146407428Y-82808438D01*
X146407428Y-82808438D02*
X146455047Y-82856057D01*
X146455047Y-82856057D02*
X146502666Y-82951295D01*
X146502666Y-82951295D02*
X146502666Y-83046533D01*
X146502666Y-83046533D02*
X146455047Y-83189390D01*
X146455047Y-83189390D02*
X145883619Y-83760819D01*
X145883619Y-83760819D02*
X146502666Y-83760819D01*
D10*
X175710752Y-90478544D02*
X176520276Y-90478544D01*
X176520276Y-90478544D02*
X176615514Y-90526163D01*
X176615514Y-90526163D02*
X176663133Y-90573782D01*
X176663133Y-90573782D02*
X176710752Y-90669020D01*
X176710752Y-90669020D02*
X176710752Y-90811877D01*
X176710752Y-90811877D02*
X176663133Y-90907115D01*
X176329800Y-90478544D02*
X176377419Y-90573782D01*
X176377419Y-90573782D02*
X176377419Y-90764258D01*
X176377419Y-90764258D02*
X176329800Y-90859496D01*
X176329800Y-90859496D02*
X176282180Y-90907115D01*
X176282180Y-90907115D02*
X176186942Y-90954734D01*
X176186942Y-90954734D02*
X175901228Y-90954734D01*
X175901228Y-90954734D02*
X175805990Y-90907115D01*
X175805990Y-90907115D02*
X175758371Y-90859496D01*
X175758371Y-90859496D02*
X175710752Y-90764258D01*
X175710752Y-90764258D02*
X175710752Y-90573782D01*
X175710752Y-90573782D02*
X175758371Y-90478544D01*
X175710752Y-90002353D02*
X176377419Y-90002353D01*
X175805990Y-90002353D02*
X175758371Y-89954734D01*
X175758371Y-89954734D02*
X175710752Y-89859496D01*
X175710752Y-89859496D02*
X175710752Y-89716639D01*
X175710752Y-89716639D02*
X175758371Y-89621401D01*
X175758371Y-89621401D02*
X175853609Y-89573782D01*
X175853609Y-89573782D02*
X176377419Y-89573782D01*
X176377419Y-88669020D02*
X175377419Y-88669020D01*
X176329800Y-88669020D02*
X176377419Y-88764258D01*
X176377419Y-88764258D02*
X176377419Y-88954734D01*
X176377419Y-88954734D02*
X176329800Y-89049972D01*
X176329800Y-89049972D02*
X176282180Y-89097591D01*
X176282180Y-89097591D02*
X176186942Y-89145210D01*
X176186942Y-89145210D02*
X175901228Y-89145210D01*
X175901228Y-89145210D02*
X175805990Y-89097591D01*
X175805990Y-89097591D02*
X175758371Y-89049972D01*
X175758371Y-89049972D02*
X175710752Y-88954734D01*
X175710752Y-88954734D02*
X175710752Y-88764258D01*
X175710752Y-88764258D02*
X175758371Y-88669020D01*
X172837419Y-91002353D02*
X172837419Y-90383306D01*
X172837419Y-90383306D02*
X173218371Y-90716639D01*
X173218371Y-90716639D02*
X173218371Y-90573782D01*
X173218371Y-90573782D02*
X173265990Y-90478544D01*
X173265990Y-90478544D02*
X173313609Y-90430925D01*
X173313609Y-90430925D02*
X173408847Y-90383306D01*
X173408847Y-90383306D02*
X173646942Y-90383306D01*
X173646942Y-90383306D02*
X173742180Y-90430925D01*
X173742180Y-90430925D02*
X173789800Y-90478544D01*
X173789800Y-90478544D02*
X173837419Y-90573782D01*
X173837419Y-90573782D02*
X173837419Y-90859496D01*
X173837419Y-90859496D02*
X173789800Y-90954734D01*
X173789800Y-90954734D02*
X173742180Y-91002353D01*
X173170752Y-90049972D02*
X173837419Y-89811877D01*
X173837419Y-89811877D02*
X173170752Y-89573782D01*
X173837419Y-89049972D02*
X173789800Y-89145210D01*
X173789800Y-89145210D02*
X173742180Y-89192829D01*
X173742180Y-89192829D02*
X173646942Y-89240448D01*
X173646942Y-89240448D02*
X173361228Y-89240448D01*
X173361228Y-89240448D02*
X173265990Y-89192829D01*
X173265990Y-89192829D02*
X173218371Y-89145210D01*
X173218371Y-89145210D02*
X173170752Y-89049972D01*
X173170752Y-89049972D02*
X173170752Y-88907115D01*
X173170752Y-88907115D02*
X173218371Y-88811877D01*
X173218371Y-88811877D02*
X173265990Y-88764258D01*
X173265990Y-88764258D02*
X173361228Y-88716639D01*
X173361228Y-88716639D02*
X173646942Y-88716639D01*
X173646942Y-88716639D02*
X173742180Y-88764258D01*
X173742180Y-88764258D02*
X173789800Y-88811877D01*
X173789800Y-88811877D02*
X173837419Y-88907115D01*
X173837419Y-88907115D02*
X173837419Y-89049972D01*
X170297419Y-91002353D02*
X170297419Y-90383306D01*
X170297419Y-90383306D02*
X170678371Y-90716639D01*
X170678371Y-90716639D02*
X170678371Y-90573782D01*
X170678371Y-90573782D02*
X170725990Y-90478544D01*
X170725990Y-90478544D02*
X170773609Y-90430925D01*
X170773609Y-90430925D02*
X170868847Y-90383306D01*
X170868847Y-90383306D02*
X171106942Y-90383306D01*
X171106942Y-90383306D02*
X171202180Y-90430925D01*
X171202180Y-90430925D02*
X171249800Y-90478544D01*
X171249800Y-90478544D02*
X171297419Y-90573782D01*
X171297419Y-90573782D02*
X171297419Y-90859496D01*
X171297419Y-90859496D02*
X171249800Y-90954734D01*
X171249800Y-90954734D02*
X171202180Y-91002353D01*
X171202180Y-89954734D02*
X171249800Y-89907115D01*
X171249800Y-89907115D02*
X171297419Y-89954734D01*
X171297419Y-89954734D02*
X171249800Y-90002353D01*
X171249800Y-90002353D02*
X171202180Y-89954734D01*
X171202180Y-89954734D02*
X171297419Y-89954734D01*
X170297419Y-89573782D02*
X170297419Y-88954735D01*
X170297419Y-88954735D02*
X170678371Y-89288068D01*
X170678371Y-89288068D02*
X170678371Y-89145211D01*
X170678371Y-89145211D02*
X170725990Y-89049973D01*
X170725990Y-89049973D02*
X170773609Y-89002354D01*
X170773609Y-89002354D02*
X170868847Y-88954735D01*
X170868847Y-88954735D02*
X171106942Y-88954735D01*
X171106942Y-88954735D02*
X171202180Y-89002354D01*
X171202180Y-89002354D02*
X171249800Y-89049973D01*
X171249800Y-89049973D02*
X171297419Y-89145211D01*
X171297419Y-89145211D02*
X171297419Y-89430925D01*
X171297419Y-89430925D02*
X171249800Y-89526163D01*
X171249800Y-89526163D02*
X171202180Y-89573782D01*
X170630752Y-88621401D02*
X171297419Y-88383306D01*
X171297419Y-88383306D02*
X170630752Y-88145211D01*
X178869800Y-90954734D02*
X178917419Y-90859496D01*
X178917419Y-90859496D02*
X178917419Y-90669020D01*
X178917419Y-90669020D02*
X178869800Y-90573782D01*
X178869800Y-90573782D02*
X178774561Y-90526163D01*
X178774561Y-90526163D02*
X178726942Y-90526163D01*
X178726942Y-90526163D02*
X178631704Y-90573782D01*
X178631704Y-90573782D02*
X178584085Y-90669020D01*
X178584085Y-90669020D02*
X178584085Y-90811877D01*
X178584085Y-90811877D02*
X178536466Y-90907115D01*
X178536466Y-90907115D02*
X178441228Y-90954734D01*
X178441228Y-90954734D02*
X178393609Y-90954734D01*
X178393609Y-90954734D02*
X178298371Y-90907115D01*
X178298371Y-90907115D02*
X178250752Y-90811877D01*
X178250752Y-90811877D02*
X178250752Y-90669020D01*
X178250752Y-90669020D02*
X178298371Y-90573782D01*
X178869800Y-89669020D02*
X178917419Y-89764258D01*
X178917419Y-89764258D02*
X178917419Y-89954734D01*
X178917419Y-89954734D02*
X178869800Y-90049972D01*
X178869800Y-90049972D02*
X178822180Y-90097591D01*
X178822180Y-90097591D02*
X178726942Y-90145210D01*
X178726942Y-90145210D02*
X178441228Y-90145210D01*
X178441228Y-90145210D02*
X178345990Y-90097591D01*
X178345990Y-90097591D02*
X178298371Y-90049972D01*
X178298371Y-90049972D02*
X178250752Y-89954734D01*
X178250752Y-89954734D02*
X178250752Y-89764258D01*
X178250752Y-89764258D02*
X178298371Y-89669020D01*
X178917419Y-89097591D02*
X178869800Y-89192829D01*
X178869800Y-89192829D02*
X178774561Y-89240448D01*
X178774561Y-89240448D02*
X177917419Y-89240448D01*
X183997419Y-90478544D02*
X183473609Y-90478544D01*
X183473609Y-90478544D02*
X183378371Y-90526163D01*
X183378371Y-90526163D02*
X183330752Y-90621401D01*
X183330752Y-90621401D02*
X183330752Y-90811877D01*
X183330752Y-90811877D02*
X183378371Y-90907115D01*
X183949800Y-90478544D02*
X183997419Y-90573782D01*
X183997419Y-90573782D02*
X183997419Y-90811877D01*
X183997419Y-90811877D02*
X183949800Y-90907115D01*
X183949800Y-90907115D02*
X183854561Y-90954734D01*
X183854561Y-90954734D02*
X183759323Y-90954734D01*
X183759323Y-90954734D02*
X183664085Y-90907115D01*
X183664085Y-90907115D02*
X183616466Y-90811877D01*
X183616466Y-90811877D02*
X183616466Y-90573782D01*
X183616466Y-90573782D02*
X183568847Y-90478544D01*
X183997419Y-89573782D02*
X182997419Y-89573782D01*
X183949800Y-89573782D02*
X183997419Y-89669020D01*
X183997419Y-89669020D02*
X183997419Y-89859496D01*
X183997419Y-89859496D02*
X183949800Y-89954734D01*
X183949800Y-89954734D02*
X183902180Y-90002353D01*
X183902180Y-90002353D02*
X183806942Y-90049972D01*
X183806942Y-90049972D02*
X183521228Y-90049972D01*
X183521228Y-90049972D02*
X183425990Y-90002353D01*
X183425990Y-90002353D02*
X183378371Y-89954734D01*
X183378371Y-89954734D02*
X183330752Y-89859496D01*
X183330752Y-89859496D02*
X183330752Y-89669020D01*
X183330752Y-89669020D02*
X183378371Y-89573782D01*
X183997419Y-88669020D02*
X182997419Y-88669020D01*
X183949800Y-88669020D02*
X183997419Y-88764258D01*
X183997419Y-88764258D02*
X183997419Y-88954734D01*
X183997419Y-88954734D02*
X183949800Y-89049972D01*
X183949800Y-89049972D02*
X183902180Y-89097591D01*
X183902180Y-89097591D02*
X183806942Y-89145210D01*
X183806942Y-89145210D02*
X183521228Y-89145210D01*
X183521228Y-89145210D02*
X183425990Y-89097591D01*
X183425990Y-89097591D02*
X183378371Y-89049972D01*
X183378371Y-89049972D02*
X183330752Y-88954734D01*
X183330752Y-88954734D02*
X183330752Y-88764258D01*
X183330752Y-88764258D02*
X183378371Y-88669020D01*
X183997419Y-88192829D02*
X183330752Y-88192829D01*
X183521228Y-88192829D02*
X183425990Y-88145210D01*
X183425990Y-88145210D02*
X183378371Y-88097591D01*
X183378371Y-88097591D02*
X183330752Y-88002353D01*
X183330752Y-88002353D02*
X183330752Y-87907115D01*
X181409800Y-90954734D02*
X181457419Y-90859496D01*
X181457419Y-90859496D02*
X181457419Y-90669020D01*
X181457419Y-90669020D02*
X181409800Y-90573782D01*
X181409800Y-90573782D02*
X181314561Y-90526163D01*
X181314561Y-90526163D02*
X181266942Y-90526163D01*
X181266942Y-90526163D02*
X181171704Y-90573782D01*
X181171704Y-90573782D02*
X181124085Y-90669020D01*
X181124085Y-90669020D02*
X181124085Y-90811877D01*
X181124085Y-90811877D02*
X181076466Y-90907115D01*
X181076466Y-90907115D02*
X180981228Y-90954734D01*
X180981228Y-90954734D02*
X180933609Y-90954734D01*
X180933609Y-90954734D02*
X180838371Y-90907115D01*
X180838371Y-90907115D02*
X180790752Y-90811877D01*
X180790752Y-90811877D02*
X180790752Y-90669020D01*
X180790752Y-90669020D02*
X180838371Y-90573782D01*
X181457419Y-89669020D02*
X180457419Y-89669020D01*
X181409800Y-89669020D02*
X181457419Y-89764258D01*
X181457419Y-89764258D02*
X181457419Y-89954734D01*
X181457419Y-89954734D02*
X181409800Y-90049972D01*
X181409800Y-90049972D02*
X181362180Y-90097591D01*
X181362180Y-90097591D02*
X181266942Y-90145210D01*
X181266942Y-90145210D02*
X180981228Y-90145210D01*
X180981228Y-90145210D02*
X180885990Y-90097591D01*
X180885990Y-90097591D02*
X180838371Y-90049972D01*
X180838371Y-90049972D02*
X180790752Y-89954734D01*
X180790752Y-89954734D02*
X180790752Y-89764258D01*
X180790752Y-89764258D02*
X180838371Y-89669020D01*
X181457419Y-88764258D02*
X180933609Y-88764258D01*
X180933609Y-88764258D02*
X180838371Y-88811877D01*
X180838371Y-88811877D02*
X180790752Y-88907115D01*
X180790752Y-88907115D02*
X180790752Y-89097591D01*
X180790752Y-89097591D02*
X180838371Y-89192829D01*
X181409800Y-88764258D02*
X181457419Y-88859496D01*
X181457419Y-88859496D02*
X181457419Y-89097591D01*
X181457419Y-89097591D02*
X181409800Y-89192829D01*
X181409800Y-89192829D02*
X181314561Y-89240448D01*
X181314561Y-89240448D02*
X181219323Y-89240448D01*
X181219323Y-89240448D02*
X181124085Y-89192829D01*
X181124085Y-89192829D02*
X181076466Y-89097591D01*
X181076466Y-89097591D02*
X181076466Y-88859496D01*
X181076466Y-88859496D02*
X181028847Y-88764258D01*
D12*
%TO.C,J1*%
X128584000Y-76246000D02*
X128584000Y-82216000D01*
X128584000Y-82216000D02*
X138704000Y-82216000D01*
X128594000Y-79956000D02*
X129344000Y-79956000D01*
X128594000Y-81456000D02*
X128594000Y-82206000D01*
X128594000Y-82206000D02*
X130394000Y-82206000D01*
X129344000Y-77006000D02*
X133644000Y-77006000D01*
X129344000Y-79956000D02*
X129344000Y-77006000D01*
X130394000Y-81456000D02*
X128594000Y-81456000D01*
X130394000Y-82206000D02*
X130394000Y-81456000D01*
X131894000Y-81456000D02*
X131894000Y-82206000D01*
X131894000Y-82206000D02*
X135394000Y-82206000D01*
X135394000Y-81456000D02*
X131894000Y-81456000D01*
X135394000Y-82206000D02*
X135394000Y-81456000D01*
X136894000Y-81456000D02*
X136894000Y-82206000D01*
X136894000Y-82206000D02*
X138694000Y-82206000D01*
X137744000Y-82506000D02*
X138994000Y-82506000D01*
X137944000Y-77006000D02*
X133644000Y-77006000D01*
X137944000Y-79956000D02*
X137944000Y-77006000D01*
X138694000Y-79956000D02*
X137944000Y-79956000D01*
X138694000Y-81456000D02*
X136894000Y-81456000D01*
X138694000Y-82206000D02*
X138694000Y-81456000D01*
X138704000Y-76246000D02*
X128584000Y-76246000D01*
X138704000Y-82216000D02*
X138704000Y-76246000D01*
X138994000Y-82506000D02*
X138994000Y-81256000D01*
D10*
%TO.C,Teensy4.1*%
X125476000Y-55626000D02*
X125476000Y-73406000D01*
X125476000Y-55626000D02*
X153416000Y-55626000D01*
X154686000Y-73406000D02*
X125476000Y-73406000D01*
X154686000Y-73406000D02*
X155956000Y-73406000D01*
X155956000Y-73406000D02*
X186436000Y-73406000D01*
X186436000Y-55626000D02*
X153416000Y-55626000D01*
X186436000Y-73406000D02*
X186436000Y-55626000D01*
D12*
%TO.C,J3*%
X126472000Y-87676000D02*
X126472000Y-93646000D01*
X126472000Y-93646000D02*
X134092000Y-93646000D01*
X126482000Y-91386000D02*
X127232000Y-91386000D01*
X126482000Y-92886000D02*
X126482000Y-93636000D01*
X126482000Y-93636000D02*
X128282000Y-93636000D01*
X127232000Y-88436000D02*
X130282000Y-88436000D01*
X127232000Y-91386000D02*
X127232000Y-88436000D01*
X128282000Y-92886000D02*
X126482000Y-92886000D01*
X128282000Y-93636000D02*
X128282000Y-92886000D01*
X129782000Y-92886000D02*
X129782000Y-93636000D01*
X129782000Y-93636000D02*
X130782000Y-93636000D01*
X130782000Y-92886000D02*
X129782000Y-92886000D01*
X130782000Y-93636000D02*
X130782000Y-92886000D01*
X132282000Y-92886000D02*
X132282000Y-93636000D01*
X132282000Y-93636000D02*
X134082000Y-93636000D01*
X133132000Y-93936000D02*
X134382000Y-93936000D01*
X133332000Y-88436000D02*
X130282000Y-88436000D01*
X133332000Y-91386000D02*
X133332000Y-88436000D01*
X134082000Y-91386000D02*
X133332000Y-91386000D01*
X134082000Y-92886000D02*
X132282000Y-92886000D01*
X134082000Y-93636000D02*
X134082000Y-92886000D01*
X134092000Y-87676000D02*
X126472000Y-87676000D01*
X134092000Y-93646000D02*
X134092000Y-87676000D01*
X134382000Y-93936000D02*
X134382000Y-92686000D01*
%TO.C,SensorBoard1*%
X153008000Y-75992000D02*
X153008000Y-81962000D01*
X153008000Y-81962000D02*
X165628000Y-81962000D01*
X153018000Y-79702000D02*
X153768000Y-79702000D01*
X153018000Y-81202000D02*
X153018000Y-81952000D01*
X153018000Y-81952000D02*
X154818000Y-81952000D01*
X153768000Y-76752000D02*
X159318000Y-76752000D01*
X153768000Y-79702000D02*
X153768000Y-76752000D01*
X154818000Y-81202000D02*
X153018000Y-81202000D01*
X154818000Y-81952000D02*
X154818000Y-81202000D01*
X156318000Y-81202000D02*
X156318000Y-81952000D01*
X156318000Y-81952000D02*
X162318000Y-81952000D01*
X162318000Y-81202000D02*
X156318000Y-81202000D01*
X162318000Y-81952000D02*
X162318000Y-81202000D01*
X163818000Y-81202000D02*
X163818000Y-81952000D01*
X163818000Y-81952000D02*
X165618000Y-81952000D01*
X164668000Y-82252000D02*
X165918000Y-82252000D01*
X164868000Y-76752000D02*
X159318000Y-76752000D01*
X164868000Y-79702000D02*
X164868000Y-76752000D01*
X165618000Y-79702000D02*
X164868000Y-79702000D01*
X165618000Y-81202000D02*
X163818000Y-81202000D01*
X165618000Y-81952000D02*
X165618000Y-81202000D01*
X165628000Y-75992000D02*
X153008000Y-75992000D01*
X165628000Y-81962000D02*
X165628000Y-75992000D01*
X165918000Y-82252000D02*
X165918000Y-81002000D01*
%TO.C,VehiclePowerOn1*%
X187244000Y-74522000D02*
X187244000Y-87142000D01*
X187244000Y-87142000D02*
X193214000Y-87142000D01*
X188004000Y-75282000D02*
X188004000Y-80832000D01*
X188004000Y-86382000D02*
X188004000Y-80832000D01*
X190954000Y-74532000D02*
X190954000Y-75282000D01*
X190954000Y-75282000D02*
X188004000Y-75282000D01*
X190954000Y-86382000D02*
X188004000Y-86382000D01*
X190954000Y-87132000D02*
X190954000Y-86382000D01*
X192454000Y-74532000D02*
X192454000Y-76332000D01*
X192454000Y-76332000D02*
X193204000Y-76332000D01*
X192454000Y-77832000D02*
X192454000Y-83832000D01*
X192454000Y-83832000D02*
X193204000Y-83832000D01*
X192454000Y-85332000D02*
X192454000Y-87132000D01*
X192454000Y-87132000D02*
X193204000Y-87132000D01*
X193204000Y-74532000D02*
X192454000Y-74532000D01*
X193204000Y-76332000D02*
X193204000Y-74532000D01*
X193204000Y-77832000D02*
X192454000Y-77832000D01*
X193204000Y-83832000D02*
X193204000Y-77832000D01*
X193204000Y-85332000D02*
X192454000Y-85332000D01*
X193204000Y-87132000D02*
X193204000Y-85332000D01*
X193214000Y-74522000D02*
X187244000Y-74522000D01*
X193214000Y-87142000D02*
X193214000Y-74522000D01*
X193504000Y-74232000D02*
X192254000Y-74232000D01*
X193504000Y-75482000D02*
X193504000Y-74232000D01*
%TO.C,J6*%
X135870000Y-87422000D02*
X135870000Y-93392000D01*
X135870000Y-93392000D02*
X143490000Y-93392000D01*
X135880000Y-91132000D02*
X136630000Y-91132000D01*
X135880000Y-92632000D02*
X135880000Y-93382000D01*
X135880000Y-93382000D02*
X137680000Y-93382000D01*
X136630000Y-88182000D02*
X139680000Y-88182000D01*
X136630000Y-91132000D02*
X136630000Y-88182000D01*
X137680000Y-92632000D02*
X135880000Y-92632000D01*
X137680000Y-93382000D02*
X137680000Y-92632000D01*
X139180000Y-92632000D02*
X139180000Y-93382000D01*
X139180000Y-93382000D02*
X140180000Y-93382000D01*
X140180000Y-92632000D02*
X139180000Y-92632000D01*
X140180000Y-93382000D02*
X140180000Y-92632000D01*
X141680000Y-92632000D02*
X141680000Y-93382000D01*
X141680000Y-93382000D02*
X143480000Y-93382000D01*
X142530000Y-93682000D02*
X143780000Y-93682000D01*
X142730000Y-88182000D02*
X139680000Y-88182000D01*
X142730000Y-91132000D02*
X142730000Y-88182000D01*
X143480000Y-91132000D02*
X142730000Y-91132000D01*
X143480000Y-92632000D02*
X141680000Y-92632000D01*
X143480000Y-93382000D02*
X143480000Y-92632000D01*
X143490000Y-87422000D02*
X135870000Y-87422000D01*
X143490000Y-93392000D02*
X143490000Y-87422000D01*
X143780000Y-93682000D02*
X143780000Y-92432000D01*
%TO.C,BZ1*%
X183900000Y-81788000D02*
G75*
G02*
X171700000Y-81788000I-6100000J0D01*
G01*
X171700000Y-81788000D02*
G75*
G02*
X183900000Y-81788000I6100000J0D01*
G01*
%TO.C,J2*%
X140776000Y-76246000D02*
X140776000Y-82216000D01*
X140776000Y-82216000D02*
X150896000Y-82216000D01*
X140786000Y-79956000D02*
X141536000Y-79956000D01*
X140786000Y-81456000D02*
X140786000Y-82206000D01*
X140786000Y-82206000D02*
X142586000Y-82206000D01*
X141536000Y-77006000D02*
X145836000Y-77006000D01*
X141536000Y-79956000D02*
X141536000Y-77006000D01*
X142586000Y-81456000D02*
X140786000Y-81456000D01*
X142586000Y-82206000D02*
X142586000Y-81456000D01*
X144086000Y-81456000D02*
X144086000Y-82206000D01*
X144086000Y-82206000D02*
X147586000Y-82206000D01*
X147586000Y-81456000D02*
X144086000Y-81456000D01*
X147586000Y-82206000D02*
X147586000Y-81456000D01*
X149086000Y-81456000D02*
X149086000Y-82206000D01*
X149086000Y-82206000D02*
X150886000Y-82206000D01*
X149936000Y-82506000D02*
X151186000Y-82506000D01*
X150136000Y-77006000D02*
X145836000Y-77006000D01*
X150136000Y-79956000D02*
X150136000Y-77006000D01*
X150886000Y-79956000D02*
X150136000Y-79956000D01*
X150886000Y-81456000D02*
X149086000Y-81456000D01*
X150886000Y-82206000D02*
X150886000Y-81456000D01*
X150896000Y-76246000D02*
X140776000Y-76246000D01*
X150896000Y-82216000D02*
X150896000Y-76246000D01*
X151186000Y-82506000D02*
X151186000Y-81256000D01*
%TO.C,R1*%
X156728936Y-84609000D02*
X157183064Y-84609000D01*
X156728936Y-86079000D02*
X157183064Y-86079000D01*
%TO.C,R2*%
X161554936Y-84609000D02*
X162009064Y-84609000D01*
X161554936Y-86079000D02*
X162009064Y-86079000D01*
%TO.C,BH1*%
D10*
X170155000Y-93751000D02*
X185395000Y-93751000D01*
X185395000Y-91211000D01*
X170155000Y-91211000D01*
X170155000Y-93751000D01*
D12*
%TO.C,q1*%
X146518000Y-87591000D02*
X146518000Y-92232000D01*
X146518000Y-87591000D02*
X156758000Y-87591000D01*
X146518000Y-89101000D02*
X156758000Y-89101000D01*
X146518000Y-92232000D02*
X156758000Y-92232000D01*
X149788000Y-87591000D02*
X149788000Y-89101000D01*
X153489000Y-87591000D02*
X153489000Y-89101000D01*
X156758000Y-87591000D02*
X156758000Y-92232000D01*
%TD*%
M02*
