%TF.GenerationSoftware,KiCad,Pcbnew,9.0.0*%
%TF.CreationDate,2025-04-18T09:30:21-04:00*%
%TF.ProjectId,TADPOL PCB v2,54414450-4f4c-4205-9043-422076322e6b,rev?*%
%TF.SameCoordinates,Original*%
%TF.FileFunction,Legend,Top*%
%TF.FilePolarity,Positive*%
%FSLAX46Y46*%
G04 Gerber Fmt 4.6, Leading zero omitted, Abs format (unit mm)*
G04 Created by KiCad (PCBNEW 9.0.0) date 2025-04-18 09:30:21*
%MOMM*%
%LPD*%
G01*
G04 APERTURE LIST*
%ADD10C,0.150000*%
%ADD11C,0.100000*%
%ADD12C,0.120000*%
G04 APERTURE END LIST*
D10*
X123916666Y-72904819D02*
X123916666Y-73619104D01*
X123916666Y-73619104D02*
X123869047Y-73761961D01*
X123869047Y-73761961D02*
X123773809Y-73857200D01*
X123773809Y-73857200D02*
X123630952Y-73904819D01*
X123630952Y-73904819D02*
X123535714Y-73904819D01*
X124821428Y-73238152D02*
X124821428Y-73904819D01*
X124583333Y-72857200D02*
X124345238Y-73571485D01*
X124345238Y-73571485D02*
X124964285Y-73571485D01*
X142904819Y-43059523D02*
X143619104Y-43059523D01*
X143619104Y-43059523D02*
X143761961Y-43107142D01*
X143761961Y-43107142D02*
X143857200Y-43202380D01*
X143857200Y-43202380D02*
X143904819Y-43345237D01*
X143904819Y-43345237D02*
X143904819Y-43440475D01*
X143904819Y-42059523D02*
X143904819Y-42630951D01*
X143904819Y-42345237D02*
X142904819Y-42345237D01*
X142904819Y-42345237D02*
X143047676Y-42440475D01*
X143047676Y-42440475D02*
X143142914Y-42535713D01*
X143142914Y-42535713D02*
X143190533Y-42630951D01*
X143904819Y-41107142D02*
X143904819Y-41678570D01*
X143904819Y-41392856D02*
X142904819Y-41392856D01*
X142904819Y-41392856D02*
X143047676Y-41488094D01*
X143047676Y-41488094D02*
X143142914Y-41583332D01*
X143142914Y-41583332D02*
X143190533Y-41678570D01*
X110440476Y-48504819D02*
X110440476Y-49219104D01*
X110440476Y-49219104D02*
X110392857Y-49361961D01*
X110392857Y-49361961D02*
X110297619Y-49457200D01*
X110297619Y-49457200D02*
X110154762Y-49504819D01*
X110154762Y-49504819D02*
X110059524Y-49504819D01*
X111440476Y-49504819D02*
X110869048Y-49504819D01*
X111154762Y-49504819D02*
X111154762Y-48504819D01*
X111154762Y-48504819D02*
X111059524Y-48647676D01*
X111059524Y-48647676D02*
X110964286Y-48742914D01*
X110964286Y-48742914D02*
X110869048Y-48790533D01*
X111821429Y-48600057D02*
X111869048Y-48552438D01*
X111869048Y-48552438D02*
X111964286Y-48504819D01*
X111964286Y-48504819D02*
X112202381Y-48504819D01*
X112202381Y-48504819D02*
X112297619Y-48552438D01*
X112297619Y-48552438D02*
X112345238Y-48600057D01*
X112345238Y-48600057D02*
X112392857Y-48695295D01*
X112392857Y-48695295D02*
X112392857Y-48790533D01*
X112392857Y-48790533D02*
X112345238Y-48933390D01*
X112345238Y-48933390D02*
X111773810Y-49504819D01*
X111773810Y-49504819D02*
X112392857Y-49504819D01*
D11*
X140458571Y-57077419D02*
X141029999Y-57077419D01*
X140744285Y-58077419D02*
X140744285Y-57077419D01*
X141744285Y-58029800D02*
X141649047Y-58077419D01*
X141649047Y-58077419D02*
X141458571Y-58077419D01*
X141458571Y-58077419D02*
X141363333Y-58029800D01*
X141363333Y-58029800D02*
X141315714Y-57934561D01*
X141315714Y-57934561D02*
X141315714Y-57553609D01*
X141315714Y-57553609D02*
X141363333Y-57458371D01*
X141363333Y-57458371D02*
X141458571Y-57410752D01*
X141458571Y-57410752D02*
X141649047Y-57410752D01*
X141649047Y-57410752D02*
X141744285Y-57458371D01*
X141744285Y-57458371D02*
X141791904Y-57553609D01*
X141791904Y-57553609D02*
X141791904Y-57648847D01*
X141791904Y-57648847D02*
X141315714Y-57744085D01*
X142601428Y-58029800D02*
X142506190Y-58077419D01*
X142506190Y-58077419D02*
X142315714Y-58077419D01*
X142315714Y-58077419D02*
X142220476Y-58029800D01*
X142220476Y-58029800D02*
X142172857Y-57934561D01*
X142172857Y-57934561D02*
X142172857Y-57553609D01*
X142172857Y-57553609D02*
X142220476Y-57458371D01*
X142220476Y-57458371D02*
X142315714Y-57410752D01*
X142315714Y-57410752D02*
X142506190Y-57410752D01*
X142506190Y-57410752D02*
X142601428Y-57458371D01*
X142601428Y-57458371D02*
X142649047Y-57553609D01*
X142649047Y-57553609D02*
X142649047Y-57648847D01*
X142649047Y-57648847D02*
X142172857Y-57744085D01*
X143077619Y-57410752D02*
X143077619Y-58077419D01*
X143077619Y-57505990D02*
X143125238Y-57458371D01*
X143125238Y-57458371D02*
X143220476Y-57410752D01*
X143220476Y-57410752D02*
X143363333Y-57410752D01*
X143363333Y-57410752D02*
X143458571Y-57458371D01*
X143458571Y-57458371D02*
X143506190Y-57553609D01*
X143506190Y-57553609D02*
X143506190Y-58077419D01*
X143934762Y-58029800D02*
X144030000Y-58077419D01*
X144030000Y-58077419D02*
X144220476Y-58077419D01*
X144220476Y-58077419D02*
X144315714Y-58029800D01*
X144315714Y-58029800D02*
X144363333Y-57934561D01*
X144363333Y-57934561D02*
X144363333Y-57886942D01*
X144363333Y-57886942D02*
X144315714Y-57791704D01*
X144315714Y-57791704D02*
X144220476Y-57744085D01*
X144220476Y-57744085D02*
X144077619Y-57744085D01*
X144077619Y-57744085D02*
X143982381Y-57696466D01*
X143982381Y-57696466D02*
X143934762Y-57601228D01*
X143934762Y-57601228D02*
X143934762Y-57553609D01*
X143934762Y-57553609D02*
X143982381Y-57458371D01*
X143982381Y-57458371D02*
X144077619Y-57410752D01*
X144077619Y-57410752D02*
X144220476Y-57410752D01*
X144220476Y-57410752D02*
X144315714Y-57458371D01*
X144696667Y-57410752D02*
X144934762Y-58077419D01*
X145172857Y-57410752D02*
X144934762Y-58077419D01*
X144934762Y-58077419D02*
X144839524Y-58315514D01*
X144839524Y-58315514D02*
X144791905Y-58363133D01*
X144791905Y-58363133D02*
X144696667Y-58410752D01*
X145982381Y-57410752D02*
X145982381Y-58077419D01*
X145744286Y-57029800D02*
X145506191Y-57744085D01*
X145506191Y-57744085D02*
X146125238Y-57744085D01*
X146506191Y-57982180D02*
X146553810Y-58029800D01*
X146553810Y-58029800D02*
X146506191Y-58077419D01*
X146506191Y-58077419D02*
X146458572Y-58029800D01*
X146458572Y-58029800D02*
X146506191Y-57982180D01*
X146506191Y-57982180D02*
X146506191Y-58077419D01*
X147506190Y-58077419D02*
X146934762Y-58077419D01*
X147220476Y-58077419D02*
X147220476Y-57077419D01*
X147220476Y-57077419D02*
X147125238Y-57220276D01*
X147125238Y-57220276D02*
X147030000Y-57315514D01*
X147030000Y-57315514D02*
X146934762Y-57363133D01*
X129162419Y-63666115D02*
X128162419Y-63666115D01*
X128162419Y-63666115D02*
X128162419Y-63285163D01*
X128162419Y-63285163D02*
X128210038Y-63189925D01*
X128210038Y-63189925D02*
X128257657Y-63142306D01*
X128257657Y-63142306D02*
X128352895Y-63094687D01*
X128352895Y-63094687D02*
X128495752Y-63094687D01*
X128495752Y-63094687D02*
X128590990Y-63142306D01*
X128590990Y-63142306D02*
X128638609Y-63189925D01*
X128638609Y-63189925D02*
X128686228Y-63285163D01*
X128686228Y-63285163D02*
X128686228Y-63666115D01*
X128162419Y-62761353D02*
X129162419Y-62523258D01*
X129162419Y-62523258D02*
X128448133Y-62332782D01*
X128448133Y-62332782D02*
X129162419Y-62142306D01*
X129162419Y-62142306D02*
X128162419Y-61904211D01*
X129162419Y-61523258D02*
X128162419Y-61523258D01*
X128162419Y-61523258D02*
X128876704Y-61189925D01*
X128876704Y-61189925D02*
X128162419Y-60856592D01*
X128162419Y-60856592D02*
X129162419Y-60856592D01*
X168802419Y-54918972D02*
X168802419Y-54347544D01*
X169802419Y-54633258D02*
X168802419Y-54633258D01*
X168802419Y-54109448D02*
X169802419Y-53442782D01*
X168802419Y-53442782D02*
X169802419Y-54109448D01*
X169230990Y-52918972D02*
X169183371Y-53014210D01*
X169183371Y-53014210D02*
X169135752Y-53061829D01*
X169135752Y-53061829D02*
X169040514Y-53109448D01*
X169040514Y-53109448D02*
X168992895Y-53109448D01*
X168992895Y-53109448D02*
X168897657Y-53061829D01*
X168897657Y-53061829D02*
X168850038Y-53014210D01*
X168850038Y-53014210D02*
X168802419Y-52918972D01*
X168802419Y-52918972D02*
X168802419Y-52728496D01*
X168802419Y-52728496D02*
X168850038Y-52633258D01*
X168850038Y-52633258D02*
X168897657Y-52585639D01*
X168897657Y-52585639D02*
X168992895Y-52538020D01*
X168992895Y-52538020D02*
X169040514Y-52538020D01*
X169040514Y-52538020D02*
X169135752Y-52585639D01*
X169135752Y-52585639D02*
X169183371Y-52633258D01*
X169183371Y-52633258D02*
X169230990Y-52728496D01*
X169230990Y-52728496D02*
X169230990Y-52918972D01*
X169230990Y-52918972D02*
X169278609Y-53014210D01*
X169278609Y-53014210D02*
X169326228Y-53061829D01*
X169326228Y-53061829D02*
X169421466Y-53109448D01*
X169421466Y-53109448D02*
X169611942Y-53109448D01*
X169611942Y-53109448D02*
X169707180Y-53061829D01*
X169707180Y-53061829D02*
X169754800Y-53014210D01*
X169754800Y-53014210D02*
X169802419Y-52918972D01*
X169802419Y-52918972D02*
X169802419Y-52728496D01*
X169802419Y-52728496D02*
X169754800Y-52633258D01*
X169754800Y-52633258D02*
X169707180Y-52585639D01*
X169707180Y-52585639D02*
X169611942Y-52538020D01*
X169611942Y-52538020D02*
X169421466Y-52538020D01*
X169421466Y-52538020D02*
X169326228Y-52585639D01*
X169326228Y-52585639D02*
X169278609Y-52633258D01*
X169278609Y-52633258D02*
X169230990Y-52728496D01*
X159642419Y-54776115D02*
X158642419Y-54776115D01*
X158642419Y-54776115D02*
X159356704Y-54442782D01*
X159356704Y-54442782D02*
X158642419Y-54109449D01*
X158642419Y-54109449D02*
X159642419Y-54109449D01*
X159642419Y-53633258D02*
X158642419Y-53633258D01*
X159594800Y-53204687D02*
X159642419Y-53061830D01*
X159642419Y-53061830D02*
X159642419Y-52823735D01*
X159642419Y-52823735D02*
X159594800Y-52728497D01*
X159594800Y-52728497D02*
X159547180Y-52680878D01*
X159547180Y-52680878D02*
X159451942Y-52633259D01*
X159451942Y-52633259D02*
X159356704Y-52633259D01*
X159356704Y-52633259D02*
X159261466Y-52680878D01*
X159261466Y-52680878D02*
X159213847Y-52728497D01*
X159213847Y-52728497D02*
X159166228Y-52823735D01*
X159166228Y-52823735D02*
X159118609Y-53014211D01*
X159118609Y-53014211D02*
X159070990Y-53109449D01*
X159070990Y-53109449D02*
X159023371Y-53157068D01*
X159023371Y-53157068D02*
X158928133Y-53204687D01*
X158928133Y-53204687D02*
X158832895Y-53204687D01*
X158832895Y-53204687D02*
X158737657Y-53157068D01*
X158737657Y-53157068D02*
X158690038Y-53109449D01*
X158690038Y-53109449D02*
X158642419Y-53014211D01*
X158642419Y-53014211D02*
X158642419Y-52776116D01*
X158642419Y-52776116D02*
X158690038Y-52633259D01*
X158642419Y-52014211D02*
X158642419Y-51823735D01*
X158642419Y-51823735D02*
X158690038Y-51728497D01*
X158690038Y-51728497D02*
X158785276Y-51633259D01*
X158785276Y-51633259D02*
X158975752Y-51585640D01*
X158975752Y-51585640D02*
X159309085Y-51585640D01*
X159309085Y-51585640D02*
X159499561Y-51633259D01*
X159499561Y-51633259D02*
X159594800Y-51728497D01*
X159594800Y-51728497D02*
X159642419Y-51823735D01*
X159642419Y-51823735D02*
X159642419Y-52014211D01*
X159642419Y-52014211D02*
X159594800Y-52109449D01*
X159594800Y-52109449D02*
X159499561Y-52204687D01*
X159499561Y-52204687D02*
X159309085Y-52252306D01*
X159309085Y-52252306D02*
X158975752Y-52252306D01*
X158975752Y-52252306D02*
X158785276Y-52204687D01*
X158785276Y-52204687D02*
X158690038Y-52109449D01*
X158690038Y-52109449D02*
X158642419Y-52014211D01*
X136782419Y-63094687D02*
X136306228Y-63428020D01*
X136782419Y-63666115D02*
X135782419Y-63666115D01*
X135782419Y-63666115D02*
X135782419Y-63285163D01*
X135782419Y-63285163D02*
X135830038Y-63189925D01*
X135830038Y-63189925D02*
X135877657Y-63142306D01*
X135877657Y-63142306D02*
X135972895Y-63094687D01*
X135972895Y-63094687D02*
X136115752Y-63094687D01*
X136115752Y-63094687D02*
X136210990Y-63142306D01*
X136210990Y-63142306D02*
X136258609Y-63189925D01*
X136258609Y-63189925D02*
X136306228Y-63285163D01*
X136306228Y-63285163D02*
X136306228Y-63666115D01*
X135782419Y-62761353D02*
X136782419Y-62094687D01*
X135782419Y-62094687D02*
X136782419Y-62761353D01*
X135877657Y-61761353D02*
X135830038Y-61713734D01*
X135830038Y-61713734D02*
X135782419Y-61618496D01*
X135782419Y-61618496D02*
X135782419Y-61380401D01*
X135782419Y-61380401D02*
X135830038Y-61285163D01*
X135830038Y-61285163D02*
X135877657Y-61237544D01*
X135877657Y-61237544D02*
X135972895Y-61189925D01*
X135972895Y-61189925D02*
X136068133Y-61189925D01*
X136068133Y-61189925D02*
X136210990Y-61237544D01*
X136210990Y-61237544D02*
X136782419Y-61808972D01*
X136782419Y-61808972D02*
X136782419Y-61189925D01*
X167262419Y-54776115D02*
X166262419Y-54776115D01*
X166262419Y-54776115D02*
X166262419Y-54395163D01*
X166262419Y-54395163D02*
X166310038Y-54299925D01*
X166310038Y-54299925D02*
X166357657Y-54252306D01*
X166357657Y-54252306D02*
X166452895Y-54204687D01*
X166452895Y-54204687D02*
X166595752Y-54204687D01*
X166595752Y-54204687D02*
X166690990Y-54252306D01*
X166690990Y-54252306D02*
X166738609Y-54299925D01*
X166738609Y-54299925D02*
X166786228Y-54395163D01*
X166786228Y-54395163D02*
X166786228Y-54776115D01*
X166262419Y-53871353D02*
X167262419Y-53633258D01*
X167262419Y-53633258D02*
X166548133Y-53442782D01*
X166548133Y-53442782D02*
X167262419Y-53252306D01*
X167262419Y-53252306D02*
X166262419Y-53014211D01*
X167262419Y-52633258D02*
X166262419Y-52633258D01*
X166262419Y-52633258D02*
X166976704Y-52299925D01*
X166976704Y-52299925D02*
X166262419Y-51966592D01*
X166262419Y-51966592D02*
X167262419Y-51966592D01*
X164722419Y-54776115D02*
X163722419Y-54776115D01*
X163722419Y-54776115D02*
X163722419Y-54395163D01*
X163722419Y-54395163D02*
X163770038Y-54299925D01*
X163770038Y-54299925D02*
X163817657Y-54252306D01*
X163817657Y-54252306D02*
X163912895Y-54204687D01*
X163912895Y-54204687D02*
X164055752Y-54204687D01*
X164055752Y-54204687D02*
X164150990Y-54252306D01*
X164150990Y-54252306D02*
X164198609Y-54299925D01*
X164198609Y-54299925D02*
X164246228Y-54395163D01*
X164246228Y-54395163D02*
X164246228Y-54776115D01*
X163722419Y-53871353D02*
X164722419Y-53633258D01*
X164722419Y-53633258D02*
X164008133Y-53442782D01*
X164008133Y-53442782D02*
X164722419Y-53252306D01*
X164722419Y-53252306D02*
X163722419Y-53014211D01*
X164722419Y-52633258D02*
X163722419Y-52633258D01*
X163722419Y-52633258D02*
X164436704Y-52299925D01*
X164436704Y-52299925D02*
X163722419Y-51966592D01*
X163722419Y-51966592D02*
X164722419Y-51966592D01*
X136734800Y-54823734D02*
X136782419Y-54680877D01*
X136782419Y-54680877D02*
X136782419Y-54442782D01*
X136782419Y-54442782D02*
X136734800Y-54347544D01*
X136734800Y-54347544D02*
X136687180Y-54299925D01*
X136687180Y-54299925D02*
X136591942Y-54252306D01*
X136591942Y-54252306D02*
X136496704Y-54252306D01*
X136496704Y-54252306D02*
X136401466Y-54299925D01*
X136401466Y-54299925D02*
X136353847Y-54347544D01*
X136353847Y-54347544D02*
X136306228Y-54442782D01*
X136306228Y-54442782D02*
X136258609Y-54633258D01*
X136258609Y-54633258D02*
X136210990Y-54728496D01*
X136210990Y-54728496D02*
X136163371Y-54776115D01*
X136163371Y-54776115D02*
X136068133Y-54823734D01*
X136068133Y-54823734D02*
X135972895Y-54823734D01*
X135972895Y-54823734D02*
X135877657Y-54776115D01*
X135877657Y-54776115D02*
X135830038Y-54728496D01*
X135830038Y-54728496D02*
X135782419Y-54633258D01*
X135782419Y-54633258D02*
X135782419Y-54395163D01*
X135782419Y-54395163D02*
X135830038Y-54252306D01*
X136782419Y-53823734D02*
X135782419Y-53823734D01*
X135782419Y-53823734D02*
X135782419Y-53585639D01*
X135782419Y-53585639D02*
X135830038Y-53442782D01*
X135830038Y-53442782D02*
X135925276Y-53347544D01*
X135925276Y-53347544D02*
X136020514Y-53299925D01*
X136020514Y-53299925D02*
X136210990Y-53252306D01*
X136210990Y-53252306D02*
X136353847Y-53252306D01*
X136353847Y-53252306D02*
X136544323Y-53299925D01*
X136544323Y-53299925D02*
X136639561Y-53347544D01*
X136639561Y-53347544D02*
X136734800Y-53442782D01*
X136734800Y-53442782D02*
X136782419Y-53585639D01*
X136782419Y-53585639D02*
X136782419Y-53823734D01*
X136496704Y-52871353D02*
X136496704Y-52395163D01*
X136782419Y-52966591D02*
X135782419Y-52633258D01*
X135782419Y-52633258D02*
X136782419Y-52299925D01*
X131702419Y-63666115D02*
X130702419Y-63666115D01*
X130702419Y-63666115D02*
X130702419Y-63285163D01*
X130702419Y-63285163D02*
X130750038Y-63189925D01*
X130750038Y-63189925D02*
X130797657Y-63142306D01*
X130797657Y-63142306D02*
X130892895Y-63094687D01*
X130892895Y-63094687D02*
X131035752Y-63094687D01*
X131035752Y-63094687D02*
X131130990Y-63142306D01*
X131130990Y-63142306D02*
X131178609Y-63189925D01*
X131178609Y-63189925D02*
X131226228Y-63285163D01*
X131226228Y-63285163D02*
X131226228Y-63666115D01*
X130702419Y-62761353D02*
X131702419Y-62523258D01*
X131702419Y-62523258D02*
X130988133Y-62332782D01*
X130988133Y-62332782D02*
X131702419Y-62142306D01*
X131702419Y-62142306D02*
X130702419Y-61904211D01*
X131702419Y-61523258D02*
X130702419Y-61523258D01*
X130702419Y-61523258D02*
X131416704Y-61189925D01*
X131416704Y-61189925D02*
X130702419Y-60856592D01*
X130702419Y-60856592D02*
X131702419Y-60856592D01*
X166423884Y-58762419D02*
X166423884Y-57762419D01*
X166423884Y-57762419D02*
X166757217Y-58476704D01*
X166757217Y-58476704D02*
X167090550Y-57762419D01*
X167090550Y-57762419D02*
X167090550Y-58762419D01*
X167566741Y-58762419D02*
X167566741Y-57762419D01*
X168614359Y-58667180D02*
X168566740Y-58714800D01*
X168566740Y-58714800D02*
X168423883Y-58762419D01*
X168423883Y-58762419D02*
X168328645Y-58762419D01*
X168328645Y-58762419D02*
X168185788Y-58714800D01*
X168185788Y-58714800D02*
X168090550Y-58619561D01*
X168090550Y-58619561D02*
X168042931Y-58524323D01*
X168042931Y-58524323D02*
X167995312Y-58333847D01*
X167995312Y-58333847D02*
X167995312Y-58190990D01*
X167995312Y-58190990D02*
X168042931Y-58000514D01*
X168042931Y-58000514D02*
X168090550Y-57905276D01*
X168090550Y-57905276D02*
X168185788Y-57810038D01*
X168185788Y-57810038D02*
X168328645Y-57762419D01*
X168328645Y-57762419D02*
X168423883Y-57762419D01*
X168423883Y-57762419D02*
X168566740Y-57810038D01*
X168566740Y-57810038D02*
X168614359Y-57857657D01*
X169614359Y-58762419D02*
X169281026Y-58286228D01*
X169042931Y-58762419D02*
X169042931Y-57762419D01*
X169042931Y-57762419D02*
X169423883Y-57762419D01*
X169423883Y-57762419D02*
X169519121Y-57810038D01*
X169519121Y-57810038D02*
X169566740Y-57857657D01*
X169566740Y-57857657D02*
X169614359Y-57952895D01*
X169614359Y-57952895D02*
X169614359Y-58095752D01*
X169614359Y-58095752D02*
X169566740Y-58190990D01*
X169566740Y-58190990D02*
X169519121Y-58238609D01*
X169519121Y-58238609D02*
X169423883Y-58286228D01*
X169423883Y-58286228D02*
X169042931Y-58286228D01*
X170233407Y-57762419D02*
X170423883Y-57762419D01*
X170423883Y-57762419D02*
X170519121Y-57810038D01*
X170519121Y-57810038D02*
X170614359Y-57905276D01*
X170614359Y-57905276D02*
X170661978Y-58095752D01*
X170661978Y-58095752D02*
X170661978Y-58429085D01*
X170661978Y-58429085D02*
X170614359Y-58619561D01*
X170614359Y-58619561D02*
X170519121Y-58714800D01*
X170519121Y-58714800D02*
X170423883Y-58762419D01*
X170423883Y-58762419D02*
X170233407Y-58762419D01*
X170233407Y-58762419D02*
X170138169Y-58714800D01*
X170138169Y-58714800D02*
X170042931Y-58619561D01*
X170042931Y-58619561D02*
X169995312Y-58429085D01*
X169995312Y-58429085D02*
X169995312Y-58095752D01*
X169995312Y-58095752D02*
X170042931Y-57905276D01*
X170042931Y-57905276D02*
X170138169Y-57810038D01*
X170138169Y-57810038D02*
X170233407Y-57762419D01*
X171804836Y-58714800D02*
X171947693Y-58762419D01*
X171947693Y-58762419D02*
X172185788Y-58762419D01*
X172185788Y-58762419D02*
X172281026Y-58714800D01*
X172281026Y-58714800D02*
X172328645Y-58667180D01*
X172328645Y-58667180D02*
X172376264Y-58571942D01*
X172376264Y-58571942D02*
X172376264Y-58476704D01*
X172376264Y-58476704D02*
X172328645Y-58381466D01*
X172328645Y-58381466D02*
X172281026Y-58333847D01*
X172281026Y-58333847D02*
X172185788Y-58286228D01*
X172185788Y-58286228D02*
X171995312Y-58238609D01*
X171995312Y-58238609D02*
X171900074Y-58190990D01*
X171900074Y-58190990D02*
X171852455Y-58143371D01*
X171852455Y-58143371D02*
X171804836Y-58048133D01*
X171804836Y-58048133D02*
X171804836Y-57952895D01*
X171804836Y-57952895D02*
X171852455Y-57857657D01*
X171852455Y-57857657D02*
X171900074Y-57810038D01*
X171900074Y-57810038D02*
X171995312Y-57762419D01*
X171995312Y-57762419D02*
X172233407Y-57762419D01*
X172233407Y-57762419D02*
X172376264Y-57810038D01*
X172804836Y-58762419D02*
X172804836Y-57762419D01*
X172804836Y-57762419D02*
X173042931Y-57762419D01*
X173042931Y-57762419D02*
X173185788Y-57810038D01*
X173185788Y-57810038D02*
X173281026Y-57905276D01*
X173281026Y-57905276D02*
X173328645Y-58000514D01*
X173328645Y-58000514D02*
X173376264Y-58190990D01*
X173376264Y-58190990D02*
X173376264Y-58333847D01*
X173376264Y-58333847D02*
X173328645Y-58524323D01*
X173328645Y-58524323D02*
X173281026Y-58619561D01*
X173281026Y-58619561D02*
X173185788Y-58714800D01*
X173185788Y-58714800D02*
X173042931Y-58762419D01*
X173042931Y-58762419D02*
X172804836Y-58762419D01*
X129162419Y-54204687D02*
X128686228Y-54538020D01*
X129162419Y-54776115D02*
X128162419Y-54776115D01*
X128162419Y-54776115D02*
X128162419Y-54395163D01*
X128162419Y-54395163D02*
X128210038Y-54299925D01*
X128210038Y-54299925D02*
X128257657Y-54252306D01*
X128257657Y-54252306D02*
X128352895Y-54204687D01*
X128352895Y-54204687D02*
X128495752Y-54204687D01*
X128495752Y-54204687D02*
X128590990Y-54252306D01*
X128590990Y-54252306D02*
X128638609Y-54299925D01*
X128638609Y-54299925D02*
X128686228Y-54395163D01*
X128686228Y-54395163D02*
X128686228Y-54776115D01*
X128162419Y-53871353D02*
X129162419Y-53204687D01*
X128162419Y-53204687D02*
X129162419Y-53871353D01*
X128162419Y-52347544D02*
X128162419Y-52823734D01*
X128162419Y-52823734D02*
X128638609Y-52871353D01*
X128638609Y-52871353D02*
X128590990Y-52823734D01*
X128590990Y-52823734D02*
X128543371Y-52728496D01*
X128543371Y-52728496D02*
X128543371Y-52490401D01*
X128543371Y-52490401D02*
X128590990Y-52395163D01*
X128590990Y-52395163D02*
X128638609Y-52347544D01*
X128638609Y-52347544D02*
X128733847Y-52299925D01*
X128733847Y-52299925D02*
X128971942Y-52299925D01*
X128971942Y-52299925D02*
X129067180Y-52347544D01*
X129067180Y-52347544D02*
X129114800Y-52395163D01*
X129114800Y-52395163D02*
X129162419Y-52490401D01*
X129162419Y-52490401D02*
X129162419Y-52728496D01*
X129162419Y-52728496D02*
X129114800Y-52823734D01*
X129114800Y-52823734D02*
X129067180Y-52871353D01*
X164722419Y-63094687D02*
X164246228Y-63428020D01*
X164722419Y-63666115D02*
X163722419Y-63666115D01*
X163722419Y-63666115D02*
X163722419Y-63285163D01*
X163722419Y-63285163D02*
X163770038Y-63189925D01*
X163770038Y-63189925D02*
X163817657Y-63142306D01*
X163817657Y-63142306D02*
X163912895Y-63094687D01*
X163912895Y-63094687D02*
X164055752Y-63094687D01*
X164055752Y-63094687D02*
X164150990Y-63142306D01*
X164150990Y-63142306D02*
X164198609Y-63189925D01*
X164198609Y-63189925D02*
X164246228Y-63285163D01*
X164246228Y-63285163D02*
X164246228Y-63666115D01*
X163722419Y-62761353D02*
X164722419Y-62094687D01*
X163722419Y-62094687D02*
X164722419Y-62761353D01*
X163722419Y-61808972D02*
X163722419Y-61142306D01*
X163722419Y-61142306D02*
X164722419Y-61570877D01*
X151022419Y-63761353D02*
X151022419Y-63142306D01*
X151022419Y-63142306D02*
X151403371Y-63475639D01*
X151403371Y-63475639D02*
X151403371Y-63332782D01*
X151403371Y-63332782D02*
X151450990Y-63237544D01*
X151450990Y-63237544D02*
X151498609Y-63189925D01*
X151498609Y-63189925D02*
X151593847Y-63142306D01*
X151593847Y-63142306D02*
X151831942Y-63142306D01*
X151831942Y-63142306D02*
X151927180Y-63189925D01*
X151927180Y-63189925D02*
X151974800Y-63237544D01*
X151974800Y-63237544D02*
X152022419Y-63332782D01*
X152022419Y-63332782D02*
X152022419Y-63618496D01*
X152022419Y-63618496D02*
X151974800Y-63713734D01*
X151974800Y-63713734D02*
X151927180Y-63761353D01*
X151927180Y-62713734D02*
X151974800Y-62666115D01*
X151974800Y-62666115D02*
X152022419Y-62713734D01*
X152022419Y-62713734D02*
X151974800Y-62761353D01*
X151974800Y-62761353D02*
X151927180Y-62713734D01*
X151927180Y-62713734D02*
X152022419Y-62713734D01*
X151022419Y-62332782D02*
X151022419Y-61713735D01*
X151022419Y-61713735D02*
X151403371Y-62047068D01*
X151403371Y-62047068D02*
X151403371Y-61904211D01*
X151403371Y-61904211D02*
X151450990Y-61808973D01*
X151450990Y-61808973D02*
X151498609Y-61761354D01*
X151498609Y-61761354D02*
X151593847Y-61713735D01*
X151593847Y-61713735D02*
X151831942Y-61713735D01*
X151831942Y-61713735D02*
X151927180Y-61761354D01*
X151927180Y-61761354D02*
X151974800Y-61808973D01*
X151974800Y-61808973D02*
X152022419Y-61904211D01*
X152022419Y-61904211D02*
X152022419Y-62189925D01*
X152022419Y-62189925D02*
X151974800Y-62285163D01*
X151974800Y-62285163D02*
X151927180Y-62332782D01*
X151022419Y-61428020D02*
X152022419Y-61094687D01*
X152022419Y-61094687D02*
X151022419Y-60761354D01*
X134194800Y-54823734D02*
X134242419Y-54680877D01*
X134242419Y-54680877D02*
X134242419Y-54442782D01*
X134242419Y-54442782D02*
X134194800Y-54347544D01*
X134194800Y-54347544D02*
X134147180Y-54299925D01*
X134147180Y-54299925D02*
X134051942Y-54252306D01*
X134051942Y-54252306D02*
X133956704Y-54252306D01*
X133956704Y-54252306D02*
X133861466Y-54299925D01*
X133861466Y-54299925D02*
X133813847Y-54347544D01*
X133813847Y-54347544D02*
X133766228Y-54442782D01*
X133766228Y-54442782D02*
X133718609Y-54633258D01*
X133718609Y-54633258D02*
X133670990Y-54728496D01*
X133670990Y-54728496D02*
X133623371Y-54776115D01*
X133623371Y-54776115D02*
X133528133Y-54823734D01*
X133528133Y-54823734D02*
X133432895Y-54823734D01*
X133432895Y-54823734D02*
X133337657Y-54776115D01*
X133337657Y-54776115D02*
X133290038Y-54728496D01*
X133290038Y-54728496D02*
X133242419Y-54633258D01*
X133242419Y-54633258D02*
X133242419Y-54395163D01*
X133242419Y-54395163D02*
X133290038Y-54252306D01*
X134147180Y-53252306D02*
X134194800Y-53299925D01*
X134194800Y-53299925D02*
X134242419Y-53442782D01*
X134242419Y-53442782D02*
X134242419Y-53538020D01*
X134242419Y-53538020D02*
X134194800Y-53680877D01*
X134194800Y-53680877D02*
X134099561Y-53776115D01*
X134099561Y-53776115D02*
X134004323Y-53823734D01*
X134004323Y-53823734D02*
X133813847Y-53871353D01*
X133813847Y-53871353D02*
X133670990Y-53871353D01*
X133670990Y-53871353D02*
X133480514Y-53823734D01*
X133480514Y-53823734D02*
X133385276Y-53776115D01*
X133385276Y-53776115D02*
X133290038Y-53680877D01*
X133290038Y-53680877D02*
X133242419Y-53538020D01*
X133242419Y-53538020D02*
X133242419Y-53442782D01*
X133242419Y-53442782D02*
X133290038Y-53299925D01*
X133290038Y-53299925D02*
X133337657Y-53252306D01*
X134242419Y-52347544D02*
X134242419Y-52823734D01*
X134242419Y-52823734D02*
X133242419Y-52823734D01*
X172342419Y-54204687D02*
X171866228Y-54538020D01*
X172342419Y-54776115D02*
X171342419Y-54776115D01*
X171342419Y-54776115D02*
X171342419Y-54395163D01*
X171342419Y-54395163D02*
X171390038Y-54299925D01*
X171390038Y-54299925D02*
X171437657Y-54252306D01*
X171437657Y-54252306D02*
X171532895Y-54204687D01*
X171532895Y-54204687D02*
X171675752Y-54204687D01*
X171675752Y-54204687D02*
X171770990Y-54252306D01*
X171770990Y-54252306D02*
X171818609Y-54299925D01*
X171818609Y-54299925D02*
X171866228Y-54395163D01*
X171866228Y-54395163D02*
X171866228Y-54776115D01*
X171342419Y-53871353D02*
X172342419Y-53204687D01*
X171342419Y-53204687D02*
X172342419Y-53871353D01*
X171770990Y-52680877D02*
X171723371Y-52776115D01*
X171723371Y-52776115D02*
X171675752Y-52823734D01*
X171675752Y-52823734D02*
X171580514Y-52871353D01*
X171580514Y-52871353D02*
X171532895Y-52871353D01*
X171532895Y-52871353D02*
X171437657Y-52823734D01*
X171437657Y-52823734D02*
X171390038Y-52776115D01*
X171390038Y-52776115D02*
X171342419Y-52680877D01*
X171342419Y-52680877D02*
X171342419Y-52490401D01*
X171342419Y-52490401D02*
X171390038Y-52395163D01*
X171390038Y-52395163D02*
X171437657Y-52347544D01*
X171437657Y-52347544D02*
X171532895Y-52299925D01*
X171532895Y-52299925D02*
X171580514Y-52299925D01*
X171580514Y-52299925D02*
X171675752Y-52347544D01*
X171675752Y-52347544D02*
X171723371Y-52395163D01*
X171723371Y-52395163D02*
X171770990Y-52490401D01*
X171770990Y-52490401D02*
X171770990Y-52680877D01*
X171770990Y-52680877D02*
X171818609Y-52776115D01*
X171818609Y-52776115D02*
X171866228Y-52823734D01*
X171866228Y-52823734D02*
X171961466Y-52871353D01*
X171961466Y-52871353D02*
X172151942Y-52871353D01*
X172151942Y-52871353D02*
X172247180Y-52823734D01*
X172247180Y-52823734D02*
X172294800Y-52776115D01*
X172294800Y-52776115D02*
X172342419Y-52680877D01*
X172342419Y-52680877D02*
X172342419Y-52490401D01*
X172342419Y-52490401D02*
X172294800Y-52395163D01*
X172294800Y-52395163D02*
X172247180Y-52347544D01*
X172247180Y-52347544D02*
X172151942Y-52299925D01*
X172151942Y-52299925D02*
X171961466Y-52299925D01*
X171961466Y-52299925D02*
X171866228Y-52347544D01*
X171866228Y-52347544D02*
X171818609Y-52395163D01*
X171818609Y-52395163D02*
X171770990Y-52490401D01*
X162087180Y-54204687D02*
X162134800Y-54252306D01*
X162134800Y-54252306D02*
X162182419Y-54395163D01*
X162182419Y-54395163D02*
X162182419Y-54490401D01*
X162182419Y-54490401D02*
X162134800Y-54633258D01*
X162134800Y-54633258D02*
X162039561Y-54728496D01*
X162039561Y-54728496D02*
X161944323Y-54776115D01*
X161944323Y-54776115D02*
X161753847Y-54823734D01*
X161753847Y-54823734D02*
X161610990Y-54823734D01*
X161610990Y-54823734D02*
X161420514Y-54776115D01*
X161420514Y-54776115D02*
X161325276Y-54728496D01*
X161325276Y-54728496D02*
X161230038Y-54633258D01*
X161230038Y-54633258D02*
X161182419Y-54490401D01*
X161182419Y-54490401D02*
X161182419Y-54395163D01*
X161182419Y-54395163D02*
X161230038Y-54252306D01*
X161230038Y-54252306D02*
X161277657Y-54204687D01*
X162134800Y-53823734D02*
X162182419Y-53680877D01*
X162182419Y-53680877D02*
X162182419Y-53442782D01*
X162182419Y-53442782D02*
X162134800Y-53347544D01*
X162134800Y-53347544D02*
X162087180Y-53299925D01*
X162087180Y-53299925D02*
X161991942Y-53252306D01*
X161991942Y-53252306D02*
X161896704Y-53252306D01*
X161896704Y-53252306D02*
X161801466Y-53299925D01*
X161801466Y-53299925D02*
X161753847Y-53347544D01*
X161753847Y-53347544D02*
X161706228Y-53442782D01*
X161706228Y-53442782D02*
X161658609Y-53633258D01*
X161658609Y-53633258D02*
X161610990Y-53728496D01*
X161610990Y-53728496D02*
X161563371Y-53776115D01*
X161563371Y-53776115D02*
X161468133Y-53823734D01*
X161468133Y-53823734D02*
X161372895Y-53823734D01*
X161372895Y-53823734D02*
X161277657Y-53776115D01*
X161277657Y-53776115D02*
X161230038Y-53728496D01*
X161230038Y-53728496D02*
X161182419Y-53633258D01*
X161182419Y-53633258D02*
X161182419Y-53395163D01*
X161182419Y-53395163D02*
X161230038Y-53252306D01*
X162182419Y-52299925D02*
X162182419Y-52871353D01*
X162182419Y-52585639D02*
X161182419Y-52585639D01*
X161182419Y-52585639D02*
X161325276Y-52680877D01*
X161325276Y-52680877D02*
X161420514Y-52776115D01*
X161420514Y-52776115D02*
X161468133Y-52871353D01*
X120542419Y-63808972D02*
X120542419Y-63237544D01*
X121542419Y-63523258D02*
X120542419Y-63523258D01*
X120542419Y-62999448D02*
X121542419Y-62332782D01*
X120542419Y-62332782D02*
X121542419Y-62999448D01*
X121542419Y-61428020D02*
X121542419Y-61999448D01*
X121542419Y-61713734D02*
X120542419Y-61713734D01*
X120542419Y-61713734D02*
X120685276Y-61808972D01*
X120685276Y-61808972D02*
X120780514Y-61904210D01*
X120780514Y-61904210D02*
X120828133Y-61999448D01*
X154276704Y-54823734D02*
X154276704Y-54347544D01*
X154562419Y-54918972D02*
X153562419Y-54585639D01*
X153562419Y-54585639D02*
X154562419Y-54252306D01*
X154562419Y-53395163D02*
X154562419Y-53966591D01*
X154562419Y-53680877D02*
X153562419Y-53680877D01*
X153562419Y-53680877D02*
X153705276Y-53776115D01*
X153705276Y-53776115D02*
X153800514Y-53871353D01*
X153800514Y-53871353D02*
X153848133Y-53966591D01*
X153562419Y-53061829D02*
X153562419Y-52395163D01*
X153562419Y-52395163D02*
X154562419Y-52823734D01*
X144116704Y-54823734D02*
X144116704Y-54347544D01*
X144402419Y-54918972D02*
X143402419Y-54585639D01*
X143402419Y-54585639D02*
X144402419Y-54252306D01*
X144402419Y-53395163D02*
X144402419Y-53966591D01*
X144402419Y-53680877D02*
X143402419Y-53680877D01*
X143402419Y-53680877D02*
X143545276Y-53776115D01*
X143545276Y-53776115D02*
X143640514Y-53871353D01*
X143640514Y-53871353D02*
X143688133Y-53966591D01*
X174882419Y-54776115D02*
X173882419Y-54776115D01*
X173882419Y-54776115D02*
X173882419Y-54395163D01*
X173882419Y-54395163D02*
X173930038Y-54299925D01*
X173930038Y-54299925D02*
X173977657Y-54252306D01*
X173977657Y-54252306D02*
X174072895Y-54204687D01*
X174072895Y-54204687D02*
X174215752Y-54204687D01*
X174215752Y-54204687D02*
X174310990Y-54252306D01*
X174310990Y-54252306D02*
X174358609Y-54299925D01*
X174358609Y-54299925D02*
X174406228Y-54395163D01*
X174406228Y-54395163D02*
X174406228Y-54776115D01*
X173882419Y-53871353D02*
X174882419Y-53633258D01*
X174882419Y-53633258D02*
X174168133Y-53442782D01*
X174168133Y-53442782D02*
X174882419Y-53252306D01*
X174882419Y-53252306D02*
X173882419Y-53014211D01*
X174882419Y-52633258D02*
X173882419Y-52633258D01*
X173882419Y-52633258D02*
X174596704Y-52299925D01*
X174596704Y-52299925D02*
X173882419Y-51966592D01*
X173882419Y-51966592D02*
X174882419Y-51966592D01*
X115510038Y-63142306D02*
X115462419Y-63237544D01*
X115462419Y-63237544D02*
X115462419Y-63380401D01*
X115462419Y-63380401D02*
X115510038Y-63523258D01*
X115510038Y-63523258D02*
X115605276Y-63618496D01*
X115605276Y-63618496D02*
X115700514Y-63666115D01*
X115700514Y-63666115D02*
X115890990Y-63713734D01*
X115890990Y-63713734D02*
X116033847Y-63713734D01*
X116033847Y-63713734D02*
X116224323Y-63666115D01*
X116224323Y-63666115D02*
X116319561Y-63618496D01*
X116319561Y-63618496D02*
X116414800Y-63523258D01*
X116414800Y-63523258D02*
X116462419Y-63380401D01*
X116462419Y-63380401D02*
X116462419Y-63285163D01*
X116462419Y-63285163D02*
X116414800Y-63142306D01*
X116414800Y-63142306D02*
X116367180Y-63094687D01*
X116367180Y-63094687D02*
X116033847Y-63094687D01*
X116033847Y-63094687D02*
X116033847Y-63285163D01*
X116462419Y-62666115D02*
X115462419Y-62666115D01*
X115462419Y-62666115D02*
X116462419Y-62094687D01*
X116462419Y-62094687D02*
X115462419Y-62094687D01*
X116462419Y-61618496D02*
X115462419Y-61618496D01*
X115462419Y-61618496D02*
X115462419Y-61380401D01*
X115462419Y-61380401D02*
X115510038Y-61237544D01*
X115510038Y-61237544D02*
X115605276Y-61142306D01*
X115605276Y-61142306D02*
X115700514Y-61094687D01*
X115700514Y-61094687D02*
X115890990Y-61047068D01*
X115890990Y-61047068D02*
X116033847Y-61047068D01*
X116033847Y-61047068D02*
X116224323Y-61094687D01*
X116224323Y-61094687D02*
X116319561Y-61142306D01*
X116319561Y-61142306D02*
X116414800Y-61237544D01*
X116414800Y-61237544D02*
X116462419Y-61380401D01*
X116462419Y-61380401D02*
X116462419Y-61618496D01*
X146656704Y-54823734D02*
X146656704Y-54347544D01*
X146942419Y-54918972D02*
X145942419Y-54585639D01*
X145942419Y-54585639D02*
X146942419Y-54252306D01*
X145942419Y-53728496D02*
X145942419Y-53633258D01*
X145942419Y-53633258D02*
X145990038Y-53538020D01*
X145990038Y-53538020D02*
X146037657Y-53490401D01*
X146037657Y-53490401D02*
X146132895Y-53442782D01*
X146132895Y-53442782D02*
X146323371Y-53395163D01*
X146323371Y-53395163D02*
X146561466Y-53395163D01*
X146561466Y-53395163D02*
X146751942Y-53442782D01*
X146751942Y-53442782D02*
X146847180Y-53490401D01*
X146847180Y-53490401D02*
X146894800Y-53538020D01*
X146894800Y-53538020D02*
X146942419Y-53633258D01*
X146942419Y-53633258D02*
X146942419Y-53728496D01*
X146942419Y-53728496D02*
X146894800Y-53823734D01*
X146894800Y-53823734D02*
X146847180Y-53871353D01*
X146847180Y-53871353D02*
X146751942Y-53918972D01*
X146751942Y-53918972D02*
X146561466Y-53966591D01*
X146561466Y-53966591D02*
X146323371Y-53966591D01*
X146323371Y-53966591D02*
X146132895Y-53918972D01*
X146132895Y-53918972D02*
X146037657Y-53871353D01*
X146037657Y-53871353D02*
X145990038Y-53823734D01*
X145990038Y-53823734D02*
X145942419Y-53728496D01*
X118050038Y-54252306D02*
X118002419Y-54347544D01*
X118002419Y-54347544D02*
X118002419Y-54490401D01*
X118002419Y-54490401D02*
X118050038Y-54633258D01*
X118050038Y-54633258D02*
X118145276Y-54728496D01*
X118145276Y-54728496D02*
X118240514Y-54776115D01*
X118240514Y-54776115D02*
X118430990Y-54823734D01*
X118430990Y-54823734D02*
X118573847Y-54823734D01*
X118573847Y-54823734D02*
X118764323Y-54776115D01*
X118764323Y-54776115D02*
X118859561Y-54728496D01*
X118859561Y-54728496D02*
X118954800Y-54633258D01*
X118954800Y-54633258D02*
X119002419Y-54490401D01*
X119002419Y-54490401D02*
X119002419Y-54395163D01*
X119002419Y-54395163D02*
X118954800Y-54252306D01*
X118954800Y-54252306D02*
X118907180Y-54204687D01*
X118907180Y-54204687D02*
X118573847Y-54204687D01*
X118573847Y-54204687D02*
X118573847Y-54395163D01*
X119002419Y-53776115D02*
X118002419Y-53776115D01*
X118002419Y-53776115D02*
X119002419Y-53204687D01*
X119002419Y-53204687D02*
X118002419Y-53204687D01*
X119002419Y-52728496D02*
X118002419Y-52728496D01*
X118002419Y-52728496D02*
X118002419Y-52490401D01*
X118002419Y-52490401D02*
X118050038Y-52347544D01*
X118050038Y-52347544D02*
X118145276Y-52252306D01*
X118145276Y-52252306D02*
X118240514Y-52204687D01*
X118240514Y-52204687D02*
X118430990Y-52157068D01*
X118430990Y-52157068D02*
X118573847Y-52157068D01*
X118573847Y-52157068D02*
X118764323Y-52204687D01*
X118764323Y-52204687D02*
X118859561Y-52252306D01*
X118859561Y-52252306D02*
X118954800Y-52347544D01*
X118954800Y-52347544D02*
X119002419Y-52490401D01*
X119002419Y-52490401D02*
X119002419Y-52728496D01*
X126622419Y-63666115D02*
X125622419Y-63666115D01*
X125622419Y-63666115D02*
X125622419Y-63285163D01*
X125622419Y-63285163D02*
X125670038Y-63189925D01*
X125670038Y-63189925D02*
X125717657Y-63142306D01*
X125717657Y-63142306D02*
X125812895Y-63094687D01*
X125812895Y-63094687D02*
X125955752Y-63094687D01*
X125955752Y-63094687D02*
X126050990Y-63142306D01*
X126050990Y-63142306D02*
X126098609Y-63189925D01*
X126098609Y-63189925D02*
X126146228Y-63285163D01*
X126146228Y-63285163D02*
X126146228Y-63666115D01*
X125622419Y-62761353D02*
X126622419Y-62523258D01*
X126622419Y-62523258D02*
X125908133Y-62332782D01*
X125908133Y-62332782D02*
X126622419Y-62142306D01*
X126622419Y-62142306D02*
X125622419Y-61904211D01*
X126622419Y-61523258D02*
X125622419Y-61523258D01*
X125622419Y-61523258D02*
X126336704Y-61189925D01*
X126336704Y-61189925D02*
X125622419Y-60856592D01*
X125622419Y-60856592D02*
X126622419Y-60856592D01*
X157054800Y-63713734D02*
X157102419Y-63570877D01*
X157102419Y-63570877D02*
X157102419Y-63332782D01*
X157102419Y-63332782D02*
X157054800Y-63237544D01*
X157054800Y-63237544D02*
X157007180Y-63189925D01*
X157007180Y-63189925D02*
X156911942Y-63142306D01*
X156911942Y-63142306D02*
X156816704Y-63142306D01*
X156816704Y-63142306D02*
X156721466Y-63189925D01*
X156721466Y-63189925D02*
X156673847Y-63237544D01*
X156673847Y-63237544D02*
X156626228Y-63332782D01*
X156626228Y-63332782D02*
X156578609Y-63523258D01*
X156578609Y-63523258D02*
X156530990Y-63618496D01*
X156530990Y-63618496D02*
X156483371Y-63666115D01*
X156483371Y-63666115D02*
X156388133Y-63713734D01*
X156388133Y-63713734D02*
X156292895Y-63713734D01*
X156292895Y-63713734D02*
X156197657Y-63666115D01*
X156197657Y-63666115D02*
X156150038Y-63618496D01*
X156150038Y-63618496D02*
X156102419Y-63523258D01*
X156102419Y-63523258D02*
X156102419Y-63285163D01*
X156102419Y-63285163D02*
X156150038Y-63142306D01*
X157102419Y-62713734D02*
X156102419Y-62713734D01*
X156102419Y-62713734D02*
X156102419Y-62475639D01*
X156102419Y-62475639D02*
X156150038Y-62332782D01*
X156150038Y-62332782D02*
X156245276Y-62237544D01*
X156245276Y-62237544D02*
X156340514Y-62189925D01*
X156340514Y-62189925D02*
X156530990Y-62142306D01*
X156530990Y-62142306D02*
X156673847Y-62142306D01*
X156673847Y-62142306D02*
X156864323Y-62189925D01*
X156864323Y-62189925D02*
X156959561Y-62237544D01*
X156959561Y-62237544D02*
X157054800Y-62332782D01*
X157054800Y-62332782D02*
X157102419Y-62475639D01*
X157102419Y-62475639D02*
X157102419Y-62713734D01*
X156816704Y-61761353D02*
X156816704Y-61285163D01*
X157102419Y-61856591D02*
X156102419Y-61523258D01*
X156102419Y-61523258D02*
X157102419Y-61189925D01*
X156197657Y-60904210D02*
X156150038Y-60856591D01*
X156150038Y-60856591D02*
X156102419Y-60761353D01*
X156102419Y-60761353D02*
X156102419Y-60523258D01*
X156102419Y-60523258D02*
X156150038Y-60428020D01*
X156150038Y-60428020D02*
X156197657Y-60380401D01*
X156197657Y-60380401D02*
X156292895Y-60332782D01*
X156292895Y-60332782D02*
X156388133Y-60332782D01*
X156388133Y-60332782D02*
X156530990Y-60380401D01*
X156530990Y-60380401D02*
X157102419Y-60951829D01*
X157102419Y-60951829D02*
X157102419Y-60332782D01*
X119002419Y-63094687D02*
X118526228Y-63428020D01*
X119002419Y-63666115D02*
X118002419Y-63666115D01*
X118002419Y-63666115D02*
X118002419Y-63285163D01*
X118002419Y-63285163D02*
X118050038Y-63189925D01*
X118050038Y-63189925D02*
X118097657Y-63142306D01*
X118097657Y-63142306D02*
X118192895Y-63094687D01*
X118192895Y-63094687D02*
X118335752Y-63094687D01*
X118335752Y-63094687D02*
X118430990Y-63142306D01*
X118430990Y-63142306D02*
X118478609Y-63189925D01*
X118478609Y-63189925D02*
X118526228Y-63285163D01*
X118526228Y-63285163D02*
X118526228Y-63666115D01*
X118002419Y-62761353D02*
X119002419Y-62094687D01*
X118002419Y-62094687D02*
X119002419Y-62761353D01*
X119002419Y-61189925D02*
X119002419Y-61761353D01*
X119002419Y-61475639D02*
X118002419Y-61475639D01*
X118002419Y-61475639D02*
X118145276Y-61570877D01*
X118145276Y-61570877D02*
X118240514Y-61666115D01*
X118240514Y-61666115D02*
X118288133Y-61761353D01*
X138322419Y-63808972D02*
X138322419Y-63237544D01*
X139322419Y-63523258D02*
X138322419Y-63523258D01*
X138322419Y-62999448D02*
X139322419Y-62332782D01*
X138322419Y-62332782D02*
X139322419Y-62999448D01*
X138417657Y-61999448D02*
X138370038Y-61951829D01*
X138370038Y-61951829D02*
X138322419Y-61856591D01*
X138322419Y-61856591D02*
X138322419Y-61618496D01*
X138322419Y-61618496D02*
X138370038Y-61523258D01*
X138370038Y-61523258D02*
X138417657Y-61475639D01*
X138417657Y-61475639D02*
X138512895Y-61428020D01*
X138512895Y-61428020D02*
X138608133Y-61428020D01*
X138608133Y-61428020D02*
X138750990Y-61475639D01*
X138750990Y-61475639D02*
X139322419Y-62047067D01*
X139322419Y-62047067D02*
X139322419Y-61428020D01*
X146942419Y-63666115D02*
X145942419Y-63666115D01*
X145942419Y-63666115D02*
X146656704Y-63332782D01*
X146656704Y-63332782D02*
X145942419Y-62999449D01*
X145942419Y-62999449D02*
X146942419Y-62999449D01*
X145942419Y-62332782D02*
X145942419Y-62142306D01*
X145942419Y-62142306D02*
X145990038Y-62047068D01*
X145990038Y-62047068D02*
X146085276Y-61951830D01*
X146085276Y-61951830D02*
X146275752Y-61904211D01*
X146275752Y-61904211D02*
X146609085Y-61904211D01*
X146609085Y-61904211D02*
X146799561Y-61951830D01*
X146799561Y-61951830D02*
X146894800Y-62047068D01*
X146894800Y-62047068D02*
X146942419Y-62142306D01*
X146942419Y-62142306D02*
X146942419Y-62332782D01*
X146942419Y-62332782D02*
X146894800Y-62428020D01*
X146894800Y-62428020D02*
X146799561Y-62523258D01*
X146799561Y-62523258D02*
X146609085Y-62570877D01*
X146609085Y-62570877D02*
X146275752Y-62570877D01*
X146275752Y-62570877D02*
X146085276Y-62523258D01*
X146085276Y-62523258D02*
X145990038Y-62428020D01*
X145990038Y-62428020D02*
X145942419Y-62332782D01*
X146894800Y-61523258D02*
X146942419Y-61380401D01*
X146942419Y-61380401D02*
X146942419Y-61142306D01*
X146942419Y-61142306D02*
X146894800Y-61047068D01*
X146894800Y-61047068D02*
X146847180Y-60999449D01*
X146847180Y-60999449D02*
X146751942Y-60951830D01*
X146751942Y-60951830D02*
X146656704Y-60951830D01*
X146656704Y-60951830D02*
X146561466Y-60999449D01*
X146561466Y-60999449D02*
X146513847Y-61047068D01*
X146513847Y-61047068D02*
X146466228Y-61142306D01*
X146466228Y-61142306D02*
X146418609Y-61332782D01*
X146418609Y-61332782D02*
X146370990Y-61428020D01*
X146370990Y-61428020D02*
X146323371Y-61475639D01*
X146323371Y-61475639D02*
X146228133Y-61523258D01*
X146228133Y-61523258D02*
X146132895Y-61523258D01*
X146132895Y-61523258D02*
X146037657Y-61475639D01*
X146037657Y-61475639D02*
X145990038Y-61428020D01*
X145990038Y-61428020D02*
X145942419Y-61332782D01*
X145942419Y-61332782D02*
X145942419Y-61094687D01*
X145942419Y-61094687D02*
X145990038Y-60951830D01*
X146942419Y-60523258D02*
X145942419Y-60523258D01*
X149482419Y-63666115D02*
X148482419Y-63666115D01*
X148482419Y-63666115D02*
X149196704Y-63332782D01*
X149196704Y-63332782D02*
X148482419Y-62999449D01*
X148482419Y-62999449D02*
X149482419Y-62999449D01*
X149482419Y-62523258D02*
X148482419Y-62523258D01*
X149434800Y-62094687D02*
X149482419Y-61951830D01*
X149482419Y-61951830D02*
X149482419Y-61713735D01*
X149482419Y-61713735D02*
X149434800Y-61618497D01*
X149434800Y-61618497D02*
X149387180Y-61570878D01*
X149387180Y-61570878D02*
X149291942Y-61523259D01*
X149291942Y-61523259D02*
X149196704Y-61523259D01*
X149196704Y-61523259D02*
X149101466Y-61570878D01*
X149101466Y-61570878D02*
X149053847Y-61618497D01*
X149053847Y-61618497D02*
X149006228Y-61713735D01*
X149006228Y-61713735D02*
X148958609Y-61904211D01*
X148958609Y-61904211D02*
X148910990Y-61999449D01*
X148910990Y-61999449D02*
X148863371Y-62047068D01*
X148863371Y-62047068D02*
X148768133Y-62094687D01*
X148768133Y-62094687D02*
X148672895Y-62094687D01*
X148672895Y-62094687D02*
X148577657Y-62047068D01*
X148577657Y-62047068D02*
X148530038Y-61999449D01*
X148530038Y-61999449D02*
X148482419Y-61904211D01*
X148482419Y-61904211D02*
X148482419Y-61666116D01*
X148482419Y-61666116D02*
X148530038Y-61523259D01*
X148482419Y-60904211D02*
X148482419Y-60713735D01*
X148482419Y-60713735D02*
X148530038Y-60618497D01*
X148530038Y-60618497D02*
X148625276Y-60523259D01*
X148625276Y-60523259D02*
X148815752Y-60475640D01*
X148815752Y-60475640D02*
X149149085Y-60475640D01*
X149149085Y-60475640D02*
X149339561Y-60523259D01*
X149339561Y-60523259D02*
X149434800Y-60618497D01*
X149434800Y-60618497D02*
X149482419Y-60713735D01*
X149482419Y-60713735D02*
X149482419Y-60904211D01*
X149482419Y-60904211D02*
X149434800Y-60999449D01*
X149434800Y-60999449D02*
X149339561Y-61094687D01*
X149339561Y-61094687D02*
X149149085Y-61142306D01*
X149149085Y-61142306D02*
X148815752Y-61142306D01*
X148815752Y-61142306D02*
X148625276Y-61094687D01*
X148625276Y-61094687D02*
X148530038Y-60999449D01*
X148530038Y-60999449D02*
X148482419Y-60904211D01*
X124082419Y-54776115D02*
X123082419Y-54776115D01*
X123082419Y-54776115D02*
X123082419Y-54395163D01*
X123082419Y-54395163D02*
X123130038Y-54299925D01*
X123130038Y-54299925D02*
X123177657Y-54252306D01*
X123177657Y-54252306D02*
X123272895Y-54204687D01*
X123272895Y-54204687D02*
X123415752Y-54204687D01*
X123415752Y-54204687D02*
X123510990Y-54252306D01*
X123510990Y-54252306D02*
X123558609Y-54299925D01*
X123558609Y-54299925D02*
X123606228Y-54395163D01*
X123606228Y-54395163D02*
X123606228Y-54776115D01*
X123082419Y-53871353D02*
X124082419Y-53633258D01*
X124082419Y-53633258D02*
X123368133Y-53442782D01*
X123368133Y-53442782D02*
X124082419Y-53252306D01*
X124082419Y-53252306D02*
X123082419Y-53014211D01*
X124082419Y-52633258D02*
X123082419Y-52633258D01*
X123082419Y-52633258D02*
X123796704Y-52299925D01*
X123796704Y-52299925D02*
X123082419Y-51966592D01*
X123082419Y-51966592D02*
X124082419Y-51966592D01*
X173930038Y-63142306D02*
X173882419Y-63237544D01*
X173882419Y-63237544D02*
X173882419Y-63380401D01*
X173882419Y-63380401D02*
X173930038Y-63523258D01*
X173930038Y-63523258D02*
X174025276Y-63618496D01*
X174025276Y-63618496D02*
X174120514Y-63666115D01*
X174120514Y-63666115D02*
X174310990Y-63713734D01*
X174310990Y-63713734D02*
X174453847Y-63713734D01*
X174453847Y-63713734D02*
X174644323Y-63666115D01*
X174644323Y-63666115D02*
X174739561Y-63618496D01*
X174739561Y-63618496D02*
X174834800Y-63523258D01*
X174834800Y-63523258D02*
X174882419Y-63380401D01*
X174882419Y-63380401D02*
X174882419Y-63285163D01*
X174882419Y-63285163D02*
X174834800Y-63142306D01*
X174834800Y-63142306D02*
X174787180Y-63094687D01*
X174787180Y-63094687D02*
X174453847Y-63094687D01*
X174453847Y-63094687D02*
X174453847Y-63285163D01*
X174882419Y-62666115D02*
X173882419Y-62666115D01*
X173882419Y-62666115D02*
X173882419Y-62285163D01*
X173882419Y-62285163D02*
X173930038Y-62189925D01*
X173930038Y-62189925D02*
X173977657Y-62142306D01*
X173977657Y-62142306D02*
X174072895Y-62094687D01*
X174072895Y-62094687D02*
X174215752Y-62094687D01*
X174215752Y-62094687D02*
X174310990Y-62142306D01*
X174310990Y-62142306D02*
X174358609Y-62189925D01*
X174358609Y-62189925D02*
X174406228Y-62285163D01*
X174406228Y-62285163D02*
X174406228Y-62666115D01*
X174882419Y-61666115D02*
X173882419Y-61666115D01*
X173882419Y-60999449D02*
X173882419Y-60808973D01*
X173882419Y-60808973D02*
X173930038Y-60713735D01*
X173930038Y-60713735D02*
X174025276Y-60618497D01*
X174025276Y-60618497D02*
X174215752Y-60570878D01*
X174215752Y-60570878D02*
X174549085Y-60570878D01*
X174549085Y-60570878D02*
X174739561Y-60618497D01*
X174739561Y-60618497D02*
X174834800Y-60713735D01*
X174834800Y-60713735D02*
X174882419Y-60808973D01*
X174882419Y-60808973D02*
X174882419Y-60999449D01*
X174882419Y-60999449D02*
X174834800Y-61094687D01*
X174834800Y-61094687D02*
X174739561Y-61189925D01*
X174739561Y-61189925D02*
X174549085Y-61237544D01*
X174549085Y-61237544D02*
X174215752Y-61237544D01*
X174215752Y-61237544D02*
X174025276Y-61189925D01*
X174025276Y-61189925D02*
X173930038Y-61094687D01*
X173930038Y-61094687D02*
X173882419Y-60999449D01*
X171390038Y-63142306D02*
X171342419Y-63237544D01*
X171342419Y-63237544D02*
X171342419Y-63380401D01*
X171342419Y-63380401D02*
X171390038Y-63523258D01*
X171390038Y-63523258D02*
X171485276Y-63618496D01*
X171485276Y-63618496D02*
X171580514Y-63666115D01*
X171580514Y-63666115D02*
X171770990Y-63713734D01*
X171770990Y-63713734D02*
X171913847Y-63713734D01*
X171913847Y-63713734D02*
X172104323Y-63666115D01*
X172104323Y-63666115D02*
X172199561Y-63618496D01*
X172199561Y-63618496D02*
X172294800Y-63523258D01*
X172294800Y-63523258D02*
X172342419Y-63380401D01*
X172342419Y-63380401D02*
X172342419Y-63285163D01*
X172342419Y-63285163D02*
X172294800Y-63142306D01*
X172294800Y-63142306D02*
X172247180Y-63094687D01*
X172247180Y-63094687D02*
X171913847Y-63094687D01*
X171913847Y-63094687D02*
X171913847Y-63285163D01*
X172342419Y-62666115D02*
X171342419Y-62666115D01*
X171342419Y-62666115D02*
X171342419Y-62285163D01*
X171342419Y-62285163D02*
X171390038Y-62189925D01*
X171390038Y-62189925D02*
X171437657Y-62142306D01*
X171437657Y-62142306D02*
X171532895Y-62094687D01*
X171532895Y-62094687D02*
X171675752Y-62094687D01*
X171675752Y-62094687D02*
X171770990Y-62142306D01*
X171770990Y-62142306D02*
X171818609Y-62189925D01*
X171818609Y-62189925D02*
X171866228Y-62285163D01*
X171866228Y-62285163D02*
X171866228Y-62666115D01*
X172342419Y-61666115D02*
X171342419Y-61666115D01*
X171342419Y-60999449D02*
X171342419Y-60808973D01*
X171342419Y-60808973D02*
X171390038Y-60713735D01*
X171390038Y-60713735D02*
X171485276Y-60618497D01*
X171485276Y-60618497D02*
X171675752Y-60570878D01*
X171675752Y-60570878D02*
X172009085Y-60570878D01*
X172009085Y-60570878D02*
X172199561Y-60618497D01*
X172199561Y-60618497D02*
X172294800Y-60713735D01*
X172294800Y-60713735D02*
X172342419Y-60808973D01*
X172342419Y-60808973D02*
X172342419Y-60999449D01*
X172342419Y-60999449D02*
X172294800Y-61094687D01*
X172294800Y-61094687D02*
X172199561Y-61189925D01*
X172199561Y-61189925D02*
X172009085Y-61237544D01*
X172009085Y-61237544D02*
X171675752Y-61237544D01*
X171675752Y-61237544D02*
X171485276Y-61189925D01*
X171485276Y-61189925D02*
X171390038Y-61094687D01*
X171390038Y-61094687D02*
X171342419Y-60999449D01*
X141862419Y-63666115D02*
X140862419Y-63666115D01*
X140862419Y-63666115D02*
X140862419Y-63285163D01*
X140862419Y-63285163D02*
X140910038Y-63189925D01*
X140910038Y-63189925D02*
X140957657Y-63142306D01*
X140957657Y-63142306D02*
X141052895Y-63094687D01*
X141052895Y-63094687D02*
X141195752Y-63094687D01*
X141195752Y-63094687D02*
X141290990Y-63142306D01*
X141290990Y-63142306D02*
X141338609Y-63189925D01*
X141338609Y-63189925D02*
X141386228Y-63285163D01*
X141386228Y-63285163D02*
X141386228Y-63666115D01*
X140862419Y-62761353D02*
X141862419Y-62523258D01*
X141862419Y-62523258D02*
X141148133Y-62332782D01*
X141148133Y-62332782D02*
X141862419Y-62142306D01*
X141862419Y-62142306D02*
X140862419Y-61904211D01*
X141862419Y-61523258D02*
X140862419Y-61523258D01*
X140862419Y-61523258D02*
X141576704Y-61189925D01*
X141576704Y-61189925D02*
X140862419Y-60856592D01*
X140862419Y-60856592D02*
X141862419Y-60856592D01*
X162134800Y-63713734D02*
X162182419Y-63570877D01*
X162182419Y-63570877D02*
X162182419Y-63332782D01*
X162182419Y-63332782D02*
X162134800Y-63237544D01*
X162134800Y-63237544D02*
X162087180Y-63189925D01*
X162087180Y-63189925D02*
X161991942Y-63142306D01*
X161991942Y-63142306D02*
X161896704Y-63142306D01*
X161896704Y-63142306D02*
X161801466Y-63189925D01*
X161801466Y-63189925D02*
X161753847Y-63237544D01*
X161753847Y-63237544D02*
X161706228Y-63332782D01*
X161706228Y-63332782D02*
X161658609Y-63523258D01*
X161658609Y-63523258D02*
X161610990Y-63618496D01*
X161610990Y-63618496D02*
X161563371Y-63666115D01*
X161563371Y-63666115D02*
X161468133Y-63713734D01*
X161468133Y-63713734D02*
X161372895Y-63713734D01*
X161372895Y-63713734D02*
X161277657Y-63666115D01*
X161277657Y-63666115D02*
X161230038Y-63618496D01*
X161230038Y-63618496D02*
X161182419Y-63523258D01*
X161182419Y-63523258D02*
X161182419Y-63285163D01*
X161182419Y-63285163D02*
X161230038Y-63142306D01*
X162087180Y-62142306D02*
X162134800Y-62189925D01*
X162134800Y-62189925D02*
X162182419Y-62332782D01*
X162182419Y-62332782D02*
X162182419Y-62428020D01*
X162182419Y-62428020D02*
X162134800Y-62570877D01*
X162134800Y-62570877D02*
X162039561Y-62666115D01*
X162039561Y-62666115D02*
X161944323Y-62713734D01*
X161944323Y-62713734D02*
X161753847Y-62761353D01*
X161753847Y-62761353D02*
X161610990Y-62761353D01*
X161610990Y-62761353D02*
X161420514Y-62713734D01*
X161420514Y-62713734D02*
X161325276Y-62666115D01*
X161325276Y-62666115D02*
X161230038Y-62570877D01*
X161230038Y-62570877D02*
X161182419Y-62428020D01*
X161182419Y-62428020D02*
X161182419Y-62332782D01*
X161182419Y-62332782D02*
X161230038Y-62189925D01*
X161230038Y-62189925D02*
X161277657Y-62142306D01*
X162182419Y-61713734D02*
X161182419Y-61713734D01*
X162182419Y-61142306D02*
X161610990Y-61570877D01*
X161182419Y-61142306D02*
X161753847Y-61713734D01*
X162182419Y-60189925D02*
X162182419Y-60761353D01*
X162182419Y-60475639D02*
X161182419Y-60475639D01*
X161182419Y-60475639D02*
X161325276Y-60570877D01*
X161325276Y-60570877D02*
X161420514Y-60666115D01*
X161420514Y-60666115D02*
X161468133Y-60761353D01*
X120542419Y-54871353D02*
X120542419Y-54252306D01*
X120542419Y-54252306D02*
X120923371Y-54585639D01*
X120923371Y-54585639D02*
X120923371Y-54442782D01*
X120923371Y-54442782D02*
X120970990Y-54347544D01*
X120970990Y-54347544D02*
X121018609Y-54299925D01*
X121018609Y-54299925D02*
X121113847Y-54252306D01*
X121113847Y-54252306D02*
X121351942Y-54252306D01*
X121351942Y-54252306D02*
X121447180Y-54299925D01*
X121447180Y-54299925D02*
X121494800Y-54347544D01*
X121494800Y-54347544D02*
X121542419Y-54442782D01*
X121542419Y-54442782D02*
X121542419Y-54728496D01*
X121542419Y-54728496D02*
X121494800Y-54823734D01*
X121494800Y-54823734D02*
X121447180Y-54871353D01*
X121447180Y-53823734D02*
X121494800Y-53776115D01*
X121494800Y-53776115D02*
X121542419Y-53823734D01*
X121542419Y-53823734D02*
X121494800Y-53871353D01*
X121494800Y-53871353D02*
X121447180Y-53823734D01*
X121447180Y-53823734D02*
X121542419Y-53823734D01*
X120542419Y-53442782D02*
X120542419Y-52823735D01*
X120542419Y-52823735D02*
X120923371Y-53157068D01*
X120923371Y-53157068D02*
X120923371Y-53014211D01*
X120923371Y-53014211D02*
X120970990Y-52918973D01*
X120970990Y-52918973D02*
X121018609Y-52871354D01*
X121018609Y-52871354D02*
X121113847Y-52823735D01*
X121113847Y-52823735D02*
X121351942Y-52823735D01*
X121351942Y-52823735D02*
X121447180Y-52871354D01*
X121447180Y-52871354D02*
X121494800Y-52918973D01*
X121494800Y-52918973D02*
X121542419Y-53014211D01*
X121542419Y-53014211D02*
X121542419Y-53299925D01*
X121542419Y-53299925D02*
X121494800Y-53395163D01*
X121494800Y-53395163D02*
X121447180Y-53442782D01*
X120542419Y-52538020D02*
X121542419Y-52204687D01*
X121542419Y-52204687D02*
X120542419Y-51871354D01*
X130702419Y-54918972D02*
X130702419Y-54347544D01*
X131702419Y-54633258D02*
X130702419Y-54633258D01*
X130702419Y-54109448D02*
X131702419Y-53442782D01*
X130702419Y-53442782D02*
X131702419Y-54109448D01*
X130702419Y-52585639D02*
X130702419Y-53061829D01*
X130702419Y-53061829D02*
X131178609Y-53109448D01*
X131178609Y-53109448D02*
X131130990Y-53061829D01*
X131130990Y-53061829D02*
X131083371Y-52966591D01*
X131083371Y-52966591D02*
X131083371Y-52728496D01*
X131083371Y-52728496D02*
X131130990Y-52633258D01*
X131130990Y-52633258D02*
X131178609Y-52585639D01*
X131178609Y-52585639D02*
X131273847Y-52538020D01*
X131273847Y-52538020D02*
X131511942Y-52538020D01*
X131511942Y-52538020D02*
X131607180Y-52585639D01*
X131607180Y-52585639D02*
X131654800Y-52633258D01*
X131654800Y-52633258D02*
X131702419Y-52728496D01*
X131702419Y-52728496D02*
X131702419Y-52966591D01*
X131702419Y-52966591D02*
X131654800Y-53061829D01*
X131654800Y-53061829D02*
X131607180Y-53109448D01*
X151070038Y-54252306D02*
X151022419Y-54347544D01*
X151022419Y-54347544D02*
X151022419Y-54490401D01*
X151022419Y-54490401D02*
X151070038Y-54633258D01*
X151070038Y-54633258D02*
X151165276Y-54728496D01*
X151165276Y-54728496D02*
X151260514Y-54776115D01*
X151260514Y-54776115D02*
X151450990Y-54823734D01*
X151450990Y-54823734D02*
X151593847Y-54823734D01*
X151593847Y-54823734D02*
X151784323Y-54776115D01*
X151784323Y-54776115D02*
X151879561Y-54728496D01*
X151879561Y-54728496D02*
X151974800Y-54633258D01*
X151974800Y-54633258D02*
X152022419Y-54490401D01*
X152022419Y-54490401D02*
X152022419Y-54395163D01*
X152022419Y-54395163D02*
X151974800Y-54252306D01*
X151974800Y-54252306D02*
X151927180Y-54204687D01*
X151927180Y-54204687D02*
X151593847Y-54204687D01*
X151593847Y-54204687D02*
X151593847Y-54395163D01*
X152022419Y-53776115D02*
X151022419Y-53776115D01*
X151022419Y-53776115D02*
X152022419Y-53204687D01*
X152022419Y-53204687D02*
X151022419Y-53204687D01*
X152022419Y-52728496D02*
X151022419Y-52728496D01*
X151022419Y-52728496D02*
X151022419Y-52490401D01*
X151022419Y-52490401D02*
X151070038Y-52347544D01*
X151070038Y-52347544D02*
X151165276Y-52252306D01*
X151165276Y-52252306D02*
X151260514Y-52204687D01*
X151260514Y-52204687D02*
X151450990Y-52157068D01*
X151450990Y-52157068D02*
X151593847Y-52157068D01*
X151593847Y-52157068D02*
X151784323Y-52204687D01*
X151784323Y-52204687D02*
X151879561Y-52252306D01*
X151879561Y-52252306D02*
X151974800Y-52347544D01*
X151974800Y-52347544D02*
X152022419Y-52490401D01*
X152022419Y-52490401D02*
X152022419Y-52728496D01*
X115462419Y-54918972D02*
X116462419Y-54585639D01*
X116462419Y-54585639D02*
X115462419Y-54252306D01*
X116462419Y-53918972D02*
X115795752Y-53918972D01*
X115462419Y-53918972D02*
X115510038Y-53966591D01*
X115510038Y-53966591D02*
X115557657Y-53918972D01*
X115557657Y-53918972D02*
X115510038Y-53871353D01*
X115510038Y-53871353D02*
X115462419Y-53918972D01*
X115462419Y-53918972D02*
X115557657Y-53918972D01*
X115795752Y-53442782D02*
X116462419Y-53442782D01*
X115890990Y-53442782D02*
X115843371Y-53395163D01*
X115843371Y-53395163D02*
X115795752Y-53299925D01*
X115795752Y-53299925D02*
X115795752Y-53157068D01*
X115795752Y-53157068D02*
X115843371Y-53061830D01*
X115843371Y-53061830D02*
X115938609Y-53014211D01*
X115938609Y-53014211D02*
X116462419Y-53014211D01*
X139036704Y-54823734D02*
X139036704Y-54347544D01*
X139322419Y-54918972D02*
X138322419Y-54585639D01*
X138322419Y-54585639D02*
X139322419Y-54252306D01*
X138322419Y-54014210D02*
X138322419Y-53395163D01*
X138322419Y-53395163D02*
X138703371Y-53728496D01*
X138703371Y-53728496D02*
X138703371Y-53585639D01*
X138703371Y-53585639D02*
X138750990Y-53490401D01*
X138750990Y-53490401D02*
X138798609Y-53442782D01*
X138798609Y-53442782D02*
X138893847Y-53395163D01*
X138893847Y-53395163D02*
X139131942Y-53395163D01*
X139131942Y-53395163D02*
X139227180Y-53442782D01*
X139227180Y-53442782D02*
X139274800Y-53490401D01*
X139274800Y-53490401D02*
X139322419Y-53585639D01*
X139322419Y-53585639D02*
X139322419Y-53871353D01*
X139322419Y-53871353D02*
X139274800Y-53966591D01*
X139274800Y-53966591D02*
X139227180Y-54014210D01*
X168850038Y-63142306D02*
X168802419Y-63237544D01*
X168802419Y-63237544D02*
X168802419Y-63380401D01*
X168802419Y-63380401D02*
X168850038Y-63523258D01*
X168850038Y-63523258D02*
X168945276Y-63618496D01*
X168945276Y-63618496D02*
X169040514Y-63666115D01*
X169040514Y-63666115D02*
X169230990Y-63713734D01*
X169230990Y-63713734D02*
X169373847Y-63713734D01*
X169373847Y-63713734D02*
X169564323Y-63666115D01*
X169564323Y-63666115D02*
X169659561Y-63618496D01*
X169659561Y-63618496D02*
X169754800Y-63523258D01*
X169754800Y-63523258D02*
X169802419Y-63380401D01*
X169802419Y-63380401D02*
X169802419Y-63285163D01*
X169802419Y-63285163D02*
X169754800Y-63142306D01*
X169754800Y-63142306D02*
X169707180Y-63094687D01*
X169707180Y-63094687D02*
X169373847Y-63094687D01*
X169373847Y-63094687D02*
X169373847Y-63285163D01*
X169802419Y-62666115D02*
X168802419Y-62666115D01*
X168802419Y-62666115D02*
X168802419Y-62285163D01*
X168802419Y-62285163D02*
X168850038Y-62189925D01*
X168850038Y-62189925D02*
X168897657Y-62142306D01*
X168897657Y-62142306D02*
X168992895Y-62094687D01*
X168992895Y-62094687D02*
X169135752Y-62094687D01*
X169135752Y-62094687D02*
X169230990Y-62142306D01*
X169230990Y-62142306D02*
X169278609Y-62189925D01*
X169278609Y-62189925D02*
X169326228Y-62285163D01*
X169326228Y-62285163D02*
X169326228Y-62666115D01*
X169802419Y-61666115D02*
X168802419Y-61666115D01*
X168802419Y-60999449D02*
X168802419Y-60808973D01*
X168802419Y-60808973D02*
X168850038Y-60713735D01*
X168850038Y-60713735D02*
X168945276Y-60618497D01*
X168945276Y-60618497D02*
X169135752Y-60570878D01*
X169135752Y-60570878D02*
X169469085Y-60570878D01*
X169469085Y-60570878D02*
X169659561Y-60618497D01*
X169659561Y-60618497D02*
X169754800Y-60713735D01*
X169754800Y-60713735D02*
X169802419Y-60808973D01*
X169802419Y-60808973D02*
X169802419Y-60999449D01*
X169802419Y-60999449D02*
X169754800Y-61094687D01*
X169754800Y-61094687D02*
X169659561Y-61189925D01*
X169659561Y-61189925D02*
X169469085Y-61237544D01*
X169469085Y-61237544D02*
X169135752Y-61237544D01*
X169135752Y-61237544D02*
X168945276Y-61189925D01*
X168945276Y-61189925D02*
X168850038Y-61094687D01*
X168850038Y-61094687D02*
X168802419Y-60999449D01*
X154514800Y-63713734D02*
X154562419Y-63570877D01*
X154562419Y-63570877D02*
X154562419Y-63332782D01*
X154562419Y-63332782D02*
X154514800Y-63237544D01*
X154514800Y-63237544D02*
X154467180Y-63189925D01*
X154467180Y-63189925D02*
X154371942Y-63142306D01*
X154371942Y-63142306D02*
X154276704Y-63142306D01*
X154276704Y-63142306D02*
X154181466Y-63189925D01*
X154181466Y-63189925D02*
X154133847Y-63237544D01*
X154133847Y-63237544D02*
X154086228Y-63332782D01*
X154086228Y-63332782D02*
X154038609Y-63523258D01*
X154038609Y-63523258D02*
X153990990Y-63618496D01*
X153990990Y-63618496D02*
X153943371Y-63666115D01*
X153943371Y-63666115D02*
X153848133Y-63713734D01*
X153848133Y-63713734D02*
X153752895Y-63713734D01*
X153752895Y-63713734D02*
X153657657Y-63666115D01*
X153657657Y-63666115D02*
X153610038Y-63618496D01*
X153610038Y-63618496D02*
X153562419Y-63523258D01*
X153562419Y-63523258D02*
X153562419Y-63285163D01*
X153562419Y-63285163D02*
X153610038Y-63142306D01*
X154467180Y-62142306D02*
X154514800Y-62189925D01*
X154514800Y-62189925D02*
X154562419Y-62332782D01*
X154562419Y-62332782D02*
X154562419Y-62428020D01*
X154562419Y-62428020D02*
X154514800Y-62570877D01*
X154514800Y-62570877D02*
X154419561Y-62666115D01*
X154419561Y-62666115D02*
X154324323Y-62713734D01*
X154324323Y-62713734D02*
X154133847Y-62761353D01*
X154133847Y-62761353D02*
X153990990Y-62761353D01*
X153990990Y-62761353D02*
X153800514Y-62713734D01*
X153800514Y-62713734D02*
X153705276Y-62666115D01*
X153705276Y-62666115D02*
X153610038Y-62570877D01*
X153610038Y-62570877D02*
X153562419Y-62428020D01*
X153562419Y-62428020D02*
X153562419Y-62332782D01*
X153562419Y-62332782D02*
X153610038Y-62189925D01*
X153610038Y-62189925D02*
X153657657Y-62142306D01*
X154562419Y-61237544D02*
X154562419Y-61713734D01*
X154562419Y-61713734D02*
X153562419Y-61713734D01*
X153657657Y-60951829D02*
X153610038Y-60904210D01*
X153610038Y-60904210D02*
X153562419Y-60808972D01*
X153562419Y-60808972D02*
X153562419Y-60570877D01*
X153562419Y-60570877D02*
X153610038Y-60475639D01*
X153610038Y-60475639D02*
X153657657Y-60428020D01*
X153657657Y-60428020D02*
X153752895Y-60380401D01*
X153752895Y-60380401D02*
X153848133Y-60380401D01*
X153848133Y-60380401D02*
X153990990Y-60428020D01*
X153990990Y-60428020D02*
X154562419Y-60999448D01*
X154562419Y-60999448D02*
X154562419Y-60380401D01*
X115623884Y-57762419D02*
X115623884Y-58571942D01*
X115623884Y-58571942D02*
X115671503Y-58667180D01*
X115671503Y-58667180D02*
X115719122Y-58714800D01*
X115719122Y-58714800D02*
X115814360Y-58762419D01*
X115814360Y-58762419D02*
X116004836Y-58762419D01*
X116004836Y-58762419D02*
X116100074Y-58714800D01*
X116100074Y-58714800D02*
X116147693Y-58667180D01*
X116147693Y-58667180D02*
X116195312Y-58571942D01*
X116195312Y-58571942D02*
X116195312Y-57762419D01*
X116623884Y-58714800D02*
X116766741Y-58762419D01*
X116766741Y-58762419D02*
X117004836Y-58762419D01*
X117004836Y-58762419D02*
X117100074Y-58714800D01*
X117100074Y-58714800D02*
X117147693Y-58667180D01*
X117147693Y-58667180D02*
X117195312Y-58571942D01*
X117195312Y-58571942D02*
X117195312Y-58476704D01*
X117195312Y-58476704D02*
X117147693Y-58381466D01*
X117147693Y-58381466D02*
X117100074Y-58333847D01*
X117100074Y-58333847D02*
X117004836Y-58286228D01*
X117004836Y-58286228D02*
X116814360Y-58238609D01*
X116814360Y-58238609D02*
X116719122Y-58190990D01*
X116719122Y-58190990D02*
X116671503Y-58143371D01*
X116671503Y-58143371D02*
X116623884Y-58048133D01*
X116623884Y-58048133D02*
X116623884Y-57952895D01*
X116623884Y-57952895D02*
X116671503Y-57857657D01*
X116671503Y-57857657D02*
X116719122Y-57810038D01*
X116719122Y-57810038D02*
X116814360Y-57762419D01*
X116814360Y-57762419D02*
X117052455Y-57762419D01*
X117052455Y-57762419D02*
X117195312Y-57810038D01*
X117957217Y-58238609D02*
X118100074Y-58286228D01*
X118100074Y-58286228D02*
X118147693Y-58333847D01*
X118147693Y-58333847D02*
X118195312Y-58429085D01*
X118195312Y-58429085D02*
X118195312Y-58571942D01*
X118195312Y-58571942D02*
X118147693Y-58667180D01*
X118147693Y-58667180D02*
X118100074Y-58714800D01*
X118100074Y-58714800D02*
X118004836Y-58762419D01*
X118004836Y-58762419D02*
X117623884Y-58762419D01*
X117623884Y-58762419D02*
X117623884Y-57762419D01*
X117623884Y-57762419D02*
X117957217Y-57762419D01*
X117957217Y-57762419D02*
X118052455Y-57810038D01*
X118052455Y-57810038D02*
X118100074Y-57857657D01*
X118100074Y-57857657D02*
X118147693Y-57952895D01*
X118147693Y-57952895D02*
X118147693Y-58048133D01*
X118147693Y-58048133D02*
X118100074Y-58143371D01*
X118100074Y-58143371D02*
X118052455Y-58190990D01*
X118052455Y-58190990D02*
X117957217Y-58238609D01*
X117957217Y-58238609D02*
X117623884Y-58238609D01*
X119957217Y-58667180D02*
X119909598Y-58714800D01*
X119909598Y-58714800D02*
X119766741Y-58762419D01*
X119766741Y-58762419D02*
X119671503Y-58762419D01*
X119671503Y-58762419D02*
X119528646Y-58714800D01*
X119528646Y-58714800D02*
X119433408Y-58619561D01*
X119433408Y-58619561D02*
X119385789Y-58524323D01*
X119385789Y-58524323D02*
X119338170Y-58333847D01*
X119338170Y-58333847D02*
X119338170Y-58190990D01*
X119338170Y-58190990D02*
X119385789Y-58000514D01*
X119385789Y-58000514D02*
X119433408Y-57905276D01*
X119433408Y-57905276D02*
X119528646Y-57810038D01*
X119528646Y-57810038D02*
X119671503Y-57762419D01*
X119671503Y-57762419D02*
X119766741Y-57762419D01*
X119766741Y-57762419D02*
X119909598Y-57810038D01*
X119909598Y-57810038D02*
X119957217Y-57857657D01*
X159642419Y-63666115D02*
X158642419Y-63666115D01*
X158642419Y-63666115D02*
X159356704Y-63332782D01*
X159356704Y-63332782D02*
X158642419Y-62999449D01*
X158642419Y-62999449D02*
X159642419Y-62999449D01*
X158642419Y-62332782D02*
X158642419Y-62142306D01*
X158642419Y-62142306D02*
X158690038Y-62047068D01*
X158690038Y-62047068D02*
X158785276Y-61951830D01*
X158785276Y-61951830D02*
X158975752Y-61904211D01*
X158975752Y-61904211D02*
X159309085Y-61904211D01*
X159309085Y-61904211D02*
X159499561Y-61951830D01*
X159499561Y-61951830D02*
X159594800Y-62047068D01*
X159594800Y-62047068D02*
X159642419Y-62142306D01*
X159642419Y-62142306D02*
X159642419Y-62332782D01*
X159642419Y-62332782D02*
X159594800Y-62428020D01*
X159594800Y-62428020D02*
X159499561Y-62523258D01*
X159499561Y-62523258D02*
X159309085Y-62570877D01*
X159309085Y-62570877D02*
X158975752Y-62570877D01*
X158975752Y-62570877D02*
X158785276Y-62523258D01*
X158785276Y-62523258D02*
X158690038Y-62428020D01*
X158690038Y-62428020D02*
X158642419Y-62332782D01*
X159594800Y-61523258D02*
X159642419Y-61380401D01*
X159642419Y-61380401D02*
X159642419Y-61142306D01*
X159642419Y-61142306D02*
X159594800Y-61047068D01*
X159594800Y-61047068D02*
X159547180Y-60999449D01*
X159547180Y-60999449D02*
X159451942Y-60951830D01*
X159451942Y-60951830D02*
X159356704Y-60951830D01*
X159356704Y-60951830D02*
X159261466Y-60999449D01*
X159261466Y-60999449D02*
X159213847Y-61047068D01*
X159213847Y-61047068D02*
X159166228Y-61142306D01*
X159166228Y-61142306D02*
X159118609Y-61332782D01*
X159118609Y-61332782D02*
X159070990Y-61428020D01*
X159070990Y-61428020D02*
X159023371Y-61475639D01*
X159023371Y-61475639D02*
X158928133Y-61523258D01*
X158928133Y-61523258D02*
X158832895Y-61523258D01*
X158832895Y-61523258D02*
X158737657Y-61475639D01*
X158737657Y-61475639D02*
X158690038Y-61428020D01*
X158690038Y-61428020D02*
X158642419Y-61332782D01*
X158642419Y-61332782D02*
X158642419Y-61094687D01*
X158642419Y-61094687D02*
X158690038Y-60951830D01*
X159642419Y-60523258D02*
X158642419Y-60523258D01*
X159642419Y-59523259D02*
X159642419Y-60094687D01*
X159642419Y-59808973D02*
X158642419Y-59808973D01*
X158642419Y-59808973D02*
X158785276Y-59904211D01*
X158785276Y-59904211D02*
X158880514Y-59999449D01*
X158880514Y-59999449D02*
X158928133Y-60094687D01*
X149434800Y-54823734D02*
X149482419Y-54680877D01*
X149482419Y-54680877D02*
X149482419Y-54442782D01*
X149482419Y-54442782D02*
X149434800Y-54347544D01*
X149434800Y-54347544D02*
X149387180Y-54299925D01*
X149387180Y-54299925D02*
X149291942Y-54252306D01*
X149291942Y-54252306D02*
X149196704Y-54252306D01*
X149196704Y-54252306D02*
X149101466Y-54299925D01*
X149101466Y-54299925D02*
X149053847Y-54347544D01*
X149053847Y-54347544D02*
X149006228Y-54442782D01*
X149006228Y-54442782D02*
X148958609Y-54633258D01*
X148958609Y-54633258D02*
X148910990Y-54728496D01*
X148910990Y-54728496D02*
X148863371Y-54776115D01*
X148863371Y-54776115D02*
X148768133Y-54823734D01*
X148768133Y-54823734D02*
X148672895Y-54823734D01*
X148672895Y-54823734D02*
X148577657Y-54776115D01*
X148577657Y-54776115D02*
X148530038Y-54728496D01*
X148530038Y-54728496D02*
X148482419Y-54633258D01*
X148482419Y-54633258D02*
X148482419Y-54395163D01*
X148482419Y-54395163D02*
X148530038Y-54252306D01*
X149387180Y-53252306D02*
X149434800Y-53299925D01*
X149434800Y-53299925D02*
X149482419Y-53442782D01*
X149482419Y-53442782D02*
X149482419Y-53538020D01*
X149482419Y-53538020D02*
X149434800Y-53680877D01*
X149434800Y-53680877D02*
X149339561Y-53776115D01*
X149339561Y-53776115D02*
X149244323Y-53823734D01*
X149244323Y-53823734D02*
X149053847Y-53871353D01*
X149053847Y-53871353D02*
X148910990Y-53871353D01*
X148910990Y-53871353D02*
X148720514Y-53823734D01*
X148720514Y-53823734D02*
X148625276Y-53776115D01*
X148625276Y-53776115D02*
X148530038Y-53680877D01*
X148530038Y-53680877D02*
X148482419Y-53538020D01*
X148482419Y-53538020D02*
X148482419Y-53442782D01*
X148482419Y-53442782D02*
X148530038Y-53299925D01*
X148530038Y-53299925D02*
X148577657Y-53252306D01*
X149482419Y-52823734D02*
X148482419Y-52823734D01*
X149482419Y-52252306D02*
X148910990Y-52680877D01*
X148482419Y-52252306D02*
X149053847Y-52823734D01*
X166262419Y-63808972D02*
X166262419Y-63237544D01*
X167262419Y-63523258D02*
X166262419Y-63523258D01*
X166262419Y-62999448D02*
X167262419Y-62332782D01*
X166262419Y-62332782D02*
X167262419Y-62999448D01*
X166262419Y-62047067D02*
X166262419Y-61380401D01*
X166262419Y-61380401D02*
X167262419Y-61808972D01*
X141576704Y-54823734D02*
X141576704Y-54347544D01*
X141862419Y-54918972D02*
X140862419Y-54585639D01*
X140862419Y-54585639D02*
X141862419Y-54252306D01*
X140957657Y-53966591D02*
X140910038Y-53918972D01*
X140910038Y-53918972D02*
X140862419Y-53823734D01*
X140862419Y-53823734D02*
X140862419Y-53585639D01*
X140862419Y-53585639D02*
X140910038Y-53490401D01*
X140910038Y-53490401D02*
X140957657Y-53442782D01*
X140957657Y-53442782D02*
X141052895Y-53395163D01*
X141052895Y-53395163D02*
X141148133Y-53395163D01*
X141148133Y-53395163D02*
X141290990Y-53442782D01*
X141290990Y-53442782D02*
X141862419Y-54014210D01*
X141862419Y-54014210D02*
X141862419Y-53395163D01*
X144307180Y-63094687D02*
X144354800Y-63142306D01*
X144354800Y-63142306D02*
X144402419Y-63285163D01*
X144402419Y-63285163D02*
X144402419Y-63380401D01*
X144402419Y-63380401D02*
X144354800Y-63523258D01*
X144354800Y-63523258D02*
X144259561Y-63618496D01*
X144259561Y-63618496D02*
X144164323Y-63666115D01*
X144164323Y-63666115D02*
X143973847Y-63713734D01*
X143973847Y-63713734D02*
X143830990Y-63713734D01*
X143830990Y-63713734D02*
X143640514Y-63666115D01*
X143640514Y-63666115D02*
X143545276Y-63618496D01*
X143545276Y-63618496D02*
X143450038Y-63523258D01*
X143450038Y-63523258D02*
X143402419Y-63380401D01*
X143402419Y-63380401D02*
X143402419Y-63285163D01*
X143402419Y-63285163D02*
X143450038Y-63142306D01*
X143450038Y-63142306D02*
X143497657Y-63094687D01*
X144354800Y-62713734D02*
X144402419Y-62570877D01*
X144402419Y-62570877D02*
X144402419Y-62332782D01*
X144402419Y-62332782D02*
X144354800Y-62237544D01*
X144354800Y-62237544D02*
X144307180Y-62189925D01*
X144307180Y-62189925D02*
X144211942Y-62142306D01*
X144211942Y-62142306D02*
X144116704Y-62142306D01*
X144116704Y-62142306D02*
X144021466Y-62189925D01*
X144021466Y-62189925D02*
X143973847Y-62237544D01*
X143973847Y-62237544D02*
X143926228Y-62332782D01*
X143926228Y-62332782D02*
X143878609Y-62523258D01*
X143878609Y-62523258D02*
X143830990Y-62618496D01*
X143830990Y-62618496D02*
X143783371Y-62666115D01*
X143783371Y-62666115D02*
X143688133Y-62713734D01*
X143688133Y-62713734D02*
X143592895Y-62713734D01*
X143592895Y-62713734D02*
X143497657Y-62666115D01*
X143497657Y-62666115D02*
X143450038Y-62618496D01*
X143450038Y-62618496D02*
X143402419Y-62523258D01*
X143402419Y-62523258D02*
X143402419Y-62285163D01*
X143402419Y-62285163D02*
X143450038Y-62142306D01*
X124082419Y-63666115D02*
X123082419Y-63666115D01*
X123082419Y-63666115D02*
X123082419Y-63285163D01*
X123082419Y-63285163D02*
X123130038Y-63189925D01*
X123130038Y-63189925D02*
X123177657Y-63142306D01*
X123177657Y-63142306D02*
X123272895Y-63094687D01*
X123272895Y-63094687D02*
X123415752Y-63094687D01*
X123415752Y-63094687D02*
X123510990Y-63142306D01*
X123510990Y-63142306D02*
X123558609Y-63189925D01*
X123558609Y-63189925D02*
X123606228Y-63285163D01*
X123606228Y-63285163D02*
X123606228Y-63666115D01*
X123082419Y-62761353D02*
X124082419Y-62523258D01*
X124082419Y-62523258D02*
X123368133Y-62332782D01*
X123368133Y-62332782D02*
X124082419Y-62142306D01*
X124082419Y-62142306D02*
X123082419Y-61904211D01*
X124082419Y-61523258D02*
X123082419Y-61523258D01*
X123082419Y-61523258D02*
X123796704Y-61189925D01*
X123796704Y-61189925D02*
X123082419Y-60856592D01*
X123082419Y-60856592D02*
X124082419Y-60856592D01*
X126622419Y-54776115D02*
X125622419Y-54776115D01*
X125622419Y-54776115D02*
X125622419Y-54395163D01*
X125622419Y-54395163D02*
X125670038Y-54299925D01*
X125670038Y-54299925D02*
X125717657Y-54252306D01*
X125717657Y-54252306D02*
X125812895Y-54204687D01*
X125812895Y-54204687D02*
X125955752Y-54204687D01*
X125955752Y-54204687D02*
X126050990Y-54252306D01*
X126050990Y-54252306D02*
X126098609Y-54299925D01*
X126098609Y-54299925D02*
X126146228Y-54395163D01*
X126146228Y-54395163D02*
X126146228Y-54776115D01*
X125622419Y-53871353D02*
X126622419Y-53633258D01*
X126622419Y-53633258D02*
X125908133Y-53442782D01*
X125908133Y-53442782D02*
X126622419Y-53252306D01*
X126622419Y-53252306D02*
X125622419Y-53014211D01*
X126622419Y-52633258D02*
X125622419Y-52633258D01*
X125622419Y-52633258D02*
X126336704Y-52299925D01*
X126336704Y-52299925D02*
X125622419Y-51966592D01*
X125622419Y-51966592D02*
X126622419Y-51966592D01*
X134242419Y-63666115D02*
X133242419Y-63666115D01*
X133242419Y-63666115D02*
X133242419Y-63285163D01*
X133242419Y-63285163D02*
X133290038Y-63189925D01*
X133290038Y-63189925D02*
X133337657Y-63142306D01*
X133337657Y-63142306D02*
X133432895Y-63094687D01*
X133432895Y-63094687D02*
X133575752Y-63094687D01*
X133575752Y-63094687D02*
X133670990Y-63142306D01*
X133670990Y-63142306D02*
X133718609Y-63189925D01*
X133718609Y-63189925D02*
X133766228Y-63285163D01*
X133766228Y-63285163D02*
X133766228Y-63666115D01*
X133242419Y-62761353D02*
X134242419Y-62523258D01*
X134242419Y-62523258D02*
X133528133Y-62332782D01*
X133528133Y-62332782D02*
X134242419Y-62142306D01*
X134242419Y-62142306D02*
X133242419Y-61904211D01*
X134242419Y-61523258D02*
X133242419Y-61523258D01*
X133242419Y-61523258D02*
X133956704Y-61189925D01*
X133956704Y-61189925D02*
X133242419Y-60856592D01*
X133242419Y-60856592D02*
X134242419Y-60856592D01*
X156816704Y-54823734D02*
X156816704Y-54347544D01*
X157102419Y-54918972D02*
X156102419Y-54585639D01*
X156102419Y-54585639D02*
X157102419Y-54252306D01*
X157102419Y-53395163D02*
X157102419Y-53966591D01*
X157102419Y-53680877D02*
X156102419Y-53680877D01*
X156102419Y-53680877D02*
X156245276Y-53776115D01*
X156245276Y-53776115D02*
X156340514Y-53871353D01*
X156340514Y-53871353D02*
X156388133Y-53966591D01*
X156102419Y-52538020D02*
X156102419Y-52728496D01*
X156102419Y-52728496D02*
X156150038Y-52823734D01*
X156150038Y-52823734D02*
X156197657Y-52871353D01*
X156197657Y-52871353D02*
X156340514Y-52966591D01*
X156340514Y-52966591D02*
X156530990Y-53014210D01*
X156530990Y-53014210D02*
X156911942Y-53014210D01*
X156911942Y-53014210D02*
X157007180Y-52966591D01*
X157007180Y-52966591D02*
X157054800Y-52918972D01*
X157054800Y-52918972D02*
X157102419Y-52823734D01*
X157102419Y-52823734D02*
X157102419Y-52633258D01*
X157102419Y-52633258D02*
X157054800Y-52538020D01*
X157054800Y-52538020D02*
X157007180Y-52490401D01*
X157007180Y-52490401D02*
X156911942Y-52442782D01*
X156911942Y-52442782D02*
X156673847Y-52442782D01*
X156673847Y-52442782D02*
X156578609Y-52490401D01*
X156578609Y-52490401D02*
X156530990Y-52538020D01*
X156530990Y-52538020D02*
X156483371Y-52633258D01*
X156483371Y-52633258D02*
X156483371Y-52823734D01*
X156483371Y-52823734D02*
X156530990Y-52918972D01*
X156530990Y-52918972D02*
X156578609Y-52966591D01*
X156578609Y-52966591D02*
X156673847Y-53014210D01*
D10*
X136684819Y-48349524D02*
X137684819Y-48016191D01*
X137684819Y-48016191D02*
X136684819Y-47682858D01*
X137684819Y-47206667D02*
X137637200Y-47301905D01*
X137637200Y-47301905D02*
X137589580Y-47349524D01*
X137589580Y-47349524D02*
X137494342Y-47397143D01*
X137494342Y-47397143D02*
X137208628Y-47397143D01*
X137208628Y-47397143D02*
X137113390Y-47349524D01*
X137113390Y-47349524D02*
X137065771Y-47301905D01*
X137065771Y-47301905D02*
X137018152Y-47206667D01*
X137018152Y-47206667D02*
X137018152Y-47063810D01*
X137018152Y-47063810D02*
X137065771Y-46968572D01*
X137065771Y-46968572D02*
X137113390Y-46920953D01*
X137113390Y-46920953D02*
X137208628Y-46873334D01*
X137208628Y-46873334D02*
X137494342Y-46873334D01*
X137494342Y-46873334D02*
X137589580Y-46920953D01*
X137589580Y-46920953D02*
X137637200Y-46968572D01*
X137637200Y-46968572D02*
X137684819Y-47063810D01*
X137684819Y-47063810D02*
X137684819Y-47206667D01*
X137684819Y-46301905D02*
X137637200Y-46397143D01*
X137637200Y-46397143D02*
X137541961Y-46444762D01*
X137541961Y-46444762D02*
X136684819Y-46444762D01*
X137018152Y-46063809D02*
X137018152Y-45682857D01*
X136684819Y-45920952D02*
X137541961Y-45920952D01*
X137541961Y-45920952D02*
X137637200Y-45873333D01*
X137637200Y-45873333D02*
X137684819Y-45778095D01*
X137684819Y-45778095D02*
X137684819Y-45682857D01*
X137684819Y-44778095D02*
X137208628Y-45111428D01*
X137684819Y-45349523D02*
X136684819Y-45349523D01*
X136684819Y-45349523D02*
X136684819Y-44968571D01*
X136684819Y-44968571D02*
X136732438Y-44873333D01*
X136732438Y-44873333D02*
X136780057Y-44825714D01*
X136780057Y-44825714D02*
X136875295Y-44778095D01*
X136875295Y-44778095D02*
X137018152Y-44778095D01*
X137018152Y-44778095D02*
X137113390Y-44825714D01*
X137113390Y-44825714D02*
X137161009Y-44873333D01*
X137161009Y-44873333D02*
X137208628Y-44968571D01*
X137208628Y-44968571D02*
X137208628Y-45349523D01*
X137637200Y-43968571D02*
X137684819Y-44063809D01*
X137684819Y-44063809D02*
X137684819Y-44254285D01*
X137684819Y-44254285D02*
X137637200Y-44349523D01*
X137637200Y-44349523D02*
X137541961Y-44397142D01*
X137541961Y-44397142D02*
X137161009Y-44397142D01*
X137161009Y-44397142D02*
X137065771Y-44349523D01*
X137065771Y-44349523D02*
X137018152Y-44254285D01*
X137018152Y-44254285D02*
X137018152Y-44063809D01*
X137018152Y-44063809D02*
X137065771Y-43968571D01*
X137065771Y-43968571D02*
X137161009Y-43920952D01*
X137161009Y-43920952D02*
X137256247Y-43920952D01*
X137256247Y-43920952D02*
X137351485Y-44397142D01*
X137018152Y-43063809D02*
X137827676Y-43063809D01*
X137827676Y-43063809D02*
X137922914Y-43111428D01*
X137922914Y-43111428D02*
X137970533Y-43159047D01*
X137970533Y-43159047D02*
X138018152Y-43254285D01*
X138018152Y-43254285D02*
X138018152Y-43397142D01*
X138018152Y-43397142D02*
X137970533Y-43492380D01*
X137637200Y-43063809D02*
X137684819Y-43159047D01*
X137684819Y-43159047D02*
X137684819Y-43349523D01*
X137684819Y-43349523D02*
X137637200Y-43444761D01*
X137637200Y-43444761D02*
X137589580Y-43492380D01*
X137589580Y-43492380D02*
X137494342Y-43539999D01*
X137494342Y-43539999D02*
X137208628Y-43539999D01*
X137208628Y-43539999D02*
X137113390Y-43492380D01*
X137113390Y-43492380D02*
X137065771Y-43444761D01*
X137065771Y-43444761D02*
X137018152Y-43349523D01*
X137018152Y-43349523D02*
X137018152Y-43159047D01*
X137018152Y-43159047D02*
X137065771Y-43063809D01*
X137018152Y-42159047D02*
X137684819Y-42159047D01*
X137018152Y-42587618D02*
X137541961Y-42587618D01*
X137541961Y-42587618D02*
X137637200Y-42539999D01*
X137637200Y-42539999D02*
X137684819Y-42444761D01*
X137684819Y-42444761D02*
X137684819Y-42301904D01*
X137684819Y-42301904D02*
X137637200Y-42206666D01*
X137637200Y-42206666D02*
X137589580Y-42159047D01*
X137684819Y-41539999D02*
X137637200Y-41635237D01*
X137637200Y-41635237D02*
X137541961Y-41682856D01*
X137541961Y-41682856D02*
X136684819Y-41682856D01*
X137684819Y-40730475D02*
X137161009Y-40730475D01*
X137161009Y-40730475D02*
X137065771Y-40778094D01*
X137065771Y-40778094D02*
X137018152Y-40873332D01*
X137018152Y-40873332D02*
X137018152Y-41063808D01*
X137018152Y-41063808D02*
X137065771Y-41159046D01*
X137637200Y-40730475D02*
X137684819Y-40825713D01*
X137684819Y-40825713D02*
X137684819Y-41063808D01*
X137684819Y-41063808D02*
X137637200Y-41159046D01*
X137637200Y-41159046D02*
X137541961Y-41206665D01*
X137541961Y-41206665D02*
X137446723Y-41206665D01*
X137446723Y-41206665D02*
X137351485Y-41159046D01*
X137351485Y-41159046D02*
X137303866Y-41063808D01*
X137303866Y-41063808D02*
X137303866Y-40825713D01*
X137303866Y-40825713D02*
X137256247Y-40730475D01*
X137018152Y-40397141D02*
X137018152Y-40016189D01*
X136684819Y-40254284D02*
X137541961Y-40254284D01*
X137541961Y-40254284D02*
X137637200Y-40206665D01*
X137637200Y-40206665D02*
X137684819Y-40111427D01*
X137684819Y-40111427D02*
X137684819Y-40016189D01*
X137684819Y-39539998D02*
X137637200Y-39635236D01*
X137637200Y-39635236D02*
X137589580Y-39682855D01*
X137589580Y-39682855D02*
X137494342Y-39730474D01*
X137494342Y-39730474D02*
X137208628Y-39730474D01*
X137208628Y-39730474D02*
X137113390Y-39682855D01*
X137113390Y-39682855D02*
X137065771Y-39635236D01*
X137065771Y-39635236D02*
X137018152Y-39539998D01*
X137018152Y-39539998D02*
X137018152Y-39397141D01*
X137018152Y-39397141D02*
X137065771Y-39301903D01*
X137065771Y-39301903D02*
X137113390Y-39254284D01*
X137113390Y-39254284D02*
X137208628Y-39206665D01*
X137208628Y-39206665D02*
X137494342Y-39206665D01*
X137494342Y-39206665D02*
X137589580Y-39254284D01*
X137589580Y-39254284D02*
X137637200Y-39301903D01*
X137637200Y-39301903D02*
X137684819Y-39397141D01*
X137684819Y-39397141D02*
X137684819Y-39539998D01*
X137684819Y-38778093D02*
X137018152Y-38778093D01*
X137208628Y-38778093D02*
X137113390Y-38730474D01*
X137113390Y-38730474D02*
X137065771Y-38682855D01*
X137065771Y-38682855D02*
X137018152Y-38587617D01*
X137018152Y-38587617D02*
X137018152Y-38492379D01*
X136684819Y-37682855D02*
X136684819Y-38159045D01*
X136684819Y-38159045D02*
X137161009Y-38206664D01*
X137161009Y-38206664D02*
X137113390Y-38159045D01*
X137113390Y-38159045D02*
X137065771Y-38063807D01*
X137065771Y-38063807D02*
X137065771Y-37825712D01*
X137065771Y-37825712D02*
X137113390Y-37730474D01*
X137113390Y-37730474D02*
X137161009Y-37682855D01*
X137161009Y-37682855D02*
X137256247Y-37635236D01*
X137256247Y-37635236D02*
X137494342Y-37635236D01*
X137494342Y-37635236D02*
X137589580Y-37682855D01*
X137589580Y-37682855D02*
X137637200Y-37730474D01*
X137637200Y-37730474D02*
X137684819Y-37825712D01*
X137684819Y-37825712D02*
X137684819Y-38063807D01*
X137684819Y-38063807D02*
X137637200Y-38159045D01*
X137637200Y-38159045D02*
X137589580Y-38206664D01*
X136684819Y-37349521D02*
X137684819Y-37016188D01*
X137684819Y-37016188D02*
X136684819Y-36682855D01*
X137684819Y-35825712D02*
X137684819Y-36397140D01*
X137684819Y-36111426D02*
X136684819Y-36111426D01*
X136684819Y-36111426D02*
X136827676Y-36206664D01*
X136827676Y-36206664D02*
X136922914Y-36301902D01*
X136922914Y-36301902D02*
X136970533Y-36397140D01*
X167416666Y-65904819D02*
X167416666Y-66619104D01*
X167416666Y-66619104D02*
X167369047Y-66761961D01*
X167369047Y-66761961D02*
X167273809Y-66857200D01*
X167273809Y-66857200D02*
X167130952Y-66904819D01*
X167130952Y-66904819D02*
X167035714Y-66904819D01*
X168416666Y-66904819D02*
X167845238Y-66904819D01*
X168130952Y-66904819D02*
X168130952Y-65904819D01*
X168130952Y-65904819D02*
X168035714Y-66047676D01*
X168035714Y-66047676D02*
X167940476Y-66142914D01*
X167940476Y-66142914D02*
X167845238Y-66190533D01*
X113504819Y-54059523D02*
X114219104Y-54059523D01*
X114219104Y-54059523D02*
X114361961Y-54107142D01*
X114361961Y-54107142D02*
X114457200Y-54202380D01*
X114457200Y-54202380D02*
X114504819Y-54345237D01*
X114504819Y-54345237D02*
X114504819Y-54440475D01*
X114504819Y-53059523D02*
X114504819Y-53630951D01*
X114504819Y-53345237D02*
X113504819Y-53345237D01*
X113504819Y-53345237D02*
X113647676Y-53440475D01*
X113647676Y-53440475D02*
X113742914Y-53535713D01*
X113742914Y-53535713D02*
X113790533Y-53630951D01*
X113504819Y-52726189D02*
X113504819Y-52107142D01*
X113504819Y-52107142D02*
X113885771Y-52440475D01*
X113885771Y-52440475D02*
X113885771Y-52297618D01*
X113885771Y-52297618D02*
X113933390Y-52202380D01*
X113933390Y-52202380D02*
X113981009Y-52154761D01*
X113981009Y-52154761D02*
X114076247Y-52107142D01*
X114076247Y-52107142D02*
X114314342Y-52107142D01*
X114314342Y-52107142D02*
X114409580Y-52154761D01*
X114409580Y-52154761D02*
X114457200Y-52202380D01*
X114457200Y-52202380D02*
X114504819Y-52297618D01*
X114504819Y-52297618D02*
X114504819Y-52583332D01*
X114504819Y-52583332D02*
X114457200Y-52678570D01*
X114457200Y-52678570D02*
X114409580Y-52726189D01*
X152166666Y-74004819D02*
X152166666Y-74719104D01*
X152166666Y-74719104D02*
X152119047Y-74861961D01*
X152119047Y-74861961D02*
X152023809Y-74957200D01*
X152023809Y-74957200D02*
X151880952Y-75004819D01*
X151880952Y-75004819D02*
X151785714Y-75004819D01*
X152547619Y-74004819D02*
X153166666Y-74004819D01*
X153166666Y-74004819D02*
X152833333Y-74385771D01*
X152833333Y-74385771D02*
X152976190Y-74385771D01*
X152976190Y-74385771D02*
X153071428Y-74433390D01*
X153071428Y-74433390D02*
X153119047Y-74481009D01*
X153119047Y-74481009D02*
X153166666Y-74576247D01*
X153166666Y-74576247D02*
X153166666Y-74814342D01*
X153166666Y-74814342D02*
X153119047Y-74909580D01*
X153119047Y-74909580D02*
X153071428Y-74957200D01*
X153071428Y-74957200D02*
X152976190Y-75004819D01*
X152976190Y-75004819D02*
X152690476Y-75004819D01*
X152690476Y-75004819D02*
X152595238Y-74957200D01*
X152595238Y-74957200D02*
X152547619Y-74909580D01*
X115234519Y-42738094D02*
X114234519Y-42738094D01*
X115234519Y-42166666D02*
X114663090Y-42595237D01*
X114234519Y-42166666D02*
X114805947Y-42738094D01*
X114329757Y-41785713D02*
X114282138Y-41738094D01*
X114282138Y-41738094D02*
X114234519Y-41642856D01*
X114234519Y-41642856D02*
X114234519Y-41404761D01*
X114234519Y-41404761D02*
X114282138Y-41309523D01*
X114282138Y-41309523D02*
X114329757Y-41261904D01*
X114329757Y-41261904D02*
X114424995Y-41214285D01*
X114424995Y-41214285D02*
X114520233Y-41214285D01*
X114520233Y-41214285D02*
X114663090Y-41261904D01*
X114663090Y-41261904D02*
X115234519Y-41833332D01*
X115234519Y-41833332D02*
X115234519Y-41214285D01*
X117353566Y-48222951D02*
X117353566Y-47461047D01*
X117734519Y-47841999D02*
X116972614Y-47841999D01*
X173238095Y-34254819D02*
X173238095Y-33254819D01*
X173238095Y-33731009D02*
X173809523Y-33731009D01*
X173809523Y-34254819D02*
X173809523Y-33254819D01*
X174190476Y-33254819D02*
X174809523Y-33254819D01*
X174809523Y-33254819D02*
X174476190Y-33635771D01*
X174476190Y-33635771D02*
X174619047Y-33635771D01*
X174619047Y-33635771D02*
X174714285Y-33683390D01*
X174714285Y-33683390D02*
X174761904Y-33731009D01*
X174761904Y-33731009D02*
X174809523Y-33826247D01*
X174809523Y-33826247D02*
X174809523Y-34064342D01*
X174809523Y-34064342D02*
X174761904Y-34159580D01*
X174761904Y-34159580D02*
X174714285Y-34207200D01*
X174714285Y-34207200D02*
X174619047Y-34254819D01*
X174619047Y-34254819D02*
X174333333Y-34254819D01*
X174333333Y-34254819D02*
X174238095Y-34207200D01*
X174238095Y-34207200D02*
X174190476Y-34159580D01*
X108238095Y-34254819D02*
X108238095Y-33254819D01*
X108238095Y-33731009D02*
X108809523Y-33731009D01*
X108809523Y-34254819D02*
X108809523Y-33254819D01*
X109714285Y-33588152D02*
X109714285Y-34254819D01*
X109476190Y-33207200D02*
X109238095Y-33921485D01*
X109238095Y-33921485D02*
X109857142Y-33921485D01*
X108238095Y-73754819D02*
X108238095Y-72754819D01*
X108238095Y-73231009D02*
X108809523Y-73231009D01*
X108809523Y-73754819D02*
X108809523Y-72754819D01*
X109809523Y-73754819D02*
X109238095Y-73754819D01*
X109523809Y-73754819D02*
X109523809Y-72754819D01*
X109523809Y-72754819D02*
X109428571Y-72897676D01*
X109428571Y-72897676D02*
X109333333Y-72992914D01*
X109333333Y-72992914D02*
X109238095Y-73040533D01*
X173238095Y-73754819D02*
X173238095Y-72754819D01*
X173238095Y-73231009D02*
X173809523Y-73231009D01*
X173809523Y-73754819D02*
X173809523Y-72754819D01*
X174238095Y-72850057D02*
X174285714Y-72802438D01*
X174285714Y-72802438D02*
X174380952Y-72754819D01*
X174380952Y-72754819D02*
X174619047Y-72754819D01*
X174619047Y-72754819D02*
X174714285Y-72802438D01*
X174714285Y-72802438D02*
X174761904Y-72850057D01*
X174761904Y-72850057D02*
X174809523Y-72945295D01*
X174809523Y-72945295D02*
X174809523Y-73040533D01*
X174809523Y-73040533D02*
X174761904Y-73183390D01*
X174761904Y-73183390D02*
X174190476Y-73754819D01*
X174190476Y-73754819D02*
X174809523Y-73754819D01*
X138666666Y-74004819D02*
X138666666Y-74719104D01*
X138666666Y-74719104D02*
X138619047Y-74861961D01*
X138619047Y-74861961D02*
X138523809Y-74957200D01*
X138523809Y-74957200D02*
X138380952Y-75004819D01*
X138380952Y-75004819D02*
X138285714Y-75004819D01*
X139285714Y-74433390D02*
X139190476Y-74385771D01*
X139190476Y-74385771D02*
X139142857Y-74338152D01*
X139142857Y-74338152D02*
X139095238Y-74242914D01*
X139095238Y-74242914D02*
X139095238Y-74195295D01*
X139095238Y-74195295D02*
X139142857Y-74100057D01*
X139142857Y-74100057D02*
X139190476Y-74052438D01*
X139190476Y-74052438D02*
X139285714Y-74004819D01*
X139285714Y-74004819D02*
X139476190Y-74004819D01*
X139476190Y-74004819D02*
X139571428Y-74052438D01*
X139571428Y-74052438D02*
X139619047Y-74100057D01*
X139619047Y-74100057D02*
X139666666Y-74195295D01*
X139666666Y-74195295D02*
X139666666Y-74242914D01*
X139666666Y-74242914D02*
X139619047Y-74338152D01*
X139619047Y-74338152D02*
X139571428Y-74385771D01*
X139571428Y-74385771D02*
X139476190Y-74433390D01*
X139476190Y-74433390D02*
X139285714Y-74433390D01*
X139285714Y-74433390D02*
X139190476Y-74481009D01*
X139190476Y-74481009D02*
X139142857Y-74528628D01*
X139142857Y-74528628D02*
X139095238Y-74623866D01*
X139095238Y-74623866D02*
X139095238Y-74814342D01*
X139095238Y-74814342D02*
X139142857Y-74909580D01*
X139142857Y-74909580D02*
X139190476Y-74957200D01*
X139190476Y-74957200D02*
X139285714Y-75004819D01*
X139285714Y-75004819D02*
X139476190Y-75004819D01*
X139476190Y-75004819D02*
X139571428Y-74957200D01*
X139571428Y-74957200D02*
X139619047Y-74909580D01*
X139619047Y-74909580D02*
X139666666Y-74814342D01*
X139666666Y-74814342D02*
X139666666Y-74623866D01*
X139666666Y-74623866D02*
X139619047Y-74528628D01*
X139619047Y-74528628D02*
X139571428Y-74481009D01*
X139571428Y-74481009D02*
X139476190Y-74433390D01*
X114416666Y-65904819D02*
X114416666Y-66619104D01*
X114416666Y-66619104D02*
X114369047Y-66761961D01*
X114369047Y-66761961D02*
X114273809Y-66857200D01*
X114273809Y-66857200D02*
X114130952Y-66904819D01*
X114130952Y-66904819D02*
X114035714Y-66904819D01*
X114845238Y-66000057D02*
X114892857Y-65952438D01*
X114892857Y-65952438D02*
X114988095Y-65904819D01*
X114988095Y-65904819D02*
X115226190Y-65904819D01*
X115226190Y-65904819D02*
X115321428Y-65952438D01*
X115321428Y-65952438D02*
X115369047Y-66000057D01*
X115369047Y-66000057D02*
X115416666Y-66095295D01*
X115416666Y-66095295D02*
X115416666Y-66190533D01*
X115416666Y-66190533D02*
X115369047Y-66333390D01*
X115369047Y-66333390D02*
X114797619Y-66904819D01*
X114797619Y-66904819D02*
X115416666Y-66904819D01*
X147666666Y-74954819D02*
X147666666Y-75669104D01*
X147666666Y-75669104D02*
X147619047Y-75811961D01*
X147619047Y-75811961D02*
X147523809Y-75907200D01*
X147523809Y-75907200D02*
X147380952Y-75954819D01*
X147380952Y-75954819D02*
X147285714Y-75954819D01*
X148571428Y-74954819D02*
X148380952Y-74954819D01*
X148380952Y-74954819D02*
X148285714Y-75002438D01*
X148285714Y-75002438D02*
X148238095Y-75050057D01*
X148238095Y-75050057D02*
X148142857Y-75192914D01*
X148142857Y-75192914D02*
X148095238Y-75383390D01*
X148095238Y-75383390D02*
X148095238Y-75764342D01*
X148095238Y-75764342D02*
X148142857Y-75859580D01*
X148142857Y-75859580D02*
X148190476Y-75907200D01*
X148190476Y-75907200D02*
X148285714Y-75954819D01*
X148285714Y-75954819D02*
X148476190Y-75954819D01*
X148476190Y-75954819D02*
X148571428Y-75907200D01*
X148571428Y-75907200D02*
X148619047Y-75859580D01*
X148619047Y-75859580D02*
X148666666Y-75764342D01*
X148666666Y-75764342D02*
X148666666Y-75526247D01*
X148666666Y-75526247D02*
X148619047Y-75431009D01*
X148619047Y-75431009D02*
X148571428Y-75383390D01*
X148571428Y-75383390D02*
X148476190Y-75335771D01*
X148476190Y-75335771D02*
X148285714Y-75335771D01*
X148285714Y-75335771D02*
X148190476Y-75383390D01*
X148190476Y-75383390D02*
X148142857Y-75431009D01*
X148142857Y-75431009D02*
X148095238Y-75526247D01*
X127166666Y-74004819D02*
X127166666Y-74719104D01*
X127166666Y-74719104D02*
X127119047Y-74861961D01*
X127119047Y-74861961D02*
X127023809Y-74957200D01*
X127023809Y-74957200D02*
X126880952Y-75004819D01*
X126880952Y-75004819D02*
X126785714Y-75004819D01*
X127547619Y-74004819D02*
X128214285Y-74004819D01*
X128214285Y-74004819D02*
X127785714Y-75004819D01*
X151666666Y-75454819D02*
X151666666Y-76169104D01*
X151666666Y-76169104D02*
X151619047Y-76311961D01*
X151619047Y-76311961D02*
X151523809Y-76407200D01*
X151523809Y-76407200D02*
X151380952Y-76454819D01*
X151380952Y-76454819D02*
X151285714Y-76454819D01*
X152619047Y-75454819D02*
X152142857Y-75454819D01*
X152142857Y-75454819D02*
X152095238Y-75931009D01*
X152095238Y-75931009D02*
X152142857Y-75883390D01*
X152142857Y-75883390D02*
X152238095Y-75835771D01*
X152238095Y-75835771D02*
X152476190Y-75835771D01*
X152476190Y-75835771D02*
X152571428Y-75883390D01*
X152571428Y-75883390D02*
X152619047Y-75931009D01*
X152619047Y-75931009D02*
X152666666Y-76026247D01*
X152666666Y-76026247D02*
X152666666Y-76264342D01*
X152666666Y-76264342D02*
X152619047Y-76359580D01*
X152619047Y-76359580D02*
X152571428Y-76407200D01*
X152571428Y-76407200D02*
X152476190Y-76454819D01*
X152476190Y-76454819D02*
X152238095Y-76454819D01*
X152238095Y-76454819D02*
X152142857Y-76407200D01*
X152142857Y-76407200D02*
X152095238Y-76359580D01*
X157231009Y-42880952D02*
X157278628Y-42738095D01*
X157278628Y-42738095D02*
X157326247Y-42690476D01*
X157326247Y-42690476D02*
X157421485Y-42642857D01*
X157421485Y-42642857D02*
X157564342Y-42642857D01*
X157564342Y-42642857D02*
X157659580Y-42690476D01*
X157659580Y-42690476D02*
X157707200Y-42738095D01*
X157707200Y-42738095D02*
X157754819Y-42833333D01*
X157754819Y-42833333D02*
X157754819Y-43214285D01*
X157754819Y-43214285D02*
X156754819Y-43214285D01*
X156754819Y-43214285D02*
X156754819Y-42880952D01*
X156754819Y-42880952D02*
X156802438Y-42785714D01*
X156802438Y-42785714D02*
X156850057Y-42738095D01*
X156850057Y-42738095D02*
X156945295Y-42690476D01*
X156945295Y-42690476D02*
X157040533Y-42690476D01*
X157040533Y-42690476D02*
X157135771Y-42738095D01*
X157135771Y-42738095D02*
X157183390Y-42785714D01*
X157183390Y-42785714D02*
X157231009Y-42880952D01*
X157231009Y-42880952D02*
X157231009Y-43214285D01*
X156754819Y-42309523D02*
X156754819Y-41642857D01*
X156754819Y-41642857D02*
X157754819Y-42309523D01*
X157754819Y-42309523D02*
X157754819Y-41642857D01*
X157754819Y-40738095D02*
X157754819Y-41309523D01*
X157754819Y-41023809D02*
X156754819Y-41023809D01*
X156754819Y-41023809D02*
X156897676Y-41119047D01*
X156897676Y-41119047D02*
X156992914Y-41214285D01*
X156992914Y-41214285D02*
X157040533Y-41309523D01*
X162033866Y-46190951D02*
X162033866Y-45429047D01*
X162414819Y-45809999D02*
X161652914Y-45809999D01*
D12*
%TO.C,J4*%
X117650000Y-74250000D02*
X117650000Y-75500000D01*
X117940000Y-74540000D02*
X117940000Y-80510000D01*
X117940000Y-80510000D02*
X130560000Y-80510000D01*
X117950000Y-74550000D02*
X117950000Y-75300000D01*
X117950000Y-75300000D02*
X119750000Y-75300000D01*
X117950000Y-76800000D02*
X118700000Y-76800000D01*
X118700000Y-76800000D02*
X118700000Y-79750000D01*
X118700000Y-79750000D02*
X124250000Y-79750000D01*
X118900000Y-74250000D02*
X117650000Y-74250000D01*
X119750000Y-74550000D02*
X117950000Y-74550000D01*
X119750000Y-75300000D02*
X119750000Y-74550000D01*
X121250000Y-74550000D02*
X121250000Y-75300000D01*
X121250000Y-75300000D02*
X127250000Y-75300000D01*
X127250000Y-74550000D02*
X121250000Y-74550000D01*
X127250000Y-75300000D02*
X127250000Y-74550000D01*
X128750000Y-74550000D02*
X128750000Y-75300000D01*
X128750000Y-75300000D02*
X130550000Y-75300000D01*
X129800000Y-76800000D02*
X129800000Y-79750000D01*
X129800000Y-79750000D02*
X124250000Y-79750000D01*
X130550000Y-74550000D02*
X128750000Y-74550000D01*
X130550000Y-75300000D02*
X130550000Y-74550000D01*
X130550000Y-76800000D02*
X129800000Y-76800000D01*
X130560000Y-74540000D02*
X117940000Y-74540000D01*
X130560000Y-80510000D02*
X130560000Y-74540000D01*
%TO.C,J11*%
X144250000Y-45100000D02*
X144250000Y-46350000D01*
X144250000Y-46350000D02*
X145500000Y-46350000D01*
X144540000Y-38440000D02*
X144540000Y-46060000D01*
X144540000Y-46060000D02*
X150510000Y-46060000D01*
X144550000Y-38450000D02*
X144550000Y-40250000D01*
X144550000Y-40250000D02*
X145300000Y-40250000D01*
X144550000Y-41750000D02*
X144550000Y-42750000D01*
X144550000Y-42750000D02*
X145300000Y-42750000D01*
X144550000Y-44250000D02*
X144550000Y-46050000D01*
X144550000Y-46050000D02*
X145300000Y-46050000D01*
X145300000Y-38450000D02*
X144550000Y-38450000D01*
X145300000Y-40250000D02*
X145300000Y-38450000D01*
X145300000Y-41750000D02*
X144550000Y-41750000D01*
X145300000Y-42750000D02*
X145300000Y-41750000D01*
X145300000Y-44250000D02*
X144550000Y-44250000D01*
X145300000Y-46050000D02*
X145300000Y-44250000D01*
X146800000Y-38450000D02*
X146800000Y-39200000D01*
X146800000Y-39200000D02*
X149750000Y-39200000D01*
X146800000Y-45300000D02*
X149750000Y-45300000D01*
X146800000Y-46050000D02*
X146800000Y-45300000D01*
X149750000Y-39200000D02*
X149750000Y-42250000D01*
X149750000Y-45300000D02*
X149750000Y-42250000D01*
X150510000Y-38440000D02*
X144540000Y-38440000D01*
X150510000Y-46060000D02*
X150510000Y-38440000D01*
%TO.C,J12*%
X107440000Y-41990000D02*
X107440000Y-47960000D01*
X107440000Y-47960000D02*
X115060000Y-47960000D01*
X107450000Y-45700000D02*
X108200000Y-45700000D01*
X107450000Y-47200000D02*
X107450000Y-47950000D01*
X107450000Y-47950000D02*
X109250000Y-47950000D01*
X108200000Y-42750000D02*
X111250000Y-42750000D01*
X108200000Y-45700000D02*
X108200000Y-42750000D01*
X109250000Y-47200000D02*
X107450000Y-47200000D01*
X109250000Y-47950000D02*
X109250000Y-47200000D01*
X110750000Y-47200000D02*
X110750000Y-47950000D01*
X110750000Y-47950000D02*
X111750000Y-47950000D01*
X111750000Y-47200000D02*
X110750000Y-47200000D01*
X111750000Y-47950000D02*
X111750000Y-47200000D01*
X113250000Y-47200000D02*
X113250000Y-47950000D01*
X113250000Y-47950000D02*
X115050000Y-47950000D01*
X114100000Y-48250000D02*
X115350000Y-48250000D01*
X114300000Y-42750000D02*
X111250000Y-42750000D01*
X114300000Y-45700000D02*
X114300000Y-42750000D01*
X115050000Y-45700000D02*
X114300000Y-45700000D01*
X115050000Y-47200000D02*
X113250000Y-47200000D01*
X115050000Y-47950000D02*
X115050000Y-47200000D01*
X115060000Y-41990000D02*
X107440000Y-41990000D01*
X115060000Y-47960000D02*
X115060000Y-41990000D01*
X115350000Y-48250000D02*
X115350000Y-47000000D01*
D11*
%TO.C,Teensy4.1*%
X114050000Y-48730000D02*
X114050000Y-66510000D01*
X114050000Y-48730000D02*
X141990000Y-48730000D01*
X143260000Y-66510000D02*
X114050000Y-66510000D01*
X143260000Y-66510000D02*
X144530000Y-66510000D01*
X144530000Y-66510000D02*
X175010000Y-66510000D01*
X175010000Y-48730000D02*
X141990000Y-48730000D01*
X175010000Y-66510000D02*
X175010000Y-48730000D01*
D12*
%TO.C,VoltRegulator5V1*%
X138230000Y-36920000D02*
X142871000Y-36920000D01*
X138230000Y-40189000D02*
X139740000Y-40189000D01*
X138230000Y-43890000D02*
X139740000Y-43890000D01*
X138230000Y-47160000D02*
X138230000Y-36920000D01*
X138230000Y-47160000D02*
X142871000Y-47160000D01*
X139740000Y-47160000D02*
X139740000Y-36920000D01*
X142871000Y-47160000D02*
X142871000Y-36920000D01*
%TO.C,J1*%
X161150000Y-67250000D02*
X161150000Y-68500000D01*
X161440000Y-67540000D02*
X161440000Y-73510000D01*
X161440000Y-73510000D02*
X174060000Y-73510000D01*
X161450000Y-67550000D02*
X161450000Y-68300000D01*
X161450000Y-68300000D02*
X163250000Y-68300000D01*
X161450000Y-69800000D02*
X162200000Y-69800000D01*
X162200000Y-69800000D02*
X162200000Y-72750000D01*
X162200000Y-72750000D02*
X167750000Y-72750000D01*
X162400000Y-67250000D02*
X161150000Y-67250000D01*
X163250000Y-67550000D02*
X161450000Y-67550000D01*
X163250000Y-68300000D02*
X163250000Y-67550000D01*
X164750000Y-67550000D02*
X164750000Y-68300000D01*
X164750000Y-68300000D02*
X170750000Y-68300000D01*
X170750000Y-67550000D02*
X164750000Y-67550000D01*
X170750000Y-68300000D02*
X170750000Y-67550000D01*
X172250000Y-67550000D02*
X172250000Y-68300000D01*
X172250000Y-68300000D02*
X174050000Y-68300000D01*
X173300000Y-69800000D02*
X173300000Y-72750000D01*
X173300000Y-72750000D02*
X167750000Y-72750000D01*
X174050000Y-67550000D02*
X172250000Y-67550000D01*
X174050000Y-68300000D02*
X174050000Y-67550000D01*
X174050000Y-69800000D02*
X173300000Y-69800000D01*
X174060000Y-67540000D02*
X161440000Y-67540000D01*
X174060000Y-73510000D02*
X174060000Y-67540000D01*
%TO.C,J13*%
X106990000Y-49440000D02*
X106990000Y-57060000D01*
X106990000Y-57060000D02*
X112960000Y-57060000D01*
X107750000Y-50200000D02*
X107750000Y-53250000D01*
X107750000Y-56300000D02*
X107750000Y-53250000D01*
X110700000Y-49450000D02*
X110700000Y-50200000D01*
X110700000Y-50200000D02*
X107750000Y-50200000D01*
X110700000Y-56300000D02*
X107750000Y-56300000D01*
X110700000Y-57050000D02*
X110700000Y-56300000D01*
X112200000Y-49450000D02*
X112200000Y-51250000D01*
X112200000Y-51250000D02*
X112950000Y-51250000D01*
X112200000Y-52750000D02*
X112200000Y-53750000D01*
X112200000Y-53750000D02*
X112950000Y-53750000D01*
X112200000Y-55250000D02*
X112200000Y-57050000D01*
X112200000Y-57050000D02*
X112950000Y-57050000D01*
X112950000Y-49450000D02*
X112200000Y-49450000D01*
X112950000Y-51250000D02*
X112950000Y-49450000D01*
X112950000Y-52750000D02*
X112200000Y-52750000D01*
X112950000Y-53750000D02*
X112950000Y-52750000D01*
X112950000Y-55250000D02*
X112200000Y-55250000D01*
X112950000Y-57050000D02*
X112950000Y-55250000D01*
X112960000Y-49440000D02*
X106990000Y-49440000D01*
X112960000Y-57060000D02*
X112960000Y-49440000D01*
X113250000Y-49150000D02*
X112000000Y-49150000D01*
X113250000Y-50400000D02*
X113250000Y-49150000D01*
%TO.C,J3*%
X144940000Y-67490000D02*
X144940000Y-73460000D01*
X144940000Y-73460000D02*
X160060000Y-73460000D01*
X144950000Y-71200000D02*
X145700000Y-71200000D01*
X144950000Y-72700000D02*
X144950000Y-73450000D01*
X144950000Y-73450000D02*
X146750000Y-73450000D01*
X145700000Y-68250000D02*
X152500000Y-68250000D01*
X145700000Y-71200000D02*
X145700000Y-68250000D01*
X146750000Y-72700000D02*
X144950000Y-72700000D01*
X146750000Y-73450000D02*
X146750000Y-72700000D01*
X148250000Y-72700000D02*
X148250000Y-73450000D01*
X148250000Y-73450000D02*
X156750000Y-73450000D01*
X156750000Y-72700000D02*
X148250000Y-72700000D01*
X156750000Y-73450000D02*
X156750000Y-72700000D01*
X158250000Y-72700000D02*
X158250000Y-73450000D01*
X158250000Y-73450000D02*
X160050000Y-73450000D01*
X159100000Y-73750000D02*
X160350000Y-73750000D01*
X159300000Y-68250000D02*
X152500000Y-68250000D01*
X159300000Y-71200000D02*
X159300000Y-68250000D01*
X160050000Y-71200000D02*
X159300000Y-71200000D01*
X160050000Y-72700000D02*
X158250000Y-72700000D01*
X160050000Y-73450000D02*
X160050000Y-72700000D01*
X160060000Y-67490000D02*
X144940000Y-67490000D01*
X160060000Y-73460000D02*
X160060000Y-67490000D01*
X160350000Y-73750000D02*
X160350000Y-72500000D01*
%TO.C,K2*%
X115909700Y-36790000D02*
X115909700Y-41492000D01*
X115909700Y-42508000D02*
X115909700Y-47210000D01*
X115909700Y-47210000D02*
X136429700Y-47210000D01*
X116769700Y-40730000D02*
X117279700Y-40730000D01*
X116769700Y-42506000D02*
X117789700Y-41496000D01*
X116769700Y-43270000D02*
X116769700Y-40730000D01*
X117279700Y-40730000D02*
X117279700Y-39460000D01*
X117279700Y-40730000D02*
X117789700Y-40730000D01*
X117279700Y-43270000D02*
X116769700Y-43270000D01*
X117279700Y-44540000D02*
X117279700Y-43270000D01*
X117789700Y-40730000D02*
X117789700Y-43270000D01*
X117789700Y-43270000D02*
X117279700Y-43270000D01*
X119309700Y-40730000D02*
X119819700Y-40730000D01*
X119309700Y-42506000D02*
X120329700Y-41496000D01*
X119309700Y-43270000D02*
X119309700Y-40730000D01*
X119819700Y-40730000D02*
X119819700Y-39460000D01*
X119819700Y-40730000D02*
X120329700Y-40730000D01*
X119819700Y-43270000D02*
X119309700Y-43270000D01*
X119819700Y-44540000D02*
X119819700Y-43270000D01*
X120329700Y-40730000D02*
X120329700Y-43270000D01*
X120329700Y-43270000D02*
X119819700Y-43270000D01*
X124899700Y-39460000D02*
X124899700Y-41365000D01*
X124899700Y-41365000D02*
X132519700Y-41365000D01*
X124899700Y-42635000D02*
X132519700Y-42635000D01*
X124899700Y-44540000D02*
X124899700Y-42635000D01*
X129979700Y-39460000D02*
X129979700Y-40095000D01*
X129979700Y-40095000D02*
X130995700Y-40095000D01*
X129979700Y-43905000D02*
X130995700Y-43905000D01*
X129979700Y-44540000D02*
X129979700Y-43905000D01*
X130995700Y-40095000D02*
X130614700Y-39714000D01*
X130995700Y-40095000D02*
X130614700Y-40476000D01*
X130995700Y-43905000D02*
X130614700Y-43524000D01*
X130995700Y-43905000D02*
X130614700Y-44286000D01*
X132519700Y-41365000D02*
X131249700Y-40095000D01*
X132519700Y-42635000D02*
X131249700Y-43905000D01*
X134043700Y-40095000D02*
X134424700Y-39714000D01*
X134043700Y-40095000D02*
X134424700Y-40476000D01*
X134043700Y-40095000D02*
X135059700Y-40095000D01*
X134043700Y-43905000D02*
X134424700Y-43524000D01*
X134043700Y-43905000D02*
X134424700Y-44286000D01*
X134043700Y-43905000D02*
X135059700Y-43905000D01*
X135059700Y-39460000D02*
X135059700Y-40095000D01*
X135059700Y-44540000D02*
X135059700Y-43905000D01*
X136429700Y-36790000D02*
X115909700Y-36790000D01*
X136429700Y-47210000D02*
X136429700Y-36790000D01*
D10*
X132649700Y-41365000D02*
G75*
G02*
X132389700Y-41365000I-130000J0D01*
G01*
X132389700Y-41365000D02*
G75*
G02*
X132649700Y-41365000I130000J0D01*
G01*
X132649700Y-42635000D02*
G75*
G02*
X132389700Y-42635000I-130000J0D01*
G01*
X132389700Y-42635000D02*
G75*
G02*
X132649700Y-42635000I130000J0D01*
G01*
D12*
X115909700Y-42000000D02*
X115570289Y-42200000D01*
X115570289Y-41800000D01*
X115909700Y-42000000D01*
G36*
X115909700Y-42000000D02*
G01*
X115570289Y-42200000D01*
X115570289Y-41800000D01*
X115909700Y-42000000D01*
G37*
%TO.C,J8*%
X133940000Y-67490000D02*
X133940000Y-73460000D01*
X133940000Y-73460000D02*
X144060000Y-73460000D01*
X133950000Y-71200000D02*
X134700000Y-71200000D01*
X133950000Y-72700000D02*
X133950000Y-73450000D01*
X133950000Y-73450000D02*
X135750000Y-73450000D01*
X134700000Y-68250000D02*
X139000000Y-68250000D01*
X134700000Y-71200000D02*
X134700000Y-68250000D01*
X135750000Y-72700000D02*
X133950000Y-72700000D01*
X135750000Y-73450000D02*
X135750000Y-72700000D01*
X137250000Y-72700000D02*
X137250000Y-73450000D01*
X137250000Y-73450000D02*
X140750000Y-73450000D01*
X140750000Y-72700000D02*
X137250000Y-72700000D01*
X140750000Y-73450000D02*
X140750000Y-72700000D01*
X142250000Y-72700000D02*
X142250000Y-73450000D01*
X142250000Y-73450000D02*
X144050000Y-73450000D01*
X143100000Y-73750000D02*
X144350000Y-73750000D01*
X143300000Y-68250000D02*
X139000000Y-68250000D01*
X143300000Y-71200000D02*
X143300000Y-68250000D01*
X144050000Y-71200000D02*
X143300000Y-71200000D01*
X144050000Y-72700000D02*
X142250000Y-72700000D01*
X144050000Y-73450000D02*
X144050000Y-72700000D01*
X144060000Y-67490000D02*
X133940000Y-67490000D01*
X144060000Y-73460000D02*
X144060000Y-67490000D01*
X144350000Y-73750000D02*
X144350000Y-72500000D01*
%TO.C,J2*%
X108150000Y-67250000D02*
X108150000Y-68500000D01*
X108440000Y-67540000D02*
X108440000Y-73510000D01*
X108440000Y-73510000D02*
X121060000Y-73510000D01*
X108450000Y-67550000D02*
X108450000Y-68300000D01*
X108450000Y-68300000D02*
X110250000Y-68300000D01*
X108450000Y-69800000D02*
X109200000Y-69800000D01*
X109200000Y-69800000D02*
X109200000Y-72750000D01*
X109200000Y-72750000D02*
X114750000Y-72750000D01*
X109400000Y-67250000D02*
X108150000Y-67250000D01*
X110250000Y-67550000D02*
X108450000Y-67550000D01*
X110250000Y-68300000D02*
X110250000Y-67550000D01*
X111750000Y-67550000D02*
X111750000Y-68300000D01*
X111750000Y-68300000D02*
X117750000Y-68300000D01*
X117750000Y-67550000D02*
X111750000Y-67550000D01*
X117750000Y-68300000D02*
X117750000Y-67550000D01*
X119250000Y-67550000D02*
X119250000Y-68300000D01*
X119250000Y-68300000D02*
X121050000Y-68300000D01*
X120300000Y-69800000D02*
X120300000Y-72750000D01*
X120300000Y-72750000D02*
X114750000Y-72750000D01*
X121050000Y-67550000D02*
X119250000Y-67550000D01*
X121050000Y-68300000D02*
X121050000Y-67550000D01*
X121050000Y-69800000D02*
X120300000Y-69800000D01*
X121060000Y-67540000D02*
X108440000Y-67540000D01*
X121060000Y-73510000D02*
X121060000Y-67540000D01*
%TO.C,J6*%
X131940000Y-74490000D02*
X131940000Y-80460000D01*
X131940000Y-80460000D02*
X149560000Y-80460000D01*
X131950000Y-78200000D02*
X132700000Y-78200000D01*
X131950000Y-79700000D02*
X131950000Y-80450000D01*
X131950000Y-80450000D02*
X133750000Y-80450000D01*
X132700000Y-75250000D02*
X140750000Y-75250000D01*
X132700000Y-78200000D02*
X132700000Y-75250000D01*
X133750000Y-79700000D02*
X131950000Y-79700000D01*
X133750000Y-80450000D02*
X133750000Y-79700000D01*
X135250000Y-79700000D02*
X135250000Y-80450000D01*
X135250000Y-80450000D02*
X146250000Y-80450000D01*
X146250000Y-79700000D02*
X135250000Y-79700000D01*
X146250000Y-80450000D02*
X146250000Y-79700000D01*
X147750000Y-79700000D02*
X147750000Y-80450000D01*
X147750000Y-80450000D02*
X149550000Y-80450000D01*
X148600000Y-80750000D02*
X149850000Y-80750000D01*
X148800000Y-75250000D02*
X140750000Y-75250000D01*
X148800000Y-78200000D02*
X148800000Y-75250000D01*
X149550000Y-78200000D02*
X148800000Y-78200000D01*
X149550000Y-79700000D02*
X147750000Y-79700000D01*
X149550000Y-80450000D02*
X149550000Y-79700000D01*
X149560000Y-74490000D02*
X131940000Y-74490000D01*
X149560000Y-80460000D02*
X149560000Y-74490000D01*
X149850000Y-80750000D02*
X149850000Y-79500000D01*
%TO.C,J7*%
X122440000Y-67490000D02*
X122440000Y-73460000D01*
X122440000Y-73460000D02*
X132560000Y-73460000D01*
X122450000Y-71200000D02*
X123200000Y-71200000D01*
X122450000Y-72700000D02*
X122450000Y-73450000D01*
X122450000Y-73450000D02*
X124250000Y-73450000D01*
X123200000Y-68250000D02*
X127500000Y-68250000D01*
X123200000Y-71200000D02*
X123200000Y-68250000D01*
X124250000Y-72700000D02*
X122450000Y-72700000D01*
X124250000Y-73450000D02*
X124250000Y-72700000D01*
X125750000Y-72700000D02*
X125750000Y-73450000D01*
X125750000Y-73450000D02*
X129250000Y-73450000D01*
X129250000Y-72700000D02*
X125750000Y-72700000D01*
X129250000Y-73450000D02*
X129250000Y-72700000D01*
X130750000Y-72700000D02*
X130750000Y-73450000D01*
X130750000Y-73450000D02*
X132550000Y-73450000D01*
X131600000Y-73750000D02*
X132850000Y-73750000D01*
X131800000Y-68250000D02*
X127500000Y-68250000D01*
X131800000Y-71200000D02*
X131800000Y-68250000D01*
X132550000Y-71200000D02*
X131800000Y-71200000D01*
X132550000Y-72700000D02*
X130750000Y-72700000D01*
X132550000Y-73450000D02*
X132550000Y-72700000D01*
X132560000Y-67490000D02*
X122440000Y-67490000D01*
X132560000Y-73460000D02*
X132560000Y-67490000D01*
X132850000Y-73750000D02*
X132850000Y-72500000D01*
%TO.C,J5*%
X150940000Y-74490000D02*
X150940000Y-80460000D01*
X150940000Y-80460000D02*
X168560000Y-80460000D01*
X150950000Y-78200000D02*
X151700000Y-78200000D01*
X150950000Y-79700000D02*
X150950000Y-80450000D01*
X150950000Y-80450000D02*
X152750000Y-80450000D01*
X151700000Y-75250000D02*
X159750000Y-75250000D01*
X151700000Y-78200000D02*
X151700000Y-75250000D01*
X152750000Y-79700000D02*
X150950000Y-79700000D01*
X152750000Y-80450000D02*
X152750000Y-79700000D01*
X154250000Y-79700000D02*
X154250000Y-80450000D01*
X154250000Y-80450000D02*
X165250000Y-80450000D01*
X165250000Y-79700000D02*
X154250000Y-79700000D01*
X165250000Y-80450000D02*
X165250000Y-79700000D01*
X166750000Y-79700000D02*
X166750000Y-80450000D01*
X166750000Y-80450000D02*
X168550000Y-80450000D01*
X167600000Y-80750000D02*
X168850000Y-80750000D01*
X167800000Y-75250000D02*
X159750000Y-75250000D01*
X167800000Y-78200000D02*
X167800000Y-75250000D01*
X168550000Y-78200000D02*
X167800000Y-78200000D01*
X168550000Y-79700000D02*
X166750000Y-79700000D01*
X168550000Y-80450000D02*
X168550000Y-79700000D01*
X168560000Y-74490000D02*
X150940000Y-74490000D01*
X168560000Y-80460000D02*
X168560000Y-74490000D01*
X168850000Y-80750000D02*
X168850000Y-79500000D01*
%TO.C,BZ1*%
X170600000Y-42000000D02*
G75*
G02*
X158400000Y-42000000I-6100000J0D01*
G01*
X158400000Y-42000000D02*
G75*
G02*
X170600000Y-42000000I6100000J0D01*
G01*
%TD*%
M02*
