M48
; DRILL file {KiCad 8.0.2-1} date 2024-12-19T12:14:30-0500
; FORMAT={-:-/ absolute / inch / decimal}
; #@! TF.CreationDate,2024-12-19T12:14:30-05:00
; #@! TF.GenerationSoftware,Kicad,Pcbnew,8.0.2-1
; #@! TF.FileFunction,Plated,1,2,PTH
FMAT,2
INCH
; #@! TA.AperFunction,Plated,PTH,ViaDrill
T1C0.0118
; #@! TA.AperFunction,Plated,PTH,ComponentDrill
T2C0.0374
; #@! TA.AperFunction,Plated,PTH,ComponentDrill
T3C0.0394
; #@! TA.AperFunction,Plated,PTH,ComponentDrill
T4C0.0402
; #@! TA.AperFunction,Plated,PTH,ComponentDrill
T5C0.0433
%
G90
G05
T1
X6.73Y-3.5
T2
X5.1631Y-3.14
X5.2616Y-3.14
X5.36Y-3.14
X5.6431Y-3.14
X5.7416Y-3.14
X5.84Y-3.14
X6.1247Y-3.13
X6.2231Y-3.13
X6.3216Y-3.13
X6.42Y-3.13
X7.51Y-3.0347
X7.51Y-3.1331
X7.51Y-3.2316
X7.51Y-3.33
T3
X5.08Y-3.59
X5.1784Y-3.59
X5.45Y-3.58
X5.5484Y-3.58
X6.75Y-3.64
X6.85Y-3.64
X6.8504Y-3.22
X6.95Y-3.64
X7.05Y-3.64
X7.1496Y-3.22
X7.15Y-3.64
X7.25Y-3.64
T4
X4.99Y-2.24
X4.99Y-2.84
X5.09Y-2.24
X5.09Y-2.84
X5.19Y-2.24
X5.19Y-2.84
X5.29Y-2.24
X5.29Y-2.84
X5.39Y-2.24
X5.39Y-2.84
X5.49Y-2.24
X5.49Y-2.84
X5.59Y-2.24
X5.59Y-2.84
X5.69Y-2.24
X5.69Y-2.84
X5.79Y-2.24
X5.79Y-2.84
X5.89Y-2.24
X5.89Y-2.84
X5.99Y-2.24
X5.99Y-2.84
X6.09Y-2.24
X6.09Y-2.84
X6.19Y-2.24
X6.19Y-2.84
X6.29Y-2.24
X6.29Y-2.84
X6.39Y-2.24
X6.39Y-2.84
X6.49Y-2.24
X6.49Y-2.84
X6.59Y-2.24
X6.59Y-2.84
X6.69Y-2.24
X6.69Y-2.84
X6.79Y-2.24
X6.79Y-2.84
X6.89Y-2.24
X6.89Y-2.84
X6.99Y-2.24
X6.99Y-2.84
X7.09Y-2.24
X7.09Y-2.84
X7.19Y-2.24
X7.19Y-2.84
X7.29Y-2.24
X7.29Y-2.84
T5
X5.87Y-3.5772
X5.97Y-3.5772
X6.07Y-3.5772
M30
