M48
; DRILL file {KiCad 9.0.0} date 2025-04-18T09:30:18-0400
; FORMAT={-:-/ absolute / inch / decimal}
; #@! TF.CreationDate,2025-04-18T09:30:18-04:00
; #@! TF.GenerationSoftware,Kicad,Pcbnew,9.0.0
; #@! TF.FileFunction,Plated,1,2,PTH
FMAT,2
INCH
; #@! TA.AperFunction,Plated,PTH,ViaDrill
T1C0.0118
; #@! TA.AperFunction,Plated,PTH,ComponentDrill
T2C0.0374
; #@! TA.AperFunction,Plated,PTH,ComponentDrill
T3C0.0394
; #@! TA.AperFunction,Plated,PTH,ComponentDrill
T4C0.0402
; #@! TA.AperFunction,Plated,PTH,ComponentDrill
T5C0.0433
%
G90
G05
T1
X4.2717Y-2.2638
X4.3701Y-1.8898
X4.4398Y-2.5534
X4.4766Y-2.2441
X4.4766Y-2.4606
X4.5177Y-2.9217
X4.6534Y-2.6408
X4.7441Y-2.9331
X4.7508Y-2.6664
X5.1554Y-2.4319
X5.2374Y-2.4934
X5.2691Y-2.462
X5.5118Y-2.2931
X5.8858Y-2.2931
X5.9513Y-2.2131
X6.6142Y-3.0709
X6.7323Y-3.1361
X6.8609Y-2.9418
X6.8609Y-2.1065
X6.89Y-2.0295
X6.8978Y-2.9444
X6.9286Y-2.9118
T2
X4.3701Y-2.7559
X4.4685Y-2.7559
X4.5669Y-2.7559
X4.6654Y-2.7559
X4.7441Y-3.0315
X4.8425Y-3.0315
X4.9213Y-2.7953
X4.9409Y-3.0315
X5.0197Y-2.7953
X5.0394Y-3.0315
X5.1181Y-2.7953
X5.2953Y-3.0709
X5.374Y-2.7953
X5.3937Y-3.0709
X5.4724Y-2.7953
X5.4921Y-3.0709
X5.5709Y-2.7953
X5.5906Y-3.0709
X5.689Y-3.0709
X5.7874Y-3.0709
X5.8071Y-2.7953
X5.9055Y-2.7953
X6.0039Y-2.7953
X6.0433Y-3.0709
X6.1024Y-2.7953
X6.1417Y-3.0709
X6.2008Y-2.7953
X6.2402Y-3.0709
X6.3386Y-3.0709
X6.437Y-3.0709
X6.4567Y-2.7559
X6.5354Y-3.0709
X6.5551Y-2.7559
X6.6535Y-2.7559
X6.752Y-2.7559
T3
X4.3307Y-1.7913
X4.3504Y-2.0472
X4.3504Y-2.1457
X4.4291Y-1.7913
X4.6173Y-1.5035
X4.6173Y-1.8035
X4.7173Y-1.5035
X4.7173Y-1.8035
X4.9173Y-1.5035
X4.9173Y-1.8035
X5.1173Y-1.5035
X5.1173Y-1.8035
X5.3173Y-1.5035
X5.3173Y-1.8035
X5.7874Y-1.6142
X5.7874Y-1.7126
X6.4764Y-1.5039
X6.4764Y-1.8031
T4
X4.5402Y-1.9685
X4.5402Y-2.5685
X4.6402Y-1.9685
X4.6402Y-2.5685
X4.7402Y-1.9685
X4.7402Y-2.5685
X4.8402Y-1.9685
X4.8402Y-2.5685
X4.9402Y-1.9685
X4.9402Y-2.5685
X5.0402Y-1.9685
X5.0402Y-2.5685
X5.1402Y-1.9685
X5.1402Y-2.5685
X5.2402Y-1.9685
X5.2402Y-2.5685
X5.3402Y-1.9685
X5.3402Y-2.5685
X5.4402Y-1.9685
X5.4402Y-2.5685
X5.5402Y-1.9685
X5.5402Y-2.5685
X5.6402Y-1.9685
X5.6402Y-2.5685
X5.7402Y-1.9685
X5.7402Y-2.5685
X5.8402Y-1.9685
X5.8402Y-2.5685
X5.9402Y-1.9685
X5.9402Y-2.5685
X6.0402Y-1.9685
X6.0402Y-2.5685
X6.1402Y-1.9685
X6.1402Y-2.5685
X6.2402Y-1.9685
X6.2402Y-2.5685
X6.3402Y-1.9685
X6.3402Y-2.5685
X6.4402Y-1.9685
X6.4402Y-2.5685
X6.5402Y-1.9685
X6.5402Y-2.5685
X6.6402Y-1.9685
X6.6402Y-2.5685
X6.7402Y-1.9685
X6.7402Y-2.5685
X6.8402Y-1.9685
X6.8402Y-2.5685
T5
X5.5709Y-1.5551
X5.5709Y-1.6551
X5.5709Y-1.7551
M30
