%TF.GenerationSoftware,KiCad,Pcbnew,10.0.0*%
%TF.CreationDate,2026-04-22T17:21:28-04:00*%
%TF.ProjectId,CNC PCB,434e4320-5043-4422-9e6b-696361645f70,rev?*%
%TF.SameCoordinates,Original*%
%TF.FileFunction,Soldermask,Top*%
%TF.FilePolarity,Negative*%
%FSLAX46Y46*%
G04 Gerber Fmt 4.6, Leading zero omitted, Abs format (unit mm)*
G04 Created by KiCad (PCBNEW 10.0.0) date 2026-04-22 17:21:28*
%MOMM*%
%LPD*%
G01*
G04 APERTURE LIST*
G04 Aperture macros list*
%AMRoundRect*
0 Rectangle with rounded corners*
0 $1 Rounding radius*
0 $2 $3 $4 $5 $6 $7 $8 $9 X,Y pos of 4 corners*
0 Add a 4 corners polygon primitive as box body*
4,1,4,$2,$3,$4,$5,$6,$7,$8,$9,$2,$3,0*
0 Add four circle primitives for the rounded corners*
1,1,$1+$1,$2,$3*
1,1,$1+$1,$4,$5*
1,1,$1+$1,$6,$7*
1,1,$1+$1,$8,$9*
0 Add four rect primitives between the rounded corners*
20,1,$1+$1,$2,$3,$4,$5,0*
20,1,$1+$1,$4,$5,$6,$7,0*
20,1,$1+$1,$6,$7,$8,$9,0*
20,1,$1+$1,$8,$9,$2,$3,0*%
G04 Aperture macros list end*
%ADD10R,1.651000X1.651000*%
%ADD11C,1.651000*%
%ADD12RoundRect,0.250000X0.750000X-0.600000X0.750000X0.600000X-0.750000X0.600000X-0.750000X-0.600000X0*%
%ADD13O,2.000000X1.700000*%
%ADD14O,2.250000X1.500000*%
G04 APERTURE END LIST*
D10*
%TO.C,U4*%
X183500000Y-109000000D03*
D11*
X183500000Y-106460000D03*
X183500000Y-103920000D03*
%TD*%
D12*
%TO.C,J4*%
X182475000Y-84750000D03*
D13*
X182475000Y-82250000D03*
%TD*%
D14*
%TO.C,Teensy4.2*%
X162500000Y-56040000D03*
X162500000Y-58580000D03*
X162500000Y-61120000D03*
X162500000Y-63660000D03*
X162500000Y-89060000D03*
X177740000Y-58580000D03*
X162500000Y-66200000D03*
X162500000Y-68740000D03*
X177740000Y-53500000D03*
X162500000Y-71280000D03*
X162500000Y-73820000D03*
X162500000Y-76360000D03*
X162500000Y-78900000D03*
X162500000Y-81440000D03*
X162500000Y-83980000D03*
X162500000Y-86520000D03*
X177740000Y-86520000D03*
X177740000Y-83980000D03*
X177740000Y-81440000D03*
X177740000Y-78900000D03*
X177740000Y-76360000D03*
X177740000Y-73820000D03*
X177740000Y-71280000D03*
X177740000Y-68740000D03*
X177740000Y-66200000D03*
X177740000Y-63660000D03*
X177740000Y-61120000D03*
X162500000Y-91600000D03*
X162500000Y-94140000D03*
X162500000Y-96680000D03*
X162500000Y-99220000D03*
X162500000Y-101760000D03*
X162500000Y-104300000D03*
X162500000Y-106840000D03*
X162500000Y-109380000D03*
X162500000Y-111920000D03*
X177740000Y-111920000D03*
X177740000Y-109380000D03*
X177740000Y-106840000D03*
X177740000Y-104300000D03*
X177740000Y-101760000D03*
X177740000Y-99220000D03*
X177740000Y-96680000D03*
X177740000Y-94140000D03*
X177740000Y-91600000D03*
X162500000Y-53500000D03*
X177740000Y-56040000D03*
X177740000Y-89060000D03*
%TD*%
D12*
%TO.C,J1*%
X182000000Y-46750000D03*
D13*
X182000000Y-44250000D03*
%TD*%
D12*
%TO.C,J3*%
X182475000Y-95750000D03*
D13*
X182475000Y-93250000D03*
%TD*%
D12*
%TO.C,J2*%
X183000000Y-65000000D03*
D13*
X183000000Y-62500000D03*
%TD*%
M02*
