%TF.GenerationSoftware,KiCad,Pcbnew,10.0.0*%
%TF.CreationDate,2026-04-22T17:21:28-04:00*%
%TF.ProjectId,CNC PCB,434e4320-5043-4422-9e6b-696361645f70,rev?*%
%TF.SameCoordinates,Original*%
%TF.FileFunction,Paste,Bot*%
%TF.FilePolarity,Positive*%
%FSLAX46Y46*%
G04 Gerber Fmt 4.6, Leading zero omitted, Abs format (unit mm)*
G04 Created by KiCad (PCBNEW 10.0.0) date 2026-04-22 17:21:28*
%MOMM*%
%LPD*%
G01*
G04 APERTURE LIST*
G04 Aperture macros list*
%AMRoundRect*
0 Rectangle with rounded corners*
0 $1 Rounding radius*
0 $2 $3 $4 $5 $6 $7 $8 $9 X,Y pos of 4 corners*
0 Add a 4 corners polygon primitive as box body*
4,1,4,$2,$3,$4,$5,$6,$7,$8,$9,$2,$3,0*
0 Add four circle primitives for the rounded corners*
1,1,$1+$1,$2,$3*
1,1,$1+$1,$4,$5*
1,1,$1+$1,$6,$7*
1,1,$1+$1,$8,$9*
0 Add four rect primitives between the rounded corners*
20,1,$1+$1,$2,$3,$4,$5,0*
20,1,$1+$1,$4,$5,$6,$7,0*
20,1,$1+$1,$6,$7,$8,$9,0*
20,1,$1+$1,$8,$9,$2,$3,0*%
G04 Aperture macros list end*
%ADD10C,0.000000*%
%ADD11RoundRect,0.225000X-0.250000X0.225000X-0.250000X-0.225000X0.250000X-0.225000X0.250000X0.225000X0*%
%ADD12RoundRect,0.225000X0.225000X0.250000X-0.225000X0.250000X-0.225000X-0.250000X0.225000X-0.250000X0*%
%ADD13R,1.854200X3.403600*%
%ADD14RoundRect,0.225000X-0.225000X-0.250000X0.225000X-0.250000X0.225000X0.250000X-0.225000X0.250000X0*%
%ADD15RoundRect,0.200000X0.200000X0.275000X-0.200000X0.275000X-0.200000X-0.275000X0.200000X-0.275000X0*%
%ADD16R,0.812800X0.254000*%
%ADD17R,0.254000X0.812800*%
%ADD18R,1.676400X1.676400*%
%ADD19RoundRect,0.062500X0.062500X0.275000X-0.062500X0.275000X-0.062500X-0.275000X0.062500X-0.275000X0*%
%ADD20RoundRect,0.062500X0.275000X0.062500X-0.275000X0.062500X-0.275000X-0.062500X0.275000X-0.062500X0*%
%ADD21R,0.503200X0.300000*%
%ADD22R,0.609600X1.092200*%
%ADD23RoundRect,0.200000X0.275000X-0.200000X0.275000X0.200000X-0.275000X0.200000X-0.275000X-0.200000X0*%
G04 APERTURE END LIST*
D10*
%TO.C,U5*%
G36*
X159304800Y-68846100D02*
G01*
X158695200Y-68846100D01*
X158695200Y-67753900D01*
X159304800Y-67753900D01*
X159304800Y-68846100D01*
G37*
G36*
X159304800Y-71046100D02*
G01*
X158695200Y-71046100D01*
X158695200Y-69953900D01*
X159304800Y-69953900D01*
X159304800Y-71046100D01*
G37*
G36*
X158054800Y-68846100D02*
G01*
X157445200Y-68846100D01*
X157445200Y-67753900D01*
X158054800Y-67753900D01*
X158054800Y-68846100D01*
G37*
G36*
X158054800Y-71046100D02*
G01*
X157445200Y-71046100D01*
X157445200Y-69953900D01*
X158054800Y-69953900D01*
X158054800Y-71046100D01*
G37*
G36*
X156804800Y-68846100D02*
G01*
X156195200Y-68846100D01*
X156195200Y-67753900D01*
X156804800Y-67753900D01*
X156804800Y-68846100D01*
G37*
G36*
X156804800Y-71046100D02*
G01*
X156195200Y-71046100D01*
X156195200Y-69953900D01*
X156804800Y-69953900D01*
X156804800Y-71046100D01*
G37*
G36*
X155554800Y-68846100D02*
G01*
X154945200Y-68846100D01*
X154945200Y-67753900D01*
X155554800Y-67753900D01*
X155554800Y-68846100D01*
G37*
G36*
X155554800Y-71046100D02*
G01*
X154945200Y-71046100D01*
X154945200Y-69953900D01*
X155554800Y-69953900D01*
X155554800Y-71046100D01*
G37*
%TD*%
D11*
%TO.C,C1*%
X160250000Y-55775000D03*
X160250000Y-54225000D03*
%TD*%
D12*
%TO.C,C2*%
X155725000Y-56000000D03*
X157275000Y-56000000D03*
%TD*%
%TO.C,C4*%
X181450000Y-56000000D03*
X183000000Y-56000000D03*
%TD*%
D13*
%TO.C,BZ1*%
X166177300Y-46000000D03*
X173822700Y-46000000D03*
%TD*%
D14*
%TO.C,C6*%
X157700000Y-80500000D03*
X159250000Y-80500000D03*
%TD*%
D11*
%TO.C,C3*%
X180000000Y-53975000D03*
X180000000Y-55525000D03*
%TD*%
D15*
%TO.C,R3*%
X181750000Y-72250000D03*
X180100000Y-72250000D03*
%TD*%
D12*
%TO.C,C5*%
X156800000Y-66300000D03*
X155250000Y-66300000D03*
%TD*%
D16*
%TO.C,U3*%
X159447800Y-83249999D03*
X159447800Y-83750000D03*
X159447800Y-84250000D03*
X159447800Y-84750001D03*
D17*
X158750001Y-85447800D03*
X158250000Y-85447800D03*
X157750000Y-85447800D03*
X157249999Y-85447800D03*
D16*
X156552200Y-84750001D03*
X156552200Y-84250000D03*
X156552200Y-83750000D03*
X156552200Y-83249999D03*
D17*
X157249999Y-82552200D03*
X157750000Y-82552200D03*
X158250000Y-82552200D03*
X158750001Y-82552200D03*
D18*
X158000000Y-84000000D03*
%TD*%
D19*
%TO.C,U1*%
X159275000Y-57500000D03*
X158775000Y-57500000D03*
X158275000Y-57500000D03*
X157775000Y-57500000D03*
X157275000Y-57500000D03*
X156775000Y-57500000D03*
X156275000Y-57500000D03*
D20*
X155762500Y-58762500D03*
D19*
X156275000Y-60025000D03*
X156775000Y-60025000D03*
X157275000Y-60025000D03*
X157775000Y-60025000D03*
X158275000Y-60025000D03*
X158775000Y-60025000D03*
X159275000Y-60025000D03*
D20*
X159787500Y-58762500D03*
%TD*%
D21*
%TO.C,U2*%
X183000000Y-57500002D03*
X183000000Y-58000001D03*
X183000000Y-58500000D03*
X181396798Y-58500000D03*
X181396798Y-58000001D03*
X181396798Y-57500002D03*
%TD*%
D22*
%TO.C,U5*%
X155250000Y-68300000D03*
X156500000Y-68300000D03*
X157750000Y-68300000D03*
X159000000Y-68300000D03*
X159000000Y-70500000D03*
X157750000Y-70500000D03*
X156500000Y-70500000D03*
X155250000Y-70500000D03*
%TD*%
D23*
%TO.C,R1*%
X159000000Y-63325000D03*
X159000000Y-61675000D03*
%TD*%
D15*
%TO.C,R2*%
X181750000Y-74250000D03*
X180100000Y-74250000D03*
%TD*%
M02*
