M48
; DRILL file KiCad 10.0.0 date 2026-04-22T17:21:10
; FORMAT={-:-/ absolute / metric / decimal}
; #@! TF.CreationDate,2026-04-22T17:21:10-04:00
; #@! TF.GenerationSoftware,Kicad,Pcbnew,10.0.0
; #@! TF.FileFunction,Plated,1,2,PTH
FMAT,2
METRIC
; #@! TA.AperFunction,Plated,PTH,ViaDrill
T1C0.300
; #@! TA.AperFunction,Plated,PTH,ComponentDrill
T2C1.000
; #@! TA.AperFunction,Plated,PTH,ComponentDrill
T3C1.020
; #@! TA.AperFunction,Plated,PTH,ComponentDrill
T4C1.143
%
G90
G05
T1
X152.75Y-58.0
X154.0Y-70.0
X154.0Y-73.75
X155.25Y-64.75
X155.75Y-44.0
X156.25Y-55.25
X156.5Y-97.0
X156.75Y-82.75
X158.0Y-50.75
X158.0Y-61.25
X158.25Y-75.75
X158.75Y-56.0
X158.75Y-66.25
X159.25Y-81.5
X160.25Y-86.75
X160.75Y-84.75
X161.5Y-62.5
X162.0Y-54.75
X163.5Y-51.5
X164.75Y-86.0
X170.0Y-71.25
X171.0Y-94.5
X172.0Y-60.5
X172.25Y-39.0
X172.75Y-77.5
X176.0Y-62.5
X176.0Y-68.0
X178.5Y-43.75
X179.02Y-56.965
X179.25Y-75.5
X179.5Y-71.0
X179.5Y-73.25
X180.0Y-88.75
X180.5Y-57.0
X180.75Y-61.75
X183.25Y-99.75
X184.0Y-59.25
X184.5Y-52.25
X186.0Y-75.25
X186.5Y-43.0
X186.5Y-85.25
X186.5Y-106.25
T2
X182.0Y-44.25
X182.0Y-46.75
X182.475Y-82.25
X182.475Y-84.75
X182.475Y-93.25
X182.475Y-95.75
X183.0Y-62.5
X183.0Y-65.0
T3
X162.5Y-53.5
X162.5Y-56.04
X162.5Y-58.58
X162.5Y-61.12
X162.5Y-63.66
X162.5Y-66.2
X162.5Y-68.74
X162.5Y-71.28
X162.5Y-73.82
X162.5Y-76.36
X162.5Y-78.9
X162.5Y-81.44
X162.5Y-83.98
X162.5Y-86.52
X162.5Y-89.06
X162.5Y-91.6
X162.5Y-94.14
X162.5Y-96.68
X162.5Y-99.22
X162.5Y-101.76
X162.5Y-104.3
X162.5Y-106.84
X162.5Y-109.38
X162.5Y-111.92
X177.74Y-53.5
X177.74Y-56.04
X177.74Y-58.58
X177.74Y-61.12
X177.74Y-63.66
X177.74Y-66.2
X177.74Y-68.74
X177.74Y-71.28
X177.74Y-73.82
X177.74Y-76.36
X177.74Y-78.9
X177.74Y-81.44
X177.74Y-83.98
X177.74Y-86.52
X177.74Y-89.06
X177.74Y-91.6
X177.74Y-94.14
X177.74Y-96.68
X177.74Y-99.22
X177.74Y-101.76
X177.74Y-104.3
X177.74Y-106.84
X177.74Y-109.38
X177.74Y-111.92
T4
X183.5Y-103.92
X183.5Y-106.46
X183.5Y-109.0
M30
