%TF.GenerationSoftware,KiCad,Pcbnew,10.0.0*%
%TF.CreationDate,2026-04-22T17:21:27-04:00*%
%TF.ProjectId,CNC PCB,434e4320-5043-4422-9e6b-696361645f70,rev?*%
%TF.SameCoordinates,Original*%
%TF.FileFunction,Copper,L1,Top*%
%TF.FilePolarity,Positive*%
%FSLAX46Y46*%
G04 Gerber Fmt 4.6, Leading zero omitted, Abs format (unit mm)*
G04 Created by KiCad (PCBNEW 10.0.0) date 2026-04-22 17:21:27*
%MOMM*%
%LPD*%
G01*
G04 APERTURE LIST*
G04 Aperture macros list*
%AMRoundRect*
0 Rectangle with rounded corners*
0 $1 Rounding radius*
0 $2 $3 $4 $5 $6 $7 $8 $9 X,Y pos of 4 corners*
0 Add a 4 corners polygon primitive as box body*
4,1,4,$2,$3,$4,$5,$6,$7,$8,$9,$2,$3,0*
0 Add four circle primitives for the rounded corners*
1,1,$1+$1,$2,$3*
1,1,$1+$1,$4,$5*
1,1,$1+$1,$6,$7*
1,1,$1+$1,$8,$9*
0 Add four rect primitives between the rounded corners*
20,1,$1+$1,$2,$3,$4,$5,0*
20,1,$1+$1,$4,$5,$6,$7,0*
20,1,$1+$1,$6,$7,$8,$9,0*
20,1,$1+$1,$8,$9,$2,$3,0*%
G04 Aperture macros list end*
%TA.AperFunction,ComponentPad*%
%ADD10R,1.651000X1.651000*%
%TD*%
%TA.AperFunction,ComponentPad*%
%ADD11C,1.651000*%
%TD*%
%TA.AperFunction,ComponentPad*%
%ADD12RoundRect,0.250000X0.750000X-0.600000X0.750000X0.600000X-0.750000X0.600000X-0.750000X-0.600000X0*%
%TD*%
%TA.AperFunction,ComponentPad*%
%ADD13O,2.000000X1.700000*%
%TD*%
%TA.AperFunction,ComponentPad*%
%ADD14O,2.250000X1.500000*%
%TD*%
%TA.AperFunction,ViaPad*%
%ADD15C,0.600000*%
%TD*%
G04 APERTURE END LIST*
D10*
%TO.P,U4,1,INPUT_1*%
%TO.N,B+*%
X183500000Y-109000000D03*
D11*
%TO.P,U4,2,GROUND_2*%
%TO.N,GND*%
X183500000Y-106460000D03*
%TO.P,U4,3,OUTPUT_3*%
%TO.N,5V*%
X183500000Y-103920000D03*
%TD*%
D12*
%TO.P,J4,1,Pin_1_1*%
%TO.N,5V*%
X182475000Y-84750000D03*
D13*
%TO.P,J4,2,Pin_2_2*%
%TO.N,GND*%
X182475000Y-82250000D03*
%TD*%
D14*
%TO.P,Teensy4.2,0,RX1_0*%
%TO.N,ESCData*%
X162500000Y-56040000D03*
%TO.P,Teensy4.2,1,TX1_1*%
%TO.N,BuzzerPWM*%
X162500000Y-58580000D03*
%TO.P,Teensy4.2,2,PWM_2*%
%TO.N,unconnected-(Teensy4.2-PWM-Pad2)*%
X162500000Y-61120000D03*
%TO.P,Teensy4.2,3,PWM_3*%
%TO.N,unconnected-(Teensy4.2-PWM-Pad3)*%
X162500000Y-63660000D03*
%TO.P,Teensy4.2,3V,3.3V_3V*%
%TO.N,unconnected-(Teensy4.2-3.3V-Pad3V)*%
X162500000Y-89060000D03*
%TO.P,Teensy4.2,3V1,3.3V_3V1*%
%TO.N,3.3V*%
X177740000Y-58580000D03*
%TO.P,Teensy4.2,4,PWM_4*%
%TO.N,unconnected-(Teensy4.2-PWM-Pad4)*%
X162500000Y-66200000D03*
%TO.P,Teensy4.2,5,PWM_5*%
%TO.N,unconnected-(Teensy4.2-PWM-Pad5)*%
X162500000Y-68740000D03*
%TO.P,Teensy4.2,5V,VIN_5V*%
%TO.N,5V*%
X177740000Y-53500000D03*
%TO.P,Teensy4.2,6,PWM_6*%
%TO.N,unconnected-(Teensy4.2-PWM-Pad6)*%
X162500000Y-71280000D03*
%TO.P,Teensy4.2,7,RX2_7*%
%TO.N,unconnected-(Teensy4.2-RX2-Pad7)*%
X162500000Y-73820000D03*
%TO.P,Teensy4.2,8,TX2_8*%
%TO.N,unconnected-(Teensy4.2-TX2-Pad8)*%
X162500000Y-76360000D03*
%TO.P,Teensy4.2,9,PWM_9*%
%TO.N,unconnected-(Teensy4.2-PWM-Pad9)*%
X162500000Y-78900000D03*
%TO.P,Teensy4.2,10,CS_10*%
%TO.N,unconnected-(Teensy4.2-CS-Pad10)*%
X162500000Y-81440000D03*
%TO.P,Teensy4.2,11,MOSI_11*%
%TO.N,unconnected-(Teensy4.2-MOSI-Pad11)*%
X162500000Y-83980000D03*
%TO.P,Teensy4.2,12,MISO_12*%
%TO.N,unconnected-(Teensy4.2-MISO-Pad12)*%
X162500000Y-86520000D03*
%TO.P,Teensy4.2,13,SCK_13*%
%TO.N,unconnected-(Teensy4.2-SCK-Pad13)*%
X177740000Y-86520000D03*
%TO.P,Teensy4.2,14,A0_14*%
%TO.N,unconnected-(Teensy4.2-A0-Pad14)*%
X177740000Y-83980000D03*
%TO.P,Teensy4.2,15,A1_15*%
%TO.N,unconnected-(Teensy4.2-A1-Pad15)*%
X177740000Y-81440000D03*
%TO.P,Teensy4.2,16,A2_16*%
%TO.N,unconnected-(Teensy4.2-A2-Pad16)*%
X177740000Y-78900000D03*
%TO.P,Teensy4.2,17,A3_17*%
%TO.N,unconnected-(Teensy4.2-A3-Pad17)*%
X177740000Y-76360000D03*
%TO.P,Teensy4.2,18,SDA_18*%
%TO.N,SDA*%
X177740000Y-73820000D03*
%TO.P,Teensy4.2,19,SCL_19*%
%TO.N,SCL*%
X177740000Y-71280000D03*
%TO.P,Teensy4.2,20,TX5_20*%
%TO.N,TeensyTx*%
X177740000Y-68740000D03*
%TO.P,Teensy4.2,21,RX5_21*%
%TO.N,TeensyRx*%
X177740000Y-66200000D03*
%TO.P,Teensy4.2,22,PWM_22*%
%TO.N,unconnected-(Teensy4.2-PWM-Pad22)*%
X177740000Y-63660000D03*
%TO.P,Teensy4.2,23,PWM_23*%
%TO.N,unconnected-(Teensy4.2-PWM-Pad23)*%
X177740000Y-61120000D03*
%TO.P,Teensy4.2,24,SCL2_24*%
%TO.N,unconnected-(Teensy4.2-SCL2-Pad24)*%
X162500000Y-91600000D03*
%TO.P,Teensy4.2,25,SDA2_25*%
%TO.N,unconnected-(Teensy4.2-SDA2-Pad25)*%
X162500000Y-94140000D03*
%TO.P,Teensy4.2,26,MOSI1_26*%
%TO.N,unconnected-(Teensy4.2-MOSI1-Pad26)*%
X162500000Y-96680000D03*
%TO.P,Teensy4.2,27,SCK1_27*%
%TO.N,unconnected-(Teensy4.2-SCK1-Pad27)*%
X162500000Y-99220000D03*
%TO.P,Teensy4.2,28,RX7_28*%
%TO.N,unconnected-(Teensy4.2-RX7-Pad28)*%
X162500000Y-101760000D03*
%TO.P,Teensy4.2,29,TX7_29*%
%TO.N,unconnected-(Teensy4.2-TX7-Pad29)*%
X162500000Y-104300000D03*
%TO.P,Teensy4.2,30,GPIO_30*%
%TO.N,unconnected-(Teensy4.2-GPIO-Pad30)*%
X162500000Y-106840000D03*
%TO.P,Teensy4.2,31,GPIO_31*%
%TO.N,unconnected-(Teensy4.2-GPIO-Pad31)*%
X162500000Y-109380000D03*
%TO.P,Teensy4.2,32,GPIO_32*%
%TO.N,unconnected-(Teensy4.2-GPIO-Pad32)*%
X162500000Y-111920000D03*
%TO.P,Teensy4.2,33,PWM_33*%
%TO.N,unconnected-(Teensy4.2-PWM-Pad33)*%
X177740000Y-111920000D03*
%TO.P,Teensy4.2,34,RX8_34*%
%TO.N,unconnected-(Teensy4.2-RX8-Pad34)*%
X177740000Y-109380000D03*
%TO.P,Teensy4.2,35,TX8_35*%
%TO.N,unconnected-(Teensy4.2-TX8-Pad35)*%
X177740000Y-106840000D03*
%TO.P,Teensy4.2,36,PWM_36*%
%TO.N,unconnected-(Teensy4.2-PWM-Pad36)*%
X177740000Y-104300000D03*
%TO.P,Teensy4.2,37,PWM_37*%
%TO.N,unconnected-(Teensy4.2-PWM-Pad37)*%
X177740000Y-101760000D03*
%TO.P,Teensy4.2,38,CS1_38*%
%TO.N,unconnected-(Teensy4.2-CS1-Pad38)*%
X177740000Y-99220000D03*
%TO.P,Teensy4.2,39,MISO1_39*%
%TO.N,unconnected-(Teensy4.2-MISO1-Pad39)*%
X177740000Y-96680000D03*
%TO.P,Teensy4.2,40,A16_40*%
%TO.N,unconnected-(Teensy4.2-A16-Pad40)*%
X177740000Y-94140000D03*
%TO.P,Teensy4.2,41,A17_41*%
%TO.N,unconnected-(Teensy4.2-A17-Pad41)*%
X177740000Y-91600000D03*
%TO.P,Teensy4.2,G,GND_G*%
%TO.N,GND*%
X162500000Y-53500000D03*
%TO.P,Teensy4.2,G1,GND_G1*%
%TO.N,unconnected-(Teensy4.2-GND-PadG1)*%
X177740000Y-56040000D03*
%TO.P,Teensy4.2,G2,GND_G2*%
%TO.N,unconnected-(Teensy4.2-GND-PadG2)*%
X177740000Y-89060000D03*
%TD*%
D12*
%TO.P,J1,1,Pin_1_1*%
%TO.N,ESCData*%
X182000000Y-46750000D03*
D13*
%TO.P,J1,2,Pin_2_2*%
%TO.N,GND*%
X182000000Y-44250000D03*
%TD*%
D12*
%TO.P,J3,1,Pin_1_1*%
%TO.N,B+*%
X182475000Y-95750000D03*
D13*
%TO.P,J3,2,Pin_2_2*%
%TO.N,GND*%
X182475000Y-93250000D03*
%TD*%
D12*
%TO.P,J2,1,Pin_1_1*%
%TO.N,TeensyTx*%
X183000000Y-65000000D03*
D13*
%TO.P,J2,2,Pin_2_2*%
%TO.N,ArduinoTx*%
X183000000Y-62500000D03*
%TD*%
D15*
%TO.N,GND*%
X180000000Y-88750000D03*
X186500000Y-106250000D03*
X160750000Y-84750000D03*
X161500000Y-62500000D03*
X158000000Y-61250000D03*
X162000000Y-54750000D03*
X152750000Y-58000000D03*
X186500000Y-43000000D03*
X172250000Y-39000000D03*
X184000000Y-59250000D03*
X164750000Y-86000000D03*
X179500000Y-73250000D03*
X179500000Y-71000000D03*
X176000000Y-68000000D03*
X176000000Y-62500000D03*
X186500000Y-85250000D03*
X179250000Y-75500000D03*
X172750000Y-77500000D03*
X180500000Y-57000000D03*
X179020252Y-56965332D03*
X154000000Y-70000000D03*
X154000000Y-73750000D03*
X160250000Y-86750000D03*
X159250000Y-81500000D03*
X158750000Y-56000000D03*
X156250000Y-55250000D03*
X183250000Y-99750000D03*
X158750000Y-66250000D03*
X184500000Y-52250000D03*
X163500000Y-51500000D03*
X155250000Y-64750000D03*
X178500000Y-43750000D03*
X158000000Y-50750000D03*
X186000000Y-75250000D03*
X156500000Y-97000000D03*
X171000000Y-94500000D03*
X172000000Y-60500000D03*
X155750000Y-44000000D03*
X158250000Y-75750000D03*
X156750000Y-82750000D03*
X180750000Y-61750000D03*
X170000000Y-71250000D03*
%TD*%
%TA.AperFunction,Conductor*%
%TO.N,GND*%
G36*
X187942539Y-37520185D02*
G01*
X187988294Y-37572989D01*
X187999500Y-37624500D01*
X187999500Y-116875500D01*
X187979815Y-116942539D01*
X187927011Y-116988294D01*
X187875500Y-116999500D01*
X151624500Y-116999500D01*
X151557461Y-116979815D01*
X151511706Y-116927011D01*
X151500500Y-116875500D01*
X151500500Y-111826379D01*
X161174500Y-111826379D01*
X161174500Y-112013620D01*
X161211025Y-112197243D01*
X161211027Y-112197251D01*
X161282676Y-112370228D01*
X161282681Y-112370237D01*
X161386697Y-112525907D01*
X161386700Y-112525911D01*
X161519088Y-112658299D01*
X161519092Y-112658302D01*
X161674762Y-112762318D01*
X161674768Y-112762321D01*
X161674769Y-112762322D01*
X161847749Y-112833973D01*
X162031379Y-112870499D01*
X162031383Y-112870500D01*
X162031384Y-112870500D01*
X162968617Y-112870500D01*
X162968618Y-112870499D01*
X163152251Y-112833973D01*
X163325231Y-112762322D01*
X163480908Y-112658302D01*
X163613302Y-112525908D01*
X163717322Y-112370231D01*
X163788973Y-112197251D01*
X163825500Y-112013616D01*
X163825500Y-111826384D01*
X163825499Y-111826379D01*
X176414500Y-111826379D01*
X176414500Y-112013620D01*
X176451025Y-112197243D01*
X176451027Y-112197251D01*
X176522676Y-112370228D01*
X176522681Y-112370237D01*
X176626697Y-112525907D01*
X176626700Y-112525911D01*
X176759088Y-112658299D01*
X176759092Y-112658302D01*
X176914762Y-112762318D01*
X176914768Y-112762321D01*
X176914769Y-112762322D01*
X177087749Y-112833973D01*
X177271379Y-112870499D01*
X177271383Y-112870500D01*
X177271384Y-112870500D01*
X178208617Y-112870500D01*
X178208618Y-112870499D01*
X178392251Y-112833973D01*
X178565231Y-112762322D01*
X178720908Y-112658302D01*
X178853302Y-112525908D01*
X178957322Y-112370231D01*
X179028973Y-112197251D01*
X179065500Y-112013616D01*
X179065500Y-111826384D01*
X179028973Y-111642749D01*
X178957322Y-111469769D01*
X178957321Y-111469768D01*
X178957318Y-111469762D01*
X178853302Y-111314092D01*
X178853299Y-111314088D01*
X178720911Y-111181700D01*
X178720907Y-111181697D01*
X178565237Y-111077681D01*
X178565228Y-111077676D01*
X178392251Y-111006027D01*
X178392243Y-111006025D01*
X178208620Y-110969500D01*
X178208616Y-110969500D01*
X177271384Y-110969500D01*
X177271379Y-110969500D01*
X177087756Y-111006025D01*
X177087748Y-111006027D01*
X176914771Y-111077676D01*
X176914762Y-111077681D01*
X176759092Y-111181697D01*
X176759088Y-111181700D01*
X176626700Y-111314088D01*
X176626697Y-111314092D01*
X176522681Y-111469762D01*
X176522676Y-111469771D01*
X176451027Y-111642748D01*
X176451025Y-111642756D01*
X176414500Y-111826379D01*
X163825499Y-111826379D01*
X163788973Y-111642749D01*
X163717322Y-111469769D01*
X163717321Y-111469768D01*
X163717318Y-111469762D01*
X163613302Y-111314092D01*
X163613299Y-111314088D01*
X163480911Y-111181700D01*
X163480907Y-111181697D01*
X163325237Y-111077681D01*
X163325228Y-111077676D01*
X163152251Y-111006027D01*
X163152243Y-111006025D01*
X162968620Y-110969500D01*
X162968616Y-110969500D01*
X162031384Y-110969500D01*
X162031379Y-110969500D01*
X161847756Y-111006025D01*
X161847748Y-111006027D01*
X161674771Y-111077676D01*
X161674762Y-111077681D01*
X161519092Y-111181697D01*
X161519088Y-111181700D01*
X161386700Y-111314088D01*
X161386697Y-111314092D01*
X161282681Y-111469762D01*
X161282676Y-111469771D01*
X161211027Y-111642748D01*
X161211025Y-111642756D01*
X161174500Y-111826379D01*
X151500500Y-111826379D01*
X151500500Y-109286379D01*
X161174500Y-109286379D01*
X161174500Y-109473620D01*
X161211025Y-109657243D01*
X161211027Y-109657251D01*
X161282676Y-109830228D01*
X161282681Y-109830237D01*
X161386697Y-109985907D01*
X161386700Y-109985911D01*
X161519088Y-110118299D01*
X161519092Y-110118302D01*
X161674762Y-110222318D01*
X161674768Y-110222321D01*
X161674769Y-110222322D01*
X161847749Y-110293973D01*
X162031379Y-110330499D01*
X162031383Y-110330500D01*
X162031384Y-110330500D01*
X162968617Y-110330500D01*
X162968618Y-110330499D01*
X163152251Y-110293973D01*
X163325231Y-110222322D01*
X163480908Y-110118302D01*
X163613302Y-109985908D01*
X163717322Y-109830231D01*
X163788973Y-109657251D01*
X163825500Y-109473616D01*
X163825500Y-109286384D01*
X163825499Y-109286379D01*
X176414500Y-109286379D01*
X176414500Y-109473620D01*
X176451025Y-109657243D01*
X176451027Y-109657251D01*
X176522676Y-109830228D01*
X176522681Y-109830237D01*
X176626697Y-109985907D01*
X176626700Y-109985911D01*
X176759088Y-110118299D01*
X176759092Y-110118302D01*
X176914762Y-110222318D01*
X176914768Y-110222321D01*
X176914769Y-110222322D01*
X177087749Y-110293973D01*
X177271379Y-110330499D01*
X177271383Y-110330500D01*
X177271384Y-110330500D01*
X178208617Y-110330500D01*
X178208618Y-110330499D01*
X178392251Y-110293973D01*
X178565231Y-110222322D01*
X178720908Y-110118302D01*
X178853302Y-109985908D01*
X178957322Y-109830231D01*
X179028973Y-109657251D01*
X179065500Y-109473616D01*
X179065500Y-109286384D01*
X179028973Y-109102749D01*
X178957322Y-108929769D01*
X178957321Y-108929768D01*
X178957318Y-108929762D01*
X178853302Y-108774092D01*
X178853299Y-108774088D01*
X178720911Y-108641700D01*
X178720907Y-108641697D01*
X178565237Y-108537681D01*
X178565228Y-108537676D01*
X178392251Y-108466027D01*
X178392243Y-108466025D01*
X178208620Y-108429500D01*
X178208616Y-108429500D01*
X177271384Y-108429500D01*
X177271379Y-108429500D01*
X177087756Y-108466025D01*
X177087748Y-108466027D01*
X176914771Y-108537676D01*
X176914762Y-108537681D01*
X176759092Y-108641697D01*
X176759088Y-108641700D01*
X176626700Y-108774088D01*
X176626697Y-108774092D01*
X176522681Y-108929762D01*
X176522676Y-108929771D01*
X176451027Y-109102748D01*
X176451025Y-109102756D01*
X176414500Y-109286379D01*
X163825499Y-109286379D01*
X163788973Y-109102749D01*
X163717322Y-108929769D01*
X163717321Y-108929768D01*
X163717318Y-108929762D01*
X163613302Y-108774092D01*
X163613299Y-108774088D01*
X163480911Y-108641700D01*
X163480907Y-108641697D01*
X163325237Y-108537681D01*
X163325228Y-108537676D01*
X163152251Y-108466027D01*
X163152243Y-108466025D01*
X162968620Y-108429500D01*
X162968616Y-108429500D01*
X162031384Y-108429500D01*
X162031379Y-108429500D01*
X161847756Y-108466025D01*
X161847748Y-108466027D01*
X161674771Y-108537676D01*
X161674762Y-108537681D01*
X161519092Y-108641697D01*
X161519088Y-108641700D01*
X161386700Y-108774088D01*
X161386697Y-108774092D01*
X161282681Y-108929762D01*
X161282676Y-108929771D01*
X161211027Y-109102748D01*
X161211025Y-109102756D01*
X161174500Y-109286379D01*
X151500500Y-109286379D01*
X151500500Y-108154747D01*
X182474000Y-108154747D01*
X182474000Y-109845252D01*
X182485631Y-109903729D01*
X182485632Y-109903730D01*
X182529947Y-109970052D01*
X182596269Y-110014367D01*
X182596270Y-110014368D01*
X182654747Y-110025999D01*
X182654750Y-110026000D01*
X182654752Y-110026000D01*
X184345250Y-110026000D01*
X184345251Y-110025999D01*
X184360068Y-110023052D01*
X184403729Y-110014368D01*
X184403729Y-110014367D01*
X184403731Y-110014367D01*
X184470052Y-109970052D01*
X184514367Y-109903731D01*
X184514367Y-109903729D01*
X184514368Y-109903729D01*
X184525999Y-109845252D01*
X184526000Y-109845250D01*
X184526000Y-108154749D01*
X184525999Y-108154747D01*
X184514368Y-108096270D01*
X184514367Y-108096269D01*
X184470052Y-108029947D01*
X184403730Y-107985632D01*
X184403729Y-107985631D01*
X184345252Y-107974000D01*
X184345248Y-107974000D01*
X182654752Y-107974000D01*
X182654747Y-107974000D01*
X182596270Y-107985631D01*
X182596269Y-107985632D01*
X182529947Y-108029947D01*
X182485632Y-108096269D01*
X182485631Y-108096270D01*
X182474000Y-108154747D01*
X151500500Y-108154747D01*
X151500500Y-106746379D01*
X161174500Y-106746379D01*
X161174500Y-106933620D01*
X161211025Y-107117243D01*
X161211027Y-107117251D01*
X161282676Y-107290228D01*
X161282681Y-107290237D01*
X161386697Y-107445907D01*
X161386700Y-107445911D01*
X161519088Y-107578299D01*
X161519092Y-107578302D01*
X161674762Y-107682318D01*
X161674768Y-107682321D01*
X161674769Y-107682322D01*
X161847749Y-107753973D01*
X162031379Y-107790499D01*
X162031383Y-107790500D01*
X162031384Y-107790500D01*
X162968617Y-107790500D01*
X162968618Y-107790499D01*
X163152251Y-107753973D01*
X163325231Y-107682322D01*
X163480908Y-107578302D01*
X163613302Y-107445908D01*
X163717322Y-107290231D01*
X163788973Y-107117251D01*
X163825500Y-106933616D01*
X163825500Y-106746384D01*
X163825499Y-106746379D01*
X176414500Y-106746379D01*
X176414500Y-106933620D01*
X176451025Y-107117243D01*
X176451027Y-107117251D01*
X176522676Y-107290228D01*
X176522681Y-107290237D01*
X176626697Y-107445907D01*
X176626700Y-107445911D01*
X176759088Y-107578299D01*
X176759092Y-107578302D01*
X176914762Y-107682318D01*
X176914768Y-107682321D01*
X176914769Y-107682322D01*
X177087749Y-107753973D01*
X177271379Y-107790499D01*
X177271383Y-107790500D01*
X177271384Y-107790500D01*
X178208617Y-107790500D01*
X178208618Y-107790499D01*
X178392251Y-107753973D01*
X178565231Y-107682322D01*
X178720908Y-107578302D01*
X178853302Y-107445908D01*
X178957322Y-107290231D01*
X179028973Y-107117251D01*
X179065500Y-106933616D01*
X179065500Y-106746384D01*
X179028973Y-106562749D01*
X178957322Y-106389769D01*
X178957321Y-106389768D01*
X178957318Y-106389762D01*
X178853302Y-106234092D01*
X178853299Y-106234088D01*
X178720911Y-106101700D01*
X178720907Y-106101697D01*
X178565237Y-105997681D01*
X178565228Y-105997676D01*
X178392251Y-105926027D01*
X178392243Y-105926025D01*
X178208620Y-105889500D01*
X178208616Y-105889500D01*
X177271384Y-105889500D01*
X177271379Y-105889500D01*
X177087756Y-105926025D01*
X177087748Y-105926027D01*
X176914771Y-105997676D01*
X176914762Y-105997681D01*
X176759092Y-106101697D01*
X176759088Y-106101700D01*
X176626700Y-106234088D01*
X176626697Y-106234092D01*
X176522681Y-106389762D01*
X176522676Y-106389771D01*
X176451027Y-106562748D01*
X176451025Y-106562756D01*
X176414500Y-106746379D01*
X163825499Y-106746379D01*
X163788973Y-106562749D01*
X163717322Y-106389769D01*
X163717321Y-106389768D01*
X163717318Y-106389762D01*
X163613302Y-106234092D01*
X163613299Y-106234088D01*
X163480911Y-106101700D01*
X163480907Y-106101697D01*
X163325237Y-105997681D01*
X163325228Y-105997676D01*
X163152251Y-105926027D01*
X163152243Y-105926025D01*
X162968620Y-105889500D01*
X162968616Y-105889500D01*
X162031384Y-105889500D01*
X162031379Y-105889500D01*
X161847756Y-105926025D01*
X161847748Y-105926027D01*
X161674771Y-105997676D01*
X161674762Y-105997681D01*
X161519092Y-106101697D01*
X161519088Y-106101700D01*
X161386700Y-106234088D01*
X161386697Y-106234092D01*
X161282681Y-106389762D01*
X161282676Y-106389771D01*
X161211027Y-106562748D01*
X161211025Y-106562756D01*
X161174500Y-106746379D01*
X151500500Y-106746379D01*
X151500500Y-104206379D01*
X161174500Y-104206379D01*
X161174500Y-104393620D01*
X161211025Y-104577243D01*
X161211027Y-104577251D01*
X161282676Y-104750228D01*
X161282681Y-104750237D01*
X161386697Y-104905907D01*
X161386700Y-104905911D01*
X161519088Y-105038299D01*
X161519092Y-105038302D01*
X161674762Y-105142318D01*
X161674768Y-105142321D01*
X161674769Y-105142322D01*
X161847749Y-105213973D01*
X162031379Y-105250499D01*
X162031383Y-105250500D01*
X162031384Y-105250500D01*
X162968617Y-105250500D01*
X162968618Y-105250499D01*
X163152251Y-105213973D01*
X163325231Y-105142322D01*
X163480908Y-105038302D01*
X163613302Y-104905908D01*
X163717322Y-104750231D01*
X163788973Y-104577251D01*
X163825500Y-104393616D01*
X163825500Y-104206384D01*
X163825499Y-104206379D01*
X176414500Y-104206379D01*
X176414500Y-104393620D01*
X176451025Y-104577243D01*
X176451027Y-104577251D01*
X176522676Y-104750228D01*
X176522681Y-104750237D01*
X176626697Y-104905907D01*
X176626700Y-104905911D01*
X176759088Y-105038299D01*
X176759092Y-105038302D01*
X176914762Y-105142318D01*
X176914768Y-105142321D01*
X176914769Y-105142322D01*
X177087749Y-105213973D01*
X177271379Y-105250499D01*
X177271383Y-105250500D01*
X177271384Y-105250500D01*
X178208617Y-105250500D01*
X178208618Y-105250499D01*
X178392251Y-105213973D01*
X178565231Y-105142322D01*
X178720908Y-105038302D01*
X178853302Y-104905908D01*
X178957322Y-104750231D01*
X179028973Y-104577251D01*
X179065500Y-104393616D01*
X179065500Y-104206384D01*
X179028973Y-104022749D01*
X179028271Y-104021054D01*
X182473999Y-104021054D01*
X182513427Y-104219267D01*
X182513429Y-104219273D01*
X182590771Y-104405995D01*
X182703050Y-104574032D01*
X182703056Y-104574040D01*
X182845959Y-104716943D01*
X182845967Y-104716949D01*
X183014005Y-104829228D01*
X183014004Y-104829228D01*
X183068693Y-104851881D01*
X183200727Y-104906571D01*
X183200731Y-104906571D01*
X183200732Y-104906572D01*
X183398945Y-104946000D01*
X183398948Y-104946000D01*
X183601054Y-104946000D01*
X183734409Y-104919473D01*
X183799273Y-104906571D01*
X183985993Y-104829229D01*
X183985993Y-104829228D01*
X183985995Y-104829228D01*
X184104227Y-104750228D01*
X184154037Y-104716946D01*
X184296946Y-104574037D01*
X184409229Y-104405993D01*
X184486571Y-104219273D01*
X184525661Y-104022756D01*
X184526000Y-104021054D01*
X184526000Y-103818945D01*
X184486572Y-103620732D01*
X184486571Y-103620731D01*
X184486571Y-103620727D01*
X184409229Y-103434007D01*
X184409228Y-103434004D01*
X184296949Y-103265967D01*
X184296943Y-103265959D01*
X184154040Y-103123056D01*
X184154032Y-103123050D01*
X183985994Y-103010771D01*
X183985995Y-103010771D01*
X183799273Y-102933429D01*
X183799267Y-102933427D01*
X183601054Y-102894000D01*
X183601052Y-102894000D01*
X183398948Y-102894000D01*
X183398946Y-102894000D01*
X183200732Y-102933427D01*
X183200726Y-102933429D01*
X183014004Y-103010771D01*
X182845967Y-103123050D01*
X182845959Y-103123056D01*
X182703056Y-103265959D01*
X182703050Y-103265967D01*
X182590771Y-103434004D01*
X182513429Y-103620726D01*
X182513427Y-103620732D01*
X182474000Y-103818945D01*
X182474000Y-103818948D01*
X182474000Y-104021052D01*
X182474000Y-104021054D01*
X182473999Y-104021054D01*
X179028271Y-104021054D01*
X178957322Y-103849769D01*
X178957321Y-103849768D01*
X178957318Y-103849762D01*
X178853302Y-103694092D01*
X178853299Y-103694088D01*
X178720911Y-103561700D01*
X178720907Y-103561697D01*
X178565237Y-103457681D01*
X178565228Y-103457676D01*
X178392251Y-103386027D01*
X178392243Y-103386025D01*
X178208620Y-103349500D01*
X178208616Y-103349500D01*
X177271384Y-103349500D01*
X177271379Y-103349500D01*
X177087756Y-103386025D01*
X177087748Y-103386027D01*
X176914771Y-103457676D01*
X176914762Y-103457681D01*
X176759092Y-103561697D01*
X176759088Y-103561700D01*
X176626700Y-103694088D01*
X176626697Y-103694092D01*
X176522681Y-103849762D01*
X176522676Y-103849771D01*
X176451027Y-104022748D01*
X176451025Y-104022756D01*
X176414500Y-104206379D01*
X163825499Y-104206379D01*
X163788973Y-104022749D01*
X163717322Y-103849769D01*
X163717321Y-103849768D01*
X163717318Y-103849762D01*
X163613302Y-103694092D01*
X163613299Y-103694088D01*
X163480911Y-103561700D01*
X163480907Y-103561697D01*
X163325237Y-103457681D01*
X163325228Y-103457676D01*
X163152251Y-103386027D01*
X163152243Y-103386025D01*
X162968620Y-103349500D01*
X162968616Y-103349500D01*
X162031384Y-103349500D01*
X162031379Y-103349500D01*
X161847756Y-103386025D01*
X161847748Y-103386027D01*
X161674771Y-103457676D01*
X161674762Y-103457681D01*
X161519092Y-103561697D01*
X161519088Y-103561700D01*
X161386700Y-103694088D01*
X161386697Y-103694092D01*
X161282681Y-103849762D01*
X161282676Y-103849771D01*
X161211027Y-104022748D01*
X161211025Y-104022756D01*
X161174500Y-104206379D01*
X151500500Y-104206379D01*
X151500500Y-101666379D01*
X161174500Y-101666379D01*
X161174500Y-101853620D01*
X161211025Y-102037243D01*
X161211027Y-102037251D01*
X161282676Y-102210228D01*
X161282681Y-102210237D01*
X161386697Y-102365907D01*
X161386700Y-102365911D01*
X161519088Y-102498299D01*
X161519092Y-102498302D01*
X161674762Y-102602318D01*
X161674768Y-102602321D01*
X161674769Y-102602322D01*
X161847749Y-102673973D01*
X162031379Y-102710499D01*
X162031383Y-102710500D01*
X162031384Y-102710500D01*
X162968617Y-102710500D01*
X162968618Y-102710499D01*
X163152251Y-102673973D01*
X163325231Y-102602322D01*
X163480908Y-102498302D01*
X163613302Y-102365908D01*
X163717322Y-102210231D01*
X163788973Y-102037251D01*
X163825500Y-101853616D01*
X163825500Y-101666384D01*
X163825499Y-101666379D01*
X176414500Y-101666379D01*
X176414500Y-101853620D01*
X176451025Y-102037243D01*
X176451027Y-102037251D01*
X176522676Y-102210228D01*
X176522681Y-102210237D01*
X176626697Y-102365907D01*
X176626700Y-102365911D01*
X176759088Y-102498299D01*
X176759092Y-102498302D01*
X176914762Y-102602318D01*
X176914768Y-102602321D01*
X176914769Y-102602322D01*
X177087749Y-102673973D01*
X177271379Y-102710499D01*
X177271383Y-102710500D01*
X177271384Y-102710500D01*
X178208617Y-102710500D01*
X178208618Y-102710499D01*
X178392251Y-102673973D01*
X178565231Y-102602322D01*
X178720908Y-102498302D01*
X178853302Y-102365908D01*
X178957322Y-102210231D01*
X179028973Y-102037251D01*
X179065500Y-101853616D01*
X179065500Y-101666384D01*
X179028973Y-101482749D01*
X178957322Y-101309769D01*
X178957321Y-101309768D01*
X178957318Y-101309762D01*
X178853302Y-101154092D01*
X178853299Y-101154088D01*
X178720911Y-101021700D01*
X178720907Y-101021697D01*
X178565237Y-100917681D01*
X178565228Y-100917676D01*
X178392251Y-100846027D01*
X178392243Y-100846025D01*
X178208620Y-100809500D01*
X178208616Y-100809500D01*
X177271384Y-100809500D01*
X177271379Y-100809500D01*
X177087756Y-100846025D01*
X177087748Y-100846027D01*
X176914771Y-100917676D01*
X176914762Y-100917681D01*
X176759092Y-101021697D01*
X176759088Y-101021700D01*
X176626700Y-101154088D01*
X176626697Y-101154092D01*
X176522681Y-101309762D01*
X176522676Y-101309771D01*
X176451027Y-101482748D01*
X176451025Y-101482756D01*
X176414500Y-101666379D01*
X163825499Y-101666379D01*
X163788973Y-101482749D01*
X163717322Y-101309769D01*
X163717321Y-101309768D01*
X163717318Y-101309762D01*
X163613302Y-101154092D01*
X163613299Y-101154088D01*
X163480911Y-101021700D01*
X163480907Y-101021697D01*
X163325237Y-100917681D01*
X163325228Y-100917676D01*
X163152251Y-100846027D01*
X163152243Y-100846025D01*
X162968620Y-100809500D01*
X162968616Y-100809500D01*
X162031384Y-100809500D01*
X162031379Y-100809500D01*
X161847756Y-100846025D01*
X161847748Y-100846027D01*
X161674771Y-100917676D01*
X161674762Y-100917681D01*
X161519092Y-101021697D01*
X161519088Y-101021700D01*
X161386700Y-101154088D01*
X161386697Y-101154092D01*
X161282681Y-101309762D01*
X161282676Y-101309771D01*
X161211027Y-101482748D01*
X161211025Y-101482756D01*
X161174500Y-101666379D01*
X151500500Y-101666379D01*
X151500500Y-99126379D01*
X161174500Y-99126379D01*
X161174500Y-99313620D01*
X161211025Y-99497243D01*
X161211027Y-99497251D01*
X161282676Y-99670228D01*
X161282681Y-99670237D01*
X161386697Y-99825907D01*
X161386700Y-99825911D01*
X161519088Y-99958299D01*
X161519092Y-99958302D01*
X161674762Y-100062318D01*
X161674768Y-100062321D01*
X161674769Y-100062322D01*
X161847749Y-100133973D01*
X162031379Y-100170499D01*
X162031383Y-100170500D01*
X162031384Y-100170500D01*
X162968617Y-100170500D01*
X162968618Y-100170499D01*
X163152251Y-100133973D01*
X163325231Y-100062322D01*
X163480908Y-99958302D01*
X163613302Y-99825908D01*
X163717322Y-99670231D01*
X163788973Y-99497251D01*
X163825500Y-99313616D01*
X163825500Y-99126384D01*
X163825499Y-99126379D01*
X176414500Y-99126379D01*
X176414500Y-99313620D01*
X176451025Y-99497243D01*
X176451027Y-99497251D01*
X176522676Y-99670228D01*
X176522681Y-99670237D01*
X176626697Y-99825907D01*
X176626700Y-99825911D01*
X176759088Y-99958299D01*
X176759092Y-99958302D01*
X176914762Y-100062318D01*
X176914768Y-100062321D01*
X176914769Y-100062322D01*
X177087749Y-100133973D01*
X177271379Y-100170499D01*
X177271383Y-100170500D01*
X177271384Y-100170500D01*
X178208617Y-100170500D01*
X178208618Y-100170499D01*
X178392251Y-100133973D01*
X178565231Y-100062322D01*
X178720908Y-99958302D01*
X178853302Y-99825908D01*
X178957322Y-99670231D01*
X179028973Y-99497251D01*
X179065500Y-99313616D01*
X179065500Y-99126384D01*
X179028973Y-98942749D01*
X178957322Y-98769769D01*
X178957321Y-98769768D01*
X178957318Y-98769762D01*
X178853302Y-98614092D01*
X178853299Y-98614088D01*
X178720911Y-98481700D01*
X178720907Y-98481697D01*
X178565237Y-98377681D01*
X178565228Y-98377676D01*
X178392251Y-98306027D01*
X178392243Y-98306025D01*
X178208620Y-98269500D01*
X178208616Y-98269500D01*
X177271384Y-98269500D01*
X177271379Y-98269500D01*
X177087756Y-98306025D01*
X177087748Y-98306027D01*
X176914771Y-98377676D01*
X176914762Y-98377681D01*
X176759092Y-98481697D01*
X176759088Y-98481700D01*
X176626700Y-98614088D01*
X176626697Y-98614092D01*
X176522681Y-98769762D01*
X176522676Y-98769771D01*
X176451027Y-98942748D01*
X176451025Y-98942756D01*
X176414500Y-99126379D01*
X163825499Y-99126379D01*
X163788973Y-98942749D01*
X163717322Y-98769769D01*
X163717321Y-98769768D01*
X163717318Y-98769762D01*
X163613302Y-98614092D01*
X163613299Y-98614088D01*
X163480911Y-98481700D01*
X163480907Y-98481697D01*
X163325237Y-98377681D01*
X163325228Y-98377676D01*
X163152251Y-98306027D01*
X163152243Y-98306025D01*
X162968620Y-98269500D01*
X162968616Y-98269500D01*
X162031384Y-98269500D01*
X162031379Y-98269500D01*
X161847756Y-98306025D01*
X161847748Y-98306027D01*
X161674771Y-98377676D01*
X161674762Y-98377681D01*
X161519092Y-98481697D01*
X161519088Y-98481700D01*
X161386700Y-98614088D01*
X161386697Y-98614092D01*
X161282681Y-98769762D01*
X161282676Y-98769771D01*
X161211027Y-98942748D01*
X161211025Y-98942756D01*
X161174500Y-99126379D01*
X151500500Y-99126379D01*
X151500500Y-96586379D01*
X161174500Y-96586379D01*
X161174500Y-96773620D01*
X161211025Y-96957243D01*
X161211027Y-96957251D01*
X161282676Y-97130228D01*
X161282681Y-97130237D01*
X161386697Y-97285907D01*
X161386700Y-97285911D01*
X161519088Y-97418299D01*
X161519092Y-97418302D01*
X161674762Y-97522318D01*
X161674768Y-97522321D01*
X161674769Y-97522322D01*
X161847749Y-97593973D01*
X162031379Y-97630499D01*
X162031383Y-97630500D01*
X162031384Y-97630500D01*
X162968617Y-97630500D01*
X162968618Y-97630499D01*
X163152251Y-97593973D01*
X163325231Y-97522322D01*
X163480908Y-97418302D01*
X163613302Y-97285908D01*
X163717322Y-97130231D01*
X163788973Y-96957251D01*
X163825500Y-96773616D01*
X163825500Y-96586384D01*
X163825499Y-96586379D01*
X176414500Y-96586379D01*
X176414500Y-96773620D01*
X176451025Y-96957243D01*
X176451027Y-96957251D01*
X176522676Y-97130228D01*
X176522681Y-97130237D01*
X176626697Y-97285907D01*
X176626700Y-97285911D01*
X176759088Y-97418299D01*
X176759092Y-97418302D01*
X176914762Y-97522318D01*
X176914768Y-97522321D01*
X176914769Y-97522322D01*
X177087749Y-97593973D01*
X177271379Y-97630499D01*
X177271383Y-97630500D01*
X177271384Y-97630500D01*
X178208617Y-97630500D01*
X178208618Y-97630499D01*
X178392251Y-97593973D01*
X178565231Y-97522322D01*
X178720908Y-97418302D01*
X178853302Y-97285908D01*
X178957322Y-97130231D01*
X179028973Y-96957251D01*
X179065500Y-96773616D01*
X179065500Y-96586384D01*
X179028973Y-96402749D01*
X178957322Y-96229769D01*
X178957321Y-96229768D01*
X178957318Y-96229762D01*
X178853302Y-96074092D01*
X178853299Y-96074088D01*
X178720911Y-95941700D01*
X178720907Y-95941697D01*
X178565237Y-95837681D01*
X178565228Y-95837676D01*
X178392251Y-95766027D01*
X178392243Y-95766025D01*
X178208620Y-95729500D01*
X178208616Y-95729500D01*
X177271384Y-95729500D01*
X177271379Y-95729500D01*
X177087756Y-95766025D01*
X177087748Y-95766027D01*
X176914771Y-95837676D01*
X176914762Y-95837681D01*
X176759092Y-95941697D01*
X176759088Y-95941700D01*
X176626700Y-96074088D01*
X176626697Y-96074092D01*
X176522681Y-96229762D01*
X176522676Y-96229771D01*
X176451027Y-96402748D01*
X176451025Y-96402756D01*
X176414500Y-96586379D01*
X163825499Y-96586379D01*
X163788973Y-96402749D01*
X163717322Y-96229769D01*
X163717321Y-96229768D01*
X163717318Y-96229762D01*
X163613302Y-96074092D01*
X163613299Y-96074088D01*
X163480911Y-95941700D01*
X163480907Y-95941697D01*
X163325237Y-95837681D01*
X163325228Y-95837676D01*
X163152251Y-95766027D01*
X163152243Y-95766025D01*
X162968620Y-95729500D01*
X162968616Y-95729500D01*
X162031384Y-95729500D01*
X162031379Y-95729500D01*
X161847756Y-95766025D01*
X161847748Y-95766027D01*
X161674771Y-95837676D01*
X161674762Y-95837681D01*
X161519092Y-95941697D01*
X161519088Y-95941700D01*
X161386700Y-96074088D01*
X161386697Y-96074092D01*
X161282681Y-96229762D01*
X161282676Y-96229771D01*
X161211027Y-96402748D01*
X161211025Y-96402756D01*
X161174500Y-96586379D01*
X151500500Y-96586379D01*
X151500500Y-95095730D01*
X181274500Y-95095730D01*
X181274500Y-96404269D01*
X181277353Y-96434699D01*
X181277353Y-96434701D01*
X181322206Y-96562880D01*
X181322207Y-96562882D01*
X181402850Y-96672150D01*
X181512118Y-96752793D01*
X181554845Y-96767744D01*
X181640299Y-96797646D01*
X181670730Y-96800500D01*
X181670734Y-96800500D01*
X183279270Y-96800500D01*
X183309699Y-96797646D01*
X183309701Y-96797646D01*
X183373790Y-96775219D01*
X183437882Y-96752793D01*
X183547150Y-96672150D01*
X183627793Y-96562882D01*
X183650219Y-96498790D01*
X183672646Y-96434701D01*
X183672646Y-96434699D01*
X183675500Y-96404269D01*
X183675500Y-95095730D01*
X183672646Y-95065300D01*
X183672646Y-95065298D01*
X183627793Y-94937119D01*
X183627792Y-94937117D01*
X183547150Y-94827850D01*
X183437882Y-94747207D01*
X183437880Y-94747206D01*
X183309700Y-94702353D01*
X183279270Y-94699500D01*
X183279266Y-94699500D01*
X181670734Y-94699500D01*
X181670730Y-94699500D01*
X181640300Y-94702353D01*
X181640298Y-94702353D01*
X181512119Y-94747206D01*
X181512117Y-94747207D01*
X181402850Y-94827850D01*
X181322207Y-94937117D01*
X181322206Y-94937119D01*
X181277353Y-95065298D01*
X181277353Y-95065300D01*
X181274500Y-95095730D01*
X151500500Y-95095730D01*
X151500500Y-94046379D01*
X161174500Y-94046379D01*
X161174500Y-94233620D01*
X161211025Y-94417243D01*
X161211027Y-94417251D01*
X161282676Y-94590228D01*
X161282681Y-94590237D01*
X161386697Y-94745907D01*
X161386700Y-94745911D01*
X161519088Y-94878299D01*
X161519092Y-94878302D01*
X161674762Y-94982318D01*
X161674768Y-94982321D01*
X161674769Y-94982322D01*
X161847749Y-95053973D01*
X162031379Y-95090499D01*
X162031383Y-95090500D01*
X162031384Y-95090500D01*
X162968617Y-95090500D01*
X162968618Y-95090499D01*
X163152251Y-95053973D01*
X163325231Y-94982322D01*
X163480908Y-94878302D01*
X163613302Y-94745908D01*
X163717322Y-94590231D01*
X163788973Y-94417251D01*
X163825500Y-94233616D01*
X163825500Y-94046384D01*
X163825499Y-94046379D01*
X176414500Y-94046379D01*
X176414500Y-94233620D01*
X176451025Y-94417243D01*
X176451027Y-94417251D01*
X176522676Y-94590228D01*
X176522681Y-94590237D01*
X176626697Y-94745907D01*
X176626700Y-94745911D01*
X176759088Y-94878299D01*
X176759092Y-94878302D01*
X176914762Y-94982318D01*
X176914768Y-94982321D01*
X176914769Y-94982322D01*
X177087749Y-95053973D01*
X177271379Y-95090499D01*
X177271383Y-95090500D01*
X177271384Y-95090500D01*
X178208617Y-95090500D01*
X178208618Y-95090499D01*
X178392251Y-95053973D01*
X178565231Y-94982322D01*
X178720908Y-94878302D01*
X178853302Y-94745908D01*
X178957322Y-94590231D01*
X179028973Y-94417251D01*
X179065500Y-94233616D01*
X179065500Y-94046384D01*
X179028973Y-93862749D01*
X178957322Y-93689769D01*
X178957321Y-93689768D01*
X178957318Y-93689762D01*
X178853302Y-93534092D01*
X178853299Y-93534088D01*
X178720911Y-93401700D01*
X178720907Y-93401697D01*
X178565237Y-93297681D01*
X178565228Y-93297676D01*
X178392251Y-93226027D01*
X178392243Y-93226025D01*
X178208620Y-93189500D01*
X178208616Y-93189500D01*
X177271384Y-93189500D01*
X177271379Y-93189500D01*
X177087756Y-93226025D01*
X177087748Y-93226027D01*
X176914771Y-93297676D01*
X176914762Y-93297681D01*
X176759092Y-93401697D01*
X176759088Y-93401700D01*
X176626700Y-93534088D01*
X176626697Y-93534092D01*
X176522681Y-93689762D01*
X176522676Y-93689771D01*
X176451027Y-93862748D01*
X176451025Y-93862756D01*
X176414500Y-94046379D01*
X163825499Y-94046379D01*
X163788973Y-93862749D01*
X163717322Y-93689769D01*
X163717321Y-93689768D01*
X163717318Y-93689762D01*
X163613302Y-93534092D01*
X163613299Y-93534088D01*
X163480911Y-93401700D01*
X163480907Y-93401697D01*
X163325237Y-93297681D01*
X163325228Y-93297676D01*
X163152251Y-93226027D01*
X163152243Y-93226025D01*
X162968620Y-93189500D01*
X162968616Y-93189500D01*
X162031384Y-93189500D01*
X162031379Y-93189500D01*
X161847756Y-93226025D01*
X161847748Y-93226027D01*
X161674771Y-93297676D01*
X161674762Y-93297681D01*
X161519092Y-93401697D01*
X161519088Y-93401700D01*
X161386700Y-93534088D01*
X161386697Y-93534092D01*
X161282681Y-93689762D01*
X161282676Y-93689771D01*
X161211027Y-93862748D01*
X161211025Y-93862756D01*
X161174500Y-94046379D01*
X151500500Y-94046379D01*
X151500500Y-91506379D01*
X161174500Y-91506379D01*
X161174500Y-91693620D01*
X161211025Y-91877243D01*
X161211027Y-91877251D01*
X161282676Y-92050228D01*
X161282681Y-92050237D01*
X161386697Y-92205907D01*
X161386700Y-92205911D01*
X161519088Y-92338299D01*
X161519092Y-92338302D01*
X161674762Y-92442318D01*
X161674768Y-92442321D01*
X161674769Y-92442322D01*
X161847749Y-92513973D01*
X162031379Y-92550499D01*
X162031383Y-92550500D01*
X162031384Y-92550500D01*
X162968617Y-92550500D01*
X162968618Y-92550499D01*
X163152251Y-92513973D01*
X163325231Y-92442322D01*
X163480908Y-92338302D01*
X163613302Y-92205908D01*
X163717322Y-92050231D01*
X163788973Y-91877251D01*
X163825500Y-91693616D01*
X163825500Y-91506384D01*
X163825499Y-91506379D01*
X176414500Y-91506379D01*
X176414500Y-91693620D01*
X176451025Y-91877243D01*
X176451027Y-91877251D01*
X176522676Y-92050228D01*
X176522681Y-92050237D01*
X176626697Y-92205907D01*
X176626700Y-92205911D01*
X176759088Y-92338299D01*
X176759092Y-92338302D01*
X176914762Y-92442318D01*
X176914768Y-92442321D01*
X176914769Y-92442322D01*
X177087749Y-92513973D01*
X177271379Y-92550499D01*
X177271383Y-92550500D01*
X177271384Y-92550500D01*
X178208617Y-92550500D01*
X178208618Y-92550499D01*
X178392251Y-92513973D01*
X178565231Y-92442322D01*
X178720908Y-92338302D01*
X178853302Y-92205908D01*
X178957322Y-92050231D01*
X179028973Y-91877251D01*
X179065500Y-91693616D01*
X179065500Y-91506384D01*
X179028973Y-91322749D01*
X178957322Y-91149769D01*
X178957321Y-91149768D01*
X178957318Y-91149762D01*
X178853302Y-90994092D01*
X178853299Y-90994088D01*
X178720911Y-90861700D01*
X178720907Y-90861697D01*
X178565237Y-90757681D01*
X178565228Y-90757676D01*
X178392251Y-90686027D01*
X178392243Y-90686025D01*
X178208620Y-90649500D01*
X178208616Y-90649500D01*
X177271384Y-90649500D01*
X177271379Y-90649500D01*
X177087756Y-90686025D01*
X177087748Y-90686027D01*
X176914771Y-90757676D01*
X176914762Y-90757681D01*
X176759092Y-90861697D01*
X176759088Y-90861700D01*
X176626700Y-90994088D01*
X176626697Y-90994092D01*
X176522681Y-91149762D01*
X176522676Y-91149771D01*
X176451027Y-91322748D01*
X176451025Y-91322756D01*
X176414500Y-91506379D01*
X163825499Y-91506379D01*
X163788973Y-91322749D01*
X163717322Y-91149769D01*
X163717321Y-91149768D01*
X163717318Y-91149762D01*
X163613302Y-90994092D01*
X163613299Y-90994088D01*
X163480911Y-90861700D01*
X163480907Y-90861697D01*
X163325237Y-90757681D01*
X163325228Y-90757676D01*
X163152251Y-90686027D01*
X163152243Y-90686025D01*
X162968620Y-90649500D01*
X162968616Y-90649500D01*
X162031384Y-90649500D01*
X162031379Y-90649500D01*
X161847756Y-90686025D01*
X161847748Y-90686027D01*
X161674771Y-90757676D01*
X161674762Y-90757681D01*
X161519092Y-90861697D01*
X161519088Y-90861700D01*
X161386700Y-90994088D01*
X161386697Y-90994092D01*
X161282681Y-91149762D01*
X161282676Y-91149771D01*
X161211027Y-91322748D01*
X161211025Y-91322756D01*
X161174500Y-91506379D01*
X151500500Y-91506379D01*
X151500500Y-88966379D01*
X161174500Y-88966379D01*
X161174500Y-89153620D01*
X161211025Y-89337243D01*
X161211027Y-89337251D01*
X161282676Y-89510228D01*
X161282681Y-89510237D01*
X161386697Y-89665907D01*
X161386700Y-89665911D01*
X161519088Y-89798299D01*
X161519092Y-89798302D01*
X161674762Y-89902318D01*
X161674768Y-89902321D01*
X161674769Y-89902322D01*
X161847749Y-89973973D01*
X162031379Y-90010499D01*
X162031383Y-90010500D01*
X162031384Y-90010500D01*
X162968617Y-90010500D01*
X162968618Y-90010499D01*
X163152251Y-89973973D01*
X163325231Y-89902322D01*
X163480908Y-89798302D01*
X163613302Y-89665908D01*
X163717322Y-89510231D01*
X163788973Y-89337251D01*
X163825500Y-89153616D01*
X163825500Y-88966384D01*
X163825499Y-88966379D01*
X176414500Y-88966379D01*
X176414500Y-89153620D01*
X176451025Y-89337243D01*
X176451027Y-89337251D01*
X176522676Y-89510228D01*
X176522681Y-89510237D01*
X176626697Y-89665907D01*
X176626700Y-89665911D01*
X176759088Y-89798299D01*
X176759092Y-89798302D01*
X176914762Y-89902318D01*
X176914768Y-89902321D01*
X176914769Y-89902322D01*
X177087749Y-89973973D01*
X177271379Y-90010499D01*
X177271383Y-90010500D01*
X177271384Y-90010500D01*
X178208617Y-90010500D01*
X178208618Y-90010499D01*
X178392251Y-89973973D01*
X178565231Y-89902322D01*
X178720908Y-89798302D01*
X178853302Y-89665908D01*
X178957322Y-89510231D01*
X179028973Y-89337251D01*
X179065500Y-89153616D01*
X179065500Y-88966384D01*
X179028973Y-88782749D01*
X178957322Y-88609769D01*
X178957321Y-88609768D01*
X178957318Y-88609762D01*
X178853302Y-88454092D01*
X178853299Y-88454088D01*
X178720911Y-88321700D01*
X178720907Y-88321697D01*
X178565237Y-88217681D01*
X178565228Y-88217676D01*
X178392251Y-88146027D01*
X178392243Y-88146025D01*
X178208620Y-88109500D01*
X178208616Y-88109500D01*
X177271384Y-88109500D01*
X177271379Y-88109500D01*
X177087756Y-88146025D01*
X177087748Y-88146027D01*
X176914771Y-88217676D01*
X176914762Y-88217681D01*
X176759092Y-88321697D01*
X176759088Y-88321700D01*
X176626700Y-88454088D01*
X176626697Y-88454092D01*
X176522681Y-88609762D01*
X176522676Y-88609771D01*
X176451027Y-88782748D01*
X176451025Y-88782756D01*
X176414500Y-88966379D01*
X163825499Y-88966379D01*
X163788973Y-88782749D01*
X163717322Y-88609769D01*
X163717321Y-88609768D01*
X163717318Y-88609762D01*
X163613302Y-88454092D01*
X163613299Y-88454088D01*
X163480911Y-88321700D01*
X163480907Y-88321697D01*
X163325237Y-88217681D01*
X163325228Y-88217676D01*
X163152251Y-88146027D01*
X163152243Y-88146025D01*
X162968620Y-88109500D01*
X162968616Y-88109500D01*
X162031384Y-88109500D01*
X162031379Y-88109500D01*
X161847756Y-88146025D01*
X161847748Y-88146027D01*
X161674771Y-88217676D01*
X161674762Y-88217681D01*
X161519092Y-88321697D01*
X161519088Y-88321700D01*
X161386700Y-88454088D01*
X161386697Y-88454092D01*
X161282681Y-88609762D01*
X161282676Y-88609771D01*
X161211027Y-88782748D01*
X161211025Y-88782756D01*
X161174500Y-88966379D01*
X151500500Y-88966379D01*
X151500500Y-86426379D01*
X161174500Y-86426379D01*
X161174500Y-86613620D01*
X161211025Y-86797243D01*
X161211027Y-86797251D01*
X161282676Y-86970228D01*
X161282681Y-86970237D01*
X161386697Y-87125907D01*
X161386700Y-87125911D01*
X161519088Y-87258299D01*
X161519092Y-87258302D01*
X161674762Y-87362318D01*
X161674768Y-87362321D01*
X161674769Y-87362322D01*
X161847749Y-87433973D01*
X162031379Y-87470499D01*
X162031383Y-87470500D01*
X162031384Y-87470500D01*
X162968617Y-87470500D01*
X162968618Y-87470499D01*
X163152251Y-87433973D01*
X163325231Y-87362322D01*
X163480908Y-87258302D01*
X163613302Y-87125908D01*
X163717322Y-86970231D01*
X163788973Y-86797251D01*
X163825500Y-86613616D01*
X163825500Y-86426384D01*
X163825499Y-86426379D01*
X176414500Y-86426379D01*
X176414500Y-86613620D01*
X176451025Y-86797243D01*
X176451027Y-86797251D01*
X176522676Y-86970228D01*
X176522681Y-86970237D01*
X176626697Y-87125907D01*
X176626700Y-87125911D01*
X176759088Y-87258299D01*
X176759092Y-87258302D01*
X176914762Y-87362318D01*
X176914768Y-87362321D01*
X176914769Y-87362322D01*
X177087749Y-87433973D01*
X177271379Y-87470499D01*
X177271383Y-87470500D01*
X177271384Y-87470500D01*
X178208617Y-87470500D01*
X178208618Y-87470499D01*
X178392251Y-87433973D01*
X178565231Y-87362322D01*
X178720908Y-87258302D01*
X178853302Y-87125908D01*
X178957322Y-86970231D01*
X179028973Y-86797251D01*
X179065500Y-86613616D01*
X179065500Y-86426384D01*
X179028973Y-86242749D01*
X178957322Y-86069769D01*
X178957321Y-86069768D01*
X178957318Y-86069762D01*
X178853302Y-85914092D01*
X178853299Y-85914088D01*
X178720911Y-85781700D01*
X178720907Y-85781697D01*
X178565237Y-85677681D01*
X178565228Y-85677676D01*
X178392251Y-85606027D01*
X178392243Y-85606025D01*
X178208620Y-85569500D01*
X178208616Y-85569500D01*
X177271384Y-85569500D01*
X177271379Y-85569500D01*
X177087756Y-85606025D01*
X177087748Y-85606027D01*
X176914771Y-85677676D01*
X176914762Y-85677681D01*
X176759092Y-85781697D01*
X176759088Y-85781700D01*
X176626700Y-85914088D01*
X176626697Y-85914092D01*
X176522681Y-86069762D01*
X176522676Y-86069771D01*
X176451027Y-86242748D01*
X176451025Y-86242756D01*
X176414500Y-86426379D01*
X163825499Y-86426379D01*
X163788973Y-86242749D01*
X163717322Y-86069769D01*
X163717321Y-86069768D01*
X163717318Y-86069762D01*
X163613302Y-85914092D01*
X163613299Y-85914088D01*
X163480911Y-85781700D01*
X163480907Y-85781697D01*
X163325237Y-85677681D01*
X163325228Y-85677676D01*
X163152251Y-85606027D01*
X163152243Y-85606025D01*
X162968620Y-85569500D01*
X162968616Y-85569500D01*
X162031384Y-85569500D01*
X162031379Y-85569500D01*
X161847756Y-85606025D01*
X161847748Y-85606027D01*
X161674771Y-85677676D01*
X161674762Y-85677681D01*
X161519092Y-85781697D01*
X161519088Y-85781700D01*
X161386700Y-85914088D01*
X161386697Y-85914092D01*
X161282681Y-86069762D01*
X161282676Y-86069771D01*
X161211027Y-86242748D01*
X161211025Y-86242756D01*
X161174500Y-86426379D01*
X151500500Y-86426379D01*
X151500500Y-83886379D01*
X161174500Y-83886379D01*
X161174500Y-84073620D01*
X161211025Y-84257243D01*
X161211027Y-84257251D01*
X161282676Y-84430228D01*
X161282681Y-84430237D01*
X161386697Y-84585907D01*
X161386700Y-84585911D01*
X161519088Y-84718299D01*
X161519092Y-84718302D01*
X161674762Y-84822318D01*
X161674768Y-84822321D01*
X161674769Y-84822322D01*
X161847749Y-84893973D01*
X162031379Y-84930499D01*
X162031383Y-84930500D01*
X162031384Y-84930500D01*
X162968617Y-84930500D01*
X162968618Y-84930499D01*
X163152251Y-84893973D01*
X163325231Y-84822322D01*
X163480908Y-84718302D01*
X163613302Y-84585908D01*
X163717322Y-84430231D01*
X163788973Y-84257251D01*
X163825500Y-84073616D01*
X163825500Y-83886384D01*
X163825499Y-83886379D01*
X176414500Y-83886379D01*
X176414500Y-84073620D01*
X176451025Y-84257243D01*
X176451027Y-84257251D01*
X176522676Y-84430228D01*
X176522681Y-84430237D01*
X176626697Y-84585907D01*
X176626700Y-84585911D01*
X176759088Y-84718299D01*
X176759092Y-84718302D01*
X176914762Y-84822318D01*
X176914768Y-84822321D01*
X176914769Y-84822322D01*
X177087749Y-84893973D01*
X177271379Y-84930499D01*
X177271383Y-84930500D01*
X177271384Y-84930500D01*
X178208617Y-84930500D01*
X178208618Y-84930499D01*
X178392251Y-84893973D01*
X178565231Y-84822322D01*
X178720908Y-84718302D01*
X178853302Y-84585908D01*
X178957322Y-84430231D01*
X179028973Y-84257251D01*
X179061101Y-84095730D01*
X181274500Y-84095730D01*
X181274500Y-85404269D01*
X181277353Y-85434699D01*
X181277353Y-85434701D01*
X181322206Y-85562880D01*
X181322207Y-85562882D01*
X181402850Y-85672150D01*
X181512118Y-85752793D01*
X181554845Y-85767744D01*
X181640299Y-85797646D01*
X181670730Y-85800500D01*
X181670734Y-85800500D01*
X183279270Y-85800500D01*
X183309699Y-85797646D01*
X183309701Y-85797646D01*
X183373790Y-85775219D01*
X183437882Y-85752793D01*
X183547150Y-85672150D01*
X183627793Y-85562882D01*
X183650219Y-85498790D01*
X183672646Y-85434701D01*
X183672646Y-85434699D01*
X183675500Y-85404269D01*
X183675500Y-84095730D01*
X183672646Y-84065300D01*
X183672646Y-84065298D01*
X183627793Y-83937119D01*
X183627792Y-83937117D01*
X183547150Y-83827850D01*
X183437882Y-83747207D01*
X183437880Y-83747206D01*
X183309700Y-83702353D01*
X183279270Y-83699500D01*
X183279266Y-83699500D01*
X181670734Y-83699500D01*
X181670730Y-83699500D01*
X181640300Y-83702353D01*
X181640298Y-83702353D01*
X181512119Y-83747206D01*
X181512117Y-83747207D01*
X181402850Y-83827850D01*
X181322207Y-83937117D01*
X181322206Y-83937119D01*
X181277353Y-84065298D01*
X181277353Y-84065300D01*
X181274500Y-84095730D01*
X179061101Y-84095730D01*
X179065500Y-84073616D01*
X179065500Y-83886384D01*
X179028973Y-83702749D01*
X178957322Y-83529769D01*
X178957321Y-83529768D01*
X178957318Y-83529762D01*
X178853302Y-83374092D01*
X178853299Y-83374088D01*
X178720911Y-83241700D01*
X178720907Y-83241697D01*
X178565237Y-83137681D01*
X178565228Y-83137676D01*
X178392251Y-83066027D01*
X178392243Y-83066025D01*
X178208620Y-83029500D01*
X178208616Y-83029500D01*
X177271384Y-83029500D01*
X177271379Y-83029500D01*
X177087756Y-83066025D01*
X177087748Y-83066027D01*
X176914771Y-83137676D01*
X176914762Y-83137681D01*
X176759092Y-83241697D01*
X176759088Y-83241700D01*
X176626700Y-83374088D01*
X176626697Y-83374092D01*
X176522681Y-83529762D01*
X176522676Y-83529771D01*
X176451027Y-83702748D01*
X176451025Y-83702756D01*
X176414500Y-83886379D01*
X163825499Y-83886379D01*
X163788973Y-83702749D01*
X163717322Y-83529769D01*
X163717321Y-83529768D01*
X163717318Y-83529762D01*
X163613302Y-83374092D01*
X163613299Y-83374088D01*
X163480911Y-83241700D01*
X163480907Y-83241697D01*
X163325237Y-83137681D01*
X163325228Y-83137676D01*
X163152251Y-83066027D01*
X163152243Y-83066025D01*
X162968620Y-83029500D01*
X162968616Y-83029500D01*
X162031384Y-83029500D01*
X162031379Y-83029500D01*
X161847756Y-83066025D01*
X161847748Y-83066027D01*
X161674771Y-83137676D01*
X161674762Y-83137681D01*
X161519092Y-83241697D01*
X161519088Y-83241700D01*
X161386700Y-83374088D01*
X161386697Y-83374092D01*
X161282681Y-83529762D01*
X161282676Y-83529771D01*
X161211027Y-83702748D01*
X161211025Y-83702756D01*
X161174500Y-83886379D01*
X151500500Y-83886379D01*
X151500500Y-81346379D01*
X161174500Y-81346379D01*
X161174500Y-81533620D01*
X161211025Y-81717243D01*
X161211027Y-81717251D01*
X161282676Y-81890228D01*
X161282681Y-81890237D01*
X161386697Y-82045907D01*
X161386700Y-82045911D01*
X161519088Y-82178299D01*
X161519092Y-82178302D01*
X161674762Y-82282318D01*
X161674768Y-82282321D01*
X161674769Y-82282322D01*
X161847749Y-82353973D01*
X162031379Y-82390499D01*
X162031383Y-82390500D01*
X162031384Y-82390500D01*
X162968617Y-82390500D01*
X162968618Y-82390499D01*
X163152251Y-82353973D01*
X163325231Y-82282322D01*
X163480908Y-82178302D01*
X163613302Y-82045908D01*
X163717322Y-81890231D01*
X163788973Y-81717251D01*
X163825500Y-81533616D01*
X163825500Y-81346384D01*
X163825499Y-81346379D01*
X176414500Y-81346379D01*
X176414500Y-81533620D01*
X176451025Y-81717243D01*
X176451027Y-81717251D01*
X176522676Y-81890228D01*
X176522681Y-81890237D01*
X176626697Y-82045907D01*
X176626700Y-82045911D01*
X176759088Y-82178299D01*
X176759092Y-82178302D01*
X176914762Y-82282318D01*
X176914768Y-82282321D01*
X176914769Y-82282322D01*
X177087749Y-82353973D01*
X177271379Y-82390499D01*
X177271383Y-82390500D01*
X177271384Y-82390500D01*
X178208617Y-82390500D01*
X178208618Y-82390499D01*
X178392251Y-82353973D01*
X178565231Y-82282322D01*
X178720908Y-82178302D01*
X178853302Y-82045908D01*
X178957322Y-81890231D01*
X179028973Y-81717251D01*
X179065500Y-81533616D01*
X179065500Y-81346384D01*
X179028973Y-81162749D01*
X178957322Y-80989769D01*
X178957321Y-80989768D01*
X178957318Y-80989762D01*
X178853302Y-80834092D01*
X178853299Y-80834088D01*
X178720911Y-80701700D01*
X178720907Y-80701697D01*
X178565237Y-80597681D01*
X178565228Y-80597676D01*
X178392251Y-80526027D01*
X178392243Y-80526025D01*
X178208620Y-80489500D01*
X178208616Y-80489500D01*
X177271384Y-80489500D01*
X177271379Y-80489500D01*
X177087756Y-80526025D01*
X177087748Y-80526027D01*
X176914771Y-80597676D01*
X176914762Y-80597681D01*
X176759092Y-80701697D01*
X176759088Y-80701700D01*
X176626700Y-80834088D01*
X176626697Y-80834092D01*
X176522681Y-80989762D01*
X176522676Y-80989771D01*
X176451027Y-81162748D01*
X176451025Y-81162756D01*
X176414500Y-81346379D01*
X163825499Y-81346379D01*
X163788973Y-81162749D01*
X163717322Y-80989769D01*
X163717321Y-80989768D01*
X163717318Y-80989762D01*
X163613302Y-80834092D01*
X163613299Y-80834088D01*
X163480911Y-80701700D01*
X163480907Y-80701697D01*
X163325237Y-80597681D01*
X163325228Y-80597676D01*
X163152251Y-80526027D01*
X163152243Y-80526025D01*
X162968620Y-80489500D01*
X162968616Y-80489500D01*
X162031384Y-80489500D01*
X162031379Y-80489500D01*
X161847756Y-80526025D01*
X161847748Y-80526027D01*
X161674771Y-80597676D01*
X161674762Y-80597681D01*
X161519092Y-80701697D01*
X161519088Y-80701700D01*
X161386700Y-80834088D01*
X161386697Y-80834092D01*
X161282681Y-80989762D01*
X161282676Y-80989771D01*
X161211027Y-81162748D01*
X161211025Y-81162756D01*
X161174500Y-81346379D01*
X151500500Y-81346379D01*
X151500500Y-78806379D01*
X161174500Y-78806379D01*
X161174500Y-78993620D01*
X161211025Y-79177243D01*
X161211027Y-79177251D01*
X161282676Y-79350228D01*
X161282681Y-79350237D01*
X161386697Y-79505907D01*
X161386700Y-79505911D01*
X161519088Y-79638299D01*
X161519092Y-79638302D01*
X161674762Y-79742318D01*
X161674768Y-79742321D01*
X161674769Y-79742322D01*
X161847749Y-79813973D01*
X162031379Y-79850499D01*
X162031383Y-79850500D01*
X162031384Y-79850500D01*
X162968617Y-79850500D01*
X162968618Y-79850499D01*
X163152251Y-79813973D01*
X163325231Y-79742322D01*
X163480908Y-79638302D01*
X163613302Y-79505908D01*
X163717322Y-79350231D01*
X163788973Y-79177251D01*
X163825500Y-78993616D01*
X163825500Y-78806384D01*
X163825499Y-78806379D01*
X176414500Y-78806379D01*
X176414500Y-78993620D01*
X176451025Y-79177243D01*
X176451027Y-79177251D01*
X176522676Y-79350228D01*
X176522681Y-79350237D01*
X176626697Y-79505907D01*
X176626700Y-79505911D01*
X176759088Y-79638299D01*
X176759092Y-79638302D01*
X176914762Y-79742318D01*
X176914768Y-79742321D01*
X176914769Y-79742322D01*
X177087749Y-79813973D01*
X177271379Y-79850499D01*
X177271383Y-79850500D01*
X177271384Y-79850500D01*
X178208617Y-79850500D01*
X178208618Y-79850499D01*
X178392251Y-79813973D01*
X178565231Y-79742322D01*
X178720908Y-79638302D01*
X178853302Y-79505908D01*
X178957322Y-79350231D01*
X179028973Y-79177251D01*
X179065500Y-78993616D01*
X179065500Y-78806384D01*
X179028973Y-78622749D01*
X178957322Y-78449769D01*
X178957321Y-78449768D01*
X178957318Y-78449762D01*
X178853302Y-78294092D01*
X178853299Y-78294088D01*
X178720911Y-78161700D01*
X178720907Y-78161697D01*
X178565237Y-78057681D01*
X178565228Y-78057676D01*
X178392251Y-77986027D01*
X178392243Y-77986025D01*
X178208620Y-77949500D01*
X178208616Y-77949500D01*
X177271384Y-77949500D01*
X177271379Y-77949500D01*
X177087756Y-77986025D01*
X177087748Y-77986027D01*
X176914771Y-78057676D01*
X176914762Y-78057681D01*
X176759092Y-78161697D01*
X176759088Y-78161700D01*
X176626700Y-78294088D01*
X176626697Y-78294092D01*
X176522681Y-78449762D01*
X176522676Y-78449771D01*
X176451027Y-78622748D01*
X176451025Y-78622756D01*
X176414500Y-78806379D01*
X163825499Y-78806379D01*
X163788973Y-78622749D01*
X163717322Y-78449769D01*
X163717321Y-78449768D01*
X163717318Y-78449762D01*
X163613302Y-78294092D01*
X163613299Y-78294088D01*
X163480911Y-78161700D01*
X163480907Y-78161697D01*
X163325237Y-78057681D01*
X163325228Y-78057676D01*
X163152251Y-77986027D01*
X163152243Y-77986025D01*
X162968620Y-77949500D01*
X162968616Y-77949500D01*
X162031384Y-77949500D01*
X162031379Y-77949500D01*
X161847756Y-77986025D01*
X161847748Y-77986027D01*
X161674771Y-78057676D01*
X161674762Y-78057681D01*
X161519092Y-78161697D01*
X161519088Y-78161700D01*
X161386700Y-78294088D01*
X161386697Y-78294092D01*
X161282681Y-78449762D01*
X161282676Y-78449771D01*
X161211027Y-78622748D01*
X161211025Y-78622756D01*
X161174500Y-78806379D01*
X151500500Y-78806379D01*
X151500500Y-76266379D01*
X161174500Y-76266379D01*
X161174500Y-76453620D01*
X161211025Y-76637243D01*
X161211027Y-76637251D01*
X161282676Y-76810228D01*
X161282681Y-76810237D01*
X161386697Y-76965907D01*
X161386700Y-76965911D01*
X161519088Y-77098299D01*
X161519092Y-77098302D01*
X161674762Y-77202318D01*
X161674768Y-77202321D01*
X161674769Y-77202322D01*
X161847749Y-77273973D01*
X162031379Y-77310499D01*
X162031383Y-77310500D01*
X162031384Y-77310500D01*
X162968617Y-77310500D01*
X162968618Y-77310499D01*
X163152251Y-77273973D01*
X163325231Y-77202322D01*
X163480908Y-77098302D01*
X163613302Y-76965908D01*
X163717322Y-76810231D01*
X163788973Y-76637251D01*
X163825500Y-76453616D01*
X163825500Y-76266384D01*
X163825499Y-76266379D01*
X176414500Y-76266379D01*
X176414500Y-76453620D01*
X176451025Y-76637243D01*
X176451027Y-76637251D01*
X176522676Y-76810228D01*
X176522681Y-76810237D01*
X176626697Y-76965907D01*
X176626700Y-76965911D01*
X176759088Y-77098299D01*
X176759092Y-77098302D01*
X176914762Y-77202318D01*
X176914768Y-77202321D01*
X176914769Y-77202322D01*
X177087749Y-77273973D01*
X177271379Y-77310499D01*
X177271383Y-77310500D01*
X177271384Y-77310500D01*
X178208617Y-77310500D01*
X178208618Y-77310499D01*
X178392251Y-77273973D01*
X178565231Y-77202322D01*
X178720908Y-77098302D01*
X178853302Y-76965908D01*
X178957322Y-76810231D01*
X179028973Y-76637251D01*
X179065500Y-76453616D01*
X179065500Y-76266384D01*
X179028973Y-76082749D01*
X178957322Y-75909769D01*
X178957321Y-75909768D01*
X178957318Y-75909762D01*
X178853302Y-75754092D01*
X178853299Y-75754088D01*
X178720911Y-75621700D01*
X178720907Y-75621697D01*
X178565237Y-75517681D01*
X178565228Y-75517676D01*
X178392251Y-75446027D01*
X178392243Y-75446025D01*
X178208620Y-75409500D01*
X178208616Y-75409500D01*
X177271384Y-75409500D01*
X177271379Y-75409500D01*
X177087756Y-75446025D01*
X177087748Y-75446027D01*
X176914771Y-75517676D01*
X176914762Y-75517681D01*
X176759092Y-75621697D01*
X176759088Y-75621700D01*
X176626700Y-75754088D01*
X176626697Y-75754092D01*
X176522681Y-75909762D01*
X176522676Y-75909771D01*
X176451027Y-76082748D01*
X176451025Y-76082756D01*
X176414500Y-76266379D01*
X163825499Y-76266379D01*
X163788973Y-76082749D01*
X163717322Y-75909769D01*
X163717321Y-75909768D01*
X163717318Y-75909762D01*
X163613302Y-75754092D01*
X163613299Y-75754088D01*
X163480911Y-75621700D01*
X163480907Y-75621697D01*
X163325237Y-75517681D01*
X163325228Y-75517676D01*
X163152251Y-75446027D01*
X163152243Y-75446025D01*
X162968620Y-75409500D01*
X162968616Y-75409500D01*
X162031384Y-75409500D01*
X162031379Y-75409500D01*
X161847756Y-75446025D01*
X161847748Y-75446027D01*
X161674771Y-75517676D01*
X161674762Y-75517681D01*
X161519092Y-75621697D01*
X161519088Y-75621700D01*
X161386700Y-75754088D01*
X161386697Y-75754092D01*
X161282681Y-75909762D01*
X161282676Y-75909771D01*
X161211027Y-76082748D01*
X161211025Y-76082756D01*
X161174500Y-76266379D01*
X151500500Y-76266379D01*
X151500500Y-73726379D01*
X161174500Y-73726379D01*
X161174500Y-73913620D01*
X161211025Y-74097243D01*
X161211027Y-74097251D01*
X161282676Y-74270228D01*
X161282681Y-74270237D01*
X161386697Y-74425907D01*
X161386700Y-74425911D01*
X161519088Y-74558299D01*
X161519092Y-74558302D01*
X161674762Y-74662318D01*
X161674768Y-74662321D01*
X161674769Y-74662322D01*
X161847749Y-74733973D01*
X162031379Y-74770499D01*
X162031383Y-74770500D01*
X162031384Y-74770500D01*
X162968617Y-74770500D01*
X162968618Y-74770499D01*
X163152251Y-74733973D01*
X163325231Y-74662322D01*
X163480908Y-74558302D01*
X163613302Y-74425908D01*
X163717322Y-74270231D01*
X163788973Y-74097251D01*
X163825500Y-73913616D01*
X163825500Y-73726384D01*
X163825499Y-73726379D01*
X176414500Y-73726379D01*
X176414500Y-73913620D01*
X176451025Y-74097243D01*
X176451027Y-74097251D01*
X176522676Y-74270228D01*
X176522681Y-74270237D01*
X176626697Y-74425907D01*
X176626700Y-74425911D01*
X176759088Y-74558299D01*
X176759092Y-74558302D01*
X176914762Y-74662318D01*
X176914768Y-74662321D01*
X176914769Y-74662322D01*
X177087749Y-74733973D01*
X177271379Y-74770499D01*
X177271383Y-74770500D01*
X177271384Y-74770500D01*
X178208617Y-74770500D01*
X178208618Y-74770499D01*
X178392251Y-74733973D01*
X178565231Y-74662322D01*
X178720908Y-74558302D01*
X178853302Y-74425908D01*
X178957322Y-74270231D01*
X179028973Y-74097251D01*
X179065500Y-73913616D01*
X179065500Y-73726384D01*
X179028973Y-73542749D01*
X178957322Y-73369769D01*
X178957321Y-73369768D01*
X178957318Y-73369762D01*
X178853302Y-73214092D01*
X178853299Y-73214088D01*
X178720911Y-73081700D01*
X178720907Y-73081697D01*
X178565237Y-72977681D01*
X178565228Y-72977676D01*
X178392251Y-72906027D01*
X178392243Y-72906025D01*
X178208620Y-72869500D01*
X178208616Y-72869500D01*
X177271384Y-72869500D01*
X177271379Y-72869500D01*
X177087756Y-72906025D01*
X177087748Y-72906027D01*
X176914771Y-72977676D01*
X176914762Y-72977681D01*
X176759092Y-73081697D01*
X176759088Y-73081700D01*
X176626700Y-73214088D01*
X176626697Y-73214092D01*
X176522681Y-73369762D01*
X176522676Y-73369771D01*
X176451027Y-73542748D01*
X176451025Y-73542756D01*
X176414500Y-73726379D01*
X163825499Y-73726379D01*
X163788973Y-73542749D01*
X163717322Y-73369769D01*
X163717321Y-73369768D01*
X163717318Y-73369762D01*
X163613302Y-73214092D01*
X163613299Y-73214088D01*
X163480911Y-73081700D01*
X163480907Y-73081697D01*
X163325237Y-72977681D01*
X163325228Y-72977676D01*
X163152251Y-72906027D01*
X163152243Y-72906025D01*
X162968620Y-72869500D01*
X162968616Y-72869500D01*
X162031384Y-72869500D01*
X162031379Y-72869500D01*
X161847756Y-72906025D01*
X161847748Y-72906027D01*
X161674771Y-72977676D01*
X161674762Y-72977681D01*
X161519092Y-73081697D01*
X161519088Y-73081700D01*
X161386700Y-73214088D01*
X161386697Y-73214092D01*
X161282681Y-73369762D01*
X161282676Y-73369771D01*
X161211027Y-73542748D01*
X161211025Y-73542756D01*
X161174500Y-73726379D01*
X151500500Y-73726379D01*
X151500500Y-71186379D01*
X161174500Y-71186379D01*
X161174500Y-71373620D01*
X161211025Y-71557243D01*
X161211027Y-71557251D01*
X161282676Y-71730228D01*
X161282681Y-71730237D01*
X161386697Y-71885907D01*
X161386700Y-71885911D01*
X161519088Y-72018299D01*
X161519092Y-72018302D01*
X161674762Y-72122318D01*
X161674768Y-72122321D01*
X161674769Y-72122322D01*
X161847749Y-72193973D01*
X162031379Y-72230499D01*
X162031383Y-72230500D01*
X162031384Y-72230500D01*
X162968617Y-72230500D01*
X162968618Y-72230499D01*
X163152251Y-72193973D01*
X163325231Y-72122322D01*
X163480908Y-72018302D01*
X163613302Y-71885908D01*
X163717322Y-71730231D01*
X163788973Y-71557251D01*
X163825500Y-71373616D01*
X163825500Y-71186384D01*
X163825499Y-71186379D01*
X176414500Y-71186379D01*
X176414500Y-71373620D01*
X176451025Y-71557243D01*
X176451027Y-71557251D01*
X176522676Y-71730228D01*
X176522681Y-71730237D01*
X176626697Y-71885907D01*
X176626700Y-71885911D01*
X176759088Y-72018299D01*
X176759092Y-72018302D01*
X176914762Y-72122318D01*
X176914768Y-72122321D01*
X176914769Y-72122322D01*
X177087749Y-72193973D01*
X177271379Y-72230499D01*
X177271383Y-72230500D01*
X177271384Y-72230500D01*
X178208617Y-72230500D01*
X178208618Y-72230499D01*
X178392251Y-72193973D01*
X178565231Y-72122322D01*
X178720908Y-72018302D01*
X178853302Y-71885908D01*
X178957322Y-71730231D01*
X179028973Y-71557251D01*
X179065500Y-71373616D01*
X179065500Y-71186384D01*
X179028973Y-71002749D01*
X178957322Y-70829769D01*
X178957321Y-70829768D01*
X178957318Y-70829762D01*
X178853302Y-70674092D01*
X178853299Y-70674088D01*
X178720911Y-70541700D01*
X178720907Y-70541697D01*
X178565237Y-70437681D01*
X178565228Y-70437676D01*
X178392251Y-70366027D01*
X178392243Y-70366025D01*
X178208620Y-70329500D01*
X178208616Y-70329500D01*
X177271384Y-70329500D01*
X177271379Y-70329500D01*
X177087756Y-70366025D01*
X177087748Y-70366027D01*
X176914771Y-70437676D01*
X176914762Y-70437681D01*
X176759092Y-70541697D01*
X176759088Y-70541700D01*
X176626700Y-70674088D01*
X176626697Y-70674092D01*
X176522681Y-70829762D01*
X176522676Y-70829771D01*
X176451027Y-71002748D01*
X176451025Y-71002756D01*
X176414500Y-71186379D01*
X163825499Y-71186379D01*
X163788973Y-71002749D01*
X163717322Y-70829769D01*
X163717321Y-70829768D01*
X163717318Y-70829762D01*
X163613302Y-70674092D01*
X163613299Y-70674088D01*
X163480911Y-70541700D01*
X163480907Y-70541697D01*
X163325237Y-70437681D01*
X163325228Y-70437676D01*
X163152251Y-70366027D01*
X163152243Y-70366025D01*
X162968620Y-70329500D01*
X162968616Y-70329500D01*
X162031384Y-70329500D01*
X162031379Y-70329500D01*
X161847756Y-70366025D01*
X161847748Y-70366027D01*
X161674771Y-70437676D01*
X161674762Y-70437681D01*
X161519092Y-70541697D01*
X161519088Y-70541700D01*
X161386700Y-70674088D01*
X161386697Y-70674092D01*
X161282681Y-70829762D01*
X161282676Y-70829771D01*
X161211027Y-71002748D01*
X161211025Y-71002756D01*
X161174500Y-71186379D01*
X151500500Y-71186379D01*
X151500500Y-68646379D01*
X161174500Y-68646379D01*
X161174500Y-68833620D01*
X161211025Y-69017243D01*
X161211027Y-69017251D01*
X161282676Y-69190228D01*
X161282681Y-69190237D01*
X161386697Y-69345907D01*
X161386700Y-69345911D01*
X161519088Y-69478299D01*
X161519092Y-69478302D01*
X161674762Y-69582318D01*
X161674768Y-69582321D01*
X161674769Y-69582322D01*
X161847749Y-69653973D01*
X162031379Y-69690499D01*
X162031383Y-69690500D01*
X162031384Y-69690500D01*
X162968617Y-69690500D01*
X162968618Y-69690499D01*
X163152251Y-69653973D01*
X163325231Y-69582322D01*
X163480908Y-69478302D01*
X163613302Y-69345908D01*
X163717322Y-69190231D01*
X163788973Y-69017251D01*
X163825500Y-68833616D01*
X163825500Y-68646384D01*
X163825499Y-68646379D01*
X176414500Y-68646379D01*
X176414500Y-68833620D01*
X176451025Y-69017243D01*
X176451027Y-69017251D01*
X176522676Y-69190228D01*
X176522681Y-69190237D01*
X176626697Y-69345907D01*
X176626700Y-69345911D01*
X176759088Y-69478299D01*
X176759092Y-69478302D01*
X176914762Y-69582318D01*
X176914768Y-69582321D01*
X176914769Y-69582322D01*
X177087749Y-69653973D01*
X177271379Y-69690499D01*
X177271383Y-69690500D01*
X177271384Y-69690500D01*
X178208617Y-69690500D01*
X178208618Y-69690499D01*
X178392251Y-69653973D01*
X178565231Y-69582322D01*
X178720908Y-69478302D01*
X178853302Y-69345908D01*
X178957322Y-69190231D01*
X179028973Y-69017251D01*
X179065500Y-68833616D01*
X179065500Y-68646384D01*
X179028973Y-68462749D01*
X178957322Y-68289769D01*
X178957321Y-68289768D01*
X178957318Y-68289762D01*
X178853302Y-68134092D01*
X178853299Y-68134088D01*
X178720911Y-68001700D01*
X178720907Y-68001697D01*
X178565237Y-67897681D01*
X178565228Y-67897676D01*
X178392251Y-67826027D01*
X178392243Y-67826025D01*
X178208620Y-67789500D01*
X178208616Y-67789500D01*
X177271384Y-67789500D01*
X177271379Y-67789500D01*
X177087756Y-67826025D01*
X177087748Y-67826027D01*
X176914771Y-67897676D01*
X176914762Y-67897681D01*
X176759092Y-68001697D01*
X176759088Y-68001700D01*
X176626700Y-68134088D01*
X176626697Y-68134092D01*
X176522681Y-68289762D01*
X176522676Y-68289771D01*
X176451027Y-68462748D01*
X176451025Y-68462756D01*
X176414500Y-68646379D01*
X163825499Y-68646379D01*
X163788973Y-68462749D01*
X163717322Y-68289769D01*
X163717321Y-68289768D01*
X163717318Y-68289762D01*
X163613302Y-68134092D01*
X163613299Y-68134088D01*
X163480911Y-68001700D01*
X163480907Y-68001697D01*
X163325237Y-67897681D01*
X163325228Y-67897676D01*
X163152251Y-67826027D01*
X163152243Y-67826025D01*
X162968620Y-67789500D01*
X162968616Y-67789500D01*
X162031384Y-67789500D01*
X162031379Y-67789500D01*
X161847756Y-67826025D01*
X161847748Y-67826027D01*
X161674771Y-67897676D01*
X161674762Y-67897681D01*
X161519092Y-68001697D01*
X161519088Y-68001700D01*
X161386700Y-68134088D01*
X161386697Y-68134092D01*
X161282681Y-68289762D01*
X161282676Y-68289771D01*
X161211027Y-68462748D01*
X161211025Y-68462756D01*
X161174500Y-68646379D01*
X151500500Y-68646379D01*
X151500500Y-66106379D01*
X161174500Y-66106379D01*
X161174500Y-66293620D01*
X161211025Y-66477243D01*
X161211027Y-66477251D01*
X161282676Y-66650228D01*
X161282681Y-66650237D01*
X161386697Y-66805907D01*
X161386700Y-66805911D01*
X161519088Y-66938299D01*
X161519092Y-66938302D01*
X161674762Y-67042318D01*
X161674768Y-67042321D01*
X161674769Y-67042322D01*
X161847749Y-67113973D01*
X162031379Y-67150499D01*
X162031383Y-67150500D01*
X162031384Y-67150500D01*
X162968617Y-67150500D01*
X162968618Y-67150499D01*
X163152251Y-67113973D01*
X163325231Y-67042322D01*
X163480908Y-66938302D01*
X163613302Y-66805908D01*
X163717322Y-66650231D01*
X163788973Y-66477251D01*
X163825500Y-66293616D01*
X163825500Y-66106384D01*
X163825499Y-66106379D01*
X176414500Y-66106379D01*
X176414500Y-66293620D01*
X176451025Y-66477243D01*
X176451027Y-66477251D01*
X176522676Y-66650228D01*
X176522681Y-66650237D01*
X176626697Y-66805907D01*
X176626700Y-66805911D01*
X176759088Y-66938299D01*
X176759092Y-66938302D01*
X176914762Y-67042318D01*
X176914768Y-67042321D01*
X176914769Y-67042322D01*
X177087749Y-67113973D01*
X177271379Y-67150499D01*
X177271383Y-67150500D01*
X177271384Y-67150500D01*
X178208617Y-67150500D01*
X178208618Y-67150499D01*
X178392251Y-67113973D01*
X178565231Y-67042322D01*
X178720908Y-66938302D01*
X178853302Y-66805908D01*
X178957322Y-66650231D01*
X179028973Y-66477251D01*
X179065500Y-66293616D01*
X179065500Y-66106384D01*
X179028973Y-65922749D01*
X178957322Y-65749769D01*
X178957321Y-65749768D01*
X178957318Y-65749762D01*
X178853302Y-65594092D01*
X178853299Y-65594088D01*
X178720911Y-65461700D01*
X178720907Y-65461697D01*
X178565237Y-65357681D01*
X178565228Y-65357676D01*
X178392251Y-65286027D01*
X178392243Y-65286025D01*
X178208620Y-65249500D01*
X178208616Y-65249500D01*
X177271384Y-65249500D01*
X177271379Y-65249500D01*
X177087756Y-65286025D01*
X177087748Y-65286027D01*
X176914771Y-65357676D01*
X176914762Y-65357681D01*
X176759092Y-65461697D01*
X176759088Y-65461700D01*
X176626700Y-65594088D01*
X176626697Y-65594092D01*
X176522681Y-65749762D01*
X176522676Y-65749771D01*
X176451027Y-65922748D01*
X176451025Y-65922756D01*
X176414500Y-66106379D01*
X163825499Y-66106379D01*
X163788973Y-65922749D01*
X163717322Y-65749769D01*
X163717321Y-65749768D01*
X163717318Y-65749762D01*
X163613302Y-65594092D01*
X163613299Y-65594088D01*
X163480911Y-65461700D01*
X163480907Y-65461697D01*
X163325237Y-65357681D01*
X163325228Y-65357676D01*
X163152251Y-65286027D01*
X163152243Y-65286025D01*
X162968620Y-65249500D01*
X162968616Y-65249500D01*
X162031384Y-65249500D01*
X162031379Y-65249500D01*
X161847756Y-65286025D01*
X161847748Y-65286027D01*
X161674771Y-65357676D01*
X161674762Y-65357681D01*
X161519092Y-65461697D01*
X161519088Y-65461700D01*
X161386700Y-65594088D01*
X161386697Y-65594092D01*
X161282681Y-65749762D01*
X161282676Y-65749771D01*
X161211027Y-65922748D01*
X161211025Y-65922756D01*
X161174500Y-66106379D01*
X151500500Y-66106379D01*
X151500500Y-63566379D01*
X161174500Y-63566379D01*
X161174500Y-63753620D01*
X161211025Y-63937243D01*
X161211027Y-63937251D01*
X161282676Y-64110228D01*
X161282681Y-64110237D01*
X161386697Y-64265907D01*
X161386700Y-64265911D01*
X161519088Y-64398299D01*
X161519092Y-64398302D01*
X161674762Y-64502318D01*
X161674768Y-64502321D01*
X161674769Y-64502322D01*
X161847749Y-64573973D01*
X162031379Y-64610499D01*
X162031383Y-64610500D01*
X162031384Y-64610500D01*
X162968617Y-64610500D01*
X162968618Y-64610499D01*
X163152251Y-64573973D01*
X163325231Y-64502322D01*
X163480908Y-64398302D01*
X163613302Y-64265908D01*
X163717322Y-64110231D01*
X163788973Y-63937251D01*
X163825500Y-63753616D01*
X163825500Y-63566384D01*
X163825499Y-63566379D01*
X176414500Y-63566379D01*
X176414500Y-63753620D01*
X176451025Y-63937243D01*
X176451027Y-63937251D01*
X176522676Y-64110228D01*
X176522681Y-64110237D01*
X176626697Y-64265907D01*
X176626700Y-64265911D01*
X176759088Y-64398299D01*
X176759092Y-64398302D01*
X176914762Y-64502318D01*
X176914768Y-64502321D01*
X176914769Y-64502322D01*
X177087749Y-64573973D01*
X177271379Y-64610499D01*
X177271383Y-64610500D01*
X177271384Y-64610500D01*
X178208617Y-64610500D01*
X178208618Y-64610499D01*
X178392251Y-64573973D01*
X178565231Y-64502322D01*
X178720908Y-64398302D01*
X178773480Y-64345730D01*
X181799500Y-64345730D01*
X181799500Y-65654269D01*
X181802353Y-65684699D01*
X181802353Y-65684701D01*
X181847206Y-65812880D01*
X181847207Y-65812882D01*
X181927850Y-65922150D01*
X182037118Y-66002793D01*
X182079845Y-66017744D01*
X182165299Y-66047646D01*
X182195730Y-66050500D01*
X182195734Y-66050500D01*
X183804270Y-66050500D01*
X183834699Y-66047646D01*
X183834701Y-66047646D01*
X183898790Y-66025219D01*
X183962882Y-66002793D01*
X184072150Y-65922150D01*
X184152793Y-65812882D01*
X184175219Y-65748790D01*
X184197646Y-65684701D01*
X184197646Y-65684699D01*
X184200500Y-65654269D01*
X184200500Y-64345730D01*
X184197646Y-64315300D01*
X184197646Y-64315298D01*
X184152793Y-64187119D01*
X184152792Y-64187117D01*
X184072150Y-64077850D01*
X183962882Y-63997207D01*
X183962880Y-63997206D01*
X183834700Y-63952353D01*
X183804270Y-63949500D01*
X183804266Y-63949500D01*
X182195734Y-63949500D01*
X182195730Y-63949500D01*
X182165300Y-63952353D01*
X182165298Y-63952353D01*
X182037119Y-63997206D01*
X182037117Y-63997207D01*
X181927850Y-64077850D01*
X181847207Y-64187117D01*
X181847206Y-64187119D01*
X181802353Y-64315298D01*
X181802353Y-64315300D01*
X181799500Y-64345730D01*
X178773480Y-64345730D01*
X178853302Y-64265908D01*
X178957322Y-64110231D01*
X179028973Y-63937251D01*
X179065500Y-63753616D01*
X179065500Y-63566384D01*
X179028973Y-63382749D01*
X178957322Y-63209769D01*
X178957321Y-63209768D01*
X178957318Y-63209762D01*
X178853302Y-63054092D01*
X178853299Y-63054088D01*
X178720911Y-62921700D01*
X178720907Y-62921697D01*
X178565237Y-62817681D01*
X178565228Y-62817676D01*
X178392251Y-62746027D01*
X178392243Y-62746025D01*
X178208620Y-62709500D01*
X178208616Y-62709500D01*
X177271384Y-62709500D01*
X177271379Y-62709500D01*
X177087756Y-62746025D01*
X177087748Y-62746027D01*
X176914771Y-62817676D01*
X176914762Y-62817681D01*
X176759092Y-62921697D01*
X176759088Y-62921700D01*
X176626700Y-63054088D01*
X176626697Y-63054092D01*
X176522681Y-63209762D01*
X176522676Y-63209771D01*
X176451027Y-63382748D01*
X176451025Y-63382756D01*
X176414500Y-63566379D01*
X163825499Y-63566379D01*
X163788973Y-63382749D01*
X163717322Y-63209769D01*
X163717321Y-63209768D01*
X163717318Y-63209762D01*
X163613302Y-63054092D01*
X163613299Y-63054088D01*
X163480911Y-62921700D01*
X163480907Y-62921697D01*
X163325237Y-62817681D01*
X163325228Y-62817676D01*
X163152251Y-62746027D01*
X163152243Y-62746025D01*
X162968620Y-62709500D01*
X162968616Y-62709500D01*
X162031384Y-62709500D01*
X162031379Y-62709500D01*
X161847756Y-62746025D01*
X161847748Y-62746027D01*
X161674771Y-62817676D01*
X161674762Y-62817681D01*
X161519092Y-62921697D01*
X161519088Y-62921700D01*
X161386700Y-63054088D01*
X161386697Y-63054092D01*
X161282681Y-63209762D01*
X161282676Y-63209771D01*
X161211027Y-63382748D01*
X161211025Y-63382756D01*
X161174500Y-63566379D01*
X151500500Y-63566379D01*
X151500500Y-62396530D01*
X181799500Y-62396530D01*
X181799500Y-62603469D01*
X181839868Y-62806412D01*
X181839870Y-62806420D01*
X181919058Y-62997596D01*
X182034024Y-63169657D01*
X182180342Y-63315975D01*
X182180345Y-63315977D01*
X182352402Y-63430941D01*
X182543580Y-63510130D01*
X182746530Y-63550499D01*
X182746534Y-63550500D01*
X182746535Y-63550500D01*
X183253466Y-63550500D01*
X183253467Y-63550499D01*
X183456420Y-63510130D01*
X183647598Y-63430941D01*
X183819655Y-63315977D01*
X183965977Y-63169655D01*
X184080941Y-62997598D01*
X184160130Y-62806420D01*
X184200500Y-62603465D01*
X184200500Y-62396535D01*
X184160130Y-62193580D01*
X184080941Y-62002402D01*
X183965977Y-61830345D01*
X183965975Y-61830342D01*
X183819657Y-61684024D01*
X183649352Y-61570231D01*
X183647598Y-61569059D01*
X183456420Y-61489870D01*
X183456412Y-61489868D01*
X183253469Y-61449500D01*
X183253465Y-61449500D01*
X182746535Y-61449500D01*
X182746530Y-61449500D01*
X182543587Y-61489868D01*
X182543579Y-61489870D01*
X182352403Y-61569058D01*
X182180342Y-61684024D01*
X182034024Y-61830342D01*
X181919058Y-62002403D01*
X181839870Y-62193579D01*
X181839868Y-62193587D01*
X181799500Y-62396530D01*
X151500500Y-62396530D01*
X151500500Y-61026379D01*
X161174500Y-61026379D01*
X161174500Y-61213620D01*
X161211025Y-61397243D01*
X161211027Y-61397251D01*
X161282676Y-61570228D01*
X161282681Y-61570237D01*
X161386697Y-61725907D01*
X161386700Y-61725911D01*
X161519088Y-61858299D01*
X161519092Y-61858302D01*
X161674762Y-61962318D01*
X161674768Y-61962321D01*
X161674769Y-61962322D01*
X161847749Y-62033973D01*
X162031379Y-62070499D01*
X162031383Y-62070500D01*
X162031384Y-62070500D01*
X162968617Y-62070500D01*
X162968618Y-62070499D01*
X163152251Y-62033973D01*
X163325231Y-61962322D01*
X163480908Y-61858302D01*
X163613302Y-61725908D01*
X163717322Y-61570231D01*
X163788973Y-61397251D01*
X163825500Y-61213616D01*
X163825500Y-61026384D01*
X163825499Y-61026379D01*
X176414500Y-61026379D01*
X176414500Y-61213620D01*
X176451025Y-61397243D01*
X176451027Y-61397251D01*
X176522676Y-61570228D01*
X176522681Y-61570237D01*
X176626697Y-61725907D01*
X176626700Y-61725911D01*
X176759088Y-61858299D01*
X176759092Y-61858302D01*
X176914762Y-61962318D01*
X176914768Y-61962321D01*
X176914769Y-61962322D01*
X177087749Y-62033973D01*
X177271379Y-62070499D01*
X177271383Y-62070500D01*
X177271384Y-62070500D01*
X178208617Y-62070500D01*
X178208618Y-62070499D01*
X178392251Y-62033973D01*
X178565231Y-61962322D01*
X178720908Y-61858302D01*
X178853302Y-61725908D01*
X178957322Y-61570231D01*
X179028973Y-61397251D01*
X179065500Y-61213616D01*
X179065500Y-61026384D01*
X179028973Y-60842749D01*
X178957322Y-60669769D01*
X178957321Y-60669768D01*
X178957318Y-60669762D01*
X178853302Y-60514092D01*
X178853299Y-60514088D01*
X178720911Y-60381700D01*
X178720907Y-60381697D01*
X178565237Y-60277681D01*
X178565228Y-60277676D01*
X178392251Y-60206027D01*
X178392243Y-60206025D01*
X178208620Y-60169500D01*
X178208616Y-60169500D01*
X177271384Y-60169500D01*
X177271379Y-60169500D01*
X177087756Y-60206025D01*
X177087748Y-60206027D01*
X176914771Y-60277676D01*
X176914762Y-60277681D01*
X176759092Y-60381697D01*
X176759088Y-60381700D01*
X176626700Y-60514088D01*
X176626697Y-60514092D01*
X176522681Y-60669762D01*
X176522676Y-60669771D01*
X176451027Y-60842748D01*
X176451025Y-60842756D01*
X176414500Y-61026379D01*
X163825499Y-61026379D01*
X163788973Y-60842749D01*
X163717322Y-60669769D01*
X163717321Y-60669768D01*
X163717318Y-60669762D01*
X163613302Y-60514092D01*
X163613299Y-60514088D01*
X163480911Y-60381700D01*
X163480907Y-60381697D01*
X163325237Y-60277681D01*
X163325228Y-60277676D01*
X163152251Y-60206027D01*
X163152243Y-60206025D01*
X162968620Y-60169500D01*
X162968616Y-60169500D01*
X162031384Y-60169500D01*
X162031379Y-60169500D01*
X161847756Y-60206025D01*
X161847748Y-60206027D01*
X161674771Y-60277676D01*
X161674762Y-60277681D01*
X161519092Y-60381697D01*
X161519088Y-60381700D01*
X161386700Y-60514088D01*
X161386697Y-60514092D01*
X161282681Y-60669762D01*
X161282676Y-60669771D01*
X161211027Y-60842748D01*
X161211025Y-60842756D01*
X161174500Y-61026379D01*
X151500500Y-61026379D01*
X151500500Y-58486379D01*
X161174500Y-58486379D01*
X161174500Y-58673620D01*
X161211025Y-58857243D01*
X161211027Y-58857251D01*
X161282676Y-59030228D01*
X161282681Y-59030237D01*
X161386697Y-59185907D01*
X161386700Y-59185911D01*
X161519088Y-59318299D01*
X161519092Y-59318302D01*
X161674762Y-59422318D01*
X161674768Y-59422321D01*
X161674769Y-59422322D01*
X161847749Y-59493973D01*
X162031379Y-59530499D01*
X162031383Y-59530500D01*
X162031384Y-59530500D01*
X162968617Y-59530500D01*
X162968618Y-59530499D01*
X163152251Y-59493973D01*
X163325231Y-59422322D01*
X163480908Y-59318302D01*
X163613302Y-59185908D01*
X163717322Y-59030231D01*
X163788973Y-58857251D01*
X163825500Y-58673616D01*
X163825500Y-58486384D01*
X163825499Y-58486379D01*
X176414500Y-58486379D01*
X176414500Y-58673620D01*
X176451025Y-58857243D01*
X176451027Y-58857251D01*
X176522676Y-59030228D01*
X176522681Y-59030237D01*
X176626697Y-59185907D01*
X176626700Y-59185911D01*
X176759088Y-59318299D01*
X176759092Y-59318302D01*
X176914762Y-59422318D01*
X176914768Y-59422321D01*
X176914769Y-59422322D01*
X177087749Y-59493973D01*
X177271379Y-59530499D01*
X177271383Y-59530500D01*
X177271384Y-59530500D01*
X178208617Y-59530500D01*
X178208618Y-59530499D01*
X178392251Y-59493973D01*
X178565231Y-59422322D01*
X178720908Y-59318302D01*
X178853302Y-59185908D01*
X178957322Y-59030231D01*
X179028973Y-58857251D01*
X179065500Y-58673616D01*
X179065500Y-58486384D01*
X179028973Y-58302749D01*
X178957322Y-58129769D01*
X178957321Y-58129768D01*
X178957318Y-58129762D01*
X178853302Y-57974092D01*
X178853299Y-57974088D01*
X178720911Y-57841700D01*
X178720907Y-57841697D01*
X178565237Y-57737681D01*
X178565228Y-57737676D01*
X178392251Y-57666027D01*
X178392243Y-57666025D01*
X178208620Y-57629500D01*
X178208616Y-57629500D01*
X177271384Y-57629500D01*
X177271379Y-57629500D01*
X177087756Y-57666025D01*
X177087748Y-57666027D01*
X176914771Y-57737676D01*
X176914762Y-57737681D01*
X176759092Y-57841697D01*
X176759088Y-57841700D01*
X176626700Y-57974088D01*
X176626697Y-57974092D01*
X176522681Y-58129762D01*
X176522676Y-58129771D01*
X176451027Y-58302748D01*
X176451025Y-58302756D01*
X176414500Y-58486379D01*
X163825499Y-58486379D01*
X163788973Y-58302749D01*
X163717322Y-58129769D01*
X163717321Y-58129768D01*
X163717318Y-58129762D01*
X163613302Y-57974092D01*
X163613299Y-57974088D01*
X163480911Y-57841700D01*
X163480907Y-57841697D01*
X163325237Y-57737681D01*
X163325228Y-57737676D01*
X163152251Y-57666027D01*
X163152243Y-57666025D01*
X162968620Y-57629500D01*
X162968616Y-57629500D01*
X162031384Y-57629500D01*
X162031379Y-57629500D01*
X161847756Y-57666025D01*
X161847748Y-57666027D01*
X161674771Y-57737676D01*
X161674762Y-57737681D01*
X161519092Y-57841697D01*
X161519088Y-57841700D01*
X161386700Y-57974088D01*
X161386697Y-57974092D01*
X161282681Y-58129762D01*
X161282676Y-58129771D01*
X161211027Y-58302748D01*
X161211025Y-58302756D01*
X161174500Y-58486379D01*
X151500500Y-58486379D01*
X151500500Y-55946379D01*
X161174500Y-55946379D01*
X161174500Y-56133620D01*
X161211025Y-56317243D01*
X161211027Y-56317251D01*
X161282676Y-56490228D01*
X161282681Y-56490237D01*
X161386697Y-56645907D01*
X161386700Y-56645911D01*
X161519088Y-56778299D01*
X161519092Y-56778302D01*
X161674762Y-56882318D01*
X161674768Y-56882321D01*
X161674769Y-56882322D01*
X161847749Y-56953973D01*
X162031379Y-56990499D01*
X162031383Y-56990500D01*
X162031384Y-56990500D01*
X162968617Y-56990500D01*
X162968618Y-56990499D01*
X163152251Y-56953973D01*
X163325231Y-56882322D01*
X163480908Y-56778302D01*
X163613302Y-56645908D01*
X163717322Y-56490231D01*
X163788973Y-56317251D01*
X163825500Y-56133616D01*
X163825500Y-55946384D01*
X163825499Y-55946379D01*
X176414500Y-55946379D01*
X176414500Y-56133620D01*
X176451025Y-56317243D01*
X176451027Y-56317251D01*
X176522676Y-56490228D01*
X176522681Y-56490237D01*
X176626697Y-56645907D01*
X176626700Y-56645911D01*
X176759088Y-56778299D01*
X176759092Y-56778302D01*
X176914762Y-56882318D01*
X176914768Y-56882321D01*
X176914769Y-56882322D01*
X177087749Y-56953973D01*
X177271379Y-56990499D01*
X177271383Y-56990500D01*
X177271384Y-56990500D01*
X178208617Y-56990500D01*
X178208618Y-56990499D01*
X178392251Y-56953973D01*
X178565231Y-56882322D01*
X178720908Y-56778302D01*
X178853302Y-56645908D01*
X178957322Y-56490231D01*
X179028973Y-56317251D01*
X179065500Y-56133616D01*
X179065500Y-55946384D01*
X179028973Y-55762749D01*
X178957322Y-55589769D01*
X178957321Y-55589768D01*
X178957318Y-55589762D01*
X178853302Y-55434092D01*
X178853299Y-55434088D01*
X178720911Y-55301700D01*
X178720907Y-55301697D01*
X178565237Y-55197681D01*
X178565228Y-55197676D01*
X178392251Y-55126027D01*
X178392243Y-55126025D01*
X178208620Y-55089500D01*
X178208616Y-55089500D01*
X177271384Y-55089500D01*
X177271379Y-55089500D01*
X177087756Y-55126025D01*
X177087748Y-55126027D01*
X176914771Y-55197676D01*
X176914762Y-55197681D01*
X176759092Y-55301697D01*
X176759088Y-55301700D01*
X176626700Y-55434088D01*
X176626697Y-55434092D01*
X176522681Y-55589762D01*
X176522676Y-55589771D01*
X176451027Y-55762748D01*
X176451025Y-55762756D01*
X176414500Y-55946379D01*
X163825499Y-55946379D01*
X163788973Y-55762749D01*
X163717322Y-55589769D01*
X163717321Y-55589768D01*
X163717318Y-55589762D01*
X163613302Y-55434092D01*
X163613299Y-55434088D01*
X163480911Y-55301700D01*
X163480907Y-55301697D01*
X163325237Y-55197681D01*
X163325228Y-55197676D01*
X163152251Y-55126027D01*
X163152243Y-55126025D01*
X162968620Y-55089500D01*
X162968616Y-55089500D01*
X162031384Y-55089500D01*
X162031379Y-55089500D01*
X161847756Y-55126025D01*
X161847748Y-55126027D01*
X161674771Y-55197676D01*
X161674762Y-55197681D01*
X161519092Y-55301697D01*
X161519088Y-55301700D01*
X161386700Y-55434088D01*
X161386697Y-55434092D01*
X161282681Y-55589762D01*
X161282676Y-55589771D01*
X161211027Y-55762748D01*
X161211025Y-55762756D01*
X161174500Y-55946379D01*
X151500500Y-55946379D01*
X151500500Y-53406379D01*
X176414500Y-53406379D01*
X176414500Y-53593620D01*
X176451025Y-53777243D01*
X176451027Y-53777251D01*
X176522676Y-53950228D01*
X176522681Y-53950237D01*
X176626697Y-54105907D01*
X176626700Y-54105911D01*
X176759088Y-54238299D01*
X176759092Y-54238302D01*
X176914762Y-54342318D01*
X176914768Y-54342321D01*
X176914769Y-54342322D01*
X177087749Y-54413973D01*
X177271379Y-54450499D01*
X177271383Y-54450500D01*
X177271384Y-54450500D01*
X178208617Y-54450500D01*
X178208618Y-54450499D01*
X178392251Y-54413973D01*
X178565231Y-54342322D01*
X178720908Y-54238302D01*
X178853302Y-54105908D01*
X178957322Y-53950231D01*
X179028973Y-53777251D01*
X179065500Y-53593616D01*
X179065500Y-53406384D01*
X179028973Y-53222749D01*
X178957322Y-53049769D01*
X178957321Y-53049768D01*
X178957318Y-53049762D01*
X178853302Y-52894092D01*
X178853299Y-52894088D01*
X178720911Y-52761700D01*
X178720907Y-52761697D01*
X178565237Y-52657681D01*
X178565228Y-52657676D01*
X178392251Y-52586027D01*
X178392243Y-52586025D01*
X178208620Y-52549500D01*
X178208616Y-52549500D01*
X177271384Y-52549500D01*
X177271379Y-52549500D01*
X177087756Y-52586025D01*
X177087748Y-52586027D01*
X176914771Y-52657676D01*
X176914762Y-52657681D01*
X176759092Y-52761697D01*
X176759088Y-52761700D01*
X176626700Y-52894088D01*
X176626697Y-52894092D01*
X176522681Y-53049762D01*
X176522676Y-53049771D01*
X176451027Y-53222748D01*
X176451025Y-53222756D01*
X176414500Y-53406379D01*
X151500500Y-53406379D01*
X151500500Y-46095730D01*
X180799500Y-46095730D01*
X180799500Y-47404269D01*
X180802353Y-47434699D01*
X180802353Y-47434701D01*
X180847206Y-47562880D01*
X180847207Y-47562882D01*
X180927850Y-47672150D01*
X181037118Y-47752793D01*
X181079845Y-47767744D01*
X181165299Y-47797646D01*
X181195730Y-47800500D01*
X181195734Y-47800500D01*
X182804270Y-47800500D01*
X182834699Y-47797646D01*
X182834701Y-47797646D01*
X182898790Y-47775219D01*
X182962882Y-47752793D01*
X183072150Y-47672150D01*
X183152793Y-47562882D01*
X183175219Y-47498790D01*
X183197646Y-47434701D01*
X183197646Y-47434699D01*
X183200500Y-47404269D01*
X183200500Y-46095730D01*
X183197646Y-46065300D01*
X183197646Y-46065298D01*
X183152793Y-45937119D01*
X183152792Y-45937117D01*
X183072150Y-45827850D01*
X182962882Y-45747207D01*
X182962880Y-45747206D01*
X182834700Y-45702353D01*
X182804270Y-45699500D01*
X182804266Y-45699500D01*
X181195734Y-45699500D01*
X181195730Y-45699500D01*
X181165300Y-45702353D01*
X181165298Y-45702353D01*
X181037119Y-45747206D01*
X181037117Y-45747207D01*
X180927850Y-45827850D01*
X180847207Y-45937117D01*
X180847206Y-45937119D01*
X180802353Y-46065298D01*
X180802353Y-46065300D01*
X180799500Y-46095730D01*
X151500500Y-46095730D01*
X151500500Y-37624500D01*
X151520185Y-37557461D01*
X151572989Y-37511706D01*
X151624500Y-37500500D01*
X187875500Y-37500500D01*
X187942539Y-37520185D01*
G37*
%TD.AperFunction*%
%TD*%
M02*
