%TF.GenerationSoftware,KiCad,Pcbnew,10.0.0*%
%TF.CreationDate,2026-04-22T17:21:28-04:00*%
%TF.ProjectId,CNC PCB,434e4320-5043-4422-9e6b-696361645f70,rev?*%
%TF.SameCoordinates,Original*%
%TF.FileFunction,Legend,Bot*%
%TF.FilePolarity,Positive*%
%FSLAX46Y46*%
G04 Gerber Fmt 4.6, Leading zero omitted, Abs format (unit mm)*
G04 Created by KiCad (PCBNEW 10.0.0) date 2026-04-22 17:21:28*
%MOMM*%
%LPD*%
G01*
G04 APERTURE LIST*
%ADD10C,0.150000*%
%ADD11C,0.120000*%
%ADD12C,0.152400*%
%ADD13C,0.000000*%
G04 APERTURE END LIST*
D10*
X160749999Y-81954819D02*
X160749999Y-82192914D01*
X160988094Y-82097676D02*
X160749999Y-82192914D01*
X160749999Y-82192914D02*
X160511904Y-82097676D01*
X160892856Y-82383390D02*
X160749999Y-82192914D01*
X160749999Y-82192914D02*
X160607142Y-82383390D01*
X156249999Y-80954819D02*
X156249999Y-81192914D01*
X156488094Y-81097676D02*
X156249999Y-81192914D01*
X156249999Y-81192914D02*
X156011904Y-81097676D01*
X156392856Y-81383390D02*
X156249999Y-81192914D01*
X156249999Y-81192914D02*
X156107142Y-81383390D01*
%TO.C,C1*%
D11*
X160760000Y-54859420D02*
X160760000Y-55140580D01*
X159740000Y-54859420D02*
X159740000Y-55140580D01*
%TO.C,C2*%
X156640580Y-55490000D02*
X156359420Y-55490000D01*
X156640580Y-56510000D02*
X156359420Y-56510000D01*
%TO.C,C4*%
X182365580Y-56510000D02*
X182084420Y-56510000D01*
X182365580Y-55490000D02*
X182084420Y-55490000D01*
%TO.C,BZ1*%
D12*
X174724400Y-41275600D02*
X174724400Y-43965460D01*
X174724400Y-48034540D02*
X174724400Y-50724400D01*
X174724400Y-50724400D02*
X165275600Y-50724400D01*
X165275600Y-41275600D02*
X174724400Y-41275600D01*
X165275600Y-43965460D02*
X165275600Y-41275600D01*
X165275600Y-50724400D02*
X165275600Y-48034540D01*
%TO.C,C6*%
D11*
X158334420Y-79990000D02*
X158615580Y-79990000D01*
X158334420Y-81010000D02*
X158615580Y-81010000D01*
%TO.C,C3*%
X179490000Y-54609420D02*
X179490000Y-54890580D01*
X180510000Y-54609420D02*
X180510000Y-54890580D01*
%TO.C,R3*%
X181162258Y-72772500D02*
X180687742Y-72772500D01*
X181162258Y-71727500D02*
X180687742Y-71727500D01*
%TO.C,C5*%
X156165580Y-65790000D02*
X155884420Y-65790000D01*
X156165580Y-66810000D02*
X155884420Y-66810000D01*
%TO.C,U3*%
D12*
X159676400Y-82323600D02*
X159676400Y-82790259D01*
X159676400Y-85209741D02*
X159676400Y-85676400D01*
X159676400Y-85676400D02*
X159209741Y-85676400D01*
X159209741Y-82323600D02*
X159676400Y-82323600D01*
X156790259Y-85676400D02*
X156323600Y-85676400D01*
X156323600Y-82323600D02*
X156790259Y-82323600D01*
X156323600Y-82790259D02*
X156323600Y-82323600D01*
X156323600Y-85676400D02*
X156323600Y-85209741D01*
D13*
G36*
X155891800Y-84440500D02*
G01*
X155637800Y-84440500D01*
X155637800Y-84059499D01*
X155891800Y-84059499D01*
X155891800Y-84440500D01*
G37*
%TO.C,U1*%
D11*
X160135000Y-57152500D02*
X159660000Y-57152500D01*
X160135000Y-58377500D02*
X160135000Y-57152500D01*
X160135000Y-60372500D02*
X160135000Y-59147500D01*
X159660000Y-60372500D02*
X160135000Y-60372500D01*
X155890000Y-57152500D02*
X155415000Y-57152500D01*
X155415000Y-57152500D02*
X155415000Y-58377500D01*
X155415000Y-59147500D02*
X155415000Y-60372500D01*
X155415000Y-60372500D02*
X155890000Y-60372500D01*
X159275000Y-56902500D02*
X159035000Y-56572500D01*
X159515000Y-56572500D01*
X159275000Y-56902500D01*
G36*
X159275000Y-56902500D02*
G01*
X159035000Y-56572500D01*
X159515000Y-56572500D01*
X159275000Y-56902500D01*
G37*
%TO.C,U2*%
D12*
X182686868Y-58977001D02*
X181709930Y-58977001D01*
X181709930Y-57023001D02*
X182686868Y-57023001D01*
%TO.C,U5*%
X160007900Y-67520400D02*
X160007900Y-71279600D01*
X160007900Y-71279600D02*
X159541852Y-71279600D01*
X159541852Y-67520400D02*
X160007900Y-67520400D01*
X154708148Y-71279600D02*
X154242100Y-71279600D01*
X154242100Y-67520400D02*
X154708148Y-67520400D01*
X154242100Y-71279600D02*
X154242100Y-67520400D01*
X155326200Y-67027300D02*
G75*
G02*
X155173800Y-67027300I-76200J0D01*
G01*
X155173800Y-67027300D02*
G75*
G02*
X155326200Y-67027300I76200J0D01*
G01*
%TO.C,R1*%
D11*
X158477500Y-62737258D02*
X158477500Y-62262742D01*
X159522500Y-62737258D02*
X159522500Y-62262742D01*
%TO.C,R2*%
X181162258Y-74772500D02*
X180687742Y-74772500D01*
X181162258Y-73727500D02*
X180687742Y-73727500D01*
%TD*%
M02*
